<svg width="443" height="427" viewBox="0 0 443 427" fill="none" xmlns="http://www.w3.org/2000/svg">
<path d="M181.333 1.33568C181.333 2.00234 185.467 2.40234 190.667 2.40234C195.733 2.40234 199.6 1.86901 199.333 1.20234C198.4 -0.13099 181.333 -0.13099 181.333 1.33568Z" fill="black"/>
<path d="M202.133 1.60156C202.533 2.26823 203.467 2.40156 204.133 2.00156C205.867 0.801562 205.6 0.401562 203.333 0.401562C202.267 0.401562 201.733 0.934896 202.133 1.60156Z" fill="black"/>
<path d="M210.667 1.33464C210.667 2.0013 213.067 2.66797 216 2.66797C218.933 2.66797 221.333 2.0013 221.333 1.33464C221.333 0.534635 218.933 0.00130194 216 0.00130194C213.067 0.00130194 210.667 0.534635 210.667 1.33464Z" fill="black"/>
<path d="M170.667 4.0026C170.667 4.66927 172.533 5.33594 174.8 5.33594C177.067 5.33594 178.533 4.8026 178 4.0026C177.6 3.2026 175.733 2.66927 173.867 2.66927C172.133 2.66927 170.667 3.2026 170.667 4.0026Z" fill="black"/>
<path d="M226.667 4.0026C226.667 4.66927 227.867 5.33594 229.333 5.33594C230.8 5.33594 232 4.66927 232 4.0026C232 3.2026 230.8 2.66927 229.333 2.66927C227.867 2.66927 226.667 3.2026 226.667 4.0026Z" fill="black"/>
<path d="M160.267 6.79948C160.534 7.59948 161.2 8.13281 161.734 8.13281C162.267 7.99948 164.267 7.99948 166.134 7.99948C170.8 7.99948 169.067 5.99948 164 5.59948C161.334 5.33281 160 5.86615 160.267 6.79948Z" fill="black"/>
<path d="M234.667 6.66667C234.667 7.33333 235.867 8 237.333 8C238.8 8 240 7.33333 240 6.66667C240 5.86667 238.8 5.33333 237.333 5.33333C235.867 5.33333 234.667 5.86667 234.667 6.66667Z" fill="black"/>
<path d="M152 9.6026C152 10.1359 150.8 10.6693 149.333 10.6693C147.867 10.6693 146.667 11.2026 146.667 12.0026C146.667 12.6693 147.867 13.3359 149.333 13.3359C150.8 13.3359 152 12.6693 152 12.0026C152 11.2026 153.867 10.6693 156 10.6693C158.267 10.6693 160 10.0026 160 9.33594C160 8.53594 158.267 8.13594 156 8.26927C153.867 8.4026 152 9.06927 152 9.6026Z" fill="black"/>
<path d="M245.333 9.33464C245.333 10.0013 246 10.668 246.667 10.668C247.467 10.668 248 10.0013 248 9.33464C248 8.53464 247.467 8.0013 246.667 8.0013C246 8.0013 245.333 8.53464 245.333 9.33464Z" fill="black"/>
<path d="M250.667 12.0017C250.667 12.6684 251.867 13.3351 253.333 13.3351C254.8 13.3351 256 13.8684 256 14.6684C256 15.3351 257.2 16.0017 258.533 16.0017C260 16.0017 261.333 16.8017 261.733 17.6017C262 18.5351 262.8 18.9351 263.333 18.4017C264.667 17.2017 260.8 13.3351 258.133 13.3351C256.933 13.3351 256 12.6684 256 12.0017C256 11.2017 254.8 10.6684 253.333 10.6684C251.867 10.6684 250.667 11.2017 250.667 12.0017Z" fill="black"/>
<path d="M140 15.9995C138.933 17.4661 137.2 18.6661 136.267 18.6661C135.2 18.6661 132.667 20.3995 130.667 22.6661C128.667 24.7995 126.267 26.6661 125.467 26.6661C123.2 26.6661 109.333 40.9328 109.333 43.1995C109.333 44.2661 108.533 45.3328 107.733 45.7328C106.4 46.2661 106.4 46.6661 107.733 48.1328C108.933 49.4661 109.333 49.4661 109.333 48.1328C109.333 47.3328 112.933 42.9328 117.467 38.5328C122.267 33.8661 125.067 29.9995 124.533 29.0661C124 28.1328 124.133 27.9995 125.067 28.5328C126 29.0661 128.133 27.9995 130 26.1328C131.867 24.1328 134 22.6661 134.667 22.6661C135.333 22.6661 137.333 21.1995 139.2 19.3328C141.067 17.4661 143.867 15.9995 145.333 15.9995C146.933 15.9995 147.733 15.3328 147.333 14.6661C146 12.3995 142 13.1995 140 15.9995Z" fill="black"/>
<path d="M264.933 19.4662C263.867 20.5329 267.2 23.9996 269.333 23.9996C270.133 23.9996 273.733 26.9329 277.333 30.6662C283.333 36.7996 288 39.1996 288 35.9996C288 35.1996 287.067 34.6662 285.867 34.6662C284.8 34.6662 280.933 31.5996 277.2 27.8662C273.6 24.2662 270.133 21.4662 269.467 21.9996C268.667 22.3996 267.6 21.7329 267.067 20.6662C266.4 19.4662 265.467 18.9329 264.933 19.4662Z" fill="black"/>
<path d="M197.333 33.3336C197.333 34.9336 204.8 34.9336 208.667 33.4669C210.533 32.6669 209.2 32.2669 204.4 32.2669C200.533 32.1336 197.333 32.6669 197.333 33.3336Z" fill="black"/>
<path d="M181.333 36.0026C181.333 36.6693 184.267 37.3359 188 37.3359C191.733 37.3359 194.667 36.8026 194.667 36.2693C194.667 35.6026 191.733 35.0693 188 34.8026C184 34.6693 181.333 35.0693 181.333 36.0026Z" fill="black"/>
<path d="M208.8 35.7349C208.4 36.4016 211.067 36.9349 214.8 37.2016C218.667 37.3349 221.333 36.9349 221.333 36.0016C221.333 34.4016 209.867 34.1349 208.8 35.7349Z" fill="black"/>
<path d="M173.333 38.6667C173.333 39.3333 174.533 40 175.867 40C177.333 40 178.933 39.3333 179.333 38.6667C179.867 37.8667 178.667 37.3333 176.8 37.3333C174.933 37.3333 173.333 37.8667 173.333 38.6667Z" fill="black"/>
<path d="M224 38.8013C224 39.6013 225.2 39.868 226.667 39.3346C228.533 38.668 229.333 39.068 229.333 40.5346C229.333 41.7346 230.533 42.668 232 42.668C233.467 42.668 234.667 42.0013 234.667 41.2013C234.667 40.4013 233.733 40.0013 232.667 40.5346C231.467 40.9346 230.667 40.5346 230.667 39.3346C230.667 38.1346 229.333 37.3346 227.333 37.3346C225.467 37.3346 224 38.0013 224 38.8013Z" fill="black"/>
<path d="M288 38.5337C288 39.2003 288.933 40.0003 289.867 40.4003C291.2 40.9337 291.6 40.5337 291.067 39.2003C290.267 37.2003 288 36.667 288 38.5337Z" fill="black"/>
<path d="M164.133 42.1364C163.2 43.203 162.8 44.5364 163.333 45.0697C163.866 45.603 164.666 45.203 164.933 44.2697C165.333 43.4697 167.066 42.6697 168.8 42.6697C170.666 42.6697 171.733 42.1364 171.333 41.3364C170.133 39.3364 166.266 39.8697 164.133 42.1364Z" fill="black"/>
<path d="M293.333 41.3333C293.333 41.8666 302.4 42.3999 313.467 42.5333C328 42.7999 333.333 42.3999 332.667 41.3333C331.6 39.7333 293.333 39.7333 293.333 41.3333Z" fill="black"/>
<path d="M236.934 43.4662C237.334 44.5329 238.667 45.3329 239.867 45.3329C241.067 45.3329 242.934 46.5329 244 47.9996C246 50.7996 250.667 51.7329 250.667 49.3329C250.667 48.5329 249.734 47.9996 248.534 47.9996C247.334 47.9996 246.934 47.3329 247.467 46.3996C248 45.5996 247.867 45.3329 246.934 45.8662C246.134 46.2662 244.8 45.8662 243.734 44.9329C241.067 42.2662 236 41.1996 236.934 43.4662Z" fill="black"/>
<path d="M160 43.7333C160 44.4 158.4 45.7333 156.4 46.8C151.333 49.3333 136 64.8 136 67.3333C136 68.4 135.467 69.3333 134.667 69.3333C134 69.3333 133.333 70.5333 133.333 72C133.333 73.4667 132.8 74.6667 132.133 74.6667C131.333 74.6667 130.933 75.8667 131.067 77.3333C131.2 78.8 131.733 80 132.267 80C132.8 80 133.333 78.8 133.333 77.3333C133.333 75.8667 134 74.6667 134.667 74.6667C135.467 74.6667 136 73.4667 136 72C136 70.5333 136.667 69.3333 137.333 69.3333C138.133 69.3333 138.667 68.4 138.667 67.3333C138.667 64.9333 152.533 50.6667 154.8 50.6667C155.6 50.6667 157.467 49.3333 158.8 47.7333C161.2 45.0667 162.133 42.6667 160.667 42.6667C160.267 42.6667 160 43.2 160 43.7333Z" fill="black"/>
<path d="M337.334 44.0008C339.734 45.6008 344 45.7342 344 44.2675C344 43.7342 342 43.0675 339.734 42.9342C336.4 42.6675 335.867 42.9342 337.334 44.0008Z" fill="black"/>
<path d="M346.667 46.6667C346.667 47.3333 347.867 48 349.333 48C350.8 48 352 47.3333 352 46.6667C352 45.8667 350.8 45.3333 349.333 45.3333C347.867 45.3333 346.667 45.8667 346.667 46.6667Z" fill="black"/>
<path d="M104 50.5337C104 52.0003 103.2 53.3337 102.4 53.7337C101.467 54.0003 101.067 54.8003 101.6 55.3337C102.8 56.667 106.667 52.8003 106.667 50.1337C106.667 48.9337 106.134 48.0003 105.334 48.0003C104.667 48.0003 104 49.2003 104 50.5337Z" fill="black"/>
<path d="M354.667 49.3346C354.667 50.0013 355.333 50.668 356 50.668C356.8 50.668 357.333 50.0013 357.333 49.3346C357.333 48.5346 356.8 48.0013 356 48.0013C355.333 48.0013 354.667 48.5346 354.667 49.3346Z" fill="black"/>
<path d="M359.6 51.4691C360 52.5358 361.067 53.3358 362.133 53.3358C363.2 53.3358 364 53.8691 364 54.6691C364 55.3358 364.933 56.0024 366 56.0024C367.067 56.0024 368 56.6691 368 57.4691C368 58.2691 368.667 58.6691 369.6 58.4024C370.4 58.1358 373.467 60.1358 376.267 62.9358C379.2 65.7358 382 67.7358 382.8 67.3358C384.8 66.0024 384.133 64.0024 381.867 64.0024C380.667 64.0024 378 62.1358 376 60.0024C374 57.7358 371.6 56.0024 370.8 56.0024C369.867 56.0024 368 54.8024 366.533 53.4691C362.933 50.1358 358.533 48.9358 359.6 51.4691Z" fill="black"/>
<path d="M256 55.6013C256 57.3346 256.667 58.668 257.333 58.668C259.067 58.668 259.067 57.2013 257.333 54.668C256.267 53.068 256 53.2013 256 55.6013Z" fill="black"/>
<path d="M98.6664 58.668C98.6664 60.1346 98.1331 61.3346 97.5998 61.3346C97.0664 61.3346 96.5331 62.5346 96.3998 64.0013C96.2664 65.468 96.6664 66.668 97.4664 66.668C98.1331 66.668 98.6664 65.7346 98.6664 64.5346C98.6664 63.468 99.5998 61.6013 100.666 60.4013C101.733 59.3346 102.4 57.868 102 57.2013C100.533 55.068 98.6664 55.868 98.6664 58.668Z" fill="black"/>
<path d="M250.667 59.869C250.667 60.669 251.867 61.069 253.2 60.9357C254.667 60.9357 255.467 60.269 255.2 59.7357C254.267 58.269 250.667 58.4023 250.667 59.869Z" fill="black"/>
<path d="M245.333 62.6667C245.333 63.3333 246.267 64 247.467 64C248.533 64 249.067 63.3333 248.667 62.6667C248.267 61.8667 247.333 61.3333 246.533 61.3333C245.867 61.3333 245.333 61.8667 245.333 62.6667Z" fill="black"/>
<path d="M239.467 66.0025C239.067 67.0691 237.867 67.6025 236.667 67.2025C235.6 66.8025 234.667 67.0691 234.667 67.8691C234.667 68.6691 233.467 69.3358 232 69.3358C230.534 69.3358 229.334 69.8691 229.334 70.6691C229.334 71.3358 228.134 72.0025 226.667 72.0025C225.2 72.0025 224 72.5358 224 73.3358C224 74.0025 222.8 74.6691 221.334 74.6691C219.867 74.6691 218.667 75.2025 218.667 76.0025C218.667 76.6691 217.467 77.3358 216 77.3358C214.534 77.3358 213.334 77.8691 213.334 78.6691C213.334 79.3358 212.134 80.0025 210.667 80.0025C207.867 80.0025 207.067 81.8691 209.2 83.3358C209.867 83.7358 211.334 83.0691 212.4 82.0025C213.6 80.9358 215.467 80.0025 216.534 80.0025C217.734 80.0025 218.667 79.3358 218.667 78.6691C218.667 77.8691 219.867 77.3358 221.334 77.3358C222.8 77.3358 224 76.9358 224 76.2691C224 75.2025 230.534 72.0025 232.934 72.0025C233.867 72.0025 234.667 71.3358 234.667 70.6691C234.667 69.8691 235.6 69.3358 236.8 69.3358C238.8 69.3358 242.667 66.2691 242.667 64.8025C242.667 63.2025 240.267 64.1358 239.467 66.0025Z" fill="black"/>
<path d="M384 68.0026C384 68.6693 384.667 69.3359 385.333 69.3359C386.133 69.3359 386.667 68.6693 386.667 68.0026C386.667 67.2026 386.133 66.6693 385.333 66.6693C384.667 66.6693 384 67.2026 384 68.0026Z" fill="black"/>
<path d="M95.5998 68.9361C95.0665 69.3361 91.9998 69.6028 88.6665 69.6028C85.3332 69.4694 82.6665 69.8694 82.6665 70.6694C82.6665 72.4028 95.7332 72.1361 96.7998 70.4028C97.7332 68.8028 96.7998 67.7361 95.5998 68.9361Z" fill="black"/>
<path d="M385.333 70.6681C383.6 71.7347 383.733 72.0014 385.867 72.0014C387.2 72.0014 389.467 73.3347 390.8 74.9347C392.267 76.4014 393.733 77.4681 394.133 76.9347C394.8 76.2681 388.933 69.3347 387.733 69.3347C387.467 69.3347 386.4 70.0014 385.333 70.6681Z" fill="black"/>
<path d="M72 73.3327C72 74.1327 74.2667 74.666 77.2 74.3994C80.1333 74.266 82.2667 73.7327 81.8667 73.066C80.8 71.466 72 71.7327 72 73.3327Z" fill="black"/>
<path d="M304 73.4691C304 74.1358 306.133 74.4025 308.667 74.0025C311.333 73.7358 313.067 74.0025 312.667 74.6691C312.267 75.3358 312.4 76.1358 313.067 76.5358C313.6 76.8025 314.8 76.1358 315.6 74.8025C316.933 72.8025 316.4 72.5358 310.533 72.4025C306.933 72.2691 304 72.8025 304 73.4691Z" fill="black"/>
<path d="M63.0664 76.4012C60.6664 77.2012 58.6664 78.4012 58.6664 78.9345C58.6664 79.4679 57.7331 80.0012 56.5331 80.0012C55.4664 80.0012 53.5998 80.9345 52.3998 82.0012C51.3331 83.0679 49.8664 83.7345 49.1998 83.3345C48.5331 82.8012 48.3998 83.4679 48.7998 84.6679C49.4664 86.1345 49.0664 86.5345 47.4664 85.8679C46.2664 85.4679 45.3331 85.7345 45.3331 86.5345C45.3331 87.3345 44.1331 88.0012 42.5331 88.0012C41.0664 88.0012 40.2664 88.5345 40.6664 89.3345C41.0664 90.0012 40.5331 90.6679 39.4664 90.6679C37.0664 90.6679 36.6664 92.6679 38.5331 94.0012C39.1998 94.4012 41.3331 93.2012 43.1998 91.3345C45.0664 89.4679 47.3331 88.0012 48.2664 88.0012C49.3331 88.0012 50.9331 86.8012 51.9998 85.3345C53.0664 83.8679 54.9331 82.6679 56.2664 82.6679C57.5998 82.6679 58.6664 82.0012 58.6664 81.3345C58.6664 80.5345 59.8664 80.0012 61.3331 80.0012C62.7998 80.0012 63.9998 79.3345 63.9998 78.6679C63.9998 77.8679 65.1998 77.3345 66.6664 77.3345C68.1331 77.3345 69.3331 76.6679 69.3331 76.0012C69.3331 74.5345 68.9331 74.5345 63.0664 76.4012Z" fill="black"/>
<path d="M293.333 76.0026C293.333 76.6693 295.867 77.3359 299.067 77.3359C303.2 77.3359 304.133 76.9359 302.667 76.0026C300 74.2693 293.333 74.2693 293.333 76.0026Z" fill="black"/>
<path d="M317.333 76.0026C317.333 76.6693 320.667 77.3359 324.8 77.3359C329.333 77.3359 331.867 76.8026 331.333 76.0026C330.933 75.2026 327.6 74.6693 323.867 74.6693C320.267 74.6693 317.333 75.2026 317.333 76.0026Z" fill="black"/>
<path d="M128 80.9359C128 83.3359 128.667 85.3359 129.333 85.3359C131.067 85.3359 131.067 81.3359 129.333 78.6693C128.4 77.2026 128 77.7359 128 80.9359Z" fill="black"/>
<path d="M284.4 79.0693C282 79.8693 280 81.0693 280 81.6026C280 82.1359 278.8 82.6693 277.333 82.6693C275.867 82.6693 274.667 83.2026 274.667 84.0026C274.667 84.6693 275.867 85.3359 277.333 85.3359C278.8 85.3359 280 84.6693 280 84.0026C280 83.2026 281.2 82.6693 282.667 82.6693C284.133 82.6693 285.333 82.0026 285.333 81.3359C285.333 80.5359 286.533 80.0026 288 80.0026C289.467 80.0026 290.667 79.3359 290.667 78.6693C290.667 77.2026 290.267 77.2026 284.4 79.0693Z" fill="black"/>
<path d="M335.333 78.6693C335.733 79.3359 337.333 80.0026 338.8 80.0026C340.133 80.0026 341.333 80.5359 341.333 81.3359C341.333 82.0026 342.4 82.6693 343.733 82.6693C345.067 82.6693 346.933 83.8693 348 85.3359C349.067 86.8026 350.667 88.0026 351.6 88.0026C354.133 88.0026 370.667 104.803 370.667 107.336C370.667 108.403 371.333 109.336 372 109.336C372.8 109.336 373.333 108.403 373.333 107.336C373.333 104.803 354.133 85.3359 351.6 85.3359C350.667 85.3359 349.067 84.1359 348 82.6693C346.933 81.2026 345.067 80.0026 343.733 80.0026C342.4 80.0026 341.333 79.3359 341.333 78.6693C341.333 77.8693 339.733 77.3359 337.867 77.3359C336 77.3359 334.8 77.8693 335.333 78.6693Z" fill="black"/>
<path d="M396.133 78.4C396.133 79.3333 395.467 79.7333 394.667 79.3333C392.267 77.8667 393.333 79.8667 396.667 83.2C398.533 85.0667 400 87.4667 400 88.6667C400 89.7333 400.667 90.6667 401.333 90.6667C402.133 90.6667 402.667 91.8667 402.667 93.3333C402.667 94.8 403.333 96 404 96C404.8 96 405.333 94.8 405.333 93.3333C405.333 91.8667 404.8 90.6667 404 90.6667C403.333 90.6667 402.667 89.7333 402.667 88.5333C402.667 87.3333 401.6 85.3333 400.133 84.1333C398.8 82.9333 397.333 80.8 396.933 79.3333C396.667 77.8667 396.267 77.4667 396.133 78.4Z" fill="black"/>
<path d="M202.667 84.0017C202.667 84.6684 201.733 85.3351 200.533 85.3351C197.867 85.3351 194 89.2017 195.333 90.4017C195.867 90.9351 196.667 90.5351 196.933 89.6017C197.333 88.8017 198.667 88.0017 200.133 88.0017C201.467 88.0017 202.667 87.3351 202.667 86.6684C202.667 85.8684 203.867 85.3351 205.333 85.3351C206.8 85.3351 208 84.6684 208 84.0017C208 83.2017 206.8 82.6684 205.333 82.6684C203.867 82.6684 202.667 83.2017 202.667 84.0017Z" fill="black"/>
<path d="M125.333 88.9333C125.333 91.3333 124.8 93.3333 124.133 93.3333C123.467 93.3333 122.667 96.5333 122.4 100.533C122.133 105.867 122.4 107.467 123.733 107.067C124.667 106.667 125.333 104 125.333 100.4C125.333 97.2 126 93.3333 126.667 91.8666C127.6 90.1333 127.733 88.5333 126.8 86.9333C125.6 85.0666 125.467 85.4666 125.333 88.9333Z" fill="black"/>
<path d="M269.333 86.6667C269.333 87.3333 270 88 270.667 88C271.467 88 272 87.3333 272 86.6667C272 85.8667 271.467 85.3333 270.667 85.3333C270 85.3333 269.333 85.8667 269.333 86.6667Z" fill="black"/>
<path d="M261.333 89.8664C259.467 90.9331 257.467 91.4664 256.8 91.0664C256.133 90.5331 256 90.9331 256.533 91.7331C257.733 93.7331 261.333 93.8664 261.333 91.9998C261.333 91.1998 262.533 90.6664 263.867 90.6664C265.333 90.6664 266.933 89.9998 267.333 89.3331C268.533 87.4664 265.2 87.7331 261.333 89.8664Z" fill="black"/>
<path d="M188.533 92.5344C188.133 93.6011 186.933 94.1344 185.866 93.7344C184.8 93.3344 184 93.7344 184 94.5344C184 95.3344 182.8 96.0011 181.333 96.0011C179.866 96.0011 178.666 96.5344 178.666 97.3344C178.666 98.0011 177.733 98.6677 176.533 98.6677C175.466 98.6677 173.6 99.6011 172.4 100.668C171.333 101.734 169.866 102.268 169.066 101.868C168.133 101.334 168 101.601 168.533 102.401C169.733 104.401 173.333 104.534 173.333 102.668C173.333 101.868 174.533 101.334 176 101.334C177.466 101.334 178.666 100.668 178.666 100.001C178.666 99.2011 179.866 98.6677 181.333 98.6677C182.8 98.6677 184 98.2677 184 97.6011C184 96.4011 192.133 92.5344 193.733 93.0677C194.4 93.2011 194.533 92.8011 194 92.0011C192.8 90.0011 189.333 90.4011 188.533 92.5344Z" fill="black"/>
<path d="M33.3332 95.9996C32.2665 97.4663 30.3998 98.6663 29.1998 98.6663C26.6665 98.6663 24.7998 102.133 26.6665 103.333C27.8665 104 37.3332 95.7329 37.3332 93.9996C37.3332 92.3996 35.0665 93.4663 33.3332 95.9996Z" fill="black"/>
<path d="M250.134 95.3365C248.667 96.4032 248 97.7365 248.534 98.2698C249.067 98.8032 250.134 98.2698 250.8 97.0698C251.467 95.7365 252.934 95.0698 254 95.4698C255.067 96.0032 256 95.6032 256 94.8032C256 92.8032 253.2 93.0698 250.134 95.3365Z" fill="black"/>
<path d="M406.267 95.6026C404.8 96.9359 405.2 101.336 406.667 101.336C407.467 101.336 408 99.8693 408 98.0026C408 94.5359 407.734 94.1359 406.267 95.6026Z" fill="black"/>
<path d="M243.067 99.868C241.867 101.335 240.133 102.135 239.2 101.735C238.133 101.335 237.333 101.735 237.333 102.535C237.333 103.335 236.133 104.001 234.667 104.001C233.2 104.001 232 104.535 232 105.335C232 106.001 230.8 106.668 229.333 106.668C227.867 106.668 226.667 107.068 226.667 107.735C226.667 108.268 224.933 109.468 222.667 110.401C218.8 112.135 217.2 114.668 220 114.668C220.8 114.668 221.333 114.001 221.333 113.335C221.333 112.535 222.533 112.001 224 112.001C225.467 112.001 226.667 111.335 226.667 110.668C226.667 109.868 227.867 109.335 229.333 109.335C230.8 109.335 232 108.668 232 108.001C232 107.201 233.2 106.668 234.667 106.668C236.133 106.668 237.333 106.001 237.333 105.335C237.333 104.535 238.267 104.001 239.467 104.001C241.333 104.001 246.667 99.3346 246.667 97.7346C246.667 96.668 245.067 97.6013 243.067 99.868Z" fill="black"/>
<path d="M92.0002 100C92.0002 100.667 90.5335 101.333 88.6668 101.333C86.8002 101.333 85.3335 101.867 85.3335 102.667C85.3335 103.333 86.5335 104 88.0002 104C89.4668 104 90.6668 104.933 90.6668 106C90.6668 107.067 91.3335 108 92.0002 108C92.8002 108 93.3335 105.867 93.3335 103.333C93.3335 100.8 93.0668 98.6667 92.6668 98.6667C92.2668 98.6667 92.0002 99.2 92.0002 100Z" fill="black"/>
<path d="M407.6 102.135C406.533 103.201 408 106.668 409.467 106.668C410.133 106.668 410.667 105.468 410.667 104.001C410.667 101.468 409.2 100.535 407.6 102.135Z" fill="black"/>
<path d="M21.7334 107.333C20 109.067 18.6667 111.467 18.6667 112.533C18.6667 113.6 17.8667 114.667 17.0667 115.067C16.1334 115.333 15.7334 116.133 16.2667 116.667C17.4667 117.867 21.3334 114.133 21.3334 111.733C21.3334 110.667 22.5334 109.067 24 108C26.6667 106.133 27.6 103.867 25.7334 104.133C25.0667 104.133 23.3334 105.6 21.7334 107.333Z" fill="black"/>
<path d="M77.3332 105.335C77.3332 106.001 76.1332 106.668 74.6666 106.668C73.1999 106.668 71.9999 107.201 71.9999 108.001C71.9999 108.668 71.0666 109.335 69.9999 109.335C68.7999 109.335 66.6666 110.535 65.0666 112.001C62.5332 114.268 62.5332 114.668 64.3999 114.668C65.5999 114.668 66.6666 114.001 66.6666 113.335C66.6666 112.535 67.8666 112.001 69.3332 112.001C70.7999 112.001 71.9999 111.601 71.9999 110.935C71.9999 109.868 78.3999 106.668 80.7999 106.668C81.7332 106.668 82.9332 106.001 83.3332 105.335C83.8666 104.535 82.6666 104.001 80.7999 104.001C78.9332 104.001 77.3332 104.535 77.3332 105.335Z" fill="black"/>
<path d="M165.333 105.335C165.333 106.001 166 106.668 166.667 106.668C167.467 106.668 168 106.001 168 105.335C168 104.535 167.467 104.001 166.667 104.001C166 104.001 165.333 104.535 165.333 105.335Z" fill="black"/>
<path d="M160 156.534C160 187.734 160.4 204.134 161.333 203.201C163.333 201.201 163.733 108.401 161.733 108.401C160.4 108.401 160 118.934 160 156.534Z" fill="black"/>
<path d="M374 109.336C373.333 110.536 373.467 111.336 374.4 111.736C375.333 112.003 376 113.336 376 114.803C376 116.136 376.667 117.336 377.333 117.336C378.133 117.336 378.533 117.736 378.533 118.269C378.4 118.936 378.4 120.669 378.533 122.269C378.667 126.003 381.333 126.403 381.333 122.669C381.333 121.203 380.8 120.003 380.267 120.003C379.733 120.003 379.067 118.403 378.933 116.403C378.8 114.403 378.133 112.536 377.467 112.136C376.933 111.736 376.133 110.403 375.733 109.336C375.2 107.736 374.933 107.736 374 109.336Z" fill="black"/>
<path d="M411.6 108.934C410 110.401 410.533 114.401 412.4 115.068C413.733 115.601 414 114.668 413.6 111.868C412.933 107.734 412.933 107.601 411.6 108.934Z" fill="black"/>
<path d="M90.6665 157.336C90.6665 189.203 91.0665 205.336 91.9998 205.336C92.9332 205.336 93.3332 189.203 93.3332 157.336C93.1998 127.869 92.6665 109.336 91.9998 109.336C91.1998 109.336 90.6665 127.869 90.6665 157.336Z" fill="black"/>
<path d="M214.133 115.335C213.067 116.402 211.467 117.335 210.667 117.335C208.4 117.335 204.8 121.335 206 122.402C206.533 122.935 207.333 122.535 207.6 121.602C208 120.802 209.2 120.002 210.267 120.002C212 120.002 217.333 115.335 217.333 113.735C217.333 112.802 216.133 113.468 214.133 115.335Z" fill="black"/>
<path d="M53.7335 120.668C50.5335 124.001 48.0002 127.468 48.0002 128.534C48.0002 129.601 47.2002 130.668 46.4002 131.068C45.4669 131.334 45.0669 132.134 45.6002 132.668C46.6669 133.868 50.6669 130.268 50.6669 128.001C50.6669 127.201 53.0669 124.134 56.0002 121.334C58.9335 118.534 61.3335 115.868 61.3335 115.468C61.3335 113.601 58.9335 115.201 53.7335 120.668Z" fill="black"/>
<path d="M280 115.733C280 116.266 278.267 117.466 276 118.4C273.867 119.466 272 120.8 272 121.466C272 123.466 276.4 122.266 278.8 119.6C280 118.4 282 117.333 283.2 117.333C284.4 117.333 285.333 116.666 285.333 116C285.333 115.2 284.133 114.666 282.667 114.666C281.2 114.666 280 115.066 280 115.733Z" fill="black"/>
<path d="M290 116.003C289.6 116.669 290.133 117.336 291.2 117.336C292.4 117.336 293.333 116.669 293.333 116.003C293.333 115.203 292.8 114.669 292.133 114.669C291.333 114.669 290.4 115.203 290 116.003Z" fill="black"/>
<path d="M13.3332 120C13.3332 121.467 12.7998 122.667 11.9998 122.667C11.3332 122.667 10.6665 123.867 10.6665 125.333C10.6665 126.8 11.3332 128 11.9998 128C12.7998 128 13.3332 126.8 13.3332 125.333C13.3332 123.867 13.9998 122.667 14.6665 122.667C15.4665 122.667 15.9998 121.467 15.9998 120C15.9998 118.533 15.4665 117.333 14.6665 117.333C13.9998 117.333 13.3332 118.533 13.3332 120Z" fill="black"/>
<path d="M294.667 118.669C294.667 119.336 295.6 120.002 296.667 120.002C297.733 120.002 298.667 120.536 298.667 121.069C298.667 123.202 305.6 125.602 307.2 124.002C308.133 123.069 307.867 122.669 306.267 122.669C305.067 122.669 304 122.002 304 121.336C304 120.536 302.8 120.002 301.333 120.002C299.867 120.002 298.667 119.336 298.667 118.669C298.667 117.869 297.733 117.336 296.667 117.336C295.6 117.336 294.667 117.869 294.667 118.669Z" fill="black"/>
<path d="M414.267 118.267C412.8 119.6 413.2 124 414.667 124C415.467 124 416 122.533 416 120.667C416 117.2 415.734 116.8 414.267 118.267Z" fill="black"/>
<path d="M265.6 123.603C263.2 124.803 261.333 126.136 261.333 126.803C261.333 127.469 260.133 128.003 258.667 128.003C257.2 128.003 256 128.536 256 129.336C256 130.003 254.8 130.669 253.333 130.669C251.867 130.669 250.667 131.203 250.667 132.003C250.667 132.669 251.867 133.336 253.333 133.336C254.8 133.336 256 132.669 256 132.003C256 131.203 257.2 130.669 258.667 130.669C260.133 130.669 261.333 130.003 261.333 129.336C261.333 128.536 262.533 128.003 264 128.003C265.467 128.003 266.667 127.336 266.667 126.669C266.667 125.869 267.867 125.336 269.333 125.336C270.8 125.336 272 124.803 272 124.136C272 121.736 269.867 121.469 265.6 123.603Z" fill="black"/>
<path d="M200 124.003C200 124.669 200.667 125.336 201.333 125.336C202.133 125.336 202.667 124.669 202.667 124.003C202.667 123.203 202.133 122.669 201.333 122.669C200.667 122.669 200 123.203 200 124.003Z" fill="black"/>
<path d="M194.667 126.667C194.667 127.333 195.333 128 196 128C196.8 128 197.333 127.333 197.333 126.667C197.333 125.867 196.8 125.333 196 125.333C195.333 125.333 194.667 125.867 194.667 126.667Z" fill="black"/>
<path d="M306.667 126.67C306.667 127.336 307.867 128.003 309.333 128.003C310.8 128.003 312 128.536 312 129.336C312 130.003 313.2 130.67 314.533 130.67C316 130.67 317.333 131.47 317.733 132.27C318 133.203 318.8 133.603 319.333 133.07C320.667 131.87 316.8 128.003 314.133 128.003C312.933 128.003 312 127.336 312 126.67C312 125.87 310.8 125.336 309.333 125.336C307.867 125.336 306.667 125.87 306.667 126.67Z" fill="black"/>
<path d="M381.6 144.267C382 161.734 382 162 379.066 162.4C377.333 162.667 376 162.267 376 161.467C376 160.667 374.8 160 373.333 160C371.866 160 370.666 159.334 370.666 158.667C370.666 157.867 369.466 157.334 368.133 157.334C366.666 157.334 365.066 157.867 364.666 158.667C364.266 159.334 364.8 160 365.866 160C367.066 160 368 160.667 368 161.467C368 162.134 368.533 162.534 369.2 162C369.866 161.6 371.2 162.134 372.266 163.067C374.533 165.2 383.333 166.134 382.133 164.134C381.6 163.334 381.733 162.667 382.533 162.667C383.333 162.667 383.866 155.6 383.866 144.667C384 132.534 383.6 126.667 382.533 126.667C381.6 126.667 381.333 132.267 381.6 144.267Z" fill="black"/>
<path d="M7.99984 130.669C7.99984 132.136 7.4665 133.336 6.6665 133.336C5.99984 133.336 5.33317 134.536 5.33317 136.003C5.33317 137.469 4.79984 138.669 3.99984 138.669C3.33317 138.669 2.6665 141.069 2.6665 144.003C2.6665 146.936 3.33317 149.336 3.99984 149.336C4.79984 149.336 5.33317 148.003 5.33317 146.403C5.33317 142.669 8.2665 134.536 10.3998 132.269C12.1332 130.403 11.4665 128.003 9.19984 128.003C8.53317 128.003 7.99984 129.203 7.99984 130.669Z" fill="black"/>
<path d="M189.333 148C189.333 165.333 189.6 168 191.467 168C193.467 168 197.333 164.933 197.333 163.467C197.333 163.067 196.133 162.667 194.667 162.667C192.133 162.667 192 161.733 191.867 146.267C191.733 137.333 191.733 129.6 191.867 128.933C191.867 128.4 191.467 128 190.667 128C189.867 128 189.333 135.6 189.333 148Z" fill="black"/>
<path d="M416.133 145.335C416.133 154.801 416.533 162.668 417.2 162.668C417.867 162.668 418.4 154.801 418.533 145.335C418.533 135.735 418 128.001 417.333 128.001C416.667 128.001 416.133 135.735 416.133 145.335Z" fill="black"/>
<path d="M42.9332 134.002C43.4666 134.535 43.3332 136.135 42.5332 137.469C41.5999 139.469 41.7332 139.735 43.3332 139.202C45.7332 138.269 45.9999 135.202 43.7332 133.869C42.7999 133.335 42.3999 133.335 42.9332 134.002Z" fill="black"/>
<path d="M247.467 135.334C247.067 136.401 245.867 136.934 244.667 136.534C243.6 136.134 242.667 136.401 242.667 137.201C242.667 138.001 241.467 138.667 240 138.667C238.533 138.667 237.333 139.201 237.333 140.001C237.333 140.667 236.533 141.334 235.6 141.334C234.667 141.334 232.533 142.534 230.933 144.001C229.333 145.467 226.8 146.667 225.333 146.667C223.733 146.667 222.933 147.201 223.333 148.001C224.667 150.267 228.267 149.467 231.2 146.267C232.667 144.667 234.667 143.334 235.333 143.201C238.4 142.801 242.667 140.934 242.667 139.867C242.667 139.201 243.6 138.667 244.8 138.667C246.8 138.667 250.667 135.601 250.667 134.134C250.667 132.534 248.267 133.467 247.467 135.334Z" fill="black"/>
<path d="M322.667 134.133C322.667 135.6 326.533 138.667 328.533 138.667C329.733 138.667 330.667 139.2 330.667 140C330.667 140.667 331.867 141.333 333.333 141.333C334.8 141.333 336 141.867 336 142.667C336 143.333 337.067 144 338.267 144C340.133 144 340.133 143.6 337.6 141.333C336 139.867 333.867 138.667 332.667 138.667C331.6 138.667 330.667 138 330.667 137.333C330.667 136.533 329.467 136 328 136C326.533 136 325.333 135.333 325.333 134.667C325.333 133.867 324.8 133.333 324 133.333C323.333 133.333 322.667 133.733 322.667 134.133Z" fill="black"/>
<path d="M122.4 140.934C123.333 141.334 124.533 141.201 124.933 140.801C125.467 140.401 124.667 140.001 123.2 140.134C121.733 140.134 121.333 140.534 122.4 140.934Z" fill="black"/>
<path d="M40.0002 144.003C40.0002 145.469 39.4668 146.669 38.6668 146.669C38.0002 146.669 37.3335 149.069 37.3335 152.003C37.3335 154.936 38.0002 157.336 38.6668 157.336C39.4668 157.336 40.0002 154.936 40.0002 152.003C40.0002 149.069 40.6668 146.669 41.3335 146.669C42.1335 146.669 42.6668 145.469 42.6668 144.003C42.6668 142.536 42.1335 141.336 41.3335 141.336C40.6668 141.336 40.0002 142.536 40.0002 144.003Z" fill="black"/>
<path d="M341.333 144.803C341.333 146.536 345.6 149.47 347.2 148.936C348.267 148.536 349.467 149.07 349.867 150.136C350.667 152.27 354.667 152.67 354.667 150.67C354.667 149.87 353.733 149.336 352.667 149.336C351.6 149.336 350.667 148.67 350.667 148.003C350.667 147.203 349.2 146.67 347.333 146.67C345.467 146.67 344 146.003 344 145.336C344 144.536 343.467 144.003 342.667 144.003C342 144.003 341.333 144.403 341.333 144.803Z" fill="black"/>
<path d="M216 150.669C216 151.336 215.067 152.003 213.867 152.003C211.867 152.003 208 155.069 208 156.536C208 156.936 208.933 157.336 210 157.336C211.067 157.336 212 156.669 212 156.003C212 155.203 212.933 154.669 214 154.669C215.067 154.669 216 154.003 216 153.336C216 152.536 217.6 152.003 219.467 152.003C221.333 152.003 222.533 151.469 222 150.669C221.6 149.869 220 149.336 218.533 149.336C217.2 149.336 216 149.869 216 150.669Z" fill="black"/>
<path d="M282.667 150.67C282.667 151.336 281.733 152.003 280.533 152.003C277.867 152.003 274 155.87 275.333 157.07C275.867 157.603 276.667 157.203 276.933 156.27C277.333 155.47 278.667 154.67 280.133 154.67C281.467 154.67 282.667 154.003 282.667 153.336C282.667 152.536 283.867 152.003 285.333 152.003C286.8 152.003 288 151.336 288 150.67C288 149.87 286.8 149.336 285.333 149.336C283.867 149.336 282.667 149.87 282.667 150.67Z" fill="black"/>
<path d="M290.267 152.801C291.067 154.934 292.8 155.201 293.867 153.468C294.267 152.801 293.467 152.001 292.133 151.601C290.267 151.201 289.733 151.468 290.267 152.801Z" fill="black"/>
<path d="M355.333 153.336C354.933 154.003 355.733 154.669 357.2 154.669C358.8 154.669 360 155.203 360 156.003C360 156.669 361.2 157.336 362.666 157.336C364.133 157.336 365.333 156.669 365.333 156.003C365.333 155.203 364.133 154.669 362.666 154.669C361.2 154.669 360 154.003 360 153.336C360 152.536 359.2 152.003 358.133 152.003C357.066 152.003 355.733 152.536 355.333 153.336Z" fill="black"/>
<path d="M0 166.668C0 173.735 0.533333 178.668 1.33333 178.668C2.13333 178.668 2.66667 173.735 2.66667 166.668C2.66667 159.601 2.13333 154.668 1.33333 154.668C0.533333 154.668 0 159.601 0 166.668Z" fill="black"/>
<path d="M293.333 156C293.333 156.667 294.533 157.333 296 157.333C297.467 157.333 298.667 157.867 298.667 158.667C298.667 159.333 299.867 160 301.2 160C302.667 160 304.267 159.333 304.667 158.667C305.067 157.867 304.267 157.333 302.8 157.333C301.333 157.333 299.733 156.667 299.333 156C298.933 155.2 297.333 154.667 295.867 154.667C294.533 154.667 293.333 155.2 293.333 156Z" fill="black"/>
<path d="M270.667 157.335C269.6 158.002 269.2 158.935 269.733 159.469C270.267 160.002 271.467 159.735 272.267 158.935C274.267 156.935 273.2 155.735 270.667 157.335Z" fill="black"/>
<path d="M201.467 159.468C200.533 160.535 200.133 161.868 200.667 162.402C201.2 162.935 202 162.535 202.267 161.602C202.667 160.802 204.133 160.002 205.733 160.002C208.133 160.002 208.267 159.735 206.667 158.668C204 156.935 203.733 157.068 201.467 159.468Z" fill="black"/>
<path d="M36.2666 159.867C34.2666 161.067 34.2666 176 36.2666 176C36.9333 176 37.1999 173.733 36.9333 170.933C36.6666 168.267 36.9333 164.4 37.4666 162.267C37.9999 160.267 38.3999 158.667 38.2666 158.667C38.1333 158.667 37.1999 159.2 36.2666 159.867Z" fill="black"/>
<path d="M264 160.002L260.667 160.935L264.4 162.002C268.4 163.069 270.667 162.002 268.533 160.135C267.867 159.602 265.867 159.469 264 160.002Z" fill="black"/>
<path d="M304 161.467C304 162.267 304.933 162.534 306 162.134C307.2 161.734 308.4 162.267 308.8 163.334C309.333 164.4 310.667 165.334 312 165.334C313.333 165.334 314.667 166.134 315.067 166.934C315.333 167.867 316.133 168.267 316.667 167.734C318 166.534 314.133 162.667 311.467 162.667C310.267 162.667 309.333 162 309.333 161.334C309.333 160.534 308.133 160 306.667 160C305.2 160 304 160.667 304 161.467Z" fill="black"/>
<path d="M258.667 164.003C258.667 164.669 259.333 165.336 260 165.336C260.8 165.336 261.333 164.669 261.333 164.003C261.333 163.203 260.8 162.669 260 162.669C259.333 162.669 258.667 163.203 258.667 164.003Z" fill="black"/>
<path d="M253.333 166.667C253.333 167.333 253.867 168 254.533 168C255.333 168 256.267 167.333 256.667 166.667C257.067 165.867 256.533 165.333 255.467 165.333C254.267 165.333 253.333 165.867 253.333 166.667Z" fill="black"/>
<path d="M318.133 167.603C316.533 169.203 317.333 170.403 320.533 170.936C322.8 171.336 323.6 171.069 323.067 169.869C322.4 167.869 319.333 166.536 318.133 167.603Z" fill="black"/>
<path d="M256 168.803C256 170.403 259.467 172.936 262.933 173.736C264.933 174.269 267.333 175.603 268.533 176.669C269.6 177.736 271.467 178.669 272.533 178.669C273.733 178.669 274.667 179.203 274.667 179.869C274.667 180.536 276.533 181.736 278.667 182.669C280.933 183.603 282.667 184.803 282.667 185.469C282.667 186.136 283.867 186.669 285.333 186.669C286.8 186.669 288 187.203 288 188.003C288 188.669 289.2 189.336 290.667 189.336C292.133 189.336 293.333 189.869 293.333 190.669C293.333 191.336 294.267 192.003 295.467 192.003C296.533 192.003 297.2 192.536 296.8 193.069C296.533 193.603 297.333 194.269 298.8 194.269C300.133 194.403 301.333 194.136 301.333 193.869C301.333 192.669 298 190.003 296 189.603C294.933 189.336 293.867 188.536 293.6 187.869C293.333 187.203 292.133 186.669 291.067 186.669C289.867 186.669 288 185.603 286.8 184.269C285.6 183.069 283.733 181.869 282.667 181.603C281.6 181.336 280.533 180.536 280.267 179.869C280 179.203 278.667 178.669 277.2 178.669C275.867 178.669 274.667 178.003 274.667 177.336C274.667 176.536 273.467 176.003 272 176.003C270.533 176.003 269.333 175.336 269.333 174.669C269.333 173.869 268.133 173.336 266.667 173.336C265.2 173.336 264 172.669 264 172.003C264 171.203 262.8 170.669 261.333 170.669C259.867 170.669 258.667 170.003 258.667 169.336C258.667 168.536 258.133 168.003 257.333 168.003C256.667 168.003 256 168.403 256 168.803Z" fill="black"/>
<path d="M413.333 170.669C413.333 172.136 414 173.336 414.667 173.336C415.467 173.336 416 172.136 416 170.669C416 169.203 415.467 168.003 414.667 168.003C414 168.003 413.333 169.203 413.333 170.669Z" fill="black"/>
<path d="M325.333 171.466C325.333 171.866 326.267 173.066 327.467 174.266C328.933 175.866 329.867 175.999 331.067 174.799C332.133 173.733 332 173.333 330.267 173.333C329.067 173.333 328 172.666 328 171.999C328 171.199 327.467 170.666 326.667 170.666C326 170.666 325.333 171.066 325.333 171.466Z" fill="black"/>
<path d="M410.667 176.668C410.667 177.735 411.2 178.668 412 178.668C412.667 178.668 412.933 177.735 412.533 176.668C412 175.601 411.467 174.668 411.2 174.668C410.933 174.668 410.667 175.601 410.667 176.668Z" fill="black"/>
<path d="M332.666 177.335C332.266 178.002 332.8 178.668 333.866 178.668C335.066 178.668 336 179.202 336 180.002C336 180.668 337.2 181.335 338.666 181.335C340.133 181.335 341.333 181.868 341.333 182.668C341.333 183.335 342.533 184.002 343.866 184.002C345.333 184.002 346.666 184.802 347.066 185.602C347.333 186.535 348.133 186.935 348.666 186.402C350 185.202 346.133 181.335 343.466 181.335C342.266 181.335 341.333 180.668 341.333 180.002C341.333 179.202 340.133 178.668 338.666 178.668C337.2 178.668 336 178.002 336 177.335C336 176.535 335.466 176.002 334.8 176.002C334 176.002 333.066 176.535 332.666 177.335Z" fill="black"/>
<path d="M37.0665 182.135C37.3332 184.668 38.1332 186.668 38.7998 186.668C40.6665 186.668 40.1332 179.068 38.2665 178.268C37.0665 177.868 36.6665 178.935 37.0665 182.135Z" fill="black"/>
<path d="M2.6665 188.002C2.6665 191.602 3.33317 194.669 3.99984 194.669C4.79984 194.669 5.33317 196.402 5.33317 198.535C5.33317 200.802 5.99984 202.935 6.6665 203.335C7.4665 203.735 7.99984 205.602 7.99984 207.469C7.99984 209.202 8.6665 210.669 9.33317 210.669C10.1332 210.669 10.6665 211.869 10.6665 213.469C10.6665 214.935 11.3332 215.735 11.9998 215.335C12.7998 214.935 13.3332 215.469 13.3332 216.535C13.3332 217.735 13.9998 218.669 14.6665 218.669C15.4665 218.669 15.9998 219.869 15.9998 221.335C15.9998 222.802 16.6665 224.002 17.3332 224.002C18.1332 224.002 18.6665 225.335 18.6665 226.935C18.7998 229.869 18.7998 229.869 20.2665 227.469C21.3332 225.469 21.3332 224.669 20.2665 224.269C19.3332 224.002 18.6665 222.669 18.6665 221.202C18.6665 219.869 18.1332 218.669 17.3332 218.669C16.6665 218.669 15.9998 217.469 15.9998 216.002C15.9998 214.535 15.4665 213.335 14.6665 213.335C13.9998 213.335 13.3332 212.402 13.3332 211.335C13.3332 210.269 12.7998 209.335 11.9998 209.335C11.3332 209.335 10.6665 207.869 10.6665 206.002C10.6665 204.135 10.1332 202.669 9.33317 202.669C8.6665 202.669 7.99984 200.802 7.99984 198.669C7.99984 196.402 7.4665 194.669 6.6665 194.669C5.99984 194.669 5.33317 191.602 5.33317 188.002C5.33317 184.269 4.79984 181.335 3.99984 181.335C3.33317 181.335 2.6665 184.269 2.6665 188.002Z" fill="black"/>
<path d="M408 185.203C408 187.336 408.8 189.336 409.733 189.736C410.933 190.136 411.333 189.07 410.933 185.87C410.267 180.403 408 179.87 408 185.203Z" fill="black"/>
<path d="M214.667 186.534C213.734 188 212.534 189.2 212.134 189.067C209.2 188.8 206.8 189.734 203.467 192.667C201.334 194.4 199.067 195.6 198.267 195.067C197.467 194.667 197.334 194.934 197.867 195.734C199.067 197.734 202.667 197.867 202.667 196C202.667 195.2 203.6 194.667 204.8 194.667C206 194.667 208 193.6 209.2 192.267C210.4 191.067 212.267 189.867 213.334 189.6C214.4 189.334 215.6 188.534 215.734 187.867C216.667 185.467 226 186.534 228 189.334C229.067 190.8 230.934 192 232.267 192C233.6 192 234.667 192.534 234.667 193.334C234.667 194 235.867 194.667 237.334 194.667C238.8 194.667 240 195.2 240 196C240 196.667 241.2 197.334 242.534 197.334C244 197.334 245.334 198.134 245.734 198.934C246 199.867 246.8 200.267 247.334 199.734C248.667 198.534 244.8 194.667 242.134 194.667C240.934 194.667 240 194 240 193.334C240 192.534 238.8 192 237.334 192C235.867 192 234.667 191.334 234.667 190.667C234.667 189.867 233.734 189.334 232.667 189.334C231.6 189.334 230.667 188.667 230.667 188C230.667 187.2 229.734 186.667 228.667 186.667C227.6 186.667 226.667 186 226.667 185.334C226.667 182.8 216.667 183.867 214.667 186.534Z" fill="black"/>
<path d="M122.667 187.47C122.667 188.803 126.8 192.27 127.6 191.603C128 191.203 127.333 189.87 126.267 188.67C124.133 186.67 122.667 186.137 122.667 187.47Z" fill="black"/>
<path d="M352 188.003C352 188.669 352.533 189.336 353.2 189.336C354 189.336 354.933 188.669 355.333 188.003C355.733 187.203 355.2 186.669 354.133 186.669C352.933 186.669 352 187.203 352 188.003Z" fill="black"/>
<path d="M354.667 190.668C354.667 191.335 355.6 192.001 356.8 192.001C358 192.001 360.133 193.335 361.467 194.935C362.933 196.401 364.4 197.468 364.8 196.935C366 195.735 359.2 189.335 356.667 189.335C355.6 189.335 354.667 189.868 354.667 190.668Z" fill="black"/>
<path d="M41.0667 191.468C39.4667 192.935 39.7333 197.335 41.3333 197.335C42.1333 197.335 42.6667 198.402 42.6667 199.868C42.6667 203.068 46 209.602 47.0667 208.402C48.5333 207.068 48.1333 202.668 46.6667 202.668C46 202.668 45.3333 201.468 45.3333 200.002C45.3333 198.535 44.8 197.335 44.1333 197.335C43.4667 197.335 42.6667 195.735 42.4 193.868C42.1333 192.002 41.6 190.935 41.0667 191.468Z" fill="black"/>
<path d="M130.667 193.335C130.667 194.001 131.333 194.668 132 194.668C132.8 194.668 133.333 194.001 133.333 193.335C133.333 192.535 132.8 192.001 132 192.001C131.333 192.001 130.667 192.535 130.667 193.335Z" fill="black"/>
<path d="M413.333 193.333C413.333 194 414 194.667 414.667 194.667C415.467 194.667 416 195.733 416 197.067C416 198.4 417.2 200.267 418.667 201.333C420.133 202.4 421.333 204.267 421.333 205.6C421.333 206.933 422 208 422.667 208C423.467 208 424 208.8 424 209.733C424 210.667 425.2 212.8 426.667 214.4C428.133 216 429.333 218.133 429.333 219.333C429.333 220.4 430 221.333 430.667 221.333C431.467 221.333 432 222.533 432 224C432 225.467 432.667 226.667 433.333 226.667C434.133 226.667 434.667 228.4 434.667 230.667C434.667 232.8 435.333 234.667 436 234.667C436.8 234.667 437.333 237.6 437.333 241.333C437.333 244.933 438 248 438.667 248C439.467 248 440 244.933 440 241.333C440 237.6 439.467 234.667 438.667 234.667C438 234.667 437.333 232.8 437.333 230.667C437.333 228.4 436.8 226.667 436 226.667C435.333 226.667 434.667 225.467 434.667 224C434.667 222.533 434.133 221.333 433.333 221.333C432.667 221.333 432 220.4 432 219.2C432 218 430.933 216 429.733 214.8C428.4 213.6 427.2 211.733 426.933 210.667C426.667 209.6 425.867 208.4 425.2 208.267C424.533 208 424 206.8 424 205.467C424 204.267 422.8 202.4 421.333 201.333C419.867 200.267 418.667 198.667 418.667 197.6C418.667 195.867 415.6 192 414.133 192C413.733 192 413.333 192.533 413.333 193.333Z" fill="black"/>
<path d="M303.333 196.003C303.733 196.669 304.667 197.336 305.467 197.336C306.133 197.336 306.667 196.669 306.667 196.003C306.667 195.203 305.733 194.669 304.533 194.669C303.467 194.669 302.933 195.203 303.333 196.003Z" fill="black"/>
<path d="M138.667 198.402C138.667 199.068 139.6 199.602 140.667 199.602C141.733 199.602 142.667 199.068 142.667 198.402C142.667 197.868 141.733 197.335 140.667 197.335C139.6 197.335 138.667 197.868 138.667 198.402Z" fill="black"/>
<path d="M308.666 198.667C308.266 199.334 308.8 200.001 309.866 200.001C311.066 200.001 312 200.534 312 201.334C312 202.001 313.2 202.667 314.666 202.667C316.133 202.667 317.333 203.201 317.333 204.001C317.333 204.667 318.533 205.334 320 205.334C321.466 205.334 322.667 205.867 322.667 206.667C322.667 207.334 323.6 208.001 324.8 208.001C326 208.001 328 209.067 329.2 210.267C330.4 211.601 332.267 212.801 333.333 213.067C334.4 213.334 335.6 214.134 335.733 214.801C336.4 216.401 341.333 216.401 341.333 214.667C341.333 213.867 340.133 213.334 338.667 213.334C337.2 213.334 336 212.667 336 212.001C336 211.201 334.8 210.667 333.333 210.667C331.867 210.667 330.667 210.134 330.667 209.467C330.667 208.801 328.933 207.601 326.667 206.667C324.533 205.734 322.667 204.534 322.667 203.867C322.667 203.201 321.466 202.667 320 202.667C318.533 202.667 317.333 202.001 317.333 201.334C317.333 200.534 316.133 200.001 314.666 200.001C313.2 200.001 312 199.334 312 198.667C312 197.867 311.466 197.334 310.8 197.334C310 197.334 309.066 197.867 308.666 198.667Z" fill="black"/>
<path d="M368 198.135C368 199.335 373.467 204.002 374.8 204.002C375.467 204.002 378.133 206.135 380.667 208.802C383.333 211.469 385.867 213.202 386.267 212.802C387.2 211.869 376 201.202 374.8 201.869C374.267 202.269 372.933 201.335 372 199.869C370.133 197.469 368 196.402 368 198.135Z" fill="black"/>
<path d="M144 201.335C144 202.001 144.667 202.668 145.333 202.668C146.133 202.668 146.667 202.001 146.667 201.335C146.667 200.535 146.133 200.001 145.333 200.001C144.667 200.001 144 200.535 144 201.335Z" fill="black"/>
<path d="M189.333 211.335C189.333 218.669 189.867 222.535 190.667 222.002C191.467 221.602 192 216.802 192 211.335C192 205.869 191.467 201.069 190.667 200.669C189.867 200.135 189.333 204.002 189.333 211.335Z" fill="black"/>
<path d="M251.067 201.867C252.933 203.333 253.333 205.867 253.333 217.867C253.333 226.8 253.867 232 254.667 232C255.6 232 256 226.933 255.867 217.733C255.733 203.467 254.533 200 250.4 200C249.2 200.133 249.467 200.667 251.067 201.867Z" fill="black"/>
<path d="M149.333 203.469C149.333 203.869 150.267 205.069 151.333 206.135C153.467 208.402 153.733 208.002 152.533 204.802C151.733 202.802 149.333 201.735 149.333 203.469Z" fill="black"/>
<path d="M154.667 206.667C154.667 207.333 155.333 208 156 208C156.8 208 157.333 207.333 157.333 206.667C157.333 205.867 156.8 205.333 156 205.333C155.333 205.333 154.667 205.867 154.667 206.667Z" fill="black"/>
<path d="M48 210.668C48 212.135 48.9333 213.335 50 213.335C51.0667 213.335 52 213.868 52 214.668C52 215.335 52.6667 216.002 53.4667 216.002C54.2667 216.002 57.0667 218.268 59.7333 221.068C64.9333 226.535 70.4 230.002 71.6 228.802C72.5333 227.868 68.5333 224.002 66.6667 224.002C65.8667 224.002 61.6 220.402 57.3333 216.002C53.0667 211.602 49.2 208.002 48.8 208.002C48.2667 208.002 48 209.202 48 210.668Z" fill="black"/>
<path d="M157.333 209.335C157.333 210.001 158.533 210.668 160 210.668C161.467 210.668 162.667 210.001 162.667 209.335C162.667 208.535 161.467 208.001 160 208.001C158.533 208.001 157.333 208.535 157.333 209.335Z" fill="black"/>
<path d="M98.6665 212.133C98.6665 212.8 99.1998 213.2 99.8665 212.667C100.533 212.267 102.8 213.6 104.667 215.467C107.333 218.133 108.533 218.667 109.733 217.467C110.8 216.4 110.667 216 109.2 216C108.133 216 106.4 214.8 105.333 213.333C103.333 210.533 98.6665 209.6 98.6665 212.133Z" fill="black"/>
<path d="M388.267 214.267C387.2 214.667 388 216.267 390.667 218.667C392.8 220.667 394.667 223.333 394.667 224.533C394.667 225.733 395.333 226.667 396 226.667C396.8 226.667 397.333 227.867 397.333 229.333C397.333 230.8 398 232 398.667 232C399.467 232 400 230.8 400 229.333C400 227.867 399.467 226.667 398.667 226.667C398 226.667 397.333 225.467 397.333 224C397.333 222.533 396.8 221.333 396 221.333C395.333 221.333 394.667 220.133 394.667 218.533C394.667 217.067 394.133 216.133 393.467 216.667C392.667 217.067 391.733 216.533 391.067 215.6C390.533 214.533 389.2 214 388.267 214.267Z" fill="black"/>
<path d="M340.666 217.335C340.266 218.001 340.8 218.668 341.866 218.668C343.066 218.668 344 218.001 344 217.335C344 216.535 343.466 216.001 342.8 216.001C342 216.001 341.066 216.535 340.666 217.335Z" fill="black"/>
<path d="M112 220.001C112 221.734 113.467 221.734 116 220.001C117.6 218.934 117.467 218.667 115.067 218.667C113.333 218.667 112 219.201 112 220.001Z" fill="black"/>
<path d="M285.333 220.003C285.333 220.669 286 221.336 286.667 221.336C287.467 221.336 288 220.669 288 220.003C288 219.203 287.467 218.669 286.667 218.669C286 218.669 285.333 219.203 285.333 220.003Z" fill="black"/>
<path d="M282.8 259.203C282.8 283.869 283.2 298.669 284 298.669C284.8 298.669 285.333 284.669 285.333 261.336C285.333 224.936 285.333 224.003 288 224.003C289.466 224.003 290.666 224.536 290.666 225.336C290.666 226.003 291.866 226.669 293.333 226.669C294.8 226.669 296 227.203 296 228.003C296 228.669 297.066 229.336 298.4 229.336C299.733 229.336 301.6 230.536 302.666 232.003C303.733 233.469 306 234.669 307.733 234.669C314.8 234.669 314.8 234.269 314.266 290.269C313.733 340.269 313.066 352.003 310.533 352.003C309.866 352.003 309.333 353.203 309.333 354.669C309.333 356.136 308.666 357.336 307.866 357.336C307.066 357.336 306.8 358.269 307.2 359.469C307.6 360.536 307.466 361.069 306.666 360.669C305.066 359.736 301.333 363.069 301.333 365.336C301.333 367.469 291.333 376.936 288 378.003C285.2 378.936 284.266 381.336 286.666 381.336C287.466 381.336 288 380.669 288 380.003C288 379.203 288.933 378.669 290 378.669C292.933 378.669 304.266 366.936 303.2 365.069C302.666 364.136 302.8 364.003 303.866 364.536C305.733 365.736 309.333 362.269 309.333 359.469C309.333 358.269 310 357.336 310.666 357.336C311.466 357.336 312 356.136 312 354.669C312 353.203 312.666 352.003 313.333 352.003C314.133 352.003 314.666 350.003 314.666 347.469C314.666 344.936 315.333 342.403 316 342.003C316.8 341.469 317.333 322.669 317.333 289.869V238.536L314 235.336C312.266 233.469 309.866 232.003 308.666 232.003C307.6 232.003 306.666 231.336 306.666 230.669C306.666 229.869 305.733 229.336 304.666 229.336C302.8 229.336 297.6 226.936 296 225.336C294 223.336 289.066 221.336 287.866 222.136C287.2 222.536 285.733 222.136 284.666 221.336C283.066 220.003 282.8 225.203 282.8 259.203Z" fill="black"/>
<path d="M117.333 222.667C117.333 223.333 118.133 224 119.2 224C120.267 224 121.6 223.333 122 222.667C122.4 221.867 121.6 221.333 120.133 221.333C118.533 221.333 117.333 221.867 117.333 222.667Z" fill="black"/>
<path d="M346.667 276.001C346.667 311.601 347.067 330.668 348 330.668C348.8 330.668 349.333 330.001 349.333 329.335C349.333 328.535 349.733 328.135 350.4 328.135C350.933 328.268 352.667 328.268 354.4 328.135C358.533 328.001 356.8 325.335 352.533 325.335H349.333V273.335C349.333 239.601 348.8 221.335 348 221.335C347.067 221.335 346.667 240.401 346.667 276.001Z" fill="black"/>
<path d="M122.667 225.335C122.667 226.001 123.333 226.668 124 226.668C124.8 226.668 125.333 226.001 125.333 225.335C125.333 224.535 124.8 224.001 124 224.001C123.333 224.001 122.667 224.535 122.667 225.335Z" fill="black"/>
<path d="M189.333 226.134C189.333 227.201 190.133 229.068 191.2 230.134C192.267 231.201 194.133 232.001 195.2 232.001C196.4 232.001 197.333 232.534 197.333 233.334C197.333 234.001 198.4 234.668 199.733 234.668C201.067 234.668 202.933 235.868 204 237.334C205.067 238.801 206.8 240.001 207.733 240.001C208.8 240.001 211.333 241.868 213.467 244.134C215.6 246.401 217.333 247.734 217.333 246.934C217.333 244.668 207.067 234.668 204.8 234.668C203.6 234.668 202.667 234.001 202.667 233.334C202.667 232.534 201.467 232.001 200 232.001C198.533 232.001 197.333 231.334 197.333 230.668C197.333 229.868 196.133 229.334 194.667 229.334C192.933 229.334 192 228.401 192 226.668C192 225.201 191.467 224.001 190.667 224.001C190 224.001 189.333 224.934 189.333 226.134Z" fill="black"/>
<path d="M21.3335 228.003C21.3335 228.669 22.0002 229.336 22.6668 229.336C23.4668 229.336 24.0002 228.669 24.0002 228.003C24.0002 227.203 23.4668 226.669 22.6668 226.669C22.0002 226.669 21.3335 227.203 21.3335 228.003Z" fill="black"/>
<path d="M128 227.467C128 228.8 133.467 233.2 136.133 234C137.6 234.533 138.667 235.467 138.667 236.133C138.667 236.8 139.867 237.333 141.333 237.333C142.8 237.333 144 237.867 144 238.667C144 239.333 145.2 240 146.667 240C148.133 240 149.333 240.533 149.333 241.333C149.333 242 150.533 242.667 152 242.667C153.467 242.667 154.667 243.333 154.667 244.133C154.667 244.933 155.6 245.333 156.667 244.8C157.733 244.4 159.2 245.067 159.733 246.267C160.667 247.733 161.733 248.133 163.467 247.333C165.867 246.267 165.733 246.133 163.067 245.733C161.333 245.333 160 244.533 160 243.867C160 243.2 158.8 242.667 157.333 242.667C155.867 242.667 154.667 242 154.667 241.333C154.667 240.533 153.467 240 152 240C150.533 240 149.333 239.333 149.333 238.667C149.333 237.867 148.133 237.333 146.667 237.333C145.2 237.333 144 236.667 144 236C144 235.2 142.8 234.667 141.333 234.667C139.867 234.667 138.667 234 138.667 233.333C138.667 232.533 137.333 232 135.733 232C133.2 232 133.067 231.733 134.667 230.667C136.267 229.6 136.133 229.333 133.733 229.333C132 229.333 130.667 228.667 130.667 228C130.667 227.2 130.133 226.667 129.333 226.667C128.667 226.667 128 227.067 128 227.467Z" fill="black"/>
<path d="M70.6668 230.668C69.0668 231.735 69.2001 232.001 71.7334 232.001C73.3334 232.001 74.6668 232.535 74.6668 233.335C74.6668 234.001 75.8668 234.668 77.3334 234.668C78.8001 234.668 80.0001 234.001 80.0001 233.335C80.0001 232.535 78.8001 232.001 77.3334 232.001C75.8668 232.001 74.6668 231.335 74.6668 230.668C74.6668 228.935 73.2001 228.935 70.6668 230.668Z" fill="black"/>
<path d="M401.067 231.467C399.6 232.933 399.734 240 401.2 240C403.2 240 403.6 238.4 402.8 234.267C402.4 232.133 401.6 230.933 401.067 231.467Z" fill="black"/>
<path d="M24.2665 236.536C24.6665 239.736 24.2665 240.802 23.0665 240.402C20.7998 239.469 20.6665 246.136 22.9331 247.469C23.7331 248.002 23.9998 247.869 23.5998 247.069C23.0665 246.269 23.5998 244.536 24.6665 243.202C26.9331 240.269 27.3331 232.002 25.1998 232.002C24.2665 232.002 23.8665 233.736 24.2665 236.536Z" fill="black"/>
<path d="M248 233.335C248 234.001 246.8 234.668 245.333 234.668C243.867 234.668 242.667 235.068 242.667 235.735C242.667 236.268 240.933 237.468 238.667 238.401C234.8 240.135 233.2 242.668 236 242.668C236.8 242.668 237.333 242.001 237.333 241.335C237.333 240.535 238.533 240.001 240 240.001C241.467 240.001 242.667 239.335 242.667 238.668C242.667 237.868 243.867 237.335 245.333 237.335C246.8 237.335 248 236.668 248 236.001C248 235.201 248.933 234.668 250 234.668C251.067 234.668 252 234.001 252 233.335C252 232.535 251.067 232.001 250 232.001C248.933 232.001 248 232.535 248 233.335Z" fill="black"/>
<path d="M79.3335 236.002C78.9335 236.668 79.4668 237.335 80.5335 237.335C81.7335 237.335 82.6668 237.868 82.6668 238.668C82.6668 239.335 83.8668 240.002 85.2002 240.002C86.6668 240.002 88.0002 240.802 88.4002 241.602C88.6668 242.535 89.4668 242.935 90.0002 242.402C91.3335 241.202 87.4668 237.335 84.8002 237.335C83.6002 237.335 82.6668 236.668 82.6668 236.002C82.6668 235.202 82.1335 234.668 81.4668 234.668C80.6668 234.668 79.7335 235.202 79.3335 236.002Z" fill="black"/>
<path d="M402.667 245.335C402.667 248.268 403.333 250.668 404 250.668C404.8 250.668 405.333 248.268 405.333 245.335C405.333 242.401 404.8 240.001 404 240.001C403.333 240.001 402.667 242.401 402.667 245.335Z" fill="black"/>
<path d="M92.2668 243.868C90.9335 244.668 91.6001 245.201 94.4001 245.734C96.6668 246.134 99.8668 247.868 101.6 249.601C103.333 251.334 105.6 252.801 106.667 253.068C107.733 253.334 109.067 254.268 109.6 255.068C110.133 255.868 110.933 256.134 111.467 255.734C112.533 254.534 108.667 250.668 106.4 250.668C105.333 250.668 103.733 249.468 102.667 248.001C101.6 246.534 99.7335 245.334 98.4001 245.334C97.0668 245.334 96.0001 244.668 96.0001 244.001C96.0001 242.401 94.6668 242.268 92.2668 243.868Z" fill="black"/>
<path d="M229.333 244.002C229.333 244.669 226.933 245.335 224 245.335C218.667 245.335 216.933 247.069 220.8 248.535C221.867 248.935 222.4 248.802 222 248.002C221.467 247.202 222.8 247.069 225.333 247.469C227.867 248.002 229.333 247.735 229.333 246.802C229.333 246.002 230.667 245.335 232.4 245.335C234.8 245.335 234.933 245.069 233.333 244.002C230.8 242.269 229.333 242.269 229.333 244.002Z" fill="black"/>
<path d="M18.6665 252C18.6665 254.133 19.3332 256 19.9998 256C20.7998 256 21.3332 254.133 21.3332 252C21.3332 249.733 20.7998 248 19.9998 248C19.3332 248 18.6665 249.733 18.6665 252Z" fill="black"/>
<path d="M165.333 248.8C165.333 250.266 169.2 253.333 170.933 253.333C172 253.333 173.6 254.533 174.667 256C175.733 257.466 177.6 258.666 178.933 258.666C180.267 258.666 181.333 259.2 181.333 260C181.333 260.666 182.267 261.333 183.467 261.333C184.667 261.333 186.8 262.666 188.133 264.266C189.6 265.733 191.067 266.8 191.467 266.4C192.4 265.466 186.267 259.466 183.867 258.933C182.933 258.666 181.2 257.333 179.867 255.866C178.667 254.533 176.667 253.333 175.467 253.333C174.267 253.333 173.333 252.666 173.333 252C173.333 251.2 172.133 250.666 170.667 250.666C169.2 250.666 168 250 168 249.333C168 248.533 167.467 248 166.667 248C166 248 165.333 248.4 165.333 248.8Z" fill="black"/>
<path d="M440 263.869C440 271.336 439.467 277.603 438.667 278.003C438 278.403 437.333 280.936 437.333 283.469C437.333 286.003 436.8 288.003 436 288.003C435.333 288.003 434.667 289.736 434.667 292.003C434.667 294.136 434.133 296.003 433.333 296.003C432.667 296.003 432 297.203 432 298.669C432 300.136 431.467 301.336 430.667 301.336C430 301.336 429.333 303.069 429.333 305.336C429.333 307.469 430 309.336 430.667 309.336C431.467 309.336 432 307.469 432 305.336C432 303.069 432.667 301.336 433.333 301.336C434.133 301.336 434.667 300.136 434.667 298.669C434.667 297.203 435.333 296.003 436 296.003C436.8 296.003 437.333 294.136 437.333 292.003C437.333 289.736 438 288.003 438.8 288.003C439.6 288.003 440 286.003 439.733 283.336C439.6 280.669 440 278.136 440.8 277.603C442.8 276.403 443.333 250.669 441.467 250.669C440.533 250.669 440 255.469 440 263.869Z" fill="black"/>
<path d="M405.333 261.468C405.333 266.668 405.867 269.202 406.667 268.668C408.4 267.602 408.133 253.335 406.4 253.335C405.867 253.335 405.333 256.935 405.333 261.468Z" fill="black"/>
<path d="M16.0002 262.535C16.0002 266.268 15.4668 269.601 14.6668 270.001C14.0002 270.401 13.3335 275.335 13.3335 280.801C13.3335 286.535 13.8668 290.668 14.6668 290.668C15.4668 290.668 16.0002 286.268 16.0002 280.135C16.0002 274.268 16.6668 269.068 17.3335 268.668C18.1335 268.268 18.6668 265.201 18.6668 261.868C18.6668 258.668 18.1335 256.001 17.3335 256.001C16.6668 256.001 16.0002 258.935 16.0002 262.535Z" fill="black"/>
<path d="M113.333 257.335C111.733 258.401 111.867 258.668 114.4 258.668C116 258.668 117.333 259.201 117.333 260.001C117.333 260.668 118.533 261.335 120 261.335C121.467 261.335 122.667 261.868 122.667 262.668C122.667 263.335 123.733 264.001 125.067 264.001C126.4 264.001 128.267 265.201 129.333 266.668C131.333 269.468 136 270.268 136 267.868C136 267.068 135.2 266.668 134.133 267.068C133.067 267.468 131.2 266.401 129.867 264.535C128.4 262.801 126.267 261.335 125.067 261.335C123.733 261.335 122.667 260.668 122.667 260.001C122.667 259.201 121.467 258.668 120 258.668C118.533 258.668 117.333 258.001 117.333 257.335C117.333 255.601 115.867 255.601 113.333 257.335Z" fill="black"/>
<path d="M61.3335 260.134C61.3335 260.801 62.0002 261.068 62.6668 260.668C63.4668 260.268 64.0002 259.601 64.0002 259.201C64.0002 258.934 63.4668 258.668 62.6668 258.668C62.0002 258.668 61.3335 259.334 61.3335 260.134Z" fill="black"/>
<path d="M50.6665 265.336C50.6665 267.469 51.3332 269.336 51.9998 269.336C52.7998 269.336 53.3332 267.469 53.3332 265.336C53.3332 263.069 52.7998 261.336 51.9998 261.336C51.3332 261.336 50.6665 263.069 50.6665 265.336Z" fill="black"/>
<path d="M64 262.134C64 263.467 68.1333 266.934 68.9333 266.267C69.3333 265.867 68.6667 264.534 67.6 263.334C65.4667 261.334 64 260.801 64 262.134Z" fill="black"/>
<path d="M70.6665 265.869C70.6665 266.136 71.7332 267.602 73.1998 269.069C75.7332 272.136 79.9998 273.069 79.9998 270.669C79.9998 269.869 78.7998 269.336 77.3332 269.336C75.8665 269.336 74.6665 268.802 74.6665 268.136C74.6665 267.469 73.7332 266.669 72.6665 266.136C71.5998 265.736 70.6665 265.602 70.6665 265.869Z" fill="black"/>
<path d="M253.333 282.002V297.469L248.667 302.002C246.133 304.535 243.067 306.669 241.867 306.669C240.533 306.669 240 307.335 240.4 308.535C240.933 309.869 240.533 310.269 239.467 309.869C238.533 309.469 237.333 310.135 236.933 311.202C236.4 312.402 235.2 312.935 234 312.535C232.933 312.135 232 312.402 232 313.202C232 314.002 230.8 314.669 229.333 314.669C227.867 314.669 226.667 315.202 226.667 316.002C226.667 317.869 226.933 317.735 235.2 314.002C239.333 312.135 244.133 309.202 245.867 307.335C247.733 305.469 249.867 304.002 250.667 304.002C255.067 304.002 256 300.269 256 283.469C256 273.202 255.467 266.669 254.667 266.669C253.867 266.669 253.333 272.669 253.333 282.002Z" fill="black"/>
<path d="M402.667 272.933C402.667 276.666 403.333 280.266 404 280.666C405.733 281.733 405.733 270.666 404 267.999C403.067 266.533 402.667 267.999 402.667 272.933Z" fill="black"/>
<path d="M136.667 270.669C136.267 271.335 137.067 272.002 138.533 272.002C140.133 272.002 141.333 272.535 141.333 273.335C141.333 274.002 142.4 274.669 143.733 274.669C145.067 274.669 146.933 275.869 148 277.335C150 280.135 154.667 281.069 154.667 278.669C154.667 277.869 153.6 277.335 152.267 277.335C150.933 277.335 149.067 276.135 148 274.669C146.933 273.202 145.067 272.002 143.733 272.002C142.4 272.002 141.333 271.335 141.333 270.669C141.333 269.869 140.533 269.335 139.467 269.335C138.4 269.335 137.067 269.869 136.667 270.669Z" fill="black"/>
<path d="M242.667 270.669C242.667 271.336 241.467 272.002 240 272.002C238.533 272.002 237.333 272.536 237.333 273.336C237.333 274.002 236.267 274.669 234.933 274.669C233.6 274.669 231.733 275.869 230.667 277.336C229.6 278.802 227.733 280.002 226.4 280.002C225.067 280.002 224 280.536 224 281.336C224 282.002 222.8 282.669 221.333 282.669C219.867 282.669 218.667 283.202 218.667 284.002C218.667 284.669 217.467 285.336 216 285.336C214.533 285.336 213.333 285.869 213.333 286.669C213.333 287.336 212 288.002 210.4 288.002C207.467 288.136 207.467 288.136 209.867 289.602C211.867 290.669 212.667 290.669 213.067 289.602C213.333 288.669 214.667 288.002 216.133 288.002C217.467 288.002 218.667 287.336 218.667 286.669C218.667 285.869 219.867 285.336 221.333 285.336C222.8 285.336 224 284.669 224 284.002C224 283.202 225.2 282.669 226.667 282.669C228.133 282.669 229.333 282.002 229.333 281.336C229.333 280.536 230.4 280.002 231.733 280.002C233.067 280.002 234.933 278.802 236 277.336C237.067 275.869 238.667 274.669 239.733 274.669C241.467 274.669 245.333 271.602 245.333 270.136C245.333 269.736 244.8 269.336 244 269.336C243.333 269.336 242.667 269.869 242.667 270.669Z" fill="black"/>
<path d="M48 280.268C48 286.401 48.5333 290.668 49.3333 290.668C51.0667 290.668 51.0667 274.668 49.3333 272.001C48.4 270.668 48 273.201 48 280.268Z" fill="black"/>
<path d="M80 272.803C80 274.003 83.0667 276.536 87.0667 278.536C89.0667 279.603 90.6667 280.936 90.6667 281.603C90.6667 282.136 91.8667 282.669 93.3333 282.669C94.8 282.669 96 283.203 96 284.003C96 284.669 96.9333 285.336 98.1333 285.336C99.2 285.336 99.7333 285.869 99.3333 286.669C98.9333 287.336 99.7333 288.003 101.2 288.003C102.8 288.003 104 288.536 104 289.336C104 290.003 105.2 290.669 106.667 290.669C108.133 290.669 109.333 291.203 109.333 292.003C109.333 292.669 110.4 293.336 111.6 293.336C113.467 293.336 113.467 292.936 110.933 290.669C109.333 289.203 107.333 288.003 106.4 288.003C105.333 288.003 103.733 286.803 102.667 285.336C101.6 283.869 99.7333 282.669 98.4 282.669C97.0667 282.669 96 282.003 96 281.336C96 280.536 94.9333 280.003 93.6 280.003C92.2667 280.003 90.4 278.803 89.3333 277.336C88.2667 275.869 86.4 274.669 85.0667 274.669C83.7333 274.669 82.6667 274.003 82.6667 273.336C82.6667 272.536 82.1333 272.003 81.3333 272.003C80.6667 272.003 80 272.403 80 272.803Z" fill="black"/>
<path d="M176 273.333C176 274 174.8 274.667 173.333 274.667C171.867 274.667 170.667 275.2 170.667 276C170.667 276.667 169.467 277.333 168 277.333C166.533 277.333 165.333 277.867 165.333 278.667C165.333 279.333 166.533 280 168 280C169.467 280 170.667 279.333 170.667 278.667C170.667 277.867 171.6 277.333 172.8 277.333C174.8 277.333 178.667 274.267 178.667 272.8C178.667 272.4 178.133 272 177.333 272C176.667 272 176 272.533 176 273.333Z" fill="black"/>
<path d="M155.333 281.335C154.933 282.001 155.2 282.668 155.867 282.668C156.667 282.668 157.333 282.001 157.333 281.335C157.333 280.535 157.067 280.001 156.8 280.001C156.4 280.001 155.733 280.535 155.333 281.335Z" fill="black"/>
<path d="M158.667 281.335C158.667 282.001 160.533 282.668 162.8 282.668C165.067 282.668 166.533 282.135 166 281.335C165.6 280.535 163.733 280.001 161.867 280.001C160.133 280.001 158.667 280.535 158.667 281.335Z" fill="black"/>
<path d="M400 284.667C400 286.533 400.667 288 401.333 288C402.133 288 402.667 286.533 402.667 284.667C402.667 282.8 402.133 281.333 401.333 281.333C400.667 281.333 400 282.8 400 284.667Z" fill="black"/>
<path d="M397.333 290.668C397.333 292.134 396.8 293.334 396 293.334C395.333 293.334 394.667 294.534 394.667 295.868C394.667 297.334 393.867 298.668 393.067 299.068C392.133 299.334 391.733 300.134 392.267 300.668C393.333 301.868 397.333 298.268 397.333 296.001C397.333 295.201 398.267 293.601 399.333 292.401C400.4 291.334 401.067 289.868 400.667 289.201C399.2 287.068 397.333 287.868 397.333 290.668Z" fill="black"/>
<path d="M15.8666 291.602C15.3332 296.002 16.5332 304.936 17.7332 306.269C18.9332 307.602 19.1999 305.869 18.9332 299.336C18.6666 294.536 17.8666 290.669 17.1999 290.669C16.5332 290.669 15.9999 291.069 15.8666 291.602Z" fill="black"/>
<path d="M203.733 291.602C204.533 291.869 205.067 292.802 204.667 293.469C204.133 294.135 204.8 294.269 205.867 293.869C209.067 292.669 208.4 290.669 205.067 290.802C203.333 290.802 202.8 291.202 203.733 291.602Z" fill="black"/>
<path d="M114.667 294.669C114.667 296.402 116.133 296.402 118.667 294.669C120.267 293.602 120.133 293.335 117.733 293.335C116 293.335 114.667 293.869 114.667 294.669Z" fill="black"/>
<path d="M200 294.667C200 295.333 200.667 296 201.333 296C202.133 296 202.667 295.333 202.667 294.667C202.667 293.867 202.133 293.333 201.333 293.333C200.667 293.333 200 293.867 200 294.667Z" fill="black"/>
<path d="M50.6665 300C50.6665 302.133 51.3332 304 51.9998 304C52.7998 304 53.3332 305.2 53.3332 306.667C53.3332 308.133 53.9998 309.333 54.6665 309.333C55.4665 309.333 55.9998 310.533 55.9998 312C55.9998 313.467 56.6665 314.667 57.3332 314.667C58.1332 314.667 58.6665 315.6 58.6665 316.667C58.6665 317.867 60.1332 320.267 61.9998 322.133C63.8665 324 65.3332 326 65.3332 326.667C65.3332 327.467 66.2665 328 67.3332 328C70.2665 328 69.8665 326.8 65.3332 322.667C63.1998 320.667 61.3332 318 61.3332 316.8C61.3332 315.6 60.7998 314.667 59.9998 314.667C59.3332 314.667 58.6665 313.467 58.6665 312C58.6665 310.533 58.1332 309.333 57.3332 309.333C56.6665 309.333 55.9998 308.133 55.9998 306.667C55.9998 305.2 55.4665 304 54.6665 304C53.9998 304 53.3332 302.133 53.3332 300C53.3332 297.733 52.7998 296 51.9998 296C51.3332 296 50.6665 297.733 50.6665 300Z" fill="black"/>
<path d="M117.867 297.6C117.333 298.4 117.467 298.667 118.4 298.134C119.2 297.734 120.667 298.267 121.733 299.334C122.933 300.4 124.667 301.334 125.733 301.334C126.933 301.334 128 302.134 128.4 302.934C128.667 303.867 129.467 304.267 130 303.734C131.333 302.534 127.467 298.667 124.8 298.667C123.6 298.667 122.667 298 122.667 297.334C122.667 295.467 119.067 295.6 117.867 297.6Z" fill="black"/>
<path d="M193.467 298.134C191.067 300.934 192.667 302.134 195.333 299.6C196.4 298.4 197.333 297.2 197.333 296.8C197.333 295.334 195.333 296.134 193.467 298.134Z" fill="black"/>
<path d="M187.6 302.003C186.4 303.069 184.533 304.003 183.467 304.003C182.267 304.003 181.333 304.536 181.333 305.336C181.333 306.003 180.133 306.669 178.667 306.669C177.2 306.669 176 307.203 176 308.003C176 308.669 177.2 309.336 178.667 309.336C180.133 309.336 181.333 308.669 181.333 308.003C181.333 307.203 182.533 306.669 184 306.669C185.467 306.669 186.667 306.003 186.667 305.336C186.667 304.536 187.867 304.003 189.333 304.003C192.133 304.003 192.933 302.136 190.8 300.669C190.133 300.269 188.667 300.936 187.6 302.003Z" fill="black"/>
<path d="M389.333 302.667C389.333 303.333 390 304 390.667 304C391.467 304 392 303.333 392 302.667C392 301.867 391.467 301.333 390.667 301.333C390 301.333 389.333 301.867 389.333 302.667Z" fill="black"/>
<path d="M132.666 305.336C133.066 306.003 134.666 306.669 136.133 306.669C137.466 306.669 138.666 307.203 138.666 308.003C138.666 308.669 139.733 309.336 141.066 309.336C142.933 309.336 142.666 308.803 140 306.669C136.533 304.003 131.2 302.936 132.666 305.336Z" fill="black"/>
<path d="M282.667 307.733C282.667 310.133 283.2 312 283.867 312C284.533 312 284.933 310.533 284.8 308.667C284.267 303.6 282.667 302.933 282.667 307.733Z" fill="black"/>
<path d="M382.667 309.334C380.133 312.134 377.2 314.534 376.267 314.667C373.867 314.667 370.133 318.534 371.333 319.734C371.867 320.267 372.667 319.867 372.933 318.934C373.333 318.134 374.4 317.334 375.467 317.334C376.533 317.334 379.867 314.934 382.8 312C385.867 309.067 388.933 306.667 389.6 306.667C390.267 306.667 390.4 306 390 305.334C388.667 303.2 387.6 303.734 382.667 309.334Z" fill="black"/>
<path d="M425.333 312.668C424.267 315.202 423.067 317.335 422.4 317.335C421.867 317.335 421.333 318.268 421.333 319.335C421.333 322.002 402 341.335 399.333 341.335C398.267 341.335 397.333 341.868 397.333 342.668C397.333 343.335 396.267 344.002 395.067 344.002C393.2 344.002 393.067 344.268 394.533 345.602C396 346.935 396.4 346.935 396.933 345.602C397.333 344.802 398.4 344.002 399.467 344.002C402 344.002 424 321.868 424 319.335C424 318.268 424.667 317.335 425.467 317.335C426.267 317.335 426.667 316.402 426.267 315.468C425.733 314.135 426.133 313.735 427.467 314.268C428.667 314.668 429.333 314.002 429.333 312.268C429.333 307.602 427.2 307.868 425.333 312.668Z" fill="black"/>
<path d="M18.6665 312.001C18.6665 313.468 19.3332 314.668 19.9998 314.668C20.7998 314.668 21.3332 313.468 21.3332 312.001C21.3332 310.535 20.7998 309.335 19.9998 309.335C19.3332 309.335 18.6665 310.535 18.6665 312.001Z" fill="black"/>
<path d="M144 310.667C144 311.333 144.667 312 145.333 312C146.133 312 146.667 311.333 146.667 310.667C146.667 309.867 146.133 309.333 145.333 309.333C144.667 309.333 144 309.867 144 310.667Z" fill="black"/>
<path d="M170.667 310.667C170.667 311.333 171.333 312 172 312C172.8 312 173.333 311.333 173.333 310.667C173.333 309.867 172.8 309.333 172 309.333C171.333 309.333 170.667 309.867 170.667 310.667Z" fill="black"/>
<path d="M148 313.335C146.4 314.401 146.533 314.668 149.066 314.668C150.666 314.668 152 314.001 152 313.335C152 311.601 150.533 311.601 148 313.335Z" fill="black"/>
<path d="M166 313.335C166.4 314.001 167.067 314.668 167.467 314.668C167.733 314.668 168 314.001 168 313.335C168 312.535 167.333 312.001 166.533 312.001C165.867 312.001 165.6 312.535 166 313.335Z" fill="black"/>
<path d="M282.667 317.868C282.667 320.535 283.333 322.668 284 322.668C285.6 322.668 285.333 314.801 283.733 313.868C283.2 313.468 282.667 315.335 282.667 317.868Z" fill="black"/>
<path d="M157.333 315.736C157.333 316.269 158.533 316.802 160 316.936C161.467 317.069 162.667 316.669 162.667 315.869C162.667 315.202 161.467 314.669 160 314.669C158.533 314.669 157.333 315.202 157.333 315.736Z" fill="black"/>
<path d="M21.3335 319.333C21.3335 321.2 22.0002 322.667 22.6668 322.667C23.4668 322.667 24.0002 323.867 24.0002 325.333C24.0002 326.8 24.6668 328 25.3335 328C26.1335 328 26.6668 329.2 26.6668 330.667C26.6668 332.133 27.3335 333.333 28.0002 333.333C28.8002 333.333 29.3335 334.267 29.3335 335.333C29.3335 337.333 34.9335 344 36.6668 344C37.0668 344 37.3335 342.8 37.3335 341.2C37.3335 339.733 36.8002 338.933 36.0002 339.333C35.3335 339.733 34.6668 339.2 34.6668 338C34.6668 336.8 34.1335 336.267 33.3335 336.667C32.6668 337.067 32.0002 336.533 32.0002 335.467C32.0002 334.267 31.4668 333.333 30.6668 333.333C30.0002 333.333 29.3335 332.133 29.3335 330.667C29.3335 329.2 28.8002 328 28.0002 328C27.3335 328 26.6668 326.8 26.6668 325.333C26.6668 323.867 26.1335 322.667 25.3335 322.667C24.6668 322.667 24.0002 321.2 24.0002 319.333C24.0002 317.467 23.4668 316 22.6668 316C22.0002 316 21.3335 317.467 21.3335 319.333Z" fill="black"/>
<path d="M221.333 318.668C221.333 319.335 220.133 320.001 218.667 320.001C217.2 320.001 216 320.535 216 321.335C216 322.001 214.8 322.668 213.333 322.668C211.867 322.668 210.667 323.201 210.667 324.001C210.667 324.668 209.467 325.335 208 325.335C206.533 325.335 205.333 325.868 205.333 326.668C205.333 327.335 204.133 328.001 202.667 328.001C201.2 328.001 200 328.535 200 329.335C200 330.001 198.8 330.668 197.333 330.668C195.867 330.668 194.667 331.201 194.667 332.001C194.667 332.668 193.467 333.335 192 333.335C190.533 333.335 189.333 333.868 189.333 334.668C189.333 335.335 188.133 336.001 186.667 336.001C185.2 336.001 184 336.535 184 337.335C184 338.001 182.8 338.668 181.333 338.668C179.867 338.668 178.667 339.201 178.667 340.001C178.667 342.001 182.533 341.601 184.933 339.335C186 338.268 187.467 337.601 188.133 338.001C188.8 338.535 189.333 338.135 189.333 337.468C189.333 336.668 190.533 336.001 192 336.001C193.467 336.001 194.667 335.335 194.667 334.668C194.667 333.868 195.867 333.335 197.333 333.335C198.8 333.335 200 332.668 200 332.001C200 331.201 201.2 330.668 202.667 330.668C204.133 330.668 205.333 330.001 205.333 329.335C205.333 328.535 206.533 328.001 208 328.001C209.467 328.001 210.667 327.335 210.667 326.668C210.667 325.868 211.867 325.335 213.333 325.335C214.8 325.335 216 324.668 216 324.001C216 323.201 216.933 322.668 218.133 322.668C220.133 322.668 224 319.601 224 318.135C224 317.735 223.467 317.335 222.667 317.335C222 317.335 221.333 317.868 221.333 318.668Z" fill="black"/>
<path d="M364.933 321.735C364.4 323.069 365.2 323.469 367.467 322.935C369.2 322.669 370.267 321.869 369.867 321.202C368.8 319.335 365.733 319.735 364.933 321.735Z" fill="black"/>
<path d="M278.133 324.269C279.067 325.736 282.667 325.602 282.667 324.136C282.667 323.336 281.467 322.936 280.133 323.069C278.667 323.069 277.867 323.736 278.133 324.269Z" fill="black"/>
<path d="M357.333 324.003C357.333 324.669 358.533 325.336 360 325.336C361.467 325.336 362.667 324.669 362.667 324.003C362.667 323.203 361.467 322.669 360 322.669C358.533 322.669 357.333 323.203 357.333 324.003Z" fill="black"/>
<path d="M274.667 326.667C274.667 327.333 275.333 328 276 328C276.8 328 277.333 327.333 277.333 326.667C277.333 325.867 276.8 325.333 276 325.333C275.333 325.333 274.667 325.867 274.667 326.667Z" fill="black"/>
<path d="M69.3335 328.668C69.3335 329.068 70.8002 330.935 72.6668 332.668C76.0002 336.135 78.6668 336.935 78.6668 334.668C78.6668 333.868 77.8668 333.335 76.9335 333.335C76.0002 333.335 74.4002 332.134 73.3335 330.668C71.4668 328.134 69.3335 327.068 69.3335 328.668Z" fill="black"/>
<path d="M269.333 329.335C269.333 330.001 270 330.668 270.667 330.668C271.467 330.668 272 330.001 272 329.335C272 328.535 271.467 328.001 270.667 328.001C270 328.001 269.333 328.535 269.333 329.335Z" fill="black"/>
<path d="M264 332.002C264 332.668 263.067 333.335 261.867 333.335C259.2 333.335 255.333 337.202 256.667 338.402C257.2 338.935 258 338.535 258.267 337.602C258.667 336.802 259.733 336.002 260.933 336.002C262.8 336.002 266.667 332.935 266.667 331.468C266.667 331.068 266.133 330.668 265.333 330.668C264.667 330.668 264 331.202 264 332.002Z" fill="black"/>
<path d="M80 336.8C80 338.267 83.8667 341.334 85.8667 341.334C87.0667 341.334 88 341.867 88 342.667C88 343.334 89.2 344 90.5333 344C92 344 93.3333 344.534 93.6 345.2C94.2667 347.067 100.4 347.467 100.933 345.6C101.333 344.534 100.133 344 97.4667 344C95.2 344 93.3333 343.334 93.3333 342.667C93.3333 341.867 92.1333 341.334 90.6667 341.334C89.2 341.334 88 340.667 88 340C88 339.2 86.8 338.667 85.3333 338.667C83.8667 338.667 82.6667 338 82.6667 337.334C82.6667 336.534 82.1333 336 81.3333 336C80.6667 336 80 336.4 80 336.8Z" fill="black"/>
<path d="M247.067 340.8C245.067 342.933 244.933 344 246.533 344C247.6 344 249.733 340 249.067 339.333C248.8 339.067 247.867 339.733 247.067 340.8Z" fill="black"/>
<path d="M250.667 340.003C250.667 340.669 251.333 341.336 252 341.336C252.8 341.336 253.333 340.669 253.333 340.003C253.333 339.203 252.8 338.669 252 338.669C251.333 338.669 250.667 339.203 250.667 340.003Z" fill="black"/>
<path d="M170.667 342.668C170.667 343.335 169.467 344.001 168 344.001C166.533 344.001 165.333 344.535 165.333 345.335C165.333 346.001 166.533 346.668 168 346.668C169.467 346.668 170.667 346.001 170.667 345.335C170.667 344.535 171.867 344.001 173.2 344.001C174.667 344.001 176.267 343.335 176.667 342.668C177.2 341.868 176 341.335 174.133 341.335C172.267 341.335 170.667 341.868 170.667 342.668Z" fill="black"/>
<path d="M38.1335 343.735C37.6002 344.668 40.6669 348.668 46.0002 354.002C53.2002 361.202 55.2002 362.535 57.0669 361.468C59.2002 360.135 59.2002 360.135 56.9335 360.002C54.5335 360.002 40.8002 347.202 39.7335 344.002C39.3335 342.668 38.9335 342.535 38.1335 343.735Z" fill="black"/>
<path d="M241.733 343.601C239.733 344.268 239.467 346.668 241.2 346.668C241.867 346.668 242.667 345.735 243.2 344.668C243.6 343.601 243.733 342.668 243.6 342.801C243.467 342.801 242.533 343.201 241.733 343.601Z" fill="black"/>
<path d="M101.333 347.867C101.333 349.867 110.533 350.934 133.733 351.601C149.2 352.001 156 351.734 155.333 350.667C154.8 349.867 146.267 349.334 131.867 349.334C117.733 349.334 109.333 348.801 109.333 348.001C109.333 347.201 107.6 346.667 105.333 346.667C103.2 346.667 101.333 347.201 101.333 347.867Z" fill="black"/>
<path d="M154.667 348.003C154.667 348.669 157.2 349.336 160.4 349.336C164.533 349.336 165.467 348.936 164 348.003C161.333 346.269 154.667 346.269 154.667 348.003Z" fill="black"/>
<path d="M234.667 348.003C234.667 348.669 235.333 349.336 236 349.336C236.8 349.336 237.333 348.669 237.333 348.003C237.333 347.203 236.8 346.669 236 346.669C235.333 346.669 234.667 347.203 234.667 348.003Z" fill="black"/>
<path d="M389.333 348.003C389.333 348.669 390 349.336 390.667 349.336C391.467 349.336 392 348.669 392 348.003C392 347.203 391.467 346.669 390.667 346.669C390 346.669 389.333 347.203 389.333 348.003Z" fill="black"/>
<path d="M229.733 348.933C228 349.2 226.667 350.133 226.667 350.8C226.667 351.467 225.467 352 224 352C222.533 352 221.333 352.533 221.333 353.333C221.333 354 220.133 354.667 218.667 354.667C217.2 354.667 216 355.2 216 355.867C216 356.533 214.667 357.333 213.067 357.733C210.133 358.133 210.133 358.267 212.533 359.333C214.267 360.133 215.333 360 215.733 358.933C216 358 217.333 357.333 218.8 357.333C220.133 357.333 221.333 356.667 221.333 356C221.333 355.2 222.533 354.667 224 354.667C225.467 354.667 226.667 354 226.667 353.333C226.667 352.533 227.867 352 229.2 352C230.533 352 232 351.067 232.533 350C232.933 348.933 233.067 348.133 232.933 348.133C232.8 348.267 231.333 348.667 229.733 348.933Z" fill="black"/>
<path d="M384 350.667C384 351.333 384.667 352 385.333 352C386.133 352 386.667 351.333 386.667 350.667C386.667 349.867 386.133 349.333 385.333 349.333C384.667 349.333 384 349.867 384 350.667Z" fill="black"/>
<path d="M375.6 353.734C375.2 354.934 373.467 355.334 370.667 354.934C368.267 354.667 366 354.801 365.467 355.467C364 357.467 355.467 360.001 349.867 360.001C344.134 360.001 341.334 361.867 341.334 365.601C341.334 366.934 340.8 368.001 340 368.001C339.334 368.001 338.667 369.201 338.667 370.667C338.667 372.134 338.134 373.334 337.334 373.334C336.667 373.334 336 374.534 336 376.001C336 377.467 335.467 378.667 334.667 378.667C334 378.667 333.334 379.601 333.334 380.801C333.334 382.001 332 384.134 330.4 385.467C328.934 386.934 327.867 388.401 328.4 388.801C329.6 390.001 336 383.201 336 380.667C336 379.601 336.667 378.667 337.334 378.667C338.134 378.667 338.667 377.467 338.667 376.001C338.667 374.534 339.334 373.334 340 373.334C340.8 373.334 341.334 372.401 341.334 371.201C341.334 370.134 342.267 368.267 343.334 367.067C344.4 366.001 345.067 364.534 344.667 363.867C344.134 363.201 346.8 362.667 350.534 362.667C354.267 362.667 357.334 362.001 357.334 361.334C357.334 360.534 359.2 360.001 361.334 360.001C363.6 360.001 365.334 359.334 365.334 358.667C365.334 357.867 367.334 357.334 369.867 357.334C372.4 357.334 374.934 356.667 375.334 356.001C375.734 355.201 377.334 354.667 378.8 354.667C380.134 354.667 381.334 354.001 381.334 353.334C381.334 351.334 376.4 351.734 375.6 353.734Z" fill="black"/>
<path d="M205.333 361.335C205.333 362.001 206.533 362.668 208 362.668C209.467 362.668 210.667 362.001 210.667 361.335C210.667 360.535 209.467 360.001 208 360.001C206.533 360.001 205.333 360.535 205.333 361.335Z" fill="black"/>
<path d="M56 364C56 364.667 57.2 365.334 58.5333 365.334C60 365.334 61.3333 366.134 61.7333 366.934C62 367.867 62.8 368.267 63.3333 367.734C64.6667 366.534 60.8 362.667 58.1333 362.667C56.9333 362.667 56 363.2 56 364Z" fill="black"/>
<path d="M200 364.003C200 364.669 200.667 365.336 201.333 365.336C202.133 365.336 202.667 364.669 202.667 364.003C202.667 363.203 202.133 362.669 201.333 362.669C200.667 362.669 200 363.203 200 364.003Z" fill="black"/>
<path d="M194 366.667C194.4 367.333 195.333 368 196.133 368C196.8 368 197.333 367.333 197.333 366.667C197.333 365.867 196.4 365.333 195.2 365.333C194.133 365.333 193.6 365.867 194 366.667Z" fill="black"/>
<path d="M66.6665 368.802C66.6665 370.269 70.5332 373.335 72.5332 373.335C73.7332 373.335 74.6665 373.869 74.6665 374.669C74.6665 375.335 75.8665 376.002 77.3332 376.002C78.7998 376.002 79.9998 376.669 79.9998 377.602C79.9998 378.402 80.3998 378.802 80.7998 378.402C81.4665 377.602 85.9998 378.669 91.0665 380.669C92.3998 381.202 93.3332 381.069 93.3332 380.135C93.3332 379.335 92.1332 378.669 90.7998 378.669C89.3332 378.669 87.9998 378.135 87.7332 377.335C87.5998 376.669 85.7332 375.869 83.7332 375.735C81.5998 375.602 79.9998 374.935 79.9998 374.402C79.9998 373.869 78.7998 373.335 77.3332 373.335C75.8665 373.335 74.6665 372.669 74.6665 372.002C74.6665 371.202 73.4665 370.669 71.9998 370.669C70.5332 370.669 69.3332 370.002 69.3332 369.335C69.3332 368.535 68.7998 368.002 67.9998 368.002C67.3332 368.002 66.6665 368.402 66.6665 368.802Z" fill="black"/>
<path d="M189.333 369.335C189.333 370.001 190 370.668 190.667 370.668C191.467 370.668 192 370.001 192 369.335C192 368.535 191.467 368.001 190.667 368.001C190 368.001 189.333 368.535 189.333 369.335Z" fill="black"/>
<path d="M184 371.334C184 372.934 193.333 381.334 195.2 381.334C196.267 381.334 197.333 382.134 197.733 382.934C198.267 384.267 198.667 384.267 200.133 382.934C201.6 381.6 201.467 381.334 199.6 381.334C198.4 381.334 197.333 380.667 197.333 380C197.333 379.2 196.4 378.667 195.2 378.667C192.933 378.667 189.333 375.6 189.333 373.6C189.333 372.8 188.4 371.867 187.2 371.467C184.667 370.534 184 370.4 184 371.334Z" fill="black"/>
<path d="M280.4 381.069C278.667 381.336 277.333 382.136 277.333 382.803C277.333 383.469 276.133 384.003 274.667 384.003C273.2 384.003 272 384.536 272 385.336C272 386.003 270.267 386.669 268 386.669C265.867 386.669 264 387.203 264 388.003C264 388.669 265.867 389.336 268 389.336C270.267 389.336 272 388.669 272 388.003C272 387.203 273.2 386.669 274.667 386.669C276.133 386.669 277.733 385.869 278.133 384.803C278.533 383.736 280.133 383.336 282.133 383.736C283.867 384.003 285.333 383.736 285.333 382.936C285.333 380.936 283.867 380.403 280.4 381.069Z" fill="black"/>
<path d="M96 382.667C96 383.333 98.6667 384 101.867 384C105.2 384 108.267 383.333 108.667 382.667C109.2 381.867 106.933 381.333 102.8 381.333C99.0667 381.333 96 381.867 96 382.667Z" fill="black"/>
<path d="M111.333 385.336C111.867 386.136 121.6 386.669 136.133 386.669H160V390.003C160 392.003 160.8 393.336 162 393.336C163.2 393.336 163.6 394.136 163.2 395.336C162.667 396.403 162.933 397.336 163.6 397.336C166.4 397.336 166.267 395.603 163.2 391.069C161.467 388.403 160 385.736 160 385.203C160 384.536 148.8 384.003 135.2 384.003C119.067 384.003 110.8 384.403 111.333 385.336Z" fill="black"/>
<path d="M205.333 385.202C205.333 385.868 206.267 386.668 207.2 387.068C208.533 387.602 208.933 387.202 208.4 385.868C207.6 383.868 205.333 383.335 205.333 385.202Z" fill="black"/>
<path d="M210.667 388C210.667 388.667 212.533 389.333 214.667 389.333C216.933 389.333 218.667 389.867 218.667 390.667C218.667 391.467 222.267 392 227.067 392C232.933 392 234.8 391.6 233.333 390.667C232.267 389.867 228.8 389.467 225.6 389.6C222.533 389.733 219.2 389.067 218.4 388.267C216.4 386.267 210.667 386.133 210.667 388Z" fill="black"/>
<path d="M250.667 390.667C250.667 391.333 253.733 392 257.467 392C261.6 392 263.867 391.467 263.333 390.667C262.933 389.867 259.867 389.333 256.533 389.333C253.333 389.333 250.667 389.867 250.667 390.667Z" fill="black"/>
<path d="M323.066 392.669C319.466 396.403 319.333 397.336 321.866 397.336C323.466 397.336 328 392.003 328 390.003C328 388.536 325.866 389.603 323.066 392.669Z" fill="black"/>
<path d="M242.533 392.401C244.266 394.667 251.066 395.067 249.733 392.934C249.466 392.401 248.4 392.134 247.6 392.401C246.666 392.667 244.8 392.401 243.333 391.601C240.933 390.401 240.8 390.534 242.533 392.401Z" fill="black"/>
<path d="M165.333 398.003C165.333 399.469 174.8 408.269 175.6 407.603C176 407.203 177.6 408.269 179.333 410.136C180.933 411.869 183.333 413.336 184.533 413.336C185.733 413.336 186.667 413.869 186.667 414.669C186.667 415.336 187.867 416.003 189.333 416.003C190.8 416.003 192 416.536 192 417.336C192 418.003 193.2 418.669 194.667 418.669C196.133 418.669 197.333 419.203 197.333 420.003C197.333 420.669 199.2 421.336 201.333 421.336C203.6 421.336 205.333 420.669 205.333 420.003C205.333 419.203 203.6 418.669 201.333 418.669C199.2 418.669 197.333 418.003 197.333 417.336C197.333 416.536 196.133 416.003 194.667 416.003C193.2 416.003 192 415.336 192 414.669C192 413.869 191.067 413.336 190 413.336C188.8 413.336 186.4 411.869 184.533 410.003C182.667 408.136 180.667 406.936 180.133 407.203C179.6 407.603 178.267 406.669 177.333 405.203C176.267 403.869 174.533 402.669 173.333 402.669C172.133 402.669 170.4 401.469 169.333 400.003C167.6 397.469 165.333 396.403 165.333 398.003Z" fill="black"/>
<path d="M317.733 399.201C318.267 400.534 317.867 400.934 316.533 400.401C315.6 400.001 314.667 400.401 314.667 401.201C314.667 403.334 319.6 403.067 320.4 400.801C321.2 398.801 320.267 397.334 318.267 397.334C317.6 397.334 317.333 398.267 317.733 399.201Z" fill="black"/>
<path d="M310.666 405.336C309.6 406.803 308 408.003 306.933 408.003C304.533 408.003 300.8 411.87 302 413.07C302.533 413.603 303.333 413.203 303.6 412.27C304 411.47 304.933 410.67 305.733 410.67C307.466 410.67 314.666 404.936 314.666 403.47C314.666 401.736 312.533 402.803 310.666 405.336Z" fill="black"/>
<path d="M297.067 413.334C293.867 416.401 294 417.068 298 416.268C301.467 415.601 301.867 414.934 300.267 412.534C299.6 411.468 298.667 411.734 297.067 413.334Z" fill="black"/>
<path d="M288 417.068C288 418.934 289.467 419.868 291.467 419.068C294.267 418.001 293.733 416.001 290.667 416.001C289.2 416.001 288 416.534 288 417.068Z" fill="black"/>
<path d="M280 419.868C280 421.468 273.067 422.801 260.667 423.601C245.733 424.401 245.2 426.401 259.867 426.534C267.2 426.668 272 426.134 272 425.334C272 424.668 274.133 424.001 276.667 424.001C279.2 424.001 281.333 423.334 281.333 422.668C281.333 421.868 282.8 421.334 284.667 421.334C286.533 421.334 288 420.668 288 420.001C288 419.201 286.267 418.668 284 418.668C281.867 418.668 280 419.201 280 419.868Z" fill="black"/>
<path d="M208 422.668C208 423.335 209.867 424.001 212 424.001C214.267 424.001 216 424.535 216 425.335C216 426.135 220.267 426.668 226 426.668C231.733 426.668 236 426.135 236 425.335C236 424.535 231.733 424.001 226 424.001C220.267 424.001 216 423.468 216 422.668C216 421.868 214.267 421.335 212 421.335C209.867 421.335 208 421.868 208 422.668Z" fill="black"/>
<path d="M242.667 425.335C242.667 426.001 243.333 426.668 244.133 426.668C244.8 426.668 245.067 426.001 244.667 425.335C244.267 424.535 243.6 424.001 243.2 424.001C242.933 424.001 242.667 424.535 242.667 425.335Z" fill="black"/>
</svg>
