<svg width="518" height="494" viewBox="0 0 518 494" fill="none" xmlns="http://www.w3.org/2000/svg">
<path d="M250.667 1.33464C250.667 2.26797 259.467 2.66797 276 2.66797C290.533 2.53464 301.333 2.0013 301.333 1.2013C301.333 0.534635 290.667 0.00130194 276 0.00130194C259.467 0.00130194 250.667 0.534635 250.667 1.33464Z" fill="black"/>
<path d="M228.933 4.40082C228.533 5.60082 230.8 5.86749 237.467 5.60082C242.533 5.33415 246.4 4.66749 246 4.13415C244.933 2.40082 229.6 2.66749 228.933 4.40082Z" fill="black"/>
<path d="M314.667 4.0026C314.667 4.66927 316.533 5.33594 318.667 5.33594C320.933 5.33594 322.667 4.66927 322.667 4.0026C322.667 3.2026 320.933 2.66927 318.667 2.66927C316.533 2.66927 314.667 3.2026 314.667 4.0026Z" fill="black"/>
<path d="M216 6.67057C216 7.33724 218.4 8.00391 221.333 8.00391C224.267 8.00391 226.667 7.33724 226.667 6.67057C226.667 5.87057 224.267 5.33724 221.333 5.33724C218.4 5.33724 216 5.87057 216 6.67057Z" fill="black"/>
<path d="M330.667 6.67057C330.667 7.33724 331.867 8.00391 333.333 8.00391C334.8 8.00391 336 7.33724 336 6.67057C336 5.87057 334.8 5.33724 333.333 5.33724C331.867 5.33724 330.667 5.87057 330.667 6.67057Z" fill="black"/>
<path d="M205.333 9.33464C205.333 10.0013 207.2 10.668 209.333 10.668C211.6 10.668 213.333 10.0013 213.333 9.33464C213.333 8.53464 211.6 8.0013 209.333 8.0013C207.2 8.0013 205.333 8.53464 205.333 9.33464Z" fill="black"/>
<path d="M341.333 9.20243C341.333 9.8691 343.333 10.6691 345.733 11.0691C348 11.3358 351.867 12.2691 354.267 13.0691C357.733 14.1358 358.4 14.1358 357.733 12.5358C357.333 11.4691 355.333 10.6691 353.2 10.6691C351.067 10.6691 349.333 10.0024 349.333 9.33577C349.333 8.53577 347.6 8.00243 345.333 8.00243C343.2 8.00243 341.333 8.53577 341.333 9.20243Z" fill="black"/>
<path d="M194.667 12.0034C194.667 12.67 192.933 13.3367 190.667 13.3367C188.533 13.3367 186.667 14.0034 186.667 14.8034C186.667 15.7367 188 16.0034 190.4 15.3367C192.4 14.9367 196.267 14.1367 199.067 13.7367C205.333 12.9367 205.6 10.67 199.333 10.67C196.8 10.67 194.667 11.2034 194.667 12.0034Z" fill="black"/>
<path d="M360 14.6706C360 15.3372 361.2 16.0039 362.667 16.0039C364.133 16.0039 365.333 15.3372 365.333 14.6706C365.333 13.8706 364.133 13.3372 362.667 13.3372C361.2 13.3372 360 13.8706 360 14.6706Z" fill="black"/>
<path d="M178.267 17.7355C177.734 19.0688 178.534 19.4688 180.8 18.9355C182.534 18.6688 184 17.8688 184 17.2022C184 15.3355 179.067 15.8688 178.267 17.7355Z" fill="black"/>
<path d="M368.667 17.3346C369.067 18.0013 369.734 18.668 370.134 18.668C370.4 18.668 370.667 18.0013 370.667 17.3346C370.667 16.5346 370 16.0013 369.2 16.0013C368.534 16.0013 368.267 16.5346 368.667 17.3346Z" fill="black"/>
<path d="M170.667 20.0039C170.667 20.6706 169.467 21.3372 168 21.3372C166.533 21.3372 165.333 21.8706 165.333 22.6706C165.333 23.3372 166.533 24.0039 168 24.0039C169.467 24.0039 170.667 23.3372 170.667 22.6706C170.667 21.8706 171.867 21.3372 173.333 21.3372C174.8 21.3372 176 20.6706 176 20.0039C176 19.2039 174.8 18.6706 173.333 18.6706C171.867 18.6706 170.667 19.2039 170.667 20.0039Z" fill="black"/>
<path d="M373.333 20.0026C373.333 20.6693 374.133 21.3359 375.2 21.3359C376.267 21.3359 377.6 20.6693 378 20.0026C378.4 19.2026 377.6 18.6693 376.133 18.6693C374.533 18.6693 373.333 19.2026 373.333 20.0026Z" fill="black"/>
<path d="M378.667 22.6677C378.667 23.3344 379.867 24.001 381.333 24.001C382.8 24.001 384 24.5344 384 25.0677C384 25.601 385.2 26.1344 386.667 26.2677C388.133 26.401 389.333 26.001 389.333 25.201C389.333 24.5344 388.133 24.001 386.667 24.001C385.2 24.001 384 23.3344 384 22.6677C384 21.8677 382.8 21.3344 381.333 21.3344C379.867 21.3344 378.667 21.8677 378.667 22.6677Z" fill="black"/>
<path d="M157.333 25.3358C157.333 26.0025 156.133 26.6691 154.667 26.6691C153.2 26.6691 152 27.2025 152 28.0025C152 28.6691 150.8 29.3358 149.333 29.3358C147.867 29.3358 146.667 29.8691 146.667 30.6691C146.667 31.3358 145.467 32.0025 144 32.0025C141.2 32.0025 140.4 33.8691 142.533 35.3358C143.2 35.7358 144.667 35.0691 145.733 34.0025C146.933 32.9358 148.8 32.0025 149.867 32.0025C151.067 32.0025 152 31.3358 152 30.6691C152 29.8691 153.2 29.3358 154.667 29.3358C156.133 29.3358 157.333 28.6691 157.333 28.0025C157.333 27.2025 158.933 26.6691 160.8 26.6691C162.667 26.6691 163.867 26.1358 163.333 25.3358C162.933 24.5358 161.333 24.0025 159.867 24.0025C158.533 24.0025 157.333 24.5358 157.333 25.3358Z" fill="black"/>
<path d="M392 27.4704C392 28.8038 395.733 32.0038 397.333 32.0038C398.133 32.0038 400.267 33.4704 402 35.2038C403.733 37.0704 406.533 38.8038 408 39.3371C409.467 39.7371 410.667 40.8038 410.667 41.4704C410.667 42.1371 411.6 42.6704 412.667 42.6704C413.733 42.6704 414.667 43.2038 414.667 44.0038C414.667 44.6704 415.333 45.3371 416 45.3371C416.8 45.3371 418.667 46.5371 420.267 48.0038C421.867 49.4704 424 50.6704 424.933 50.6704C425.867 50.6704 426.667 51.2038 426.667 52.0038C426.667 52.6704 427.6 53.3371 428.8 53.3371C430 53.3371 430.4 54.0038 429.867 54.9371C429.333 55.7371 429.467 56.0038 430.4 55.4704C431.2 55.0704 432.8 55.6038 434 56.8038C435.2 58.0038 436.4 58.6704 436.933 58.2704C437.867 57.2038 431.2 50.6704 429.067 50.6704C428 50.6704 426.4 49.4704 425.333 48.0038C424.267 46.5371 422.533 45.3371 421.333 45.3371C420.133 45.3371 418.4 44.1371 417.333 42.6704C416.267 41.2038 414.4 40.0038 413.067 40.0038C411.733 40.0038 410.667 39.3371 410.667 38.6704C410.667 37.8704 409.733 37.3371 408.533 37.3371C407.333 37.3371 404.667 35.4704 402.667 33.3371C400.667 31.0704 398 29.3371 396.8 29.3371C395.6 29.3371 394.667 28.6704 394.667 28.0038C394.667 27.2038 394.133 26.6704 393.333 26.6704C392.667 26.6704 392 27.0704 392 27.4704Z" fill="black"/>
<path d="M136.667 36.0017C136.267 36.6684 134.933 37.3351 133.867 37.3351C131.2 37.3351 127.333 41.2017 128.667 42.4017C129.2 42.9351 130 42.5351 130.267 41.6017C130.667 40.8017 132 40.0017 133.467 40.0017C134.8 40.0017 136 39.3351 136 38.6684C136 37.8684 137.2 37.3351 138.667 37.3351C140.133 37.3351 141.333 36.6684 141.333 36.0017C141.333 35.2017 140.533 34.6684 139.467 34.6684C138.4 34.6684 137.067 35.2017 136.667 36.0017Z" fill="black"/>
<path d="M255.467 35.8694C254.933 36.6694 267.067 37.0694 285.333 37.0694C303.333 37.2028 316 36.6694 316 35.8694C316 34.2694 256.4 34.2694 255.467 35.8694Z" fill="black"/>
<path d="M236 38.6706C236 39.4706 239.733 40.0039 244.667 40.0039C249.6 40.0039 253.333 39.4706 253.333 38.6706C253.333 37.8706 249.6 37.3372 244.667 37.3372C239.733 37.3372 236 37.8706 236 38.6706Z" fill="black"/>
<path d="M317.333 38.9372C317.333 39.4706 320.4 40.0039 324 40.0039C327.733 40.0039 330.667 39.3372 330.667 38.6706C330.667 37.7372 328 37.3372 324 37.4706C320.4 37.7372 317.333 38.2706 317.333 38.9372Z" fill="black"/>
<path d="M224 41.3359C224 42.0026 222.267 42.6693 220 42.6693C217.867 42.6693 216 43.2026 216 44.0026C216 44.6693 217.867 45.3359 220 45.3359C222.267 45.3359 224 44.6693 224 44.0026C224 43.2026 226.4 42.6693 229.333 42.6693C232.267 42.6693 234.667 42.0026 234.667 41.3359C234.667 40.5359 232.267 40.0026 229.333 40.0026C226.4 40.0026 224 40.5359 224 41.3359Z" fill="black"/>
<path d="M333.333 41.3346C333.333 42.0013 335.2 42.668 337.333 42.668C339.6 42.668 341.333 42.0013 341.333 41.3346C341.333 40.5346 339.6 40.0013 337.333 40.0013C335.2 40.0013 333.333 40.5346 333.333 41.3346Z" fill="black"/>
<path d="M122.666 44.0014C122.666 44.668 121.6 45.3347 120.266 45.3347C118.933 45.3347 117.066 46.5347 116 48.0014C114.933 49.468 113.2 50.668 112 50.668C110.8 50.668 109.066 51.868 108 53.3347C106.933 54.8014 105.333 56.0014 104.4 56.0014C103.466 56.0014 100.8 57.7347 98.3998 60.0014C96.1332 62.1347 93.7332 64.0014 93.0665 64.0014C92.3998 64.0014 89.4665 66.4014 86.6665 69.3347C83.8665 72.268 80.7998 74.668 79.9998 74.668C79.1998 74.668 74.3998 78.8014 69.3332 84.0014C64.2665 89.068 59.0665 93.3347 57.7332 93.3347C55.4665 93.468 55.4665 93.468 57.5998 94.8014C59.5998 95.868 61.5998 94.5347 69.3332 86.668C74.3998 81.6014 79.1998 77.3347 80.1332 77.3347C80.9332 77.3347 83.3332 75.468 85.3332 73.3347C87.3332 71.068 89.7332 69.3347 90.5332 69.3347C91.4665 69.3347 94.1332 67.2014 96.7998 64.668C99.3332 62.1347 102 60.0014 102.666 60.0014C103.333 60.0014 105.333 58.5347 107.2 56.668C109.066 54.8014 111.333 53.3347 112.266 53.3347C113.333 53.3347 114.933 52.1347 116 50.668C117.066 49.2014 118.666 48.0014 119.733 48.0014C120.666 48.0014 122.4 47.068 123.6 46.0014C124.666 44.9347 126.133 44.4014 126.933 44.8014C127.866 45.3347 128 45.068 127.466 44.268C126.266 42.268 122.666 42.1347 122.666 44.0014Z" fill="black"/>
<path d="M346 44.0008C347.067 45.7341 350.667 45.7341 353.333 44.0008C354.8 43.0674 354 42.6674 350.267 42.6674C347.2 42.6674 345.467 43.2008 346 44.0008Z" fill="black"/>
<path d="M205.333 46.668C205.333 47.3346 204.133 48.0013 202.667 48.0013C201.2 48.0013 200 48.5346 200 49.3346C200 50.0013 201.2 50.668 202.667 50.668C204.133 50.668 205.333 50.0013 205.333 49.3346C205.333 48.5346 207.2 48.0013 209.333 48.0013C211.6 48.0013 213.333 47.3346 213.333 46.668C213.333 45.868 211.6 45.3346 209.333 45.3346C207.2 45.3346 205.333 45.868 205.333 46.668Z" fill="black"/>
<path d="M357.333 46.6687C357.333 48.4021 358.8 48.4021 361.333 46.6687C362.933 45.6021 362.8 45.3354 360.4 45.3354C358.667 45.3354 357.333 45.8687 357.333 46.6687Z" fill="black"/>
<path d="M362.667 49.3359C362.667 50.0026 364.533 50.6693 366.667 50.6693C368.933 50.6693 370.667 51.2026 370.667 52.0026C370.667 52.6693 371.867 53.3359 373.333 53.3359C374.8 53.3359 376 52.6693 376 52.0026C376 51.2026 374.8 50.6693 373.333 50.6693C371.867 50.6693 370.667 50.0026 370.667 49.3359C370.667 48.5359 368.933 48.0026 366.667 48.0026C364.533 48.0026 362.667 48.5359 362.667 49.3359Z" fill="black"/>
<path d="M190 52.0026C189.6 52.6693 188 53.3359 186.533 53.3359C185.2 53.3359 184 53.8693 184 54.6693C184 55.3359 182.8 56.0026 181.333 56.0026C179.867 56.0026 178.667 56.5359 178.667 57.3359C178.667 58.0026 177.467 58.6693 176 58.6693C174.533 58.6693 173.333 59.2026 173.333 60.0026C173.333 60.6693 174.533 61.3359 176 61.3359C177.467 61.3359 178.667 60.6693 178.667 60.0026C178.667 59.2026 179.867 58.6693 181.333 58.6693C182.8 58.6693 184 58.0026 184 57.3359C184 56.5359 185.2 56.0026 186.533 56.0026C187.867 56.0026 189.333 55.2026 189.733 54.1359C190.133 52.9359 191.733 52.5359 193.867 52.9359C195.867 53.3359 197.333 53.0693 197.333 52.1359C197.333 50.2693 191.067 50.1359 190 52.0026Z" fill="black"/>
<path d="M378.667 54.1348C378.667 56.0014 382.8 58.6681 385.6 58.6681C387.333 58.6681 389.6 59.4681 390.533 60.2681C392 61.6014 391.867 61.3348 390.533 58.9348C389.333 57.0681 387.467 56.0014 385.067 56.0014C382.933 56.0014 381.333 55.3348 381.333 54.6681C381.333 53.8681 380.8 53.3348 380 53.3348C379.333 53.3348 378.667 53.7348 378.667 54.1348Z" fill="black"/>
<path d="M363.334 60.0007C362.8 60.8007 364 61.334 366.534 61.0674C368.8 60.934 370.667 60.2674 370.667 59.734C370.667 58.134 364.267 58.4007 363.334 60.0007Z" fill="black"/>
<path d="M440 59.3361C440 59.7361 442.133 62.1361 444.667 64.6695C449.067 69.2028 453.333 70.8028 453.333 68.0028C453.333 67.2028 452.4 66.6695 451.2 66.6695C450 66.6695 447.333 64.8028 445.333 62.6695C441.867 58.9361 440 57.7361 440 59.3361Z" fill="black"/>
<path d="M165.333 62.6706C165.333 63.3372 166.533 64.0039 168 64.0039C169.467 64.0039 170.667 63.3372 170.667 62.6706C170.667 61.8706 169.467 61.3372 168 61.3372C166.533 61.3372 165.333 61.8706 165.333 62.6706Z" fill="black"/>
<path d="M351.2 62.8039C350.8 63.4706 352.4 64.0039 354.534 64.0039C356.8 64.0039 358.667 63.4706 358.667 62.8039C358.667 62.1372 357.2 61.6039 355.334 61.6039C353.467 61.6039 351.6 62.1372 351.2 62.8039Z" fill="black"/>
<path d="M162 65.3346C162.4 66.0013 163.733 66.668 164.8 66.668C165.867 66.668 166.4 66.0013 166 65.3346C165.6 64.5346 164.267 64.0013 163.2 64.0013C162.133 64.0013 161.6 64.5346 162 65.3346Z" fill="black"/>
<path d="M338.133 66.1363C337.6 67.3363 337.6 68.6696 338 69.0696C338.4 69.4696 338.667 69.0696 338.667 68.2696C338.667 67.3363 340.667 66.6696 343.467 66.6696C349.067 66.6696 348.667 64.6696 342.933 64.2696C340.267 64.1363 338.667 64.6696 338.133 66.1363Z" fill="black"/>
<path d="M157.333 68.0017C157.333 68.6684 156.4 69.3351 155.2 69.3351C152.533 69.3351 148.666 73.2017 150 74.4017C150.533 74.9351 151.333 74.5351 151.6 73.6017C152 72.8017 153.066 72.0017 154.266 72.0017C156.133 72.0017 160 68.9351 160 67.4684C160 67.0684 159.466 66.6684 158.666 66.6684C158 66.6684 157.333 67.2017 157.333 68.0017Z" fill="black"/>
<path d="M331.2 68.2693C330.8 68.8026 331.467 69.3359 332.533 69.3359C333.6 69.3359 334.8 68.8026 335.2 68.2693C335.6 67.6026 334.933 67.0693 333.867 67.0693C332.8 67.0693 331.6 67.6026 331.2 68.2693Z" fill="black"/>
<path d="M321.333 70.6711C322.933 71.7378 322.8 72.0045 320.4 72.0045C318.667 72.0045 317.333 72.6711 317.333 73.4711C317.333 74.4045 318.267 74.5378 319.733 74.0045C320.933 73.4711 323.6 72.6711 325.6 72.2711C330.533 71.4711 328.933 69.3378 323.6 69.3378C320.4 69.3378 319.867 69.7378 321.333 70.6711Z" fill="black"/>
<path d="M453.333 72.1372C453.333 73.6039 454 74.4039 454.667 74.0039C455.467 73.6039 456 74.1372 456 75.3372C456 76.5372 456.667 77.0706 457.333 76.6706C458.133 76.2706 458.667 76.5372 458.667 77.2039C458.667 78.0039 461.067 81.2039 464 84.1372C466.933 87.2039 469.333 90.5372 469.333 91.4706C469.333 92.5372 470 93.3372 470.667 93.3372C471.467 93.3372 472 94.5372 472 96.0039C472 97.4706 472.667 98.6706 473.333 98.6706C474.133 98.6706 474.667 99.8706 474.667 101.337C474.667 102.804 475.333 104.004 476 104.004C476.8 104.004 477.333 102.804 477.333 101.337C477.333 99.8706 476.8 98.6706 476 98.6706C475.333 98.6706 474.667 97.4706 474.667 96.0039C474.667 94.5372 474.133 93.3372 473.333 93.3372C472.667 93.3372 472 92.2706 472 90.9372C472 89.6039 470.8 87.7372 469.333 86.6706C467.867 85.6039 466.667 84.0039 466.667 83.0706C466.667 81.3372 455.6 69.3372 454 69.3372C453.6 69.3372 453.333 70.5372 453.333 72.1372Z" fill="black"/>
<path d="M313.333 74.5372C312.267 75.3372 310.933 75.4706 310.4 75.2039C309.867 74.8039 309.333 75.2039 309.333 75.8706C309.333 76.6706 307.733 77.3372 305.867 77.3372C304 77.3372 302.8 77.8706 303.333 78.6706C303.733 79.3372 305.333 80.0039 306.8 80.0039C308.133 80.0039 309.333 79.3372 309.333 78.6706C309.333 77.8706 310.8 77.3372 312.4 77.3372C314.267 77.3372 315.6 76.5372 315.6 75.3372C315.6 74.2706 315.467 73.3372 315.467 73.3372C315.333 73.3372 314.4 73.8706 313.333 74.5372Z" fill="black"/>
<path d="M144 76.0042C144 76.6708 142.933 77.3375 141.6 77.3375C140.266 77.3375 138.4 78.5375 137.333 80.0042C136.266 81.4708 134.4 82.6708 133.066 82.6708C131.733 82.6708 130.666 83.2042 130.666 84.0042C130.666 84.6708 129.6 85.3375 128.4 85.3375C126.533 85.3375 126.4 85.6042 127.866 86.9375C129.333 88.2708 129.733 88.2708 130.266 86.9375C130.666 86.1375 131.866 85.3375 133.2 85.3375C134.4 85.3375 136.266 84.1375 137.333 82.6708C138.4 81.2042 140 80.0042 141.066 80.0042C142.8 80.0042 146.666 76.9375 146.666 75.4708C146.666 75.0708 146.133 74.6708 145.333 74.6708C144.666 74.6708 144 75.2042 144 76.0042Z" fill="black"/>
<path d="M296 81.0678C296 82.9345 297.467 83.8678 299.467 83.0678C302.267 82.0012 301.733 80.0012 298.667 80.0012C297.2 80.0012 296 80.5345 296 81.0678Z" fill="black"/>
<path d="M289.467 84.9352C286.934 87.7352 288.8 88.8018 292.667 86.6685C296 84.9352 297.067 82.6685 294.667 82.6685C294 82.6685 293.334 83.4685 293.334 84.2685C293.334 85.6018 293.067 85.6018 292.267 84.5352C291.6 83.3352 290.8 83.4685 289.467 84.9352Z" fill="black"/>
<path d="M120 92.0014C118.133 94.1347 115.866 96.0014 114.933 96.0014C113.866 96.0014 111.333 97.7347 109.333 100.001C107.333 102.135 104.8 104.001 103.866 104.001C102.533 104.001 102.533 104.401 103.733 105.601C104.933 106.801 105.866 106.401 107.733 104.268C109.2 102.668 111.066 101.335 112 101.335C112.8 101.335 115.333 99.4681 117.333 97.3347C119.333 95.0681 121.733 93.3347 122.666 93.3347C124.266 93.3347 128 90.1347 128 88.8014C128 86.5347 122.933 88.5347 120 92.0014Z" fill="black"/>
<path d="M282.667 89.334C282.667 90.0006 281.467 90.6673 280 90.6673C278.533 90.6673 277.333 91.2006 277.333 92.0006C277.333 92.6673 276.4 93.334 275.2 93.334C274.133 93.334 272.267 94.2673 271.067 95.334C270 96.4006 268.533 97.0673 267.867 96.6673C266.4 95.734 266.267 97.334 267.733 99.6006C268.533 100.801 269.333 100.534 270.667 98.6673C271.733 97.2006 273.6 96.0006 274.933 96.0006C276.267 96.0006 277.333 95.6006 277.333 94.934C277.333 94.4006 279.2 93.2006 281.333 92.2673C285.2 90.534 286.8 88.0006 284 88.0006C283.333 88.0006 282.667 88.534 282.667 89.334Z" fill="black"/>
<path d="M364.8 89.4678C365.733 90.9344 381.333 91.0678 381.333 89.6011C381.333 88.9344 377.467 88.4011 372.667 88.4011C367.867 88.2678 364.4 88.8011 364.8 89.4678Z" fill="black"/>
<path d="M382.667 89.6013C382.667 90.1346 383.467 90.668 384.533 90.668C385.6 90.668 386.8 90.1346 387.2 89.6013C387.467 89.068 386.667 88.5346 385.2 88.5346C383.867 88.5346 382.667 89.068 382.667 89.6013Z" fill="black"/>
<path d="M389.333 89.6018C389.333 90.1352 392.933 90.5352 397.333 90.5352C401.733 90.4018 405.333 90.0018 405.333 89.4685C405.333 88.9352 401.733 88.5352 397.333 88.5352C392.933 88.5352 389.333 88.9352 389.333 89.6018Z" fill="black"/>
<path d="M349.333 92.0037C349.333 92.6704 346.933 93.337 344 93.337C340.933 93.337 338.667 94.0037 338.667 94.8037C338.667 95.737 340.267 96.0037 343.067 95.4704C345.333 94.937 350.133 94.2704 353.733 93.8704C361.333 92.8037 362 90.6704 354.667 90.6704C351.733 90.6704 349.333 91.2037 349.333 92.0037Z" fill="black"/>
<path d="M410.667 92.0039C410.667 92.6706 412.533 93.3372 414.667 93.3372C416.933 93.3372 418.667 93.8706 418.667 94.6706C418.667 95.3372 419.867 96.0039 421.333 96.0039C422.8 96.0039 424 95.3372 424 94.6706C424 93.8706 422.8 93.3372 421.333 93.3372C419.867 93.3372 418.667 92.6706 418.667 92.0039C418.667 91.2039 416.933 90.6706 414.667 90.6706C412.533 90.6706 410.667 91.2039 410.667 92.0039Z" fill="black"/>
<path d="M424.8 95.4693C423.867 97.8693 426.933 101.336 429.867 101.336C432.8 101.336 432.533 100.403 428.8 96.6693C426.133 94.0026 425.467 93.8693 424.8 95.4693Z" fill="black"/>
<path d="M332.4 95.6013C326.933 96.268 326.533 98.668 331.867 98.668C334 98.668 336 97.868 336.533 96.668C336.933 95.6013 337.067 94.8013 336.933 94.9346C336.8 94.9346 334.667 95.3346 332.4 95.6013Z" fill="black"/>
<path d="M52.4 98.0041C51.4667 99.0708 50.6667 100.804 50.6667 102.004C50.6667 103.071 49.4667 104.004 48.1333 104.004C46.6667 104.004 45.2 105.204 44.6667 106.537C44.2667 108.004 42.1333 111.071 40 113.471C37.7333 115.737 36.4 118.137 36.8 118.804C38 120.671 40 120.137 40 118.004C40 116.804 44.2667 111.737 49.3333 106.671C54.5333 101.604 58.6667 97.0708 58.6667 96.6708C58.6667 95.2041 54 96.1374 52.4 98.0041Z" fill="black"/>
<path d="M264 100.002C264 100.669 262.667 101.335 260.933 101.335C259.2 101.335 256.533 102.535 254.933 104.002C253.333 105.469 251.2 106.669 250 106.669C247.733 106.669 247.467 107.869 249.067 110.269C249.867 111.469 250.667 111.202 252 109.335C253.067 107.869 254.667 106.669 255.6 106.669C256.533 106.669 257.333 106.002 257.333 105.335C257.333 104.535 258.533 104.002 260.133 104.002C261.6 104.002 263.733 103.202 264.8 102.135C266.933 99.8686 267.2 98.6686 265.333 98.6686C264.667 98.6686 264 99.2019 264 100.002Z" fill="black"/>
<path d="M316.667 100.003C316.133 100.803 317.333 101.336 319.2 101.336C321.067 101.336 322.667 100.669 322.667 100.003C322.667 99.2026 321.467 98.6693 320.133 98.6693C318.667 98.6693 317.067 99.2026 316.667 100.003Z" fill="black"/>
<path d="M306.667 102.938C306.667 103.471 304.933 104.005 302.667 104.005C298.4 104.005 297.867 104.805 300 108.005C300.8 109.338 301.333 109.471 301.333 108.271C301.333 107.338 303.067 106.671 305.333 106.671C307.6 106.671 309.333 106.005 309.333 105.338C309.333 104.538 310.533 104.005 312 104.005C313.467 104.005 314.667 103.338 314.667 102.671C314.667 101.871 312.933 101.471 310.667 101.605C308.533 101.738 306.667 102.405 306.667 102.938Z" fill="black"/>
<path d="M431.6 102.135C430.533 103.201 432 106.668 433.467 106.668C434.133 106.668 434.667 105.468 434.667 104.001C434.667 101.468 433.2 100.535 431.6 102.135Z" fill="black"/>
<path d="M477.067 109.468C477.334 111.601 478.134 113.735 478.8 114.135C479.467 114.535 480 116.535 480 118.801C480 120.935 480.667 122.668 481.334 122.668C482.134 122.668 482.667 120.801 482.667 118.668C482.667 116.401 482.134 114.668 481.334 114.668C480.667 114.668 480 112.935 480 110.801C480 108.668 479.2 106.668 478.267 106.268C476.934 105.735 476.667 106.668 477.067 109.468Z" fill="black"/>
<path d="M100.4 107.604C99.4667 107.871 98.6667 108.938 98.6667 110.004C98.6667 110.938 96.8 112.538 94.5334 113.604C91.3334 115.204 90.9334 115.871 92.6667 116.538C94 117.071 96.4 115.738 99.3334 112.671C105.067 106.938 105.333 105.471 100.4 107.604Z" fill="black"/>
<path d="M293.333 108.003C293.333 108.669 294.533 109.336 296 109.336C297.467 109.336 298.667 108.669 298.667 108.003C298.667 107.203 297.467 106.669 296 106.669C294.533 106.669 293.333 107.203 293.333 108.003Z" fill="black"/>
<path d="M313.867 107.604C317.334 111.071 336 113.604 336 110.537C336 109.737 333.6 109.337 329.734 109.471C325.734 109.737 323.334 109.337 322.934 108.271C322.667 107.337 320.267 106.671 317.734 106.671C315.067 106.671 313.334 107.071 313.867 107.604Z" fill="black"/>
<path d="M434.667 107.469C434.667 108.669 440.133 113.336 441.6 113.336C442.267 113.336 441.333 111.869 439.467 110.003C436.133 106.669 434.667 105.869 434.667 107.469Z" fill="black"/>
<path d="M245.334 110.669C245.334 111.336 244.267 112.003 242.934 112.003C241.6 112.003 239.734 113.203 238.667 114.669C237.6 116.136 235.867 117.336 234.667 117.336C233.467 117.336 231.734 118.536 230.667 120.003C229.6 121.469 227.867 122.669 226.667 122.669C225.467 122.669 223.734 123.869 222.667 125.336C221.6 126.803 220 128.003 218.934 128.003C216.8 128.003 210.134 134.536 211.2 135.603C211.6 136.136 213.067 135.069 214.534 133.603C215.867 132.003 217.867 130.669 218.8 130.669C219.867 130.669 221.6 129.469 222.667 128.003C223.734 126.536 225.467 125.336 226.667 125.336C227.867 125.336 229.6 124.136 230.667 122.669C231.734 121.203 233.467 120.003 234.534 120.003C235.467 120.003 237.334 118.936 238.534 117.603C239.734 116.403 242.267 114.536 244.4 113.469C248 111.603 249.2 109.336 246.667 109.336C246 109.336 245.334 109.869 245.334 110.669Z" fill="black"/>
<path d="M341.333 113.335C341.333 114.001 342.533 114.668 344 114.668C345.467 114.668 346.667 114.001 346.667 113.335C346.667 112.535 345.467 112.001 344 112.001C342.533 112.001 341.333 112.535 341.333 113.335Z" fill="black"/>
<path d="M349.333 116.003C349.333 116.669 350.533 117.336 352 117.336C353.467 117.336 354.667 116.669 354.667 116.003C354.667 115.203 353.467 114.669 352 114.669C350.533 114.669 349.333 115.203 349.333 116.003Z" fill="black"/>
<path d="M440 116.003C440 116.669 440.667 117.336 441.333 117.336C442.133 117.336 442.667 116.669 442.667 116.003C442.667 115.203 442.133 114.669 441.333 114.669C440.667 114.669 440 115.203 440 116.003Z" fill="black"/>
<path d="M81.4669 124.935C76.8002 129.735 74.8002 132.668 75.7336 133.601C76.5336 134.401 79.8669 132.135 85.2002 126.801C89.6002 122.401 93.3336 118.535 93.3336 118.135C93.3336 115.335 87.6002 118.668 81.4669 124.935Z" fill="black"/>
<path d="M356 118.002C356 118.269 357.2 119.202 358.667 120.002C360.8 121.202 361.067 121.069 360.533 119.335C359.867 117.602 356 116.402 356 118.002Z" fill="black"/>
<path d="M442.667 121.468C442.667 122.935 443.333 123.735 444 123.335C444.8 122.935 445.333 121.602 445.333 120.535C445.333 119.468 444.8 118.668 444 118.668C443.333 118.668 442.667 119.868 442.667 121.468Z" fill="black"/>
<path d="M31.2002 124.537C27.2002 128.67 27.2002 128.937 29.4669 130.403C31.4669 131.737 32.0002 131.603 32.0002 130.003C32.0002 128.937 32.6669 128.003 33.4669 128.003C34.1335 128.003 34.5335 127.47 34.0002 126.803C33.6002 126.137 34.2669 124.67 35.3335 123.603C36.4002 122.403 37.3335 121.203 37.3335 120.803C37.3335 119.07 35.0669 120.403 31.2002 124.537Z" fill="black"/>
<path d="M362.667 121.335C362.667 122.001 363.333 122.668 364 122.668C364.8 122.668 365.333 122.001 365.333 121.335C365.333 120.535 364.8 120.001 364 120.001C363.333 120.001 362.667 120.535 362.667 121.335Z" fill="black"/>
<path d="M370.667 126.137C370.667 126.537 374.267 130.403 378.667 134.67C383.067 138.937 386.667 143.337 386.667 144.27C386.667 145.337 387.867 146.937 389.333 148.003C390.8 149.07 392 150.937 392 152.27C392 153.603 392.667 154.67 393.333 154.67C394.133 154.67 394.667 156.137 394.667 158.003C394.667 159.87 395.333 161.337 396 161.337C396.8 161.337 397.333 162.803 397.333 164.67C397.333 166.537 398 168.003 398.667 168.003C399.467 168.003 400 169.737 400 171.87C400 174.003 400.8 176.003 401.733 176.403C404.133 177.337 403.067 169.07 400.667 167.737C399.733 167.07 399.2 165.603 399.6 164.137C400 162.803 399.6 161.203 398.8 160.803C398 160.27 397.333 158.67 397.333 157.203C397.333 155.87 396.8 154.67 396 154.67C395.333 154.67 394.667 153.603 394.667 152.27C394.667 150.937 393.467 149.07 392 148.003C390.533 146.937 389.333 145.337 389.333 144.403C389.333 143.337 385.467 138.67 380.667 134.003C372.533 125.87 370.667 124.403 370.667 126.137Z" fill="black"/>
<path d="M445.467 137.336C445.6 143.869 446.133 149.336 446.667 149.336C447.333 149.336 447.867 143.869 447.867 137.336C448 130.003 447.467 125.336 446.667 125.336C445.867 125.336 445.333 130.003 445.467 137.336Z" fill="black"/>
<path d="M482.667 140.668C482.667 149.068 483.2 154.668 484 154.668C484.8 154.668 485.333 149.068 485.333 140.668C485.333 132.268 484.8 126.668 484 126.668C483.2 126.668 482.667 132.268 482.667 140.668Z" fill="black"/>
<path d="M24.4 134.004C22.6667 135.737 21.3334 137.871 21.3334 138.804C21.3334 139.604 19.4667 142.004 17.2 144.137C14.9334 146.271 13.8667 148.004 14.8 148.004C16.6667 148.004 25.3334 139.071 25.3334 137.204C25.3334 136.537 26.2667 136.004 27.3334 136.004C28.4 136.004 29.3334 134.804 29.3334 133.337C29.3334 129.871 28 130.137 24.4 134.004Z" fill="black"/>
<path d="M69.7335 136.669C66.0002 140.669 65.8669 141.336 69.4669 141.336C70.9335 141.336 71.7335 140.669 71.3335 140.003C70.9335 139.203 71.4669 138.669 72.5335 138.669C73.7335 138.669 74.6669 137.469 74.6669 136.003C74.6669 132.536 73.3335 132.803 69.7335 136.669Z" fill="black"/>
<path d="M288.667 134.671C288.267 135.338 284.8 136.004 281.2 136.004C276.667 136.004 274.8 136.538 275.467 137.471C276 138.404 278.4 138.538 281.867 138.004C284.8 137.604 291.333 136.804 296.4 136.538C301.333 136.138 305.067 135.204 304.533 134.538C303.6 132.938 289.733 132.938 288.667 134.671Z" fill="black"/>
<path d="M308.667 134.671C308.267 135.337 308.4 136.004 309.2 136.004C309.867 136.004 310.933 135.337 311.333 134.671C311.733 133.871 311.6 133.337 310.8 133.337C310.133 133.337 309.067 133.871 308.667 134.671Z" fill="black"/>
<path d="M314 134.671C314.4 135.337 318.4 136.004 322.8 136.004C327.2 136.004 330.667 135.471 330.667 134.671C330.667 133.871 326.8 133.337 321.867 133.337C316.4 133.337 313.467 133.871 314 134.671Z" fill="black"/>
<path d="M204 138.669C201.6 140.936 200 143.069 200.533 143.602C200.933 144.002 202.4 143.069 203.867 141.602C205.2 140.002 207.333 138.669 208.533 138.669C210.8 138.669 211.467 136.669 209.467 135.469C208.8 135.069 206.267 136.536 204 138.669Z" fill="black"/>
<path d="M333.333 137.335C333.333 138.001 335.2 138.668 337.333 138.668C339.6 138.668 341.333 138.001 341.333 137.335C341.333 136.535 339.6 136.001 337.333 136.001C335.2 136.001 333.333 136.535 333.333 137.335Z" fill="black"/>
<path d="M266.667 140.004C266.667 140.671 264.933 141.338 262.667 141.338C260.533 141.338 258.667 141.871 258.667 142.671C258.667 143.338 257.467 144.004 256 144.004C254.533 144.004 253.333 144.538 253.333 145.338C253.333 146.004 252.133 146.671 250.667 146.671C249.2 146.671 248 147.204 248 148.004C248 148.671 246.8 149.338 245.333 149.338C243.867 149.338 242.667 149.871 242.667 150.671C242.667 151.338 241.467 152.004 240 152.004C238.533 152.004 237.333 152.538 237.333 153.338C237.333 154.004 236.133 154.671 234.667 154.671C233.2 154.671 232 155.204 232 156.004C232 156.671 230.933 157.338 229.733 157.338C227.867 157.338 227.733 157.604 229.2 158.938C230.667 160.271 231.067 160.271 231.6 158.938C232 158.138 233.333 157.338 234.8 157.338C236.133 157.338 237.333 156.671 237.333 156.004C237.333 155.204 238.533 154.671 240 154.671C241.467 154.671 242.667 154.004 242.667 153.338C242.667 152.538 243.867 152.004 245.2 152.004C246.667 152.004 248 151.471 248.267 150.804C248.533 150.138 250.133 149.338 252 149.071C253.867 148.938 256.267 147.604 257.467 146.271C258.667 145.071 261.2 144.004 263.2 144.004C265.067 144.004 266.667 143.338 266.667 142.671C266.667 141.871 268.533 141.338 270.667 141.338C272.933 141.338 274.667 140.671 274.667 140.004C274.667 139.204 272.933 138.671 270.667 138.671C268.533 138.671 266.667 139.204 266.667 140.004Z" fill="black"/>
<path d="M344 139.336C344 140.669 350.533 146.669 352 146.669C354.133 146.669 370.667 163.736 370.667 166.003C370.667 167.069 371.333 168.003 372 168.003C372.8 168.003 373.333 169.203 373.333 170.669C373.333 172.136 374 173.336 374.667 173.336C375.467 173.336 376 172.136 376 170.669C376 169.203 375.467 168.003 374.667 168.003C374 168.003 373.333 167.069 373.333 165.869C373.333 164.669 371.6 162.136 369.333 160.003C367.2 158.003 365.333 155.603 365.067 154.536C364.533 152.269 361.867 149.336 360.4 149.336C359.733 149.336 357.867 148.136 356.133 146.536C354.533 144.936 352.8 144.003 352.4 144.403C352 144.803 350.4 143.736 348.667 141.869C345.867 138.803 344 137.869 344 139.336Z" fill="black"/>
<path d="M64.5335 142.401C64.9335 143.201 62.6668 146.667 59.2002 150.001C55.8668 153.467 53.3335 156.534 53.7335 156.934C54.6668 157.734 66.6668 145.867 66.6668 144.134C66.6668 143.467 66.0002 142.401 65.0668 141.867C64.1335 141.334 64.0002 141.467 64.5335 142.401Z" fill="black"/>
<path d="M192.133 147.469C190.533 149.336 189.467 151.203 189.867 151.603C190.267 152.136 191.733 151.069 193.2 149.603C194.533 148.003 196.667 146.669 197.867 146.669C199.067 146.669 200 146.003 200 145.336C200 142.803 195.333 144.136 192.133 147.469Z" fill="black"/>
<path d="M9.73322 154.003C7.33322 156.537 5.33322 159.47 5.33322 160.537C5.33322 161.603 4.53322 162.67 3.73322 163.07C2.79988 163.337 2.39988 164.137 2.93322 164.67C3.99988 165.87 7.99988 162.137 7.99988 160.003C7.99988 159.07 9.86655 156.67 11.9999 154.67C14.2666 152.67 15.9999 150.537 15.9999 150.137C15.9999 148.403 13.7332 149.737 9.73322 154.003Z" fill="black"/>
<path d="M445.333 152.668C445.333 153.735 446 154.668 446.667 154.668C447.467 154.668 448 153.735 448 152.668C448 151.601 447.467 150.668 446.667 150.668C446 150.668 445.333 151.601 445.333 152.668Z" fill="black"/>
<path d="M184.933 152.936C183.466 154.269 183.866 157.336 185.466 157.336C186.266 157.336 186.666 156.403 186.266 155.469C185.733 154.003 186.133 153.736 187.6 154.269C189.066 154.803 189.466 154.536 188.8 153.603C187.733 151.869 186.266 151.603 184.933 152.936Z" fill="black"/>
<path d="M173.333 164.004C170 167.604 166.267 170.537 164.933 170.537C163.6 170.671 162.933 171.204 163.333 172.004C163.733 172.671 163.467 173.337 162.667 173.337C160.667 173.337 157.333 176.671 157.333 178.804C157.333 179.737 156.933 180.137 156.533 179.604C155.2 178.271 151.733 182.537 152.8 184.137C153.333 185.204 153.2 185.337 152.133 184.804C151.333 184.271 149.733 184.671 148.667 185.871C146.4 188.137 146 192.004 148 192.004C148.8 192.004 149.333 191.071 149.333 189.871C149.333 188.671 150 188.271 150.933 188.804C151.867 189.337 152 189.204 151.467 188.271C150.933 187.337 151.067 186.671 151.867 186.671C152.533 186.671 158.667 181.204 165.2 174.671C171.867 168.004 178.267 162.671 179.467 162.671C180.533 162.671 181.067 162.004 180.667 161.337C180.267 160.537 180.533 160.004 181.2 160.004C182 160.004 182.667 159.337 182.667 158.671C182.667 155.737 179.067 157.871 173.333 164.004Z" fill="black"/>
<path d="M442.667 162.671C442.667 165.604 443.333 168.004 444 168.004C444.8 168.004 445.333 165.604 445.333 162.671C445.333 159.737 444.8 157.337 444 157.337C443.333 157.337 442.667 159.737 442.667 162.671Z" fill="black"/>
<path d="M479.6 162.937C479.2 166.137 478.534 170.271 478 172.271C477.334 174.671 477.6 176.004 478.534 176.004C479.334 176.004 480 174.271 480 172.137C480 169.871 480.667 167.737 481.334 167.337C482.934 166.271 483.067 157.337 481.467 157.337C480.8 157.337 480 159.871 479.6 162.937Z" fill="black"/>
<path d="M50.6665 161.335C50.6665 162.001 51.3332 162.668 51.9998 162.668C52.7998 162.668 53.3332 162.001 53.3332 161.335C53.3332 160.535 52.7998 160.001 51.9998 160.001C51.3332 160.001 50.6665 160.535 50.6665 161.335Z" fill="black"/>
<path d="M222.667 162.67C221.6 164.136 219.867 165.336 218.933 165.336C217.867 165.336 215.333 167.07 213.333 169.336C211.333 171.47 208.933 173.336 208.133 173.336C206.133 173.336 191.467 188.003 192.533 188.936C192.933 189.336 195.6 187.203 198.533 184.136C201.467 181.203 204.533 178.67 205.333 178.67C206.267 178.67 208.667 176.803 210.667 174.67C212.667 172.403 215.067 170.67 216 170.67C216.933 170.67 219.333 168.803 221.333 166.67C223.333 164.403 226 162.67 227.2 162.67C228.4 162.67 229.333 162.003 229.333 161.336C229.333 158.936 224.667 159.87 222.667 162.67Z" fill="black"/>
<path d="M48 163.203C48 164.403 48.6667 165.336 49.3333 165.336C50.1333 165.336 50.6667 164.803 50.6667 164.136C50.6667 163.336 50.1333 162.403 49.3333 162.003C48.6667 161.603 48 162.136 48 163.203Z" fill="black"/>
<path d="M46.1335 167.868C45.6002 168.801 45.4669 169.868 45.8669 170.268C47.0669 171.468 48.4002 169.734 47.7335 167.868C47.2002 166.401 46.9335 166.401 46.1335 167.868Z" fill="black"/>
<path d="M0 169.335C0 170.001 0.666667 170.668 1.33333 170.668C2.13333 170.668 2.66667 170.001 2.66667 169.335C2.66667 168.535 2.13333 168.001 1.33333 168.001C0.666667 168.001 0 168.535 0 169.335Z" fill="black"/>
<path d="M441.733 170.269C439.733 170.936 439.333 181.336 441.2 181.336C441.867 181.336 442.667 178.669 442.933 175.336C443.2 172.003 443.333 169.336 443.333 169.469C443.333 169.469 442.533 169.869 441.733 170.269Z" fill="black"/>
<path d="M2.6665 174.671C2.6665 175.337 3.33317 176.004 3.99984 176.004C4.79984 176.004 5.33317 175.337 5.33317 174.671C5.33317 173.871 4.79984 173.337 3.99984 173.337C3.33317 173.337 2.6665 173.871 2.6665 174.671Z" fill="black"/>
<path d="M48 174.134C48 175.467 52.1333 178.934 52.9333 178.267C53.3333 177.867 52.6667 176.534 51.6 175.334C49.4667 173.334 48 172.801 48 174.134Z" fill="black"/>
<path d="M376.933 174.271C375.467 175.604 375.867 181.337 377.333 181.337C378.133 181.337 378.667 183.737 378.667 186.537C378.667 189.471 379.333 192.004 380.4 192.404C381.6 192.804 381.867 191.604 381.467 187.471C381.2 184.537 380.533 181.604 379.867 181.204C379.2 180.804 378.533 178.937 378.4 176.937C378 172.937 378.133 173.071 376.933 174.271Z" fill="black"/>
<path d="M4.6665 177.335C4.2665 178.001 4.79983 178.668 5.8665 178.668C7.0665 178.668 7.99983 179.735 7.99983 180.935C7.99983 182.668 8.39983 182.801 9.4665 181.735C10.6665 180.535 10.5332 179.601 8.93316 178.135C6.53316 175.601 5.73316 175.468 4.6665 177.335Z" fill="black"/>
<path d="M52.1332 179.869C50.7999 180.669 50.9332 181.203 52.5332 181.736C53.5999 182.136 54.9332 182.003 55.3332 181.336C56.3999 179.603 54.1332 178.669 52.1332 179.869Z" fill="black"/>
<path d="M402.667 182.669C402.667 184.803 403.333 186.669 404 186.669C404.8 186.669 405.333 197.336 405.333 216.003C405.333 234.669 404.8 245.336 404 245.336C403.333 245.336 402.667 247.736 402.667 250.669C402.667 253.603 402.133 256.003 401.333 256.003C400.667 256.003 400 257.469 400 259.336C400 261.203 399.467 262.669 398.667 262.669C398 262.669 397.333 263.469 397.333 264.536C397.333 265.603 396.533 266.669 395.733 267.069C394.8 267.336 394.4 268.136 394.933 268.669C396.133 270.003 402.667 263.336 402.667 260.669C402.667 259.603 403.333 258.669 404 258.669C404.8 258.669 405.333 255.736 405.333 252.136C405.333 248.403 406 245.069 406.667 244.669C407.467 244.136 408 232.936 408 215.203C408 197.069 407.467 186.669 406.667 186.669C406 186.669 405.333 184.803 405.333 182.669C405.333 180.403 404.8 178.669 404 178.669C403.333 178.669 402.667 180.403 402.667 182.669Z" fill="black"/>
<path d="M475.867 180.671C475.467 181.337 474.267 184.671 473.333 188.004C472.267 191.337 471.067 194.271 470.667 194.671C469.733 195.604 466.667 204.404 466.667 206.404C466.667 207.337 467.333 208.004 468 208.004C468.8 208.004 469.333 206.137 469.333 203.871C469.333 201.604 469.867 200.137 470.667 200.671C471.467 201.204 472 200.004 472 198.137C472 196.271 472.667 194.671 473.333 194.671C474.133 194.671 474.667 192.937 474.667 190.804C474.667 188.671 475.333 186.671 476.133 186.404C476.933 186.137 477.333 184.404 477.067 182.671C476.933 180.804 476.267 179.871 475.867 180.671Z" fill="black"/>
<path d="M10.6665 183.336C10.6665 186.269 17.0665 192.403 18.9332 191.203C19.8665 190.669 19.9998 190.803 19.4665 191.869C18.5332 193.203 21.4665 197.336 23.1998 197.336C25.7332 197.336 23.1998 192.403 17.9998 187.336C11.4665 180.803 10.6665 180.269 10.6665 183.336Z" fill="black"/>
<path d="M437.333 186.27C437.333 187.604 438 189.604 438.667 190.67C439.6 192.137 440 191.604 440 188.27C440 186.004 439.467 184.004 438.667 184.004C438 184.004 437.333 185.07 437.333 186.27Z" fill="black"/>
<path d="M60.1335 188.935C64.4002 194.269 68.1335 197.469 69.3335 196.669C70.1335 196.135 70.2668 196.802 69.7335 198.135C69.2002 199.735 69.3335 200.135 70.4002 199.469C72.6668 198.135 72.4002 194.669 70.0002 194.669C67.4668 194.669 61.0668 188.669 62.2668 187.469C62.8002 187.069 62.0002 186.669 60.6668 186.669C58.6668 186.669 58.5335 186.935 60.1335 188.935Z" fill="black"/>
<path d="M188 191.336C185.733 194.136 187.333 195.469 190 192.936C191.067 191.736 192 190.536 192 190.136C192 188.669 189.6 189.336 188 191.336Z" fill="black"/>
<path d="M138.934 198.137C135.734 201.471 133.334 204.537 133.734 204.937C134.534 205.604 146.667 194.004 146.667 192.671C146.667 190.937 144.267 192.671 138.934 198.137Z" fill="black"/>
<path d="M434.667 194.669C434.667 196.136 435.333 197.336 436 197.336C436.8 197.336 437.333 196.136 437.333 194.669C437.333 193.203 436.8 192.003 436 192.003C435.333 192.003 434.667 193.203 434.667 194.669Z" fill="black"/>
<path d="M184 194.001C184 196.401 177.733 202.668 175.467 202.668C174.267 202.668 173.333 203.601 173.333 204.801C173.333 205.868 170.933 209.201 168 212.001C165.067 214.801 162.667 218.135 162.667 219.201C162.667 220.401 162.133 221.335 161.333 221.335C160.667 221.335 160 222.535 160 224.001C160 225.468 160.667 226.668 161.333 226.668C162.133 226.668 162.667 225.735 162.667 224.535C162.667 223.335 164.533 220.668 166.667 218.668C168.933 216.668 170.667 214.268 170.667 213.335C170.667 212.535 174.4 208.268 178.8 203.868C184.933 197.868 186.667 195.468 185.467 194.268C184.667 193.468 184 193.335 184 194.001Z" fill="black"/>
<path d="M381.333 213.337C381.333 224.937 381.867 232.004 382.667 232.004C383.467 232.004 384 224.937 384 213.337C384 201.737 383.467 194.671 382.667 194.671C381.867 194.671 381.333 201.737 381.333 213.337Z" fill="black"/>
<path d="M24.8 197.07C23.4667 199.203 43.3333 218.803 45.8667 217.87C47.4667 217.203 47.6 216.67 46.2667 215.337C45.3333 214.403 44.2667 213.87 43.7333 214.137C42.6667 214.803 27.3333 199.87 26.4 197.337C26 196.003 25.6 195.87 24.8 197.07Z" fill="black"/>
<path d="M73.3335 199.734C73.3335 201.734 73.8668 202.401 75.4668 201.734C76.6668 201.334 77.0668 200.534 76.4002 200.134C75.8668 199.734 74.9335 198.801 74.4002 198.134C73.7335 197.468 73.3335 198.134 73.3335 199.734Z" fill="black"/>
<path d="M432 202.669C432 204.136 432.667 205.336 433.333 205.336C434.133 205.336 434.667 204.136 434.667 202.669C434.667 201.203 434.133 200.003 433.333 200.003C432.667 200.003 432 201.203 432 202.669Z" fill="black"/>
<path d="M76.7999 204.671C77.3332 205.738 78.1332 206.271 78.7999 205.871C80.6666 204.804 80.1332 202.671 77.9999 202.671C76.7999 202.671 76.3999 203.471 76.7999 204.671Z" fill="black"/>
<path d="M429.333 206.267C429.333 208.667 428.8 210.667 428 210.667C427.333 210.667 426.667 211.867 426.667 213.334C426.667 214.801 426.133 216.001 425.333 216.001C424.667 216.001 424 217.201 424 218.667C424 220.134 423.467 221.334 422.667 221.334C422 221.334 421.333 222.534 421.333 224.001C421.333 225.467 420.8 226.667 420 226.667C419.333 226.667 418.667 227.867 418.667 229.334C418.667 230.801 418.133 232.001 417.333 232.001C416.667 232.001 416 232.667 416 233.334C416 234.134 417.067 234.001 418.667 233.067C420.133 232.134 421.333 230.267 421.333 229.067C421.333 227.734 422 226.667 422.667 226.667C423.467 226.667 424 225.467 424 224.001C424 222.534 424.667 221.334 425.333 221.334C426.133 221.334 426.667 220.134 426.667 218.667C426.667 217.201 427.333 216.001 428 216.001C428.8 216.001 429.333 214.801 429.333 213.334C429.333 211.867 430 210.667 430.667 210.667C432.4 210.667 432.4 206.667 430.667 204.001C429.733 202.534 429.333 203.067 429.333 206.267Z" fill="black"/>
<path d="M80 206.002C80 206.402 81.8667 208.536 84 210.936C86.2667 213.202 88 216.002 88 217.202C88.1333 219.069 88.2667 219.069 89.4667 217.069C90.5333 215.202 89.8667 213.736 86.1333 210.002C81.6 205.602 80 204.536 80 206.002Z" fill="black"/>
<path d="M130.667 209.338C128.267 211.471 127.867 212.404 129.067 213.604C130.267 214.804 130.667 214.804 130.667 213.471C130.667 212.404 132 210.538 133.6 209.204C135.067 207.738 135.867 206.671 135.067 206.671C134.4 206.671 132.4 207.871 130.667 209.338Z" fill="black"/>
<path d="M464 213.202C464 214.668 463.2 216.002 462.4 216.402C461.467 216.668 461.067 217.468 461.6 218.002C462.8 219.335 466.667 215.468 466.667 212.802C466.667 211.602 466.134 210.668 465.334 210.668C464.667 210.668 464 211.868 464 213.202Z" fill="black"/>
<path d="M125.334 215.737C125.334 217.071 124.134 218.937 122.667 220.004C121.2 221.071 120 222.937 120 224.137C120 225.471 119.2 226.671 118.4 227.071C117.467 227.337 117.067 228.137 117.6 228.671C118.8 229.871 122.667 226.137 122.667 223.737C122.667 222.671 123.867 221.071 125.334 220.004C128.134 218.004 129.067 213.337 126.667 213.337C126 213.337 125.334 214.404 125.334 215.737Z" fill="black"/>
<path d="M90.6665 216.801C90.6665 218.934 94.5332 223.868 102.133 231.468C109.867 239.334 114.667 242.001 114.667 238.668C114.667 237.868 113.733 237.334 112.533 237.334C111.467 237.334 110.933 236.668 111.333 236.001C111.733 235.201 110.933 234.668 109.467 234.668C106.933 234.668 106 233.201 106.533 230.268C106.667 229.601 106.133 229.468 105.333 230.001C104.667 230.401 104 230.134 104 229.334C104 228.534 101.333 225.201 97.9998 222.001C92.3998 216.268 90.6665 215.068 90.6665 216.801Z" fill="black"/>
<path d="M45.3335 219.334C45.3335 221.068 68.1335 242.668 70.0002 242.668C71.0668 242.668 72.0002 243.868 72.0002 245.335C72.0002 246.801 72.9335 248.001 74.1335 248.001C75.3335 248.001 75.7335 248.668 75.2002 249.601C74.6668 250.535 74.6668 250.935 75.2002 250.401C76.4002 249.468 76.8002 249.735 83.8668 256.001C88.2668 259.868 89.3335 260.668 89.3335 259.335C89.3335 258.001 57.3335 226.668 56.0002 226.668C55.2002 226.668 54.9335 226.001 55.4668 225.068C56.0002 224.134 55.8668 224.001 54.8002 224.534C54.0002 225.068 52.9335 224.534 52.5335 223.468C52.1335 222.268 50.9335 221.334 49.8668 221.334C48.8002 221.334 48.0002 220.668 48.0002 220.001C48.0002 219.201 47.4668 218.668 46.6668 218.668C46.0002 218.668 45.3335 218.934 45.3335 219.334Z" fill="black"/>
<path d="M458.667 221.871C458.667 223.071 459.333 224.004 460 224.004C460.8 224.004 461.333 223.471 461.333 222.804C461.333 222.004 460.8 221.071 460 220.671C459.333 220.271 458.667 220.804 458.667 221.871Z" fill="black"/>
<path d="M157.334 227.068C157.334 228.268 156.8 229.335 156 229.335C155.334 229.335 154.667 230.535 154.667 232.002C154.667 233.468 154.134 234.668 153.334 234.668C152.667 234.668 152 235.868 152 237.202C152 238.668 151.2 240.002 150.4 240.402C149.467 240.668 149.067 241.468 149.6 242.002C150.8 243.335 154.667 239.468 154.667 236.802C154.667 235.602 155.334 234.668 156.134 234.668C156.934 234.668 157.334 233.735 156.8 232.668C156.4 231.602 157.067 230.135 158.4 229.468C160.267 228.402 160.4 227.868 159.067 226.535C157.6 225.068 157.334 225.202 157.334 227.068Z" fill="black"/>
<path d="M456 228.003C456 228.669 456.667 229.336 457.333 229.336C458.133 229.336 458.667 228.669 458.667 228.003C458.667 227.203 458.133 226.669 457.333 226.669C456.667 226.669 456 227.203 456 228.003Z" fill="black"/>
<path d="M114.667 233.871C114.667 236.938 116.8 237.471 116.933 234.538C117.067 233.204 116.667 232.004 115.867 232.004C115.2 232.004 114.667 232.804 114.667 233.871Z" fill="black"/>
<path d="M452.133 234.138C449.733 236.938 451.333 238.138 454 235.604C455.067 234.404 456 233.204 456 232.804C456 231.338 454 232.138 452.133 234.138Z" fill="black"/>
<path d="M413.6 238.536C410.667 240.936 409.6 245.336 411.733 245.336C412.4 245.336 413.733 243.736 414.8 241.603C415.867 239.603 417.2 237.603 418 237.069C418.8 236.403 418.8 236.003 417.867 236.003C417.067 236.003 415.067 237.069 413.6 238.536Z" fill="black"/>
<path d="M379.6 238.271C378.133 239.604 378.533 248.004 380 248.004C380.8 248.004 381.333 245.604 381.333 242.671C381.333 237.204 381.067 236.671 379.6 238.271Z" fill="black"/>
<path d="M448 241.335C446.267 242.802 445.2 244.402 445.733 244.802C446.133 245.202 448.133 244.002 450 242.135C454 238.135 452.533 237.469 448 241.335Z" fill="black"/>
<path d="M146 247.069C144.133 249.336 143.6 253.336 145.333 253.336C146 253.336 146.667 252.136 146.667 250.669C146.667 249.203 147.333 248.003 148 248.003C148.8 248.003 149.333 247.336 149.333 246.669C149.333 244.936 147.6 245.069 146 247.069Z" fill="black"/>
<path d="M442.667 249.336C440.933 250.803 440 252.403 440.4 252.936C441.2 253.603 446.667 248.536 446.667 247.069C446.667 246.136 445.6 246.803 442.667 249.336Z" fill="black"/>
<path d="M376 254.668C376 256.801 375.467 258.668 374.667 258.668C374 258.668 373.333 260.401 373.333 262.668C373.333 264.801 374 266.668 374.8 266.668C375.733 266.668 376 265.201 375.6 263.201C375.2 261.068 375.6 259.468 376.8 259.068C378.933 258.268 379.333 250.668 377.333 250.668C376.667 250.668 376 252.401 376 254.668Z" fill="black"/>
<path d="M141.333 256.671C141.333 257.737 140.933 258.671 140.267 258.671C139.333 258.671 136 267.871 136 270.671C136 271.337 136.667 272.004 137.333 272.004C138.133 272.004 138.667 270.137 138.667 267.871C138.667 265.604 139.2 264.137 140 264.671C140.8 265.204 141.333 264.004 141.333 262.137C141.333 260.271 142 258.671 142.667 258.671C143.467 258.671 144 257.737 144 256.671C144 255.604 143.467 254.671 142.667 254.671C142 254.671 141.333 255.604 141.333 256.671Z" fill="black"/>
<path d="M437.333 258.003C437.333 259.87 437.867 261.203 438.667 260.67C439.333 260.27 443.2 263.336 447.333 267.47C451.467 271.603 455.2 274.67 455.6 274.27C455.867 273.87 452 269.336 446.8 264.003C438.133 255.203 437.333 254.803 437.333 258.003Z" fill="black"/>
<path d="M370.934 271.201C371.2 272.135 369.334 274.801 367.067 277.068C364.667 279.201 362.667 282.001 362.667 283.068C362.667 284.268 361.867 285.335 361.067 285.735C359.734 286.268 359.734 286.668 361.067 288.135C362.4 289.601 362.667 289.468 362.667 287.868C362.667 286.801 363.867 285.068 365.334 284.001C366.8 282.935 368 281.201 368 280.001C368 278.801 369.2 277.068 370.667 276.001C373.467 274.001 374.4 269.335 372 269.335C371.2 269.335 370.667 270.135 370.934 271.201Z" fill="black"/>
<path d="M80.3998 275.335C78.6665 277.068 77.3331 279.335 77.3331 280.268C77.3331 281.335 76.1331 282.935 74.6665 284.001C71.8665 286.001 70.9331 290.668 73.3331 290.668C74.1331 290.668 74.6665 289.601 74.6665 288.268C74.6665 286.935 75.8665 285.068 77.3331 284.001C78.7998 282.935 79.9998 281.201 79.9998 280.001C79.9998 278.801 81.1998 277.068 82.6665 276.001C85.3331 274.135 86.2665 271.868 84.3998 272.135C83.7331 272.135 81.9998 273.601 80.3998 275.335Z" fill="black"/>
<path d="M133.333 277.337C133.333 278.804 134 280.004 134.667 280.004C135.467 280.004 136 278.804 136 277.337C136 275.871 135.467 274.671 134.667 274.671C134 274.671 133.333 275.871 133.333 277.337Z" fill="black"/>
<path d="M417.467 282.135C416.533 283.201 416.133 284.535 416.667 285.068C417.067 285.468 418 285.068 418.667 284.001C419.6 282.401 420.4 282.668 422.667 285.335C424.8 287.735 425.733 288.135 426.933 286.935C428.133 285.735 428.133 285.335 426.533 285.335C425.467 285.335 423.733 284.135 422.667 282.668C420.4 279.468 419.867 279.468 417.467 282.135Z" fill="black"/>
<path d="M461.333 280.801C461.333 282.401 472.533 291.867 473.6 291.201C475.6 290.001 474.667 287.734 472.533 288.534C470.933 289.067 470.533 288.801 471.2 287.334C471.6 286.001 471.067 285.334 469.467 285.334C468.133 285.334 466.667 284.134 466.267 282.667C465.6 280.267 461.333 278.667 461.333 280.801Z" fill="black"/>
<path d="M130.667 301.336C130.667 311.069 131.2 317.336 132 317.336C132.8 317.336 133.333 311.069 133.333 301.336C133.333 291.603 132.8 285.336 132 285.336C131.2 285.336 130.667 291.603 130.667 301.336Z" fill="black"/>
<path d="M105.733 290.002C103.867 292.136 103.6 307.069 105.467 305.869C106.133 305.469 106.667 302.536 106.667 299.202C106.667 296.002 107.2 293.336 107.867 293.336C108.667 293.336 109.067 292.136 108.933 290.669C108.667 287.602 108 287.336 105.733 290.002Z" fill="black"/>
<path d="M357.334 289.87C357.334 290.937 354.267 294.804 350.534 298.67C346.8 302.404 344.134 305.87 344.4 306.27C345.6 307.337 360 292.27 360 290.004C360 288.937 359.467 288.004 358.667 288.004C358 288.004 357.334 288.804 357.334 289.87Z" fill="black"/>
<path d="M426.667 288.669C426.667 290.135 433.467 296.269 434.267 295.602C434.667 295.202 433.467 293.335 431.6 291.469C428.267 288.135 426.667 287.202 426.667 288.669Z" fill="black"/>
<path d="M407.067 292.936C402.8 296.936 399.333 302.536 400.533 303.602C401.467 304.536 408 297.869 408 295.869C408 295.069 409.333 293.202 410.933 291.869C412.4 290.402 413.067 289.336 412.4 289.336C411.6 289.336 409.2 290.936 407.067 292.936Z" fill="black"/>
<path d="M474.667 291.337C474.667 292.803 484.133 301.603 484.933 300.937C485.333 300.537 483.467 298.003 480.8 295.47C476.267 290.937 474.667 289.87 474.667 291.337Z" fill="black"/>
<path d="M66.6665 296.538C66.6665 298.404 67.3332 300.271 67.9998 300.671C68.7998 301.204 69.3332 301.071 69.1998 300.404C68.7998 297.738 69.4665 295.871 70.6665 296.671C71.4665 297.071 71.9998 296.538 71.9998 295.471C71.9998 294.271 70.7998 293.338 69.3332 293.338C67.3332 293.338 66.6665 294.271 66.6665 296.538Z" fill="black"/>
<path d="M436.533 296.403C436.933 298.003 437.333 299.87 437.333 300.536C437.333 301.07 438.267 301.336 439.2 300.936C440.667 300.403 440.933 300.803 440.4 302.27C439.867 303.736 440.133 304.136 441.067 303.47C441.867 302.936 446.267 306.403 451.333 311.47C456.267 316.27 460.533 319.87 460.933 319.47C461.333 319.203 455.733 313.07 448.667 306.136C440.267 297.87 436 294.403 436.533 296.403Z" fill="black"/>
<path d="M63.9998 304.002C63.9998 305.468 63.4665 306.668 62.6665 306.668C61.9998 306.668 61.3332 307.868 61.3332 309.335C61.3332 310.802 60.7998 312.002 59.9998 312.002C59.3332 312.002 58.6665 313.602 58.6665 315.468C58.6665 317.335 59.1998 318.535 59.9998 318.002C60.7998 317.602 61.3332 316.002 61.3332 314.535C61.3332 313.202 61.9998 312.002 62.6665 312.002C63.4665 312.002 63.9998 310.802 63.9998 309.335C63.9998 307.868 64.6665 306.668 65.3332 306.668C66.1332 306.668 66.6665 305.468 66.6665 304.002C66.6665 302.535 66.1332 301.335 65.3332 301.335C64.6665 301.335 63.9998 302.535 63.9998 304.002Z" fill="black"/>
<path d="M397.333 304.268C397.333 305.468 396.533 306.668 395.733 307.068C394.8 307.335 394.4 308.135 394.933 308.668C395.467 309.202 396.933 308.668 398.133 307.468C399.733 305.735 400 304.802 398.8 303.602C397.733 302.535 397.333 302.668 397.333 304.268Z" fill="black"/>
<path d="M98.6665 306.67C98.6665 308.136 98.1331 309.336 97.3331 309.336C96.6665 309.336 95.9998 310.536 95.9998 312.003C95.9998 313.47 95.3331 314.67 94.3998 314.67C93.5998 314.67 93.1998 314.936 93.5998 315.336C95.0665 316.803 98.6665 314.27 98.6665 311.87C98.6665 310.536 99.3331 309.336 99.9998 309.336C100.8 309.336 101.333 308.136 101.333 306.67C101.333 305.203 100.8 304.003 99.9998 304.003C99.3331 304.003 98.6665 305.203 98.6665 306.67Z" fill="black"/>
<path d="M488 305.335C488 306.001 488.667 306.668 489.467 306.668C490.133 306.668 490.4 306.001 490 305.335C489.6 304.535 488.933 304.001 488.533 304.001C488.267 304.001 488 304.535 488 305.335Z" fill="black"/>
<path d="M334.667 314.669C330.667 318.936 326.533 322.536 325.733 322.536C324.8 322.669 324 323.203 324 324.003C324 324.669 323.333 325.336 322.533 325.336C321.733 325.336 318.8 327.736 316 330.669C313.2 333.603 309.867 336.003 308.8 336.003C307.6 336.003 306.667 336.536 306.667 337.336C306.667 338.003 305.867 338.669 304.933 338.669C304 338.669 301.867 339.869 300.267 341.336C298.667 342.803 296.533 344.003 295.333 344.003C294.267 344.003 293.333 344.536 293.333 345.336C293.333 346.003 292.133 346.669 290.667 346.669C289.2 346.669 288 347.203 288 348.003C288 348.669 286.8 349.336 285.333 349.336C283.867 349.336 282.667 349.869 282.667 350.669C282.667 351.336 281.467 352.003 280 352.003C278.533 352.003 277.333 352.536 277.333 353.336C277.333 354.003 276.133 354.669 274.667 354.669C273.2 354.669 272 355.203 272 356.003C272 356.669 273.2 357.336 274.667 357.336C276.133 357.336 277.333 356.669 277.333 356.003C277.333 355.203 278.533 354.669 280 354.669C281.467 354.669 282.667 354.003 282.667 353.336C282.667 352.536 283.867 352.003 285.333 352.003C286.8 352.003 288 351.336 288 350.669C288 349.869 289.2 349.336 290.667 349.336C292.133 349.336 293.333 348.669 293.333 348.003C293.333 347.203 294.533 346.669 296 346.669C297.467 346.669 298.667 346.003 298.667 345.336C298.667 344.536 299.6 344.003 300.8 344.003C302 344.003 304 342.803 305.2 341.469C306.533 340.003 308.4 338.669 309.467 338.403C310.4 338.136 312.933 336.403 314.8 334.269C316.8 332.269 319.067 330.669 320 330.669C320.8 330.669 324.4 327.603 328 324.003C331.6 320.269 335.2 317.336 336 317.336C338.133 317.336 344 311.069 344 308.669C344 305.336 342.4 306.403 334.667 314.669Z" fill="black"/>
<path d="M491.6 307.471C490.8 308.271 493.734 312.004 495.2 312.004C495.6 312.004 496 310.804 496 309.337C496 306.804 493.334 305.737 491.6 307.471Z" fill="black"/>
<path d="M392 309.737C392 310.937 391.067 312.004 390 312.004C387.333 312.004 381.333 317.871 381.333 320.404C381.333 321.337 379.733 323.071 377.733 324.137C375.733 325.204 371.2 328.804 367.6 332.271C364 335.871 360.533 338.671 359.867 338.671C358.533 338.671 346.667 350.137 346.667 351.337C346.667 351.737 347.6 352.004 348.8 352.004C351.6 352.004 355.067 348.404 353.867 346.537C353.333 345.471 353.467 345.337 354.533 345.871C356.533 347.071 360.4 343.204 359.2 341.204C358.667 340.137 358.8 340.004 359.867 340.537C360.8 341.204 362.533 340.404 363.867 338.804C365.2 337.204 366.933 336.004 367.6 336.004C370.133 336.004 384.267 321.471 383.2 319.871C382.667 318.804 382.8 318.671 383.733 319.204C386.133 320.671 395.333 310.804 393.467 308.937C392.4 307.871 392 308.004 392 309.737Z" fill="black"/>
<path d="M106.667 321.337C106.667 324.937 107.333 328.004 108 328.004C108.8 328.004 109.333 324.937 109.333 321.337C109.333 317.604 108.8 314.671 108 314.671C107.333 314.671 106.667 317.604 106.667 321.337Z" fill="black"/>
<path d="M501.333 315.337C501.333 317.204 513.6 328.004 515.6 328.004C517.733 327.871 517.733 327.737 515.333 326.404C513.867 325.471 510.4 322.537 507.733 319.737C503.2 314.937 501.333 313.737 501.333 315.337Z" fill="black"/>
<path d="M93.3335 318.671C93.3335 319.337 94.0002 320.004 94.6668 320.004C95.4668 320.004 96.0002 319.337 96.0002 318.671C96.0002 317.871 95.4668 317.337 94.6668 317.337C94.0002 317.337 93.3335 317.871 93.3335 318.671Z" fill="black"/>
<path d="M132.667 320.004C133.333 321.071 133.733 323.337 133.467 324.937C133.333 326.671 133.733 328.004 134.533 328.004C136.8 328.004 136.267 321.871 133.733 319.871C131.733 318.271 131.6 318.271 132.667 320.004Z" fill="black"/>
<path d="M56.0002 322.669C56.0002 324.136 55.4668 325.336 54.6668 325.336C54.0002 325.336 53.3335 327.069 53.3335 329.336C53.3335 331.469 54.0002 333.336 54.6668 333.336C55.4668 333.336 56.0002 331.469 56.0002 329.336C56.0002 327.069 56.6668 325.336 57.3335 325.336C58.1335 325.336 58.6668 324.136 58.6668 322.669C58.6668 321.203 58.1335 320.003 57.3335 320.003C56.6668 320.003 56.0002 321.203 56.0002 322.669Z" fill="black"/>
<path d="M461.333 320.669C461.333 322.403 473.467 333.336 475.333 333.336C476.4 333.336 477.333 333.069 477.333 332.669C477.333 331.336 468.133 322.669 466.667 322.669C465.867 322.669 465.6 322.003 466 321.336C466.4 320.536 465.6 320.003 464.133 320.003C462.533 320.003 461.333 320.269 461.333 320.669Z" fill="black"/>
<path d="M109.333 332.669C109.333 334.536 110 336.003 110.667 336.003C111.467 336.003 112 337.203 112 338.669C112 340.136 112.667 341.336 113.333 341.336C114.133 341.336 114.667 340.136 114.667 338.669C114.667 337.203 114.133 336.003 113.333 336.003C112.667 336.003 112 334.536 112 332.669C112 330.803 111.467 329.336 110.667 329.336C110 329.336 109.333 330.803 109.333 332.669Z" fill="black"/>
<path d="M136.8 330.535C136.267 331.469 136.133 332.535 136.533 332.935C137.733 334.135 139.067 332.402 138.4 330.535C137.867 329.069 137.6 329.069 136.8 330.535Z" fill="black"/>
<path d="M88.2665 334.668C88.1331 336.801 88.5331 338.668 89.3331 338.668C89.9998 338.668 90.6665 336.801 90.6665 334.668C90.6665 332.401 90.1331 330.668 89.5998 330.668C89.0665 330.668 88.3998 332.401 88.2665 334.668Z" fill="black"/>
<path d="M513.2 334.267C512.133 336.401 510 339.334 508.4 341.067C506.667 342.801 505.333 344.667 505.333 345.334C505.333 346.001 503.867 348.001 502 349.867C500.133 351.734 498.667 353.867 498.667 354.801C498.667 355.601 497.333 357.467 495.733 358.801C494.267 360.267 493.2 361.734 493.733 362.134C494.667 363.201 504 353.867 504 351.867C504 351.067 505.867 348.667 508 346.667C510.267 344.667 512 342.134 512 341.067C512 340.134 513.2 338.401 514.667 337.334C517.333 335.467 518.4 330.667 516.267 330.667C515.6 330.667 514.267 332.267 513.2 334.267Z" fill="black"/>
<path d="M50.6665 338.536C50.6665 345.469 52.6665 346.669 53.0665 340.003C53.3332 337.203 52.7998 334.536 51.9998 334.003C51.1998 333.469 50.6665 335.203 50.6665 338.536Z" fill="black"/>
<path d="M138.667 336.671C138.667 337.738 139.333 338.671 140 338.671C140.8 338.671 141.333 339.604 141.333 340.671C141.333 343.071 150.533 352.671 151.6 351.471C152.133 351.071 151.067 349.604 149.6 348.138C148 346.804 146.667 344.671 146.667 343.604C146.667 342.138 145.867 341.738 144.667 342.138C143.2 342.804 142.933 342.404 143.467 340.804C143.867 339.604 143.6 338.671 142.8 338.671C142 338.671 141.333 337.738 141.333 336.671C141.333 335.604 140.8 334.671 140 334.671C139.333 334.671 138.667 335.604 138.667 336.671Z" fill="black"/>
<path d="M469.333 337.335C467.6 338.802 466.666 340.402 467.066 340.935C467.6 341.335 469.2 340.402 470.666 338.669C474.8 333.869 474.133 333.202 469.333 337.335Z" fill="black"/>
<path d="M85.3333 345.337C85.3333 347.471 84.6666 349.337 83.7333 349.337C82.9333 349.337 82.5333 349.604 82.9333 350.004C83.3333 350.404 84.6666 350.404 85.8666 349.871C88.1333 348.937 88.9333 341.337 86.6666 341.337C86 341.337 85.3333 343.071 85.3333 345.337Z" fill="black"/>
<path d="M115.6 342.268C114.267 343.601 114.534 346.668 115.867 346.668C116.667 346.668 117.067 345.468 116.934 344.001C116.8 340.935 116.8 341.068 115.6 342.268Z" fill="black"/>
<path d="M463.066 343.601C461.066 344.268 460.8 346.668 462.533 346.668C463.2 346.668 464 345.735 464.533 344.668C464.933 343.601 465.066 342.668 464.933 342.801C464.8 342.801 463.866 343.201 463.066 343.601Z" fill="black"/>
<path d="M48 354.003C48 358.003 48.4 361.336 49.0667 361.336C49.6 361.336 50.1333 358.003 50.4 354.003C50.6667 349.469 50.2667 346.669 49.4667 346.669C48.5333 346.669 48 349.736 48 354.003Z" fill="black"/>
<path d="M457.733 348.67C456.8 349.737 456 351.203 456 352.003C456 352.67 455.467 353.337 454.8 353.337C452.8 353.337 446 360.537 445.6 362.937C445.067 366.403 446.133 365.87 451.333 360.803C454.267 357.87 455.333 356.003 454.267 355.47C453.067 355.07 453.067 354.803 454.4 354.803C455.2 354.67 456.4 354.67 456.8 354.803C458.267 354.937 462.667 348.937 461.867 347.87C460.933 346.27 459.6 346.403 457.733 348.67Z" fill="black"/>
<path d="M117.333 350.136C117.333 351.469 121.067 354.536 121.733 353.736C122.133 353.336 121.733 352.136 120.667 351.203C118.8 349.203 117.333 348.803 117.333 350.136Z" fill="black"/>
<path d="M344 352.535C344 353.735 344.667 354.668 345.333 354.668C346.133 354.668 346.667 354.135 346.667 353.468C346.667 352.668 346.133 351.735 345.333 351.335C344.667 350.935 344 351.468 344 352.535Z" fill="black"/>
<path d="M82.6665 371.335C82.6665 383.335 83.1998 390.668 83.9998 390.668C84.7998 390.668 85.3332 392.135 85.3332 394.001C85.3332 395.868 85.9998 397.335 86.6665 397.335C87.4665 397.335 87.9998 398.535 87.9998 400.001C87.9998 401.468 88.5332 402.668 89.1998 402.668C91.4665 402.668 92.1332 400.268 90.3998 398.401C86.6665 394.535 85.3332 386.801 85.3332 369.601C85.3332 358.801 84.7998 352.001 83.9998 352.001C83.1998 352.001 82.6665 359.335 82.6665 371.335Z" fill="black"/>
<path d="M151.333 353.336C150.933 354.003 151.467 354.669 152.533 354.669C153.733 354.669 154.667 355.203 154.667 356.003C154.667 356.669 155.6 357.336 156.8 357.336C157.867 357.336 158.4 357.869 158 358.669C157.6 359.336 158.4 360.003 159.867 360.003C161.467 360.003 162.667 360.536 162.667 361.336C162.667 362.003 163.867 362.669 165.333 362.669C166.8 362.669 168 363.203 168 364.003C168 364.669 169.2 365.336 170.533 365.336C172 365.336 173.6 364.669 174 364.003C174.533 363.203 173.333 362.669 171.467 362.669C169.6 362.669 168 362.003 168 361.336C168 360.536 166.933 360.003 165.6 360.003C164.267 360.003 162.4 358.803 161.333 357.336C160.267 355.869 158.4 354.669 157.067 354.669C155.733 354.669 154.667 354.003 154.667 353.336C154.667 352.536 154.133 352.003 153.467 352.003C152.667 352.003 151.733 352.536 151.333 353.336Z" fill="black"/>
<path d="M337.333 357.335C336.267 358.801 334.533 360.001 333.333 360.001C332.133 360.001 330.4 361.201 329.333 362.668C328.267 364.135 326.667 365.335 325.867 365.335C325.067 365.335 322.533 367.068 320.267 369.335C317.867 371.468 315.2 373.335 314.267 373.335C313.333 373.335 311.733 374.535 310.667 376.001C309.6 377.468 307.733 378.668 306.4 378.668C305.067 378.668 304 379.201 304 379.735C304 380.268 301.067 382.268 297.333 384.135C293.733 385.868 290.667 387.735 290.667 388.268C290.667 388.935 289.467 389.335 288.133 389.335C286.667 389.335 285.333 389.868 285.067 390.535C284.933 391.201 283.733 392.001 282.667 392.268C281.6 392.535 279.733 393.735 278.533 394.935C277.333 396.268 275.333 397.335 274.133 397.335C272.933 397.335 272 397.868 272 398.668C272 399.335 271.2 400.001 270.267 400.001C269.333 400.001 267.2 401.201 265.6 402.668C264 404.135 261.867 405.335 260.667 405.335C259.6 405.335 258.667 405.868 258.667 406.668C258.667 407.335 257.733 408.001 256.667 408.001C255.6 408.001 254.667 408.535 254.667 409.335C254.667 410.001 255.6 410.668 256.667 410.668C257.733 410.668 258.667 410.001 258.667 409.335C258.667 408.535 259.867 408.001 261.333 408.001C262.8 408.001 264 407.335 264 406.668C264 405.868 265.067 405.335 266.4 405.335C267.733 405.335 269.6 404.135 270.667 402.668C271.733 401.201 273.6 400.001 274.933 400.001C276.267 400.001 277.333 399.335 277.333 398.668C277.333 397.868 278.4 397.335 279.733 397.335C281.067 397.335 282.933 396.135 284 394.668C285.067 393.201 286.933 392.001 288.267 392.001C289.6 392.001 290.667 391.335 290.667 390.668C290.667 389.868 291.867 389.335 293.333 389.335C294.8 389.335 296 388.668 296 388.001C296 387.201 297.2 386.668 298.8 386.668C300.267 386.668 301.067 386.001 300.667 385.335C300.267 384.535 300.8 384.001 301.867 384.001C303.067 384.001 304 383.335 304 382.668C304 381.868 305.067 381.335 306.4 381.335C307.733 381.335 309.6 380.135 310.667 378.668C311.733 377.201 313.467 376.001 314.4 376.001C315.467 376.001 318 374.135 320 372.001C322 369.735 324.667 368.001 325.867 368.001C327.067 368.001 328 367.335 328 366.668C328 365.868 329.2 365.335 330.8 365.335C332.8 365.335 333.333 364.668 332.8 363.201C332.4 362.001 332.533 361.601 333.467 362.001C334.133 362.535 335.867 361.601 337.2 360.135C338.533 358.535 340.667 357.335 341.867 357.335C343.067 357.335 344 356.668 344 356.001C344 353.601 339.333 354.535 337.333 357.335Z" fill="black"/>
<path d="M122.667 357.071C122.667 358.004 124.267 360.404 126.133 362.271C128.667 364.804 129.867 365.338 131.067 364.138C132.133 363.071 132.133 362.671 130.8 362.671C129.733 362.671 127.6 361.071 125.867 358.938C124.133 356.938 122.667 356.138 122.667 357.071Z" fill="black"/>
<path d="M266.667 358.671C266.667 359.337 267.6 360.004 268.667 360.004C269.733 360.004 270.667 359.337 270.667 358.671C270.667 357.871 269.733 357.337 268.667 357.337C267.6 357.337 266.667 357.871 266.667 358.671Z" fill="black"/>
<path d="M258.667 361.337C258.667 362.004 257.467 362.671 256 362.671C254.533 362.671 253.333 363.204 253.333 364.004C253.333 364.671 251.6 365.337 249.333 365.337C247.2 365.337 245.333 365.871 245.333 366.671C245.333 367.337 246 368.004 246.667 368.004C249.467 368.004 258.667 364.671 258.667 363.737C258.667 363.071 260.667 362.671 263.067 362.671C266.267 362.671 266.8 362.271 265.333 361.337C262.667 359.604 258.667 359.604 258.667 361.337Z" fill="black"/>
<path d="M47.0665 364.668C45.0665 366.935 44.7998 376.001 46.6665 376.001C47.4665 376.001 47.9998 378.401 47.9998 381.335C47.9998 384.268 48.6665 386.668 49.3332 386.668C50.1332 386.668 50.6665 381.735 50.6665 374.668C50.6665 362.668 50.1332 361.068 47.0665 364.668Z" fill="black"/>
<path d="M489.2 366.268C488.133 368.401 486.267 371.068 484.933 372.268C483.467 373.468 482.8 375.201 483.333 375.868C483.733 376.801 483.333 376.935 482.133 376.535C480.933 376.135 480 376.401 480 377.201C480 378.001 481.2 378.668 482.667 378.668C484.267 378.668 485.333 377.735 485.333 376.535C485.333 375.335 486.533 373.201 488.133 371.868C489.733 370.535 490.533 368.801 489.867 367.868C489.2 366.801 489.467 366.668 490.667 367.335C492.4 368.401 494.933 365.601 493.867 363.735C492.667 361.735 491.2 362.668 489.2 366.268Z" fill="black"/>
<path d="M130.667 366.004C130.667 367.604 140 376.004 141.6 376.004C142.667 376.004 144.267 377.204 145.333 378.671C146.4 380.137 148.267 381.337 149.467 381.337C150.8 381.337 152 382.004 152.267 382.937C152.667 384.004 153.733 384.137 155.467 383.337C157.867 382.271 157.867 382.137 155.067 381.737C153.333 381.337 152 380.671 152 380.004C152 379.337 150.8 378.404 149.333 378.004C147.867 377.471 145.067 375.737 143.333 373.871C141.6 372.137 139.333 370.671 138.4 370.671C137.333 370.671 135.733 369.471 134.667 368.004C132.933 365.471 130.667 364.404 130.667 366.004Z" fill="black"/>
<path d="M176 366.671C176 367.337 177.2 368.004 178.667 368.004C180.133 368.004 181.333 367.337 181.333 366.671C181.333 365.871 180.133 365.337 178.667 365.337C177.2 365.337 176 365.871 176 366.671Z" fill="black"/>
<path d="M430.934 375.602C425.467 381.068 421.467 385.868 421.867 386.268C422.134 386.668 426.134 383.335 430.534 378.802C434.934 374.402 439.2 370.668 439.867 370.668C440.667 370.668 441.334 370.002 441.334 369.335C441.334 368.535 442.4 368.002 443.734 368.002C445.6 368.002 445.734 367.735 444 366.668C442.934 366.002 441.734 365.468 441.334 365.468C440.934 365.468 436.267 370.002 430.934 375.602Z" fill="black"/>
<path d="M184 369.335C184 370.001 185.2 370.668 186.667 370.668C188.133 370.668 189.333 370.001 189.333 369.335C189.333 368.535 188.133 368.001 186.667 368.001C185.2 368.001 184 368.535 184 369.335Z" fill="black"/>
<path d="M232 369.335C232 370.001 233.2 370.668 234.667 370.668C236.133 370.668 237.333 370.001 237.333 369.335C237.333 368.535 236.133 368.001 234.667 368.001C233.2 368.001 232 368.535 232 369.335Z" fill="black"/>
<path d="M191.2 372.136C190.8 372.803 194.133 373.336 198.533 373.336C202.933 373.336 206.8 372.803 207.2 372.136C207.733 371.469 204.4 370.936 200 370.936C195.6 371.069 191.6 371.603 191.2 372.136Z" fill="black"/>
<path d="M218.667 372.003C218.667 372.669 219.467 373.336 220.533 373.336C221.6 373.336 222.933 372.669 223.333 372.003C223.733 371.203 222.933 370.669 221.467 370.669C219.867 370.669 218.667 371.203 218.667 372.003Z" fill="black"/>
<path d="M473.734 383.469C468.8 388.403 468.4 389.336 471.2 389.336C472.267 389.336 473.6 388.136 474 386.669C474.4 385.203 475.734 384.003 476.8 384.003C478 384.003 479.734 383.203 480.667 382.136C482.267 380.536 482.267 380.136 480.534 379.469C479.334 379.069 478.4 378.803 478.267 378.803C478.134 378.936 476 380.936 473.734 383.469Z" fill="black"/>
<path d="M157.333 385.468C157.333 386.934 160.933 387.068 161.867 385.601C162.133 385.068 161.333 384.401 159.867 384.401C158.533 384.268 157.333 384.668 157.333 385.468Z" fill="black"/>
<path d="M416 388.002C414.133 390.135 411.867 392.002 410.933 392.002C408.267 392.002 405.067 395.735 406.133 397.468C406.667 398.535 406.533 398.668 405.467 398.135C403.733 397.068 399.2 401.068 400.667 402.402C401.2 402.935 402 402.535 402.267 401.602C402.667 400.802 403.6 400.002 404.667 400.002C405.6 400.002 408.8 397.602 411.867 394.668C414.8 391.735 418 389.335 418.667 389.335C419.467 389.335 420 388.135 420 386.668C420 383.335 420 383.335 416 388.002Z" fill="black"/>
<path d="M162.667 388.003C162.667 388.669 163.867 389.336 165.333 389.336C166.8 389.336 168 388.669 168 388.003C168 387.203 166.8 386.669 165.333 386.669C163.867 386.669 162.667 387.203 162.667 388.003Z" fill="black"/>
<path d="M50.6665 393.336C50.6665 395.469 51.3332 397.336 51.9998 397.336C52.7998 397.336 53.3332 395.469 53.3332 393.336C53.3332 391.069 52.7998 389.336 51.9998 389.336C51.3332 389.336 50.6665 391.069 50.6665 393.336Z" fill="black"/>
<path d="M170.667 390.671C170.667 391.337 172.533 392.004 174.667 392.004C176.933 392.004 178.667 391.337 178.667 390.671C178.667 389.871 176.933 389.337 174.667 389.337C172.533 389.337 170.667 389.871 170.667 390.671Z" fill="black"/>
<path d="M457.6 399.603C452.133 405.069 448.133 409.869 448.533 410.269C448.8 410.669 453.333 406.669 458.533 401.469C463.6 396.269 468.533 392.003 469.333 392.003C470.133 392.003 470.4 391.336 470 390.669C468.667 388.536 467.733 389.069 457.6 399.603Z" fill="black"/>
<path d="M181.333 393.335C181.333 394.001 183.467 394.668 186.133 394.668C188.933 394.668 190.533 394.135 190 393.335C189.6 392.535 187.467 392.001 185.2 392.001C183.067 392.001 181.333 392.535 181.333 393.335Z" fill="black"/>
<path d="M197.333 393.335C197.333 394.001 198.533 394.668 200 394.668C201.467 394.668 202.667 394.001 202.667 393.335C202.667 392.535 201.467 392.001 200 392.001C198.533 392.001 197.333 392.535 197.333 393.335Z" fill="black"/>
<path d="M224 393.47C224 394.137 223.467 394.404 222.667 394.004C222 393.604 221.333 394.137 221.333 395.204C221.333 396.404 220.933 397.204 220.4 397.204C218 396.804 216 397.47 216 398.537C216 399.337 217.2 399.737 218.667 399.604C220.133 399.47 221.333 398.937 221.333 398.404C221.333 397.87 222.533 397.337 223.867 397.337C225.333 397.337 226.667 396.804 226.933 396.004C227.2 395.337 228.933 394.537 231.067 394.404C236.667 393.87 235.333 392.004 229.333 392.004C226.4 392.004 224 392.67 224 393.47Z" fill="black"/>
<path d="M53.3335 402.002C53.3335 403.868 54.0002 405.335 54.6668 405.335C55.4668 405.335 56.0002 406.535 56.0002 408.002C56.0002 409.468 56.6668 410.668 57.3335 410.668C58.1335 410.668 58.6668 411.868 58.6668 413.335C58.6668 414.802 59.3335 416.002 60.0002 416.002C60.8002 416.002 61.3335 416.935 61.3335 418.002C61.3335 420.402 73.0668 432.668 74.2668 431.468C74.6668 431.068 74.0002 429.868 72.8002 428.668C71.6002 427.468 71.0668 425.868 71.4668 425.068C72.0002 424.135 71.7335 424.002 70.9335 424.535C70.0002 425.068 69.3335 424.802 69.3335 424.002C69.3335 423.068 67.6002 420.668 65.3335 418.668C63.2002 416.668 61.3335 414.402 61.3335 413.735C61.3335 411.735 58.0002 405.335 57.0668 405.335C56.4002 405.335 56.0002 403.868 56.0002 402.002C56.0002 400.135 55.4668 398.668 54.6668 398.668C54.0002 398.668 53.3335 400.135 53.3335 402.002Z" fill="black"/>
<path d="M209.333 401.335C209.333 402.001 210 402.668 210.8 402.668C211.467 402.668 211.733 402.001 211.333 401.335C210.933 400.535 210.267 400.001 209.867 400.001C209.6 400.001 209.333 400.535 209.333 401.335Z" fill="black"/>
<path d="M90.6665 403.471C90.6665 404.271 98.5332 412.004 99.4665 412.004C99.7332 412.004 99.9998 411.071 99.9998 410.004C99.9998 408.937 99.1998 408.004 98.2665 408.004C97.3332 408.004 95.7332 406.804 94.6665 405.337C92.7998 402.804 90.6665 401.737 90.6665 403.471Z" fill="black"/>
<path d="M200.533 404.269C200.133 404.803 200.8 405.336 201.867 405.336C202.933 405.336 204.133 404.803 204.533 404.269C204.933 403.603 204.267 403.069 203.2 403.069C202.133 403.069 200.933 403.603 200.533 404.269Z" fill="black"/>
<path d="M394.667 404.003C394.667 404.67 393.733 405.336 392.667 405.336C390 405.336 383.333 411.87 384.667 413.07C385.2 413.603 386 413.203 386.267 412.27C386.667 411.47 387.867 410.67 389.2 410.67C390.4 410.67 392.267 409.47 393.333 408.003C394.4 406.536 396.4 405.336 397.733 405.336C399.067 405.336 399.733 404.67 399.333 404.003C398.933 403.203 397.6 402.67 396.533 402.67C395.467 402.67 394.667 403.203 394.667 404.003Z" fill="black"/>
<path d="M187.333 406.671C186.933 407.337 187.467 408.004 188.667 408.004C189.867 408.004 190.4 407.337 190 406.671C189.6 405.871 188.933 405.337 188.667 405.337C188.4 405.337 187.733 405.871 187.333 406.671Z" fill="black"/>
<path d="M172 409.335C172 410.001 173.467 410.668 175.333 410.668C177.2 410.668 178.667 410.001 178.667 409.335C178.667 408.535 177.2 408.001 175.333 408.001C173.467 408.001 172 408.535 172 409.335Z" fill="black"/>
<path d="M101.333 411.469C101.333 411.869 102.267 413.069 103.333 414.135C105.467 416.402 105.733 416.002 104.533 412.802C103.733 410.802 101.333 409.735 101.333 411.469Z" fill="black"/>
<path d="M156.667 412.003C157.067 412.669 158.933 413.336 160.8 413.336C162.667 413.336 163.733 412.803 163.333 412.003C162.933 411.203 161.067 410.669 159.2 410.669C157.333 410.669 156.267 411.203 156.667 412.003Z" fill="black"/>
<path d="M250 412.001C249.6 412.668 248 413.335 246.533 413.335C245.2 413.335 244 413.868 244 414.668C244 415.335 242.533 416.001 240.667 416.001C238.8 416.001 237.333 416.535 237.333 417.335C237.333 418.001 238.8 418.668 240.667 418.668C242.533 418.668 244 418.001 244 417.335C244 416.535 245.2 416.001 246.8 416.001C249.333 416.001 253.333 413.201 253.333 411.468C253.333 410.135 250.933 410.535 250 412.001Z" fill="black"/>
<path d="M438.667 416.002C436.133 418.802 433.067 421.202 432.133 421.336C430.667 421.336 430.533 421.736 431.733 422.936C432.8 424.002 434.133 423.336 437.2 420.269C439.333 417.869 441.733 416.002 442.667 416.002C444.267 416.002 448 412.802 448 411.469C448 408.936 442.667 411.602 438.667 416.002Z" fill="black"/>
<path d="M106.667 414.671C106.667 415.471 115.6 416.004 130.667 416.004C145.733 416.004 154.667 415.471 154.667 414.671C154.667 413.871 145.733 413.337 130.667 413.337C115.6 413.337 106.667 413.871 106.667 414.671Z" fill="black"/>
<path d="M378.667 414.668C378.667 415.335 377.467 416.001 375.867 416.001C374 416.001 373.333 416.668 373.733 417.868C374.267 419.201 373.867 419.601 372.533 419.068C371.6 418.668 370.667 419.068 370.667 419.868C370.667 420.668 369.467 421.335 368 421.335C366.533 421.335 365.333 421.868 365.333 422.668C365.333 423.335 364.133 424.001 362.667 424.001C361.2 424.001 360 424.535 360 425.335C360 426.001 358.8 426.668 357.333 426.668C355.867 426.668 354.667 427.201 354.667 428.001C354.667 428.668 353.467 429.335 352 429.335C350.533 429.335 349.333 429.868 349.333 430.668C349.333 431.335 348.133 432.001 346.667 432.001C345.2 432.001 344 432.535 344 433.335C344 434.001 345.2 434.668 346.667 434.668C348.133 434.668 349.333 434.001 349.333 433.335C349.333 432.535 350.533 432.001 352 432.001C353.467 432.001 354.667 431.335 354.667 430.668C354.667 429.868 355.867 429.335 357.333 429.335C358.8 429.335 360 428.668 360 428.001C360 427.201 361.2 426.668 362.667 426.668C364.133 426.668 365.333 426.001 365.333 425.335C365.333 424.535 366.533 424.001 368 424.001C369.467 424.001 370.667 423.335 370.667 422.668C370.667 421.868 371.733 421.335 373.067 421.335C374.4 421.335 376.267 420.135 377.333 418.668C378.4 417.201 380.267 416.001 381.6 416.001C382.933 416.001 384 415.335 384 414.668C384 413.868 382.8 413.335 381.333 413.335C379.867 413.335 378.667 413.868 378.667 414.668Z" fill="black"/>
<path d="M230 420.003C230.4 420.669 231.733 421.336 232.8 421.336C233.867 421.336 234.667 420.669 234.667 420.003C234.667 419.203 233.467 418.669 231.867 418.669C230.4 418.669 229.6 419.203 230 420.003Z" fill="black"/>
<path d="M223.733 422.671C223.6 423.337 221.733 424.137 219.733 424.271C217.6 424.404 216 425.071 216 425.604C216 426.137 214.8 426.671 213.467 426.671C212.133 426.671 210.667 427.471 210.267 428.537C209.867 429.737 208.267 430.137 206.133 429.737C204.133 429.337 202.667 429.604 202.667 430.537C202.667 431.337 204.533 432.004 206.667 432.004C208.933 432.004 210.667 431.337 210.667 430.671C210.667 429.871 211.867 429.337 213.333 429.337C214.8 429.337 216 428.671 216 428.004C216 427.204 217.867 426.671 220 426.671C222.267 426.671 224 426.004 224 425.337C224 424.537 225.2 424.004 226.667 424.004C228.133 424.004 229.333 423.337 229.333 422.671C229.333 420.937 224.4 420.937 223.733 422.671Z" fill="black"/>
<path d="M428 425.336C428 426.002 427.333 426.669 426.533 426.669C425.733 426.669 423.333 428.536 421.2 430.802C419.067 433.069 417.333 434.269 417.333 433.469C417.333 432.536 415.733 433.469 413.867 435.336C412 437.202 410.667 439.202 411.067 439.602C411.6 440.002 412.8 439.336 414 438.136C415.2 436.936 416.667 436.002 417.333 436.002C418 436.002 420 434.536 421.867 432.669C423.733 430.802 425.867 429.336 426.667 429.336C428.267 429.336 432 426.136 432 424.802C432 424.402 431.067 424.002 430 424.002C428.933 424.002 428 424.536 428 425.336Z" fill="black"/>
<path d="M74 433.335C73.6 434.001 74.1333 434.668 75.2 434.668C76.4 434.668 77.3333 434.001 77.3333 433.335C77.3333 432.535 76.8 432.001 76.1333 432.001C75.3333 432.001 74.4 432.535 74 433.335Z" fill="black"/>
<path d="M194 433.335C194.4 434.001 196.267 434.668 198.133 434.668C199.867 434.668 201.333 434.001 201.333 433.335C201.333 432.535 199.467 432.001 197.2 432.001C194.933 432.001 193.467 432.535 194 433.335Z" fill="black"/>
<path d="M76.6667 436.003C76.2667 436.669 76.6667 437.336 77.6 437.336C78.6667 437.336 80.2667 438.536 81.3333 440.003C82.4 441.469 84.1333 442.669 85.0667 442.669C86.1333 442.669 88.6667 444.403 90.6667 446.669C92.6667 448.803 95.3333 450.669 96.5333 450.669C97.7333 450.669 98.6667 451.203 98.6667 452.003C98.6667 452.669 99.8667 453.336 101.333 453.336C102.8 453.336 104 452.669 104 452.003C104 451.203 102.8 450.669 101.333 450.669C99.8667 450.669 98.6667 450.003 98.6667 449.203C98.6667 448.536 98.1333 448.136 97.4667 448.669C96.6667 449.069 94 447.336 91.4667 444.669C88.9333 442.136 86 440.003 85.0667 440.003C84 440.003 82.4 438.803 81.3333 437.336C79.2 434.403 77.8667 434.003 76.6667 436.003Z" fill="black"/>
<path d="M186.667 435.868C186.667 436.534 184.667 437.468 182.4 438.001L178 439.068L181.867 439.601C184 440.001 186.133 439.601 186.533 438.801C187.067 438.001 189.067 437.201 190.933 437.068C192.933 436.934 194.133 436.268 193.867 435.734C192.933 434.268 186.667 434.401 186.667 435.868Z" fill="black"/>
<path d="M338.4 436.003C338.267 436.67 336.4 437.47 334.4 437.603C332.4 437.737 331.2 438.403 331.467 438.937C332.4 440.537 338.667 440.27 338.667 438.67C338.667 437.87 339.867 437.337 341.467 437.337C342.933 437.337 343.733 436.67 343.333 436.003C342.267 434.27 339.067 434.27 338.4 436.003Z" fill="black"/>
<path d="M406.667 440.001C405.6 441.468 403.733 442.668 402.4 442.668C401.067 442.668 400 443.201 400 443.868C400 444.535 398.667 445.335 397.067 445.735C394.133 446.135 394.267 446.268 397.6 447.201C400.8 448.135 402 447.601 405.333 444.001C407.467 441.601 409.333 439.201 409.333 438.535C409.333 436.801 408.8 437.068 406.667 440.001Z" fill="black"/>
<path d="M167.333 441.335C167.733 442.001 170.267 442.668 172.8 442.668C175.6 442.668 177.2 442.135 176.667 441.335C176.267 440.535 173.733 440.001 171.2 440.001C168.4 440.001 166.8 440.535 167.333 441.335Z" fill="black"/>
<path d="M322.667 441.337C322.667 442.004 321.467 442.671 320 442.671C318.533 442.671 317.333 443.204 317.333 444.004C317.333 444.671 316.133 445.337 314.667 445.337C313.2 445.337 312 445.871 312 446.671C312 447.337 313.2 448.004 314.667 448.004C316.133 448.004 317.333 447.337 317.333 446.671C317.333 445.871 319.2 445.337 321.467 445.337C324.4 445.337 325.467 444.804 324.933 443.604C324.4 442.271 325.333 442.004 328.267 442.404C331.067 442.804 332.133 442.537 331.467 441.471C330.267 439.604 322.667 439.471 322.667 441.337Z" fill="black"/>
<path d="M144 444.004C144 444.671 145.2 445.337 146.667 445.337C148.133 445.337 149.333 445.871 149.333 446.671C149.333 447.337 151.2 448.004 153.333 448.004C155.6 448.004 157.333 447.337 157.333 446.671C157.333 445.871 156.133 445.337 154.667 445.337C153.2 445.337 152 444.671 152 444.004C152 443.204 150.267 442.671 148 442.671C145.867 442.671 144 443.204 144 444.004Z" fill="black"/>
<path d="M159.466 444.667C158.8 446.401 159.2 446.534 161.733 445.201C166 442.934 166.133 442.667 163.066 442.667C161.466 442.667 160 443.601 159.466 444.667Z" fill="black"/>
<path d="M160 449.335C160 450.001 160.667 450.668 161.333 450.668C162.133 450.668 162.667 450.001 162.667 449.335C162.667 448.535 162.133 448.001 161.333 448.001C160.667 448.001 160 448.535 160 449.335Z" fill="black"/>
<path d="M304.667 449.335C305.067 450.001 306.4 450.668 307.467 450.668C308.533 450.668 309.333 450.001 309.333 449.335C309.333 448.535 308.133 448.001 306.533 448.001C305.067 448.001 304.267 448.535 304.667 449.335Z" fill="black"/>
<path d="M392 449.338C392 450.004 391.067 450.671 389.867 450.671C387.2 450.671 383.333 454.538 384.667 455.738C385.2 456.271 386 455.871 386.267 454.938C386.667 454.138 388 453.338 389.467 453.338C390.8 453.338 392 452.671 392 452.004C392 451.204 393.2 450.671 394.667 450.671C396.133 450.671 397.333 450.004 397.333 449.338C397.333 448.538 396.133 448.004 394.667 448.004C393.2 448.004 392 448.538 392 449.338Z" fill="black"/>
<path d="M164.667 451.871C164.134 452.804 165.2 453.337 167.2 453.337C169.067 453.337 170.667 453.871 170.667 454.671C170.667 455.337 172.534 456.004 174.667 456.004C180 456.004 179.734 453.737 174.4 453.071C172 452.671 169.067 452.004 167.867 451.471C166.534 450.937 165.2 451.071 164.667 451.871Z" fill="black"/>
<path d="M293.333 452.003C293.333 452.669 294.533 453.336 296 453.336C297.467 453.336 298.667 452.669 298.667 452.003C298.667 451.203 297.467 450.669 296 450.669C294.533 450.669 293.333 451.203 293.333 452.003Z" fill="black"/>
<path d="M104 454.136C104 455.603 107.867 458.67 109.733 458.67C110.933 458.67 112 459.47 112.4 460.27C112.667 461.203 113.467 461.603 114 461.07C115.333 459.87 111.467 456.003 108.8 456.003C107.6 456.003 106.667 455.336 106.667 454.67C106.667 453.87 106.133 453.336 105.333 453.336C104.667 453.336 104 453.736 104 454.136Z" fill="black"/>
<path d="M285.333 454.671C285.333 455.337 286.533 456.004 288 456.004C289.467 456.004 290.667 455.337 290.667 454.671C290.667 453.871 289.467 453.337 288 453.337C286.533 453.337 285.333 453.871 285.333 454.671Z" fill="black"/>
<path d="M380 456.003C378.933 457.469 377.067 458.669 375.733 458.669C374.4 458.669 373.333 459.203 373.333 460.003C373.333 460.669 372.133 461.336 370.667 461.336C369.2 461.336 368 461.869 368 462.669C368 463.336 366.8 464.003 365.333 464.003C363.867 464.003 362.667 464.536 362.667 465.336C362.667 466.003 361.467 466.669 360 466.669C358.533 466.669 357.333 467.203 357.333 468.003C357.333 468.669 358.533 469.336 360 469.336C361.467 469.336 362.667 468.669 362.667 468.003C362.667 467.203 363.867 466.669 365.333 466.669C366.8 466.669 368 466.003 368 465.336C368 464.536 369.2 464.003 370.667 464.003C372.133 464.003 373.333 463.336 373.333 462.669C373.333 461.869 374.267 461.336 375.467 461.336C377.733 461.336 382.667 456.536 382.667 454.403C382.667 452.803 382.133 453.069 380 456.003Z" fill="black"/>
<path d="M181.333 457.335C181.333 458.001 183.2 458.668 185.333 458.668C187.6 458.668 189.333 458.001 189.333 457.335C189.333 456.535 187.6 456.001 185.333 456.001C183.2 456.001 181.333 456.535 181.333 457.335Z" fill="black"/>
<path d="M271.6 457.602C271.2 458.936 272.667 459.202 277.067 458.802C281.067 458.536 282.4 458.002 281.2 457.202C278.4 455.469 272.4 455.736 271.6 457.602Z" fill="black"/>
<path d="M192 460.134C192 460.801 192.667 461.068 193.333 460.668C194.133 460.268 194.667 459.601 194.667 459.201C194.667 458.934 194.133 458.668 193.333 458.668C192.667 458.668 192 459.334 192 460.134Z" fill="black"/>
<path d="M196 460.003C196 460.803 200.667 461.336 207.333 461.336C214 461.336 218.667 460.803 218.667 460.003C218.667 459.203 214 458.669 207.333 458.669C200.667 458.669 196 459.203 196 460.003Z" fill="black"/>
<path d="M254 460.003C254.4 460.669 258.134 461.336 262.134 461.336C266.134 461.336 269.334 460.669 269.334 460.003C269.334 459.203 265.734 458.669 261.2 458.669C256.267 458.669 253.467 459.203 254 460.003Z" fill="black"/>
<path d="M116 461.07C116 462.67 121.2 466.67 123.333 466.67C124.4 466.67 125.333 467.203 125.333 467.87C125.333 468.536 126.8 469.336 128.667 469.736C130.8 470.136 131.867 469.736 131.6 468.803C131.333 468.003 129.867 467.203 128.267 466.936C126.667 466.67 125.333 465.87 125.333 465.203C125.333 464.536 124.133 464.003 122.667 464.003C121.2 464.003 120 463.47 120 462.803C120 462.136 119.067 461.336 118 460.803C116.933 460.403 116 460.536 116 461.07Z" fill="black"/>
<path d="M354.667 467.604C354.667 468.538 353.467 469.338 352 469.338C350.533 469.338 349.333 469.871 349.333 470.671C349.333 471.338 348 472.004 346.4 472.004C343.867 472.004 343.733 472.271 345.333 473.338C348.4 475.338 352 474.938 351.2 472.804C350.667 471.471 351.467 471.204 353.867 471.604C357.467 472.404 358.133 471.338 356 468.004C355.2 466.671 354.667 466.538 354.667 467.604Z" fill="black"/>
<path d="M133.333 470.671C133.333 471.337 134 472.004 134.667 472.004C135.467 472.004 136 471.337 136 470.671C136 469.871 135.467 469.337 134.667 469.337C134 469.337 133.333 469.871 133.333 470.671Z" fill="black"/>
<path d="M138.667 473.335C138.667 474.001 139.867 474.668 141.333 474.668C142.8 474.668 144 475.335 144 476.135C144 477.068 145.467 477.335 147.467 476.935C149.6 476.535 151.2 476.935 151.6 478.135C152 479.201 154 480.001 156.133 480.001C158.267 480.001 160 480.535 160 481.335C160 482.001 161.867 482.668 164 482.668C166.267 482.668 168 483.201 168 484.001C168 484.668 170.4 485.335 173.333 485.335C176.267 485.335 178.667 485.868 178.667 486.668C178.667 487.335 181.067 488.001 183.867 488.001C186.8 488.001 189.333 488.535 189.6 489.201C190 490.268 203.6 491.335 207.333 490.668C208.133 490.535 209.333 490.401 210 490.668C210.933 490.801 210.933 490.401 210 489.601C208.133 487.735 190.667 486.801 191.467 488.668C191.867 489.335 191.333 488.935 190.267 487.601C189.2 486.401 186.667 485.335 184.667 485.335C182.533 485.335 179.067 484.801 176.8 484.001C174.533 483.335 169.867 482.001 166.4 481.068C162.8 480.135 160 478.935 160 478.401C160 477.868 158.267 477.335 156 477.335C153.867 477.335 152 476.668 152 476.001C152 475.201 150.267 474.668 148 474.668C145.867 474.668 144 474.001 144 473.335C144 472.535 142.8 472.001 141.333 472.001C139.867 472.001 138.667 472.535 138.667 473.335Z" fill="black"/>
<path d="M336 476.002C336 476.669 333.467 477.335 330.4 477.335C326.133 477.335 325.2 477.735 326.667 478.669C329.333 480.402 336 480.402 336 478.669C336 477.869 337.867 477.335 340.133 477.335C342.4 477.335 343.867 476.802 343.333 476.002C342.933 475.202 341.067 474.669 339.2 474.669C337.467 474.669 336 475.202 336 476.002Z" fill="black"/>
<path d="M317.334 481.336C317.334 482.003 315.2 482.669 312.534 482.669C309.734 482.669 308.134 483.203 308.667 484.003C309.067 484.669 311.2 485.336 313.467 485.336C315.6 485.336 317.334 484.669 317.334 484.003C317.334 483.203 319.734 482.669 322.667 482.669C325.6 482.669 328 482.003 328 481.336C328 480.536 325.6 480.003 322.667 480.003C319.734 480.003 317.334 480.536 317.334 481.336Z" fill="black"/>
<path d="M295.867 486.668C294.8 487.335 290.133 488.001 285.6 488.135C274.267 488.535 275.2 490.668 286.667 490.668C292 490.668 296 490.135 296 489.335C296 488.535 298.4 488.001 301.333 488.001C304.267 488.001 306.667 487.335 306.667 486.668C306.667 485.068 298.8 484.935 295.867 486.668Z" fill="black"/>
<path d="M208 492.136C208 492.803 221.733 493.336 241.733 493.336C264.267 493.336 274.667 492.803 273.333 492.003C270.8 490.269 208 490.403 208 492.136Z" fill="black"/>
</svg>
