<svg width="467" height="475" viewBox="0 0 467 475" fill="none" xmlns="http://www.w3.org/2000/svg">
<path d="M202.667 1.33427C202.667 2.13427 205.733 2.6676 210 2.53427C214 2.40093 217.333 1.73427 217.333 1.0676C217.333 0.534268 214 0.000934976 210 0.000934976C205.867 0.000934976 202.667 0.534268 202.667 1.33427Z" fill="black"/>
<path d="M235.467 1.20026C235.067 1.73359 240.8 2.26693 248 2.53359C256.533 2.66693 261.333 2.26693 261.333 1.33359C261.333 -0.266406 236.4 -0.39974 235.467 1.20026Z" fill="black"/>
<path d="M263.6 3.6022C264.4 5.6022 275.467 6.0022 276.533 4.13553C277.067 3.46887 274.133 2.66887 270.133 2.4022C264.8 2.13553 263.2 2.4022 263.6 3.6022Z" fill="black"/>
<path d="M189.333 4.0026C189.333 4.66927 191.733 5.33594 194.667 5.33594C197.6 5.33594 200 4.66927 200 4.0026C200 3.2026 197.6 2.66927 194.667 2.66927C191.733 2.66927 189.333 3.2026 189.333 4.0026Z" fill="black"/>
<path d="M180.667 6.66667C180.133 7.46667 181.333 8 183.2 8C185.067 8 186.667 7.33333 186.667 6.66667C186.667 5.86667 185.467 5.33333 184.133 5.33333C182.667 5.33333 181.067 5.86667 180.667 6.66667Z" fill="black"/>
<path d="M279.334 6.66964C278.934 7.46964 280 8.00297 281.867 8.00297C283.734 8.00297 285.6 8.53631 286 9.33631C286.4 10.003 288.267 10.6696 290.134 10.6696C291.867 10.6696 293.334 11.3363 293.334 12.2696C293.334 13.0696 293.6 13.4696 294 13.0696C294.4 12.6696 294.267 11.3363 293.867 10.1363C293.2 8.53631 292 8.00297 289.734 8.40297C287.734 8.80297 286.134 8.26964 285.734 7.20297C284.934 5.06964 280.534 4.66964 279.334 6.66964Z" fill="black"/>
<path d="M170.667 9.33464C170.667 10.0013 172.133 10.668 173.867 10.668C175.733 10.668 177.6 10.0013 178 9.33464C178.533 8.53464 177.067 8.0013 174.8 8.0013C172.533 8.0013 170.667 8.53464 170.667 9.33464Z" fill="black"/>
<path d="M162.667 12.0022C162.667 12.6689 161.467 13.3355 160 13.3355C158.533 13.3355 157.333 13.8689 157.333 14.5355C157.333 15.3355 155.333 16.0022 153.067 16.2689L148.667 16.8022L152.533 18.0022C155.333 18.6689 156.667 18.6689 157.067 17.6022C157.333 16.6689 158.667 16.0022 160 16.0022C161.333 16.0022 162.667 15.4689 162.933 14.6689C163.2 14.0022 164.933 13.2022 166.933 13.0689C168.933 12.9355 170.133 12.2689 169.867 11.7355C168.933 10.1355 162.667 10.4022 162.667 12.0022Z" fill="black"/>
<path d="M296 12.0026C296 12.6693 297.2 13.3359 298.8 13.3359C300.267 13.3359 301.067 12.6693 300.667 12.0026C300.267 11.2026 298.933 10.6693 297.867 10.6693C296.8 10.6693 296 11.2026 296 12.0026Z" fill="black"/>
<path d="M303.333 14.668C303.733 15.3347 305.333 16.0013 306.667 16.0013C308 16.0013 309.333 16.668 309.6 17.6013C310 18.668 311.067 18.8013 312.8 18.0013C315.2 16.9347 315.2 16.8013 312.4 16.4013C310.667 16.0013 309.333 15.2013 309.333 14.5347C309.333 13.868 307.733 13.3347 305.867 13.3347C304 13.3347 302.8 13.868 303.333 14.668Z" fill="black"/>
<path d="M146.667 20.0026C146.667 20.6693 147.867 21.3359 149.333 21.3359C150.8 21.3359 152 20.6693 152 20.0026C152 19.2026 150.8 18.6693 149.333 18.6693C147.867 18.6693 146.667 19.2026 146.667 20.0026Z" fill="black"/>
<path d="M314.667 20.003C314.667 20.6697 315.867 21.3364 317.333 21.3364C318.8 21.3364 320 21.8697 320 22.6697C320 23.3364 321.2 24.003 322.667 24.003C324.133 24.003 325.333 24.5364 325.333 25.3364C325.333 26.003 326.533 26.6697 327.867 26.6697C329.333 26.6697 330.667 27.4697 331.067 28.2697C331.333 29.203 332.133 29.603 332.667 29.0697C334 27.8697 330.133 24.003 327.467 24.003C326.267 24.003 325.333 23.3364 325.333 22.6697C325.333 21.8697 324.133 21.3364 322.667 21.3364C321.2 21.3364 320 20.6697 320 20.003C320 19.203 318.8 18.6697 317.333 18.6697C315.867 18.6697 314.667 19.203 314.667 20.003Z" fill="black"/>
<path d="M140 24C138.933 25.4667 136.933 26.6667 135.6 26.6667C133.866 26.6667 133.333 27.3333 133.866 28.8C134.266 29.8667 134.133 30.4 133.333 30C132.666 29.6 130.533 30.6667 128.666 32.5333C126.8 34.5333 125.6 36 126.133 36C127.733 36 135.333 31.3333 137.466 28.9333C138.666 27.7333 140.666 26.6667 141.866 26.6667C143.066 26.6667 144 26 144 25.3333C144 24.5333 144.933 24 146.133 24C147.2 24 147.733 23.3333 147.333 22.6667C146 20.4 142 21.2 140 24Z" fill="black"/>
<path d="M336 30.6667C336 31.3333 336.667 32 337.333 32C338.133 32 338.667 31.3333 338.667 30.6667C338.667 29.8667 338.133 29.3333 337.333 29.3333C336.667 29.3333 336 29.8667 336 30.6667Z" fill="black"/>
<path d="M344 36.0026C344 36.6693 344.667 37.3359 345.333 37.3359C346.133 37.3359 346.667 36.6693 346.667 36.0026C346.667 35.2026 346.133 34.6693 345.333 34.6693C344.667 34.6693 344 35.2026 344 36.0026Z" fill="black"/>
<path d="M117.333 38.6661C117.333 39.3328 116.133 39.9995 114.667 39.9995C113.2 39.9995 112 40.5328 112 41.1995C112 41.8661 110.8 42.9328 109.333 43.3328C107.867 43.7328 106.667 44.9328 106.667 45.9995C106.667 46.9328 105.867 47.9995 105.067 48.3995C104.133 48.6661 103.733 49.3328 104.133 49.8661C104.533 50.2661 106.133 49.4661 107.733 47.9995C109.333 46.5328 111.2 45.3328 112 45.3328C112.667 45.3328 115.2 43.4661 117.6 41.3328C120.533 38.3995 121.067 37.3328 119.467 37.3328C118.267 37.3328 117.333 37.8661 117.333 38.6661Z" fill="black"/>
<path d="M349.333 38.1333C349.333 39.7333 367.067 56 368.8 56C369.867 56 370.667 55.7333 370.667 55.3333C370.667 53.8667 364.133 48 362.667 48C361.733 48 358.8 45.6 356 42.6667C351.2 37.6 349.333 36.4 349.333 38.1333Z" fill="black"/>
<path d="M102 44.0026C101.6 44.6693 101.867 45.3359 102.533 45.3359C103.333 45.3359 104 44.6693 104 44.0026C104 43.2026 103.733 42.6693 103.467 42.6693C103.067 42.6693 102.4 43.2026 102 44.0026Z" fill="black"/>
<path d="M94.6665 48.0011C93.5998 49.4677 91.8665 50.6677 90.6665 50.6677C89.4665 50.6677 87.7332 51.8677 86.6665 53.2011C85.7332 54.6677 84.3998 55.6011 83.7332 55.2011C83.1998 54.8011 82.6665 55.2011 82.6665 55.8677C82.6665 58.0011 84.7998 57.6011 87.1998 55.3344C88.2665 54.2677 89.8665 53.3344 90.6665 53.3344C92.2665 53.3344 93.8665 52.0011 97.1998 47.6011C98.1332 46.4011 98.3998 45.3344 97.7332 45.3344C97.0665 45.3344 95.7332 46.5344 94.6665 48.0011Z" fill="black"/>
<path d="M99.3334 54.6667C99.7334 55.3333 100.4 56 100.8 56C101.067 56 101.333 55.3333 101.333 54.6667C101.333 53.8667 100.667 53.3333 99.8668 53.3333C99.2001 53.3333 98.9334 53.8667 99.3334 54.6667Z" fill="black"/>
<path d="M105.733 55.3337C104.8 56.4004 104 57.867 104 58.8004C104 59.6004 102.133 62.0004 99.7334 64.1337C96.6667 67.2004 96 68.5337 97.0667 69.6004C98.2667 70.8004 98.6667 70.8004 98.6667 69.4671C98.6667 68.5337 100.533 66.0004 102.667 64.0004C104.933 62.0004 106.667 59.3337 106.667 58.1337C106.667 56.9337 107.333 56.0004 108 56.0004C108.8 56.0004 109.333 55.3337 109.333 54.667C109.333 52.8004 107.6 53.067 105.733 55.3337Z" fill="black"/>
<path d="M370.667 58.9345C370.667 61.4679 370.933 61.6012 372 60.0012C373.733 57.4679 373.733 56.0012 372 56.0012C371.333 56.0012 370.667 57.3345 370.667 58.9345Z" fill="black"/>
<path d="M78.6666 58.6669C77.3332 59.4669 77.1999 60.4003 77.9999 61.2003C78.7999 62.0003 80.1332 62.1336 81.3332 61.3336C82.6666 60.5336 82.7999 59.6003 81.9999 58.8003C81.1999 58.0003 79.8666 57.8669 78.6666 58.6669Z" fill="black"/>
<path d="M91.0665 62.0013C89.3332 63.7346 87.9998 65.868 87.9998 66.8013C87.9998 67.6013 86.2665 70.0013 83.9998 72.0013C81.8665 74.0013 79.9998 76.5346 79.9998 77.6013C79.9998 78.5346 78.7998 80.268 77.3332 81.3346C75.8665 82.4013 74.6665 84.268 74.6665 85.6013C74.6665 86.9346 74.1332 88.0013 73.3332 88.0013C72.6665 88.0013 71.9998 89.2013 71.9998 90.668C71.9998 92.1346 71.4665 93.3346 70.6665 93.3346C69.9998 93.3346 69.3332 94.5346 69.3332 96.0013C69.3332 97.468 68.7998 98.668 67.9998 98.668C67.3332 98.668 66.6665 100.401 66.6665 102.668C66.6665 104.801 67.3332 106.668 67.9998 106.668C68.7998 106.668 69.3332 105.468 69.3332 104.001C69.3332 102.535 69.9998 101.335 70.6665 101.335C71.4665 101.335 71.9998 100.135 71.9998 98.668C71.9998 97.2013 72.6665 96.0013 73.3332 96.0013C74.1332 96.0013 74.6665 94.8013 74.6665 93.3346C74.6665 91.868 75.3332 90.668 75.9998 90.668C76.7998 90.668 77.3332 89.468 77.3332 88.0013C77.3332 86.5346 77.9998 85.3346 78.6665 85.3346C79.4665 85.3346 79.9998 84.1346 79.9998 82.668C79.9998 81.2013 80.6665 80.0013 81.3332 80.0013C82.1332 80.0013 82.6665 79.068 82.6665 77.868C82.6665 76.8013 83.3332 76.268 83.9998 76.668C84.7998 77.068 85.3332 76.5346 85.3332 75.3346C85.3332 74.0013 87.1998 71.3346 89.3332 69.3346C91.5998 67.3346 93.3332 64.668 93.3332 63.468C93.3332 62.268 93.9998 61.3346 94.6665 61.3346C95.4665 61.3346 95.9998 60.668 95.9998 60.0013C95.9998 57.868 94.2665 58.5346 91.0665 62.0013Z" fill="black"/>
<path d="M373.333 59.3365C373.333 60.8032 380.133 66.9365 380.933 66.2699C381.333 65.8699 380.133 64.0032 378.267 62.1365C374.933 58.8032 373.333 57.8699 373.333 59.3365Z" fill="black"/>
<path d="M72 65.3348C70.1334 67.4681 67.6 69.3348 66.4 69.3348C63.8667 69.3348 63.2 71.3348 65.2 72.5348C66.4 73.3348 77.3334 63.7348 77.3334 62.1348C77.3334 60.2681 75.0667 61.6014 72 65.3348Z" fill="black"/>
<path d="M380.666 68.0026C380.266 68.6693 380.8 69.3359 381.866 69.3359C383.066 69.3359 384 68.6693 384 68.0026C384 67.2026 383.466 66.6693 382.8 66.6693C382 66.6693 381.066 67.2026 380.666 68.0026Z" fill="black"/>
<path d="M93.3332 71.8696C93.3332 73.3363 92.5332 74.6696 91.7332 75.0696C90.7999 75.3363 90.3999 76.1363 90.9332 76.6696C92.1332 78.0029 95.9999 74.1363 95.9999 71.4696C95.9999 70.2696 95.4665 69.3363 94.6665 69.3363C93.9999 69.3363 93.3332 70.5363 93.3332 71.8696Z" fill="black"/>
<path d="M383.6 70.1329C382.533 71.1996 384 74.7996 385.333 73.9996C386.667 73.1996 392 77.8662 392 79.8662C392 82.3996 395.867 85.5996 397.467 84.5329C398.533 83.9996 398.667 84.1329 398.133 85.1996C397.467 86.1329 398.267 87.8662 399.867 89.1996C401.467 90.5329 402.667 92.2662 402.667 93.1996C402.667 93.9996 403.333 94.6662 404 94.6662C404.8 94.6662 405.333 95.3329 405.333 95.9996C405.333 97.9996 412 104.4 412.933 103.466C413.467 103.066 412.4 101.6 410.933 100.133C409.333 98.7996 408 96.9329 408 95.9996C408 95.1996 406.267 92.6662 404 90.6662C401.867 88.6662 400 86.2662 400 85.3329C400 82.9329 396.133 79.7329 394.533 80.7996C393.467 81.3329 393.333 81.1996 393.867 80.2662C394.4 79.3329 392.8 76.6662 390.133 73.9996C385.067 69.0662 384.933 68.9329 383.6 70.1329Z" fill="black"/>
<path d="M61.3335 73.3346C61.3335 74.0013 62.0002 74.668 62.6668 74.668C63.4668 74.668 64.0002 74.0013 64.0002 73.3346C64.0002 72.5346 63.4668 72.0013 62.6668 72.0013C62.0002 72.0013 61.3335 72.5346 61.3335 73.3346Z" fill="black"/>
<path d="M57.6 76.8026C56.6667 77.8693 56.2667 79.3359 56.8 80.2693C57.3333 81.2026 57.2 81.3359 56.2667 80.8026C54.5333 79.7359 45.3333 88.2693 45.3333 90.8026C45.3333 91.6026 44.1333 93.4693 42.6667 94.6693C41.0667 96.0026 40.1333 97.8693 40.2667 98.8026C40.5333 99.7359 39.8667 100.669 39.0667 100.803C38.1333 100.936 36.8 101.069 36 101.203C35.3333 101.203 34.6667 102.536 34.6667 104.003C34.6667 105.469 34.1333 106.669 33.3333 106.669C32.6667 106.669 32 107.603 32 108.803C32 109.869 31.4667 110.403 30.6667 110.003C30 109.603 29.3333 110.403 29.3333 111.869C29.3333 113.469 28.6667 114.669 27.8667 114.669C27.2 114.669 26.8 115.203 27.3333 115.869C27.7333 116.536 27.0667 118.003 26 119.069C24.9333 120.269 24 122.136 24 123.203C24 124.403 23.4667 125.336 22.6667 125.336C22 125.336 21.3333 126.536 21.3333 128.003C21.3333 129.469 20.8 130.669 20 130.669C19.3333 130.669 18.6667 131.869 18.6667 133.336C18.6667 134.803 18.1333 136.003 17.3333 136.003C16.6667 136.003 16 137.203 16 138.669C16 140.136 16.6667 141.336 17.3333 141.336C18.1333 141.336 18.6667 140.136 18.6667 138.669C18.6667 137.203 19.3333 136.003 20 136.003C20.8 136.003 21.3333 134.803 21.3333 133.336C21.3333 131.869 22 130.669 22.6667 130.669C23.4667 130.669 24 129.469 24 128.003C24 126.536 24.6667 125.336 25.3333 125.336C26.1333 125.336 26.6667 124.136 26.6667 122.669C26.6667 121.203 27.3333 120.003 28 120.003C28.8 120.003 29.3333 118.936 29.3333 117.603C29.3333 116.269 30.5333 114.403 32 113.336C33.4667 112.269 34.6667 110.536 34.6667 109.603C34.6667 108.669 36.9333 105.603 39.7333 102.803C42.4 100.136 44.8 97.0693 45.0667 96.0026C45.3333 95.0693 46.6667 93.2026 48.1333 91.8693C49.4667 90.6693 50.6667 89.2026 50.6667 88.6693C50.6667 87.3359 56 82.6693 57.6 82.6693C58.1333 82.6693 58.6667 81.4693 58.6667 80.0026C58.6667 78.5359 59.6 77.3359 60.8 77.3359C61.8667 77.3359 62.4 76.6693 62 76.0026C60.9333 74.1359 59.6 74.4026 57.6 76.8026Z" fill="black"/>
<path d="M88 80.5346C88 81.7346 88.6667 82.668 89.3333 82.668C90.1333 82.668 90.6667 82.1346 90.6667 81.468C90.6667 80.668 90.1333 79.7346 89.3333 79.3346C88.6667 78.9346 88 79.468 88 80.5346Z" fill="black"/>
<path d="M85.8667 87.3359C86.2667 88.5359 85.7333 89.7359 84.6667 90.1359C83.6 90.6693 82.6667 92.1359 82.6667 93.4693C82.6667 94.8026 82.1333 96.0026 81.3333 96.0026C80.6667 96.0026 80 97.2026 80 98.6693C80 100.136 80.6667 101.336 81.3333 101.336C82.1333 101.336 82.6667 100.136 82.6667 98.6693C82.6667 97.2026 83.3333 96.0026 84 96.0026C84.8 96.0026 85.3333 94.8026 85.3333 93.3359C85.3333 91.8693 86 90.6693 86.6667 90.6693C87.4667 90.6693 88 89.4693 88 88.0026C88 86.5359 87.3333 85.3359 86.5333 85.3359C85.7333 85.3359 85.4667 86.2693 85.8667 87.3359Z" fill="black"/>
<path d="M79.0665 103.601C77.1998 104.268 76.6665 110.135 78.3998 111.201C78.9332 111.468 79.5998 110.268 79.7332 108.268C79.8665 106.401 80.7998 104.401 81.7332 103.735C83.4665 102.668 81.7332 102.535 79.0665 103.601Z" fill="black"/>
<path d="M413.333 106.669C413.333 108.136 414 109.336 414.667 109.336C415.467 109.336 416 110.403 416 111.736C416 113.069 417.2 114.936 418.667 116.003C420.133 117.069 421.333 118.669 421.333 119.736C421.333 121.469 424.4 125.336 425.867 125.336C428.133 125.336 426.133 120.669 422.667 117.336C420.533 115.336 418.667 112.669 418.667 111.469C418.667 110.269 418.133 109.336 417.333 109.336C416.667 109.336 416 108.136 416 106.669C416 105.203 415.467 104.003 414.667 104.003C414 104.003 413.333 105.203 413.333 106.669Z" fill="black"/>
<path d="M64 108.535C64 110.401 63.2 112.001 62.4 112.001C60.5333 112.001 63.8667 114.668 65.7333 114.668C67.2 114.668 66.9333 106.935 65.3333 106.001C64.5333 105.468 64 106.668 64 108.535Z" fill="black"/>
<path d="M74.6667 118.669C74.6667 122.269 74.1333 125.335 73.3333 125.335C72.6667 125.335 72 127.735 72 130.535C72 133.469 72.6667 136.269 73.3333 136.669C74.1333 137.202 74.6667 135.069 74.6667 131.469C74.6667 128.135 75.3333 125.335 76 125.335C76.8 125.335 77.3333 122.269 77.3333 118.669C77.3333 114.935 76.8 112.002 76 112.002C75.3333 112.002 74.6667 114.935 74.6667 118.669Z" fill="black"/>
<path d="M61.3332 117.335C61.3332 118.801 60.7998 120.001 59.9998 120.001C59.3332 120.001 58.6665 122.401 58.6665 125.335C58.6665 128.401 59.3332 130.668 60.1332 130.668C61.0665 130.668 61.4665 128.935 61.0665 126.135C60.6665 122.935 61.0665 121.868 62.2665 122.268C63.4665 122.801 63.9998 121.601 63.9998 118.801C63.9998 116.535 63.4665 114.668 62.6665 114.668C61.9998 114.668 61.3332 115.868 61.3332 117.335Z" fill="black"/>
<path d="M426.4 129.203C428 130.536 429.333 132.669 429.333 133.869C429.333 135.069 429.733 136.003 430.4 136.003C431.466 136.003 435.466 144.136 434.933 145.603C434.8 146.269 435.333 146.669 436 146.669C436.8 146.669 437.333 147.869 437.333 149.336C437.333 150.803 438 152.003 438.666 152.003C439.466 152.003 440 153.203 440 154.669C440 156.136 440.666 157.336 441.333 157.336C442.133 157.336 442.666 156.136 442.666 154.669C442.666 153.203 442.133 152.003 441.333 152.003C440.666 152.003 440 150.803 440 149.336C440 147.869 439.466 146.669 438.666 146.669C438 146.669 437.333 145.469 437.333 144.003C437.333 142.536 436.8 141.336 436 141.336C435.333 141.336 434.666 140.136 434.666 138.669C434.666 137.203 434.133 136.003 433.333 136.003C432.666 136.003 432 135.069 432 133.869C432 131.469 427.2 126.669 424.933 126.669C424.133 126.669 424.933 127.736 426.4 129.203Z" fill="black"/>
<path d="M55.3334 140.267C53.6001 156.933 53.2001 188 54.5334 188C55.4667 188 56.0001 180.933 56.0001 167.467C56.0001 155.067 56.5334 146.533 57.3334 146C59.0667 144.933 59.0667 133.733 57.4667 132.8C56.8001 132.267 55.8667 135.733 55.3334 140.267Z" fill="black"/>
<path d="M13.3332 145.203C13.3332 147.469 12.7998 149.336 11.9998 149.336C11.3332 149.336 10.6665 151.069 10.6665 153.336C10.6665 155.469 11.3332 157.336 11.9998 157.336C12.7998 157.336 13.3332 155.603 13.3332 153.469C13.3332 151.336 13.8665 149.336 14.5332 149.069C16.3998 148.403 16.7998 142.269 15.0665 141.736C13.8665 141.336 13.3332 142.536 13.3332 145.203Z" fill="black"/>
<path d="M69.3335 160.133C69.3335 172.266 69.8668 178.533 70.6668 178C71.4668 177.466 72.0002 169.733 72.0002 159.2C72.0002 148.133 71.4668 141.333 70.6668 141.333C69.8668 141.333 69.3335 148.533 69.3335 160.133Z" fill="black"/>
<path d="M221.333 150.402C221.333 151.336 219.6 152.002 217.333 152.002C215.2 152.002 213.333 152.536 213.333 153.336C213.333 155.602 220.933 154.802 221.867 152.536C222.4 151.336 222.4 150.002 222 149.602C221.6 149.202 221.333 149.602 221.333 150.402Z" fill="black"/>
<path d="M224 150.667C224 151.467 232 152 245.333 152C258.667 152 266.667 151.467 266.667 150.667C266.667 149.867 258.667 149.333 245.333 149.333C232 149.333 224 149.867 224 150.667Z" fill="black"/>
<path d="M268.933 152.934C269.733 154.934 280 155.334 280 153.468C280 152.801 277.333 152.001 274.133 151.868C269.867 151.468 268.533 151.734 268.933 152.934Z" fill="black"/>
<path d="M208.4 154.403C203.867 155.069 204.667 157.336 209.333 157.336C211.6 157.336 213.333 156.803 213.333 156.136C213.333 154.269 211.867 153.736 208.4 154.403Z" fill="black"/>
<path d="M282 156C282.4 156.667 284.533 157.333 286.8 157.333C288.933 157.333 290.667 157.867 290.667 158.667C290.667 159.333 291.867 160 293.333 160C294.8 160 296 159.333 296 158.667C296 157.867 294.8 157.333 293.333 157.333C291.867 157.333 290.667 156.667 290.667 156C290.667 155.2 288.533 154.667 285.867 154.667C283.067 154.667 281.467 155.2 282 156Z" fill="black"/>
<path d="M200 157.336C198.133 157.869 197.333 158.403 198.267 158.536C199.2 158.669 199.6 159.603 199.067 160.936C198.533 162.669 199.2 162.403 201.067 160.136C203.733 157.336 204.667 155.736 203.733 156.136C203.467 156.269 201.867 156.803 200 157.336Z" fill="black"/>
<path d="M8.00016 161.868C8.00016 163.735 7.46683 165.335 6.66683 165.335C6.00016 165.335 5.3335 168.268 5.3335 172.001C5.3335 175.601 6.00016 178.668 6.66683 178.668C7.46683 178.668 8.00016 176.268 8.00016 173.468C8.00016 170.535 8.66683 167.735 9.3335 167.335C10.1335 166.935 10.6668 165.068 10.6668 163.335C10.6668 161.601 10.1335 159.735 9.3335 159.335C8.5335 158.801 8.00016 160.001 8.00016 161.868Z" fill="black"/>
<path d="M194.667 161.335C194.667 162.001 195.333 162.668 196 162.668C196.8 162.668 197.333 162.001 197.333 161.335C197.333 160.535 196.8 160.001 196 160.001C195.333 160.001 194.667 160.535 194.667 161.335Z" fill="black"/>
<path d="M298.667 161.335C298.667 162.001 299.867 162.668 301.333 162.668C302.8 162.668 304 162.001 304 161.335C304 160.535 302.8 160.001 301.333 160.001C299.867 160.001 298.667 160.535 298.667 161.335Z" fill="black"/>
<path d="M442.667 162.669C442.667 164.136 443.333 165.336 444 165.336C444.8 165.336 445.333 167.069 445.333 169.336C445.333 171.469 446 173.336 446.667 173.336C447.467 173.336 448 175.069 448 177.336C448 179.469 448.667 181.336 449.333 181.336C450.133 181.336 450.667 179.469 450.667 177.336C450.667 175.069 450.133 173.336 449.333 173.336C448.667 173.336 448 171.469 448 169.336C448 167.069 447.467 165.336 446.667 165.336C446 165.336 445.333 164.136 445.333 162.669C445.333 161.203 444.8 160.003 444 160.003C443.333 160.003 442.667 161.203 442.667 162.669Z" fill="black"/>
<path d="M188.666 164.003C188.266 164.669 188.8 165.336 189.866 165.336C191.066 165.336 192 164.669 192 164.003C192 163.203 191.466 162.669 190.8 162.669C190 162.669 189.066 163.203 188.666 164.003Z" fill="black"/>
<path d="M305.333 164.003C303.733 165.069 303.867 165.336 306.4 165.336C308 165.336 309.333 164.669 309.333 164.003C309.333 162.269 307.867 162.269 305.333 164.003Z" fill="black"/>
<path d="M182.667 168C181.6 169.466 180.133 170.666 179.333 170.666C178.533 170.666 175.6 172.666 172.933 175.2C169.067 178.666 168.4 179.866 170 180.533C171.333 181.066 174.667 178.8 179.333 174C183.333 170 186.667 166.4 186.667 166C186.667 164.4 184.4 165.466 182.667 168Z" fill="black"/>
<path d="M312 166.667C312 167.333 312.667 168 313.333 168C314.133 168 314.667 167.333 314.667 166.667C314.667 165.867 314.133 165.333 313.333 165.333C312.667 165.333 312 165.867 312 166.667Z" fill="black"/>
<path d="M317.333 168.8C317.333 170.134 321.067 173.334 322.667 173.334C323.6 173.334 326 175.067 328 177.334C330 179.467 332.667 181.334 333.867 181.334C335.067 181.334 336 182 336 182.8C336 183.6 336.933 183.867 338.133 183.467C339.2 183.067 339.733 183.2 339.333 184C338.267 185.734 341.867 189.334 344.4 189.334C345.6 189.334 346.667 190.134 347.067 190.934C347.333 191.867 348.133 192.267 348.667 191.734C349.867 190.667 340.667 181.334 338.4 181.334C337.333 181.334 335.733 180.134 334.667 178.667C333.6 177.2 331.867 176 330.667 176C329.467 176 327.733 174.8 326.667 173.334C325.6 171.867 323.733 170.667 322.4 170.667C321.067 170.667 320 170 320 169.334C320 168.534 319.467 168 318.667 168C318 168 317.333 168.4 317.333 168.8Z" fill="black"/>
<path d="M296 180C296 180.667 297.867 181.333 300 181.333C302.267 181.333 304 181.867 304 182.667C304 183.333 305.2 184 306.667 184C308.133 184 309.333 183.333 309.333 182.533C309.333 181.733 308.4 181.467 307.333 181.867C306.133 182.267 304.933 181.733 304.533 180.667C303.6 178.4 296 177.867 296 180Z" fill="black"/>
<path d="M72 187.202C72 192.002 72.5333 194.669 73.7333 195.069C74.9333 195.469 75.3333 197.202 74.9333 200.002C74.6667 202.402 74.9333 204.669 75.7333 205.202C76.5333 205.736 77.3333 208.269 77.6 211.069C77.7333 213.736 78.4 216.002 78.9333 216.002C79.4667 216.002 80 217.202 80 218.669C80 220.136 80.6667 221.336 81.3333 221.336C82.1333 221.336 82.6667 222.536 82.6667 224.002C82.6667 225.469 83.3333 226.669 84 226.669C84.8 226.669 85.3333 227.736 85.3333 229.069C85.3333 230.402 86.5333 232.269 88 233.336C89.4667 234.402 90.6667 236.136 90.6667 237.336C90.6667 238.536 91.8667 240.269 93.3333 241.336C94.8 242.402 96 244.136 96 245.069C96 246.136 97.8667 248.669 100 250.669C102.267 252.669 104 255.069 104 255.869C104 256.669 107.333 260.802 111.467 264.802C116.933 270.269 119.333 271.869 120.4 270.802C121.467 269.736 121.467 269.336 120.267 269.336C118.133 269.336 109.333 260.669 109.333 258.669C109.333 257.736 106.933 254.802 104 252.002C101.067 249.202 98.6667 246.002 98.6667 245.069C98.6667 244.136 97.4667 242.402 96 241.336C94.5333 240.269 93.3333 238.536 93.3333 237.336C93.3333 236.136 92.1333 234.402 90.6667 233.336C89.2 232.269 88 230.402 88 229.069C88 227.736 87.4667 226.669 86.6667 226.669C86 226.669 85.3333 225.469 85.3333 224.002C85.3333 222.536 84.8 221.336 84 221.336C83.3333 221.336 82.6667 219.469 82.6667 217.336C82.6667 215.069 82.1333 213.336 81.4667 213.336C80.2667 213.336 79.2 209.202 77.7333 199.602C77.3333 196.936 76.5333 194.669 75.8667 194.669C75.2 194.669 74.6667 191.336 74.6667 187.336C74.6667 183.336 74.1333 180.002 73.3333 180.002C72.6667 180.002 72 183.202 72 187.202Z" fill="black"/>
<path d="M2.66667 189.335C2.66667 193.735 2.13333 197.335 1.33333 197.335C0.533333 197.335 0 205.735 0 220.001C0 234.268 0.533333 242.668 1.33333 242.668C2.13333 242.668 2.66667 234.401 2.66667 220.535C2.66667 206.268 3.06667 198.801 4 199.335C4.8 199.868 5.33333 196.668 5.33333 190.801C5.33333 185.335 4.8 181.335 4 181.335C3.2 181.335 2.66667 184.935 2.66667 189.335Z" fill="black"/>
<path d="M165.333 184.002C165.333 187.202 166.133 187.335 168.8 184.802C171.333 182.135 171.2 181.335 168 181.335C166.267 181.335 165.333 182.269 165.333 184.002Z" fill="black"/>
<path d="M451.467 184.4C450.8 186.4 450.667 188.533 451.2 188.933C452.667 190.4 453.6 188.266 453.067 184.4L452.534 180.666L451.467 184.4Z" fill="black"/>
<path d="M311.333 185.334C310.933 186.001 311.467 186.667 312.533 186.667C313.733 186.667 314.667 187.201 314.667 188.001C314.667 188.667 315.6 189.334 316.8 189.334C317.867 189.334 321.733 192.267 325.333 196.001C328.933 199.601 332.4 202.667 332.933 202.667C333.6 202.667 334.933 203.867 336 205.334C337.067 206.801 338.4 208.001 338.933 208.001C341.067 208.001 352 220.001 352 222.267C352.133 224.534 352.133 224.534 353.467 222.401C354.533 220.401 352.933 218.267 344.667 210.001C338.8 204.134 334 200.267 333.067 200.801C332.133 201.334 332 201.201 332.533 200.134C333.6 198.534 330.4 194.667 328 194.667C327.067 194.667 324.667 192.801 322.667 190.667C320.667 188.401 318 186.667 316.8 186.667C315.6 186.667 314.667 186.001 314.667 185.334C314.667 184.534 314.133 184.001 313.467 184.001C312.667 184.001 311.733 184.534 311.333 185.334Z" fill="black"/>
<path d="M162.667 186.801C162.667 187.868 161.467 189.601 160 190.668C158.533 191.735 157.333 193.601 157.333 194.935C157.333 196.268 156.8 197.335 156 197.335C155.333 197.335 154.667 198.535 154.667 199.868C154.667 201.335 154.133 202.935 153.333 203.335C152.667 203.735 152 205.601 152 207.468C152 209.201 151.467 210.668 150.667 210.668C150 210.668 149.333 212.401 149.333 214.668C149.333 216.801 150 218.668 150.667 218.668C151.467 218.668 152 216.801 152 214.668C152 212.401 152.667 210.668 153.467 210.668C154.4 210.668 154.667 209.201 154.267 207.201C153.867 205.068 154.267 203.468 155.467 203.068C156.533 202.668 157.333 201.201 157.333 199.868C157.333 198.535 158 197.335 158.667 197.335C159.467 197.335 160 196.401 160 195.201C160 194.135 160.667 193.601 161.333 194.001C162.133 194.401 162.667 193.601 162.667 192.135C162.667 190.801 163.467 189.335 164.4 188.935C165.733 188.401 165.733 188.001 164.4 186.535C162.933 185.068 162.667 185.201 162.667 186.801Z" fill="black"/>
<path d="M304 189.336C304 190.803 304.667 192.003 305.333 192.003C306.133 192.003 306.667 193.203 306.667 194.669C306.667 196.136 307.333 197.336 308 197.336C308.8 197.336 309.333 196.136 309.333 194.669C309.333 193.203 308.8 192.003 308 192.003C307.333 192.003 306.667 190.803 306.667 189.336C306.667 187.869 306.133 186.669 305.333 186.669C304.667 186.669 304 187.869 304 189.336Z" fill="black"/>
<path d="M56 196.001C56 199.601 56.6667 202.668 57.3333 202.668C58.1333 202.668 58.6667 199.601 58.6667 196.001C58.6667 192.268 58.1333 189.335 57.3333 189.335C56.6667 189.335 56 192.268 56 196.001Z" fill="black"/>
<path d="M349.333 193.335C349.333 194.001 350 194.668 350.667 194.668C351.467 194.668 352 194.001 352 193.335C352 192.535 351.467 192.001 350.667 192.001C350 192.001 349.333 192.535 349.333 193.335Z" fill="black"/>
<path d="M453.6 196.001C453.733 198.135 454.4 200.001 454.933 200.001C455.467 200.001 456 202.401 456 205.335C456 208.268 456.667 210.668 457.333 210.668C458.133 210.668 458.667 208.268 458.667 205.335C458.667 202.401 458.133 200.001 457.333 200.001C456.667 200.001 456 198.135 456 196.001C456 193.735 455.333 192.001 454.667 192.001C453.867 192.001 453.467 193.735 453.6 196.001Z" fill="black"/>
<path d="M352 196.136C352 196.936 352.933 197.203 354.133 196.803C355.2 196.403 355.733 196.536 355.333 197.336C354.133 199.336 361.2 206.003 362.8 204.403C363.6 203.603 362.667 201.603 360.133 198.936C356.267 194.67 352 193.336 352 196.136Z" fill="black"/>
<path d="M310.267 196.933C308.8 198.267 309.2 202.667 310.667 202.667C311.467 202.667 312 203.867 312 205.333C312 206.8 312.667 208 313.333 208C314.133 208 314.667 210 314.667 212.4C314.667 214.8 315.2 217.333 316 218.133C317.733 219.867 318 260.4 316.133 261.067C315.333 261.333 314.667 263.333 314.667 265.467C314.667 267.6 314.133 269.333 313.333 269.333C312.667 269.333 312 270.533 312 272C312 273.467 311.467 274.667 310.667 274.667C310 274.667 309.333 275.867 309.333 277.333C309.333 278.8 310 280 310.667 280C311.467 280 312 279.067 312 278C312 276.933 312.667 276 313.333 276C314.133 276 314.667 274.533 314.667 272.667C314.667 270.8 315.2 269.333 315.733 269.333C316.267 269.333 316.933 267.733 317.067 265.6C317.2 263.6 318 261.733 318.667 261.6C319.467 261.333 320 257.2 320 252.533C320 246.267 320.4 244.133 321.6 244.8C322.533 245.467 322.667 245.2 321.867 243.867C320.4 241.333 320.133 239.867 319.867 227.067C319.733 219.467 319.2 216.4 318.133 216.8C317.067 217.2 316.667 215.867 317.067 212.667C317.467 209.867 317.067 208 316.133 208C315.333 208 314.667 206.8 314.667 205.467C314.667 204.133 313.867 202.667 312.8 202.267C311.6 201.733 311.2 200.4 311.6 198.8C312.267 196 311.867 195.333 310.267 196.933Z" fill="black"/>
<path d="M59.7332 204.799C58.1332 206.266 58.3998 215.999 59.9998 215.999C60.7998 215.999 61.3332 217.733 61.3332 219.999C61.3332 222.133 61.9998 223.999 62.6665 223.999C63.4665 223.999 63.9998 225.199 63.9998 226.666C63.9998 228.133 64.6665 229.333 65.3332 229.333C66.1332 229.333 66.6665 230.533 66.6665 231.999C66.6665 233.466 67.3332 234.666 67.9998 234.666C68.7998 234.666 69.3332 235.866 69.3332 237.333C69.3332 238.799 69.9998 239.999 70.6665 239.999C71.4665 239.999 71.9998 241.199 71.9998 242.666C71.9998 244.133 72.6665 245.333 73.3332 245.333C74.1332 245.333 74.6665 246.533 74.6665 247.999C74.6665 249.466 75.1998 250.666 75.8665 250.666C76.5332 250.666 77.3332 251.999 77.7332 253.599C78.1332 256.533 78.2665 256.533 79.3332 254.133C80.1332 252.399 79.9998 251.333 78.9332 250.933C77.9998 250.666 77.3332 249.333 77.3332 247.866C77.3332 246.533 76.7998 245.333 75.9998 245.333C75.3332 245.333 74.6665 244.133 74.6665 242.666C74.6665 241.199 74.1332 239.999 73.3332 239.999C72.6665 239.999 71.9998 238.799 71.9998 237.333C71.9998 235.866 71.4665 234.666 70.6665 234.666C69.9998 234.666 69.3332 233.466 69.3332 231.999C69.3332 230.533 68.7998 229.333 67.9998 229.333C67.3332 229.333 66.6665 228.133 66.6665 226.666C66.6665 225.199 66.1332 223.999 65.3332 223.999C64.6665 223.999 63.9998 222.133 63.9998 219.999C63.9998 217.733 63.4665 215.999 62.7998 215.999C61.9998 215.999 61.3332 213.199 61.0665 209.866C60.7998 206.533 60.2665 204.266 59.7332 204.799Z" fill="black"/>
<path d="M362.667 206.134C362.667 206.4 365.067 209.2 368 212.134C370.933 215.2 373.333 216.934 373.333 216.134C373.333 215.2 371.867 213.067 370 211.2C368.133 209.334 366.933 207.334 367.2 206.8C367.6 206.267 366.667 205.734 365.2 205.734C363.867 205.6 362.667 205.734 362.667 206.134Z" fill="black"/>
<path d="M456.8 213.068C457.733 213.601 458.667 216.534 459.067 219.734C460 227.868 461.333 228.268 461.333 220.401C461.333 215.468 460.8 213.334 459.2 212.801C456.4 211.734 455.067 211.868 456.8 213.068Z" fill="black"/>
<path d="M374.267 217.736C373.333 220.27 376.667 225.07 378.4 223.47C378.8 222.936 378.533 222.136 377.733 221.603C376.933 221.07 376.133 219.47 375.733 218.003C375.333 215.47 375.2 215.47 374.267 217.736Z" fill="black"/>
<path d="M146.934 226.934C147.2 234.001 146.934 236.001 145.334 236.534C143.867 236.934 144 237.067 145.734 237.201C147.734 237.334 147.867 237.734 146.534 240.267C144.534 243.867 144.534 244.001 146.934 245.467C147.867 246.134 148.134 246.667 147.334 246.667C145.067 246.667 146.534 261.067 148.934 262.001C150.134 262.401 151.334 262.401 151.734 262.001C152.134 261.601 151.734 261.334 150.934 261.334C149.734 261.334 149.334 255.734 149.334 241.601C149.334 230.401 148.667 221.201 147.867 220.001C146.934 218.534 146.667 220.534 146.934 226.934Z" fill="black"/>
<path d="M355.067 223.867C355.067 225.334 355.733 226.134 356.267 225.867C356.8 225.467 357.333 226 357.333 226.934C357.333 228 358.533 229.6 360 230.667C361.467 231.734 362.667 233.467 362.667 234.667C362.667 235.867 363.867 237.6 365.333 238.667C366.8 239.734 368 241.6 368 242.934C368 244.267 368.667 245.334 369.333 245.334C370.133 245.334 370.667 246.534 370.667 248C370.667 249.467 371.333 250.667 372 250.667C372.8 250.667 373.333 251.867 373.333 253.334C373.333 254.8 374 256 374.667 256C375.467 256 376 257.2 376 258.667C376 260.134 376.667 261.334 377.333 261.334C378.133 261.334 378.667 262.534 378.667 263.867C378.667 265.334 379.333 266.934 380 267.334C380.8 267.867 381.333 266.667 381.333 264.8C381.333 262.934 380.8 261.334 380 261.334C379.333 261.334 378.667 260.134 378.667 258.667C378.667 257.2 378.133 256 377.333 256C376.667 256 376 254.8 376 253.334C376 251.867 375.467 250.667 374.667 250.667C374 250.667 373.333 249.467 373.333 248C373.333 246.534 372.8 245.334 372 245.334C371.333 245.334 370.667 244.267 370.667 242.934C370.667 241.6 369.467 239.734 368 238.667C366.533 237.6 365.333 235.867 365.333 234.667C365.333 233.467 364.133 231.734 362.667 230.667C361.2 229.6 360 228 360 226.934C360 225.2 356.933 221.334 355.467 221.334C355.2 221.334 354.933 222.534 355.067 223.867Z" fill="black"/>
<path d="M378.667 228.003C378.667 228.669 379.333 229.336 380 229.336C380.8 229.336 381.333 228.669 381.333 228.003C381.333 227.203 380.8 226.669 380 226.669C379.333 226.669 378.667 227.203 378.667 228.003Z" fill="black"/>
<path d="M460.533 229.069C460.933 229.736 461.333 235.736 461.467 242.402C461.6 249.069 462.133 254.402 462.667 254.002C463.2 253.736 463.733 248.002 463.867 241.469C464.133 231.736 463.733 229.469 462 228.802C460.8 228.402 460.133 228.536 460.533 229.069Z" fill="black"/>
<path d="M380.667 230.535C380.267 231.201 380.933 232.668 382 233.735C383.067 234.935 384 236.801 384 237.868C384 239.068 384.667 240.001 385.333 240.001C386.133 240.001 386.667 241.201 386.667 242.668C386.667 245.468 388.533 246.268 390 244.135C390.4 243.468 389.733 242.001 388.667 240.935C387.6 239.735 386.667 237.868 386.667 236.801C386.667 235.601 386.133 234.668 385.333 234.668C384.667 234.668 384 233.468 384 232.001C384 229.201 382.133 228.401 380.667 230.535Z" fill="black"/>
<path d="M3.4665 244.667C3.0665 245.867 2.6665 250.133 2.6665 254C2.6665 259.333 3.19984 261.2 4.79984 261.867C5.99984 262.4 7.33317 262.4 7.73317 262C8.13317 261.6 7.8665 261.333 7.0665 261.333C6.39984 261.333 5.59984 257.333 5.4665 252.4C5.19984 242.667 4.79984 241.333 3.4665 244.667Z" fill="black"/>
<path d="M389.333 248.001C389.333 249.468 390 250.668 390.667 250.668C391.467 250.668 392 249.468 392 248.001C392 246.535 391.467 245.335 390.667 245.335C390 245.335 389.333 246.535 389.333 248.001Z" fill="black"/>
<path d="M392 253.336C392 254.803 392.667 256.003 393.333 256.003C394.133 256.003 394.667 257.203 394.667 258.669C394.667 260.136 395.333 261.336 396 261.336C396.8 261.336 397.333 260.136 397.333 258.669C397.333 257.203 396.8 256.003 396 256.003C395.333 256.003 394.667 254.803 394.667 253.336C394.667 251.869 394.133 250.669 393.333 250.669C392.667 250.669 392 251.869 392 253.336Z" fill="black"/>
<path d="M80 257.068C80 257.601 81.2 258.934 82.6667 260.001C84.1333 261.068 85.3333 262.668 85.3333 263.601C85.3333 265.734 107.867 288.534 108.933 287.601C109.333 287.201 104.8 282.001 98.8 276.134C92.8 270.268 88 264.801 88 264.001C88 262.534 82 256.001 80.6667 256.001C80.2667 256.001 80 256.534 80 257.068Z" fill="black"/>
<path d="M464.933 262.668C464.533 264.135 464.667 265.602 465.2 265.868C465.733 266.268 466.267 265.068 466.4 263.202C466.667 259.335 465.867 259.068 464.933 262.668Z" fill="black"/>
<path d="M5.3335 269.336C5.3335 272.269 6.00016 274.669 6.66683 274.669C7.46683 274.669 8.00016 277.069 8.00016 280.003C8.00016 282.936 8.66683 285.336 9.3335 285.336C10.1335 285.336 10.6668 287.069 10.6668 289.203C10.6668 291.336 11.4668 293.336 12.5335 293.736C13.7335 294.136 14.1335 295.736 13.7335 297.869C13.3335 299.869 13.6002 301.336 14.5335 301.336C15.3335 301.336 16.0002 299.469 16.0002 297.336C16.0002 295.069 15.4668 293.336 14.6668 293.336C14.0002 293.336 13.3335 291.603 13.3335 289.469C13.3335 287.336 12.8002 285.336 12.0002 285.069C11.3335 284.803 10.6668 282.403 10.4002 279.603C10.2668 276.936 9.60016 274.669 9.06683 274.669C8.5335 274.669 8.00016 272.269 8.00016 269.336C8.00016 266.403 7.46683 264.003 6.66683 264.003C6.00016 264.003 5.3335 266.403 5.3335 269.336Z" fill="black"/>
<path d="M149.6 268.002C149.733 270.135 150.4 272.002 150.933 272.002C151.467 272.002 152 273.202 152 274.668C152 276.135 152.667 277.335 153.333 277.335C154.133 277.335 154.667 278.535 154.667 280.002C154.667 281.468 155.333 282.668 156 282.668C156.8 282.668 157.333 283.868 157.333 285.335C157.333 286.802 158 288.002 158.667 288.002C159.467 288.002 160 288.935 160 290.135C160 292.802 163.6 296.402 165.2 295.335C167.2 294.268 165.333 290.402 163.2 291.202C162.133 291.602 161.733 291.202 162.267 289.868C162.667 288.935 162.267 288.002 161.467 288.002C160.667 288.002 160 286.802 160 285.335C160 283.868 159.467 282.668 158.667 282.668C158 282.668 157.333 281.468 157.333 280.002C157.333 278.535 156.8 277.335 156 277.335C155.333 277.335 154.667 276.135 154.667 274.668C154.667 273.202 154.133 272.002 153.333 272.002C152.667 272.002 152 270.135 152 268.002C152 265.735 151.333 264.002 150.667 264.002C149.867 264.002 149.467 265.735 149.6 268.002Z" fill="black"/>
<path d="M397.333 268C397.333 270.133 398 272 398.667 272C399.467 272 400 270.133 400 268C400 265.733 399.467 264 398.667 264C398 264 397.333 265.733 397.333 268Z" fill="black"/>
<path d="M381.333 272.001C381.333 273.468 382 274.668 382.667 274.668C383.467 274.668 384 273.468 384 272.001C384 270.535 383.467 269.335 382.667 269.335C382 269.335 381.333 270.535 381.333 272.001Z" fill="black"/>
<path d="M120 272.802C120 274.135 124.133 277.602 124.933 276.935C125.333 276.535 124.667 275.202 123.6 274.002C121.467 272.002 120 271.469 120 272.802Z" fill="black"/>
<path d="M400 280.135C400 283.469 400.533 285.335 401.467 285.069C402.267 284.802 402.8 284.135 402.8 283.602C402.667 283.069 402.667 280.802 402.667 278.669C402.667 276.402 402.133 274.669 401.333 274.669C400.667 274.669 400 277.069 400 280.135Z" fill="black"/>
<path d="M126 277.335C125.067 278.801 131.067 285.335 133.467 285.335C134.267 285.335 136 286.401 137.2 287.735C138.4 288.935 140.933 290.801 143.067 291.868C145.067 292.935 146.667 294.268 146.667 294.935C146.667 295.468 147.867 296.001 149.333 296.001C150.8 296.001 152 296.668 152 297.468C152 298.268 152.933 298.668 154 298.135C155.067 297.735 156.533 298.401 157.2 299.735C157.867 300.935 158.933 301.601 159.333 301.068C160.667 299.735 156.667 296.001 154.133 296.001C152.933 296.001 152 295.335 152 294.668C152 293.868 150.933 293.335 149.6 293.335C148.267 293.335 146.4 292.135 145.333 290.668C144.267 289.201 142.667 288.001 141.733 288.001C140.667 288.001 137.2 285.335 133.867 282.001C127.467 275.468 127.2 275.335 126 277.335Z" fill="black"/>
<path d="M384 279.867C384 281.334 384.667 282.934 385.333 283.334C386.133 283.867 386.667 282.667 386.667 280.8C386.667 278.934 386.133 277.334 385.333 277.334C384.667 277.334 384 278.534 384 279.867Z" fill="black"/>
<path d="M461.333 289.333C461.333 294.399 460.8 298.666 460.267 298.666C459.733 298.666 459.067 301.066 458.933 303.999C458.4 311.466 460.933 310.666 461.867 302.933C463.867 288.399 464.267 279.999 462.8 279.999C461.867 279.999 461.333 283.466 461.333 289.333Z" fill="black"/>
<path d="M304.4 286C302.667 287.733 301.333 289.866 301.333 290.666C301.333 292.533 287.2 306.666 285.333 306.666C284.533 306.666 282.667 307.866 281.067 309.333C279.467 310.8 277.333 312 276.4 312C275.467 312 274.667 312.533 274.667 313.333C274.667 315.733 279.333 314.8 281.333 312C282.4 310.533 284 309.333 284.933 309.333C287.467 309.333 306.667 289.866 306.667 287.333C306.667 286.266 307.333 285.333 308 285.333C308.8 285.333 309.333 284.666 309.333 284C309.333 281.866 307.6 282.533 304.4 286Z" fill="black"/>
<path d="M402.667 314.67C402.667 330.803 402.133 344.003 401.6 344.003C400.933 344.003 400.4 346.803 400.133 350.136C400 354.136 400.4 356.003 401.2 355.336C402 354.936 402.667 352.136 402.667 349.203C402.667 346.403 403.333 344.003 404 344.003C404.8 344.003 405.333 333.336 405.333 314.67C405.333 296.003 404.8 285.336 404 285.336C403.2 285.336 402.667 296.003 402.667 314.67Z" fill="black"/>
<path d="M112 288.802C112 289.202 112.8 290.402 113.867 291.468C116.133 293.602 120 294.002 120 292.002C120 291.202 118.8 290.668 117.333 290.668C115.867 290.668 114.667 290.002 114.667 289.335C114.667 288.535 114.133 288.002 113.333 288.002C112.667 288.002 112 288.402 112 288.802Z" fill="black"/>
<path d="M386.667 292.003C386.667 292.669 387.333 293.336 388 293.336C388.8 293.336 389.333 292.669 389.333 292.003C389.333 291.203 388.8 290.669 388 290.669C387.333 290.669 386.667 291.203 386.667 292.003Z" fill="black"/>
<path d="M120 294.133C120 295.067 125.333 300 126.267 300C127.2 300 126.667 299.067 124.133 296.267C121.733 293.333 120 292.533 120 294.133Z" fill="black"/>
<path d="M387.6 297.333C388 298.8 388.533 300 388.8 300C389.067 300 389.333 298.8 389.333 297.333C389.333 295.867 388.8 294.667 388.133 294.667C387.467 294.667 387.2 295.867 387.6 297.333Z" fill="black"/>
<path d="M165.333 297.335C165.333 298.001 166 298.668 166.667 298.668C167.467 298.668 168 298.001 168 297.335C168 296.535 167.467 296.001 166.667 296.001C166 296.001 165.333 296.535 165.333 297.335Z" fill="black"/>
<path d="M128 299.467C128 300.801 131.733 304.001 133.467 304.001C134.267 304.001 136.133 305.334 137.467 306.934C138.933 308.401 140 309.334 140 308.801C140 308.267 141.2 308.534 142.667 309.334C144.8 310.534 145.067 310.401 144.533 308.667C144 307.601 142.667 306.667 141.467 306.667C140.267 306.667 138.4 305.467 137.333 304.001C136.267 302.534 134.4 301.334 133.067 301.334C131.733 301.334 130.667 300.667 130.667 300.001C130.667 299.201 130.133 298.667 129.333 298.667C128.667 298.667 128 299.067 128 299.467Z" fill="black"/>
<path d="M15.7333 302C14.6667 303.066 16.1333 309.333 17.4667 309.333C18.1333 309.333 18.6667 311.466 18.6667 314.133C18.6667 316.933 19.2 318.533 20 318C20.8 317.6 21.3333 315.466 21.3333 313.2C21.3333 311.066 20.8 309.333 20 309.333C19.3333 309.333 18.6667 307.466 18.6667 305.333C18.6667 301.6 17.4667 300.266 15.7333 302Z" fill="black"/>
<path d="M170.667 302.667C170.667 303.333 171.333 304 172.133 304C172.8 304 173.067 303.333 172.667 302.667C172.267 301.867 171.6 301.333 171.2 301.333C170.933 301.333 170.667 301.867 170.667 302.667Z" fill="black"/>
<path d="M389.333 302.802C389.333 303.469 390 303.735 390.667 303.335C391.467 302.935 392 302.269 392 301.869C392 301.602 391.467 301.335 390.667 301.335C390 301.335 389.333 302.002 389.333 302.802Z" fill="black"/>
<path d="M389.466 320.667C389.6 329.067 390.133 336 390.8 336C391.466 336 392 329.067 392 320.667C392 310.933 391.466 305.333 390.666 305.333C389.733 305.333 389.333 310.8 389.466 320.667Z" fill="black"/>
<path d="M146.667 310.667C146.667 311.333 147.333 312 148 312C148.8 312 149.333 311.333 149.333 310.667C149.333 309.867 148.8 309.333 148 309.333C147.333 309.333 146.667 309.867 146.667 310.667Z" fill="black"/>
<path d="M154.667 313.335C154.667 314.001 155.333 314.668 156 314.668C156.8 314.668 157.333 314.001 157.333 313.335C157.333 312.535 156.8 312.001 156 312.001C155.333 312.001 154.667 312.535 154.667 313.335Z" fill="black"/>
<path d="M456 317.467C456 321.2 455.467 322.533 454.4 321.867C453.6 321.333 453.333 321.467 453.733 322.267C454.8 323.867 450.667 337.733 449.067 338.4C448.533 338.667 448 340 448 341.467C448 342.8 447.467 344 446.667 344C446 344 445.333 345.733 445.333 348C445.333 350.133 446 352 446.667 352C447.467 352 448 350.8 448 349.333C448 347.867 448.667 346.667 449.333 346.667C450.133 346.667 450.667 344.8 450.667 342.667C450.667 340.4 451.333 338.667 452 338.667C452.8 338.667 453.333 336.8 453.333 334.667C453.333 332.4 454 330.667 454.667 330.667C455.467 330.667 456 328.8 456 326.667C456 324.4 456.667 322.667 457.333 322.667C458.133 322.667 458.667 320.267 458.667 317.333C458.667 314.4 458.133 312 457.333 312C456.667 312 456 314.4 456 317.467Z" fill="black"/>
<path d="M160 316.003C160 316.669 161.867 317.336 164 317.336C166.267 317.336 168 317.869 168 318.669C168 319.336 169.867 320.003 172 320.003C174.267 320.003 176 320.536 176 321.203C176 321.869 178 322.669 180.533 322.936C183.733 323.336 184.8 322.936 184.4 321.736C184 320.803 182 320.003 179.867 320.003C177.733 320.003 176 319.336 176 318.669C176 317.869 174.267 317.336 172 317.336C169.867 317.336 168 316.669 168 316.003C168 315.203 166.267 314.669 164 314.669C161.867 314.669 160 315.203 160 316.003Z" fill="black"/>
<path d="M269.333 316.003C269.333 316.669 270.267 317.336 271.467 317.336C272.533 317.336 273.067 316.669 272.667 316.003C272.267 315.203 271.333 314.669 270.533 314.669C269.867 314.669 269.333 315.203 269.333 316.003Z" fill="black"/>
<path d="M21.3335 321.468C21.3335 324.402 21.8668 325.468 23.0668 324.935C24.4002 324.402 24.8002 325.202 24.2668 327.468C24.0002 329.335 24.2668 330.668 25.2002 330.668C26.0002 330.668 26.6668 331.868 26.6668 333.335C26.6668 334.802 27.3335 336.002 28.0002 336.002C28.8002 336.002 29.3335 336.802 29.3335 337.735C29.3335 338.668 30.5335 340.802 32.0002 342.402C33.4668 344.002 34.6668 346.135 34.6668 347.335C34.6668 348.402 35.3335 349.335 36.0002 349.335C36.8002 349.335 37.3335 350.535 37.3335 352.002C37.3335 353.468 38.0002 354.668 38.6668 354.668C39.4668 354.668 40.0002 355.602 40.0002 356.802C40.0002 359.735 43.4668 362.802 45.8668 361.868C47.6002 361.202 47.2002 360.402 44.0002 357.335C41.7335 355.335 40.0002 352.668 40.0002 351.468C40.0002 350.268 39.4668 349.335 38.6668 349.335C38.0002 349.335 37.3335 348.135 37.3335 346.668C37.3335 345.202 36.8002 344.002 36.0002 344.002C35.3335 344.002 34.6668 342.802 34.6668 341.335C34.6668 339.868 34.1335 338.668 33.3335 338.668C32.6668 338.668 32.0002 337.868 32.0002 336.935C32.0002 336.002 30.8002 333.868 29.3335 332.268C27.8668 330.668 26.6668 328.268 26.6668 326.802C26.6668 325.335 26.1335 323.735 25.3335 323.335C24.6668 322.935 24.0002 321.335 24.0002 319.868C24.0002 318.535 23.4668 317.335 22.6668 317.335C22.0002 317.335 21.3335 319.202 21.3335 321.468Z" fill="black"/>
<path d="M261.333 318.667C261.333 319.333 262.533 320 264 320C265.467 320 266.667 319.333 266.667 318.667C266.667 317.867 265.467 317.333 264 317.333C262.533 317.333 261.333 317.867 261.333 318.667Z" fill="black"/>
<path d="M252.666 321.335C253.066 322.001 254.666 322.668 256 322.668C257.333 322.668 258.933 322.001 259.333 321.335C259.866 320.535 258.4 320.001 256 320.001C253.6 320.001 252.133 320.535 252.666 321.335Z" fill="black"/>
<path d="M186.667 324.003C186.667 324.669 189.6 325.336 193.2 325.336C196.933 325.336 200.267 324.669 200.667 324.003C201.2 323.203 198.667 322.669 194.133 322.669C190 322.669 186.667 323.203 186.667 324.003Z" fill="black"/>
<path d="M237.067 324.135C236.667 325.335 232.533 325.735 222.267 325.602C213.467 325.469 208 325.869 208 326.669C208 328.402 235.6 328.402 236.667 326.669C237.067 325.869 240.4 325.335 244.133 325.335C252.667 325.335 252.667 323.202 244.133 322.802C239.867 322.669 237.467 323.069 237.067 324.135Z" fill="black"/>
<path d="M386.4 349.2C386.133 354 386.4 355.466 387.733 355.066C389.6 354.266 390 342.666 388.133 342.666C387.467 342.666 386.667 345.6 386.4 349.2Z" fill="black"/>
<path d="M442.667 354.4C442.667 355.733 441.467 357.6 440 358.666C438.134 360 437.867 360.8 439.067 361.6C441.734 363.333 442.667 362.8 442.667 360C442.667 358.533 443.334 357.333 444 357.333C444.8 357.333 445.334 356.133 445.334 354.666C445.334 353.2 444.8 352 444 352C443.334 352 442.667 353.066 442.667 354.4Z" fill="black"/>
<path d="M383.733 360.534C383.2 362.801 383.6 363.601 384.933 363.068C386.8 362.268 387.333 357.334 385.467 357.334C384.8 357.334 384 358.801 383.733 360.534Z" fill="black"/>
<path d="M397.333 361.334C397.333 363.467 396.8 365.334 396 365.334C395.333 365.334 394.667 367.067 394.667 369.334C394.667 371.467 394.133 373.334 393.333 373.334C392.667 373.334 392 375.067 392 377.334C392 379.467 391.467 381.334 390.667 381.334C390 381.334 389.333 382.534 389.333 383.867C389.333 385.334 390 386.934 390.667 387.334C391.467 387.867 392 386.667 392 384.8C392 382.934 392.667 381.334 393.333 381.334C394.133 381.334 394.667 379.467 394.667 377.334C394.667 375.067 395.333 373.334 396 373.334C396.8 373.334 397.333 371.467 397.333 369.334C397.333 367.067 398 365.334 398.667 365.334C399.467 365.334 400 363.467 400 361.334C400 359.067 399.467 357.334 398.667 357.334C398 357.334 397.333 359.067 397.333 361.334Z" fill="black"/>
<path d="M45.3335 364.803C45.3335 366.003 47.2002 368.669 49.3335 370.669C51.6002 372.669 53.3335 375.069 53.3335 376.003C53.3335 376.803 55.7335 379.869 58.6668 382.669C61.6002 385.469 64.0002 388.403 64.0002 389.336C64.0002 390.803 69.8668 397.336 71.3335 397.336C71.7335 397.336 72.0002 396.403 72.0002 395.203C72.0002 392.403 68.4002 388.936 66.5335 390.136C65.4668 390.669 65.3335 390.536 65.8668 389.469C66.5335 388.536 65.8668 386.936 64.4002 385.603C63.0668 384.403 60.4002 381.203 58.6668 378.669C56.9335 376.136 54.4002 373.069 53.0668 371.869C51.7335 370.669 50.6668 368.669 50.6668 367.469C50.6668 366.136 50.1335 365.603 49.3335 366.003C48.6668 366.403 48.0002 365.869 48.0002 364.803C48.0002 363.603 47.4668 362.669 46.6668 362.669C46.0002 362.669 45.3335 363.603 45.3335 364.803Z" fill="black"/>
<path d="M436.4 364.668C435.467 365.734 434.667 367.334 434.667 368.268C434.667 369.334 433.467 370.934 432 372.001C430.533 373.068 429.333 374.668 429.333 375.734C429.333 376.668 427.867 378.934 426 380.801C424.133 382.668 422.933 384.801 423.333 385.468C424.667 387.468 426.667 386.801 426.667 384.534C426.667 383.334 427.867 381.201 429.467 379.868C430.933 378.534 431.867 376.801 431.333 376.134C430.933 375.201 431.333 375.068 432.533 375.468C434 376.001 434.667 375.468 434.667 373.468C434.667 371.868 435.2 370.668 435.867 370.668C436.533 370.668 437.333 369.601 437.867 368.268C438.267 367.068 439.067 365.201 439.467 364.268C440.533 362.134 438.4 362.268 436.4 364.668Z" fill="black"/>
<path d="M380.267 370.668C378.267 377.068 378.267 378.668 380 378.668C380.8 378.668 381.333 377.201 381.333 375.335C381.333 373.468 382 372.001 382.667 372.001C383.467 372.001 384 370.535 384 368.668C384 363.735 382.133 364.668 380.267 370.668Z" fill="black"/>
<path d="M376 381.868C376 382.934 375.2 384.001 374.4 384.268C373.467 384.668 374.134 385.201 375.734 385.601C378 386.268 378.667 385.868 378.667 384.001C378.667 382.534 378.134 381.068 377.334 380.668C376.667 380.268 376 380.668 376 381.868Z" fill="black"/>
<path d="M373.333 389.202C373.333 390.668 372.533 392.002 371.733 392.402C370.8 392.668 370.4 393.468 370.933 394.002C372.133 395.335 376 391.468 376 388.802C376 387.602 375.467 386.668 374.667 386.668C374 386.668 373.333 387.868 373.333 389.202Z" fill="black"/>
<path d="M386.667 388.934C386.667 390.268 387.333 392.268 388 393.334C388.933 394.801 389.333 394.268 389.333 390.934C389.333 388.668 388.8 386.668 388 386.668C387.333 386.668 386.667 387.734 386.667 388.934Z" fill="black"/>
<path d="M420.666 388.003C421.066 388.669 422 389.336 422.8 389.336C423.466 389.336 424 388.669 424 388.003C424 387.203 423.066 386.669 421.866 386.669C420.8 386.669 420.266 387.203 420.666 388.003Z" fill="black"/>
<path d="M413.734 395.336C409.467 399.869 408.667 401.336 410.134 401.869C413.067 403.069 413.334 402.936 413.334 400.536C413.334 399.336 415.2 396.669 417.334 394.669C419.6 392.669 421.334 390.536 421.334 390.136C421.334 388.269 418.934 389.869 413.734 395.336Z" fill="black"/>
<path d="M384 394.536C384 396.136 383.467 397.336 382.667 397.336C382 397.336 381.333 398.403 381.333 399.736C381.333 401.069 380.133 402.936 378.667 404.003C377.2 405.069 376 406.803 376 407.736C376 408.803 374.267 411.336 372 413.336C369.867 415.336 368 417.869 368 418.669C368 419.603 370.4 417.869 373.333 414.803C376.267 411.869 378.667 408.536 378.667 407.603C378.667 406.669 379.867 405.069 381.333 404.003C382.8 402.936 384 401.069 384 399.736C384 398.403 384.667 397.336 385.333 397.336C386.133 397.336 386.667 396.536 386.667 395.469C386.667 394.403 386.133 393.069 385.333 392.669C384.667 392.269 384 393.069 384 394.536Z" fill="black"/>
<path d="M72.8002 396.936C72.0002 398.936 88.1336 416.003 90.8002 416.003C91.6002 416.003 94.5336 418.403 97.3336 421.336C102.134 426.403 106.667 428.27 106.667 425.336C106.667 424.536 105.867 424.003 104.8 424.003C103.734 424.003 96.2669 417.47 88.1336 409.47C78.1336 399.603 73.2002 395.603 72.8002 396.936Z" fill="black"/>
<path d="M368.533 395.603C368.933 396.403 368.4 398.003 367.333 399.069C366.266 400.269 365.333 402.003 365.333 402.936C365.333 404.003 364.133 405.603 362.666 406.669C359.866 408.669 358.933 413.336 361.333 413.336C362.133 413.336 362.666 412.403 362.666 411.336C362.666 410.136 364.133 407.736 365.866 406.003C370 401.869 371.466 397.469 369.333 395.469C368 394.403 367.866 394.403 368.533 395.603Z" fill="black"/>
<path d="M397.333 412C392.533 417.067 387.733 421.2 386.666 421.2C385.466 421.334 383.733 422.534 382.666 424C381.6 425.467 380 426.667 378.933 426.667C376.533 426.667 372.8 430.534 374 431.734C374.533 432.267 375.333 431.867 375.6 430.934C376 430.134 377.2 429.334 378.533 429.334C379.733 429.334 381.6 428.134 382.666 426.667C383.733 425.2 385.333 424 386.4 424C387.333 424 392.266 419.734 397.333 414.667C402.4 409.467 407.6 405.334 408.933 405.334C410.933 405.334 411.066 405.067 409.333 404C408.266 403.334 407.066 402.8 406.666 402.8C406.266 402.8 402.133 406.934 397.333 412Z" fill="black"/>
<path d="M357.333 413.068C357.333 414.001 350.667 421.335 342.533 429.468C334.4 437.601 328.133 444.535 328.533 444.935C328.933 445.468 330.4 444.401 331.867 442.935C333.2 441.335 335.067 440.001 335.867 440.001C338 440.001 341.333 436.668 341.333 434.668C341.333 433.868 345.6 428.935 350.8 423.868C357.867 416.935 360 414.135 358.8 412.935C357.733 411.868 357.333 411.868 357.333 413.068Z" fill="black"/>
<path d="M358.933 428.801C354.933 432.934 352 436.534 352.4 436.934C353.066 437.601 368 423.334 368 422.001C368 420.268 365.466 422.134 358.933 428.801Z" fill="black"/>
<path d="M105.333 428.003C103.733 429.07 103.867 429.336 106 429.336C107.467 429.336 109.6 430.536 110.667 432.003C111.733 433.47 113.467 434.67 114.4 434.67C115.467 434.67 118 436.403 120 438.67C123.733 442.67 127.2 443.736 128.667 441.336C129.067 440.536 128.533 440.003 127.467 440.003C126.267 440.003 125.333 439.336 125.333 438.67C125.333 437.87 124.267 437.336 122.933 437.336C121.6 437.336 119.733 436.136 118.667 434.67C117.6 433.203 115.867 432.003 114.667 432.003C113.467 432.003 111.733 430.803 110.667 429.336C108.533 426.27 108.133 426.27 105.333 428.003Z" fill="black"/>
<path d="M368 433.067C368 433.734 366.667 434.934 365.067 435.734C362.533 436.934 362.4 437.2 364.4 437.2C365.733 437.334 367.733 436.534 368.8 435.467C370.933 433.2 371.2 432 369.333 432C368.667 432 368 432.534 368 433.067Z" fill="black"/>
<path d="M354.667 441.335C354.667 442.001 355.333 442.668 356 442.668C356.8 442.668 357.333 442.001 357.333 441.335C357.333 440.535 356.8 440.001 356 440.001C355.333 440.001 354.667 440.535 354.667 441.335Z" fill="black"/>
<path d="M351.066 442.269C349.066 442.936 348.8 445.336 350.533 445.336C351.2 445.336 352 444.403 352.533 443.336C352.933 442.269 353.066 441.336 352.933 441.469C352.8 441.469 351.866 441.869 351.066 442.269Z" fill="black"/>
<path d="M128 444C128 444.667 129.2 445.334 130.667 445.334C132.133 445.334 133.333 445.867 133.333 446.667C133.333 447.334 134.4 448 135.733 448C137.067 448 138.933 449.2 140 450.667C141.067 452.134 142.667 453.334 143.6 453.334C144.533 453.334 147.333 454.534 150 456C155.333 458.934 157.333 459.334 157.333 457.334C157.333 456.534 156.4 456 155.2 456C154.133 456 152.267 455.067 151.2 454C150 452.934 147.6 451.6 145.6 451.067C143.6 450.667 141.067 449.2 139.867 447.734C138.667 446.4 136.667 445.334 135.467 445.334C134.267 445.334 133.333 444.667 133.333 444C133.333 443.2 132.133 442.667 130.667 442.667C129.2 442.667 128 443.2 128 444Z" fill="black"/>
<path d="M345.6 444.801C344.667 445.868 344.533 446.668 345.2 446.668C346.533 446.668 348.533 444.135 347.867 443.335C347.6 443.201 346.533 443.735 345.6 444.801Z" fill="black"/>
<path d="M322.667 446.535C322.667 447.202 320.933 448.402 318.667 449.335C316.533 450.268 314.667 451.468 314.667 452.135C314.667 452.802 313.467 453.335 312 453.335C310.533 453.335 309.333 453.868 309.333 454.668C309.333 455.335 308.267 456.002 307.067 456.002C305.2 456.002 305.067 456.268 306.533 457.602C308 458.935 308.4 458.935 308.933 457.602C309.333 456.802 310.667 456.002 312.133 456.002C313.467 456.002 314.667 455.335 314.667 454.668C314.667 453.868 315.867 453.335 317.333 453.335C318.8 453.335 320 452.668 320 452.002C320 451.202 320.933 450.668 322.133 450.668C324.133 450.668 328 447.602 328 446.135C328 445.735 326.8 445.335 325.333 445.335C323.867 445.335 322.667 445.868 322.667 446.535Z" fill="black"/>
<path d="M159.6 458.403C159.733 459.469 160 460.536 160 460.803C160 461.069 161.2 461.336 162.667 461.336C164.133 461.336 165.333 460.669 165.333 460.003C165.333 459.203 164.133 458.669 162.8 458.669C161.333 458.669 160 458.269 159.6 457.603C159.333 457.069 159.333 457.469 159.6 458.403Z" fill="black"/>
<path d="M301.333 460.003C301.333 460.669 302 461.336 302.667 461.336C303.467 461.336 304 460.669 304 460.003C304 459.203 303.467 458.669 302.667 458.669C302 458.669 301.333 459.203 301.333 460.003Z" fill="black"/>
<path d="M167.6 462.266C168.4 464.133 173.333 464.666 173.333 462.799C173.333 462.133 171.867 461.333 170.133 461.066C167.867 460.533 167.067 460.933 167.6 462.266Z" fill="black"/>
<path d="M293.333 462.668C293.333 463.335 291.733 464.001 289.867 464.001C288 464.001 286.8 464.535 287.333 465.335C287.733 466.001 289.333 466.668 290.8 466.668C292.133 466.668 293.333 466.001 293.333 465.335C293.333 464.535 294.533 464.001 296 464.001C297.467 464.001 298.667 463.335 298.667 462.668C298.667 461.868 297.467 461.335 296 461.335C294.533 461.335 293.333 461.868 293.333 462.668Z" fill="black"/>
<path d="M176 465.335C176 466.001 177.6 466.668 179.467 466.668C181.333 466.668 182.533 466.135 182 465.335C181.6 464.535 180 464.001 178.533 464.001C177.2 464.001 176 464.535 176 465.335Z" fill="black"/>
<path d="M184 468.003C184 468.669 186.4 469.336 189.333 469.336C192.267 469.336 194.667 468.669 194.667 468.003C194.667 467.203 192.267 466.669 189.333 466.669C186.4 466.669 184 467.203 184 468.003Z" fill="black"/>
<path d="M274.667 468.003C274.667 468.669 277.067 469.336 280 469.336C282.933 469.336 285.333 468.669 285.333 468.003C285.333 467.203 282.933 466.669 280 466.669C277.067 466.669 274.667 467.203 274.667 468.003Z" fill="black"/>
<path d="M194 470.668C193.467 471.468 195.467 472.002 199.2 472.002C202.934 472.002 205.334 472.535 205.334 473.602C205.334 474.402 205.6 474.802 206 474.402C206.4 474.002 206.4 472.802 206 471.735C205.067 469.468 195.334 468.535 194 470.668Z" fill="black"/>
<path d="M264.267 471.067C263.067 472.4 263.733 472.667 267.467 472.267C270 472 272.4 471.2 272.8 470.534C273.867 468.667 265.867 469.2 264.267 471.067Z" fill="black"/>
<path d="M208 473.335C208 474.135 213.6 474.668 222 474.668C230.4 474.668 236 474.135 236 473.335C236 472.535 230.4 472.001 222 472.001C213.6 472.001 208 472.535 208 473.335Z" fill="black"/>
<path d="M240 473.335C240 474.135 244.4 474.668 250.667 474.668C256.933 474.668 261.333 474.135 261.333 473.335C261.333 472.535 256.933 472.001 250.667 472.001C244.4 472.001 240 472.535 240 473.335Z" fill="black"/>
</svg>
