<svg width="550" height="491" viewBox="0 0 550 491" fill="none" xmlns="http://www.w3.org/2000/svg">
<path d="M210.745 1.33464C210.745 2.13464 217.811 2.66797 229.411 2.66797C241.011 2.66797 248.078 2.13464 248.078 1.33464C248.078 0.534635 241.011 0.00130194 229.411 0.00130194C217.811 0.00130194 210.745 0.534635 210.745 1.33464Z" fill="black"/>
<path d="M197.411 4.0026C197.411 4.66927 199.811 5.33594 202.744 5.33594C205.678 5.33594 208.078 4.66927 208.078 4.0026C208.078 3.2026 205.678 2.66927 202.744 2.66927C199.811 2.66927 197.411 3.2026 197.411 4.0026Z" fill="black"/>
<path d="M250.745 4.13464C250.745 5.06797 252.478 5.46797 255.278 5.06797C258.478 4.66797 259.545 5.06797 259.145 6.26797C258.611 7.46797 259.811 8.0013 262.611 8.0013C264.878 8.0013 266.745 8.53464 266.745 9.33464C266.745 10.0013 268.611 10.668 270.745 10.668C273.011 10.668 274.745 10.0013 274.745 9.33464C274.745 8.53464 273.011 8.0013 270.745 8.0013C268.611 8.0013 266.745 7.33464 266.745 6.66797C266.745 5.86797 265.545 5.33464 264.078 5.33464C262.611 5.33464 261.411 4.66797 261.411 4.0013C261.411 3.2013 259.011 2.66797 256.078 2.66797C253.011 2.66797 250.745 3.33464 250.745 4.13464Z" fill="black"/>
<path d="M192.478 4.93469C190.878 5.20136 189.278 6.26803 189.012 7.20136C188.478 8.40136 189.278 8.66803 191.412 8.26803C193.145 8.00136 194.878 6.93469 195.278 5.86803C195.678 4.80136 195.812 4.13469 195.678 4.13469C195.545 4.26803 194.078 4.66803 192.478 4.93469Z" fill="black"/>
<path d="M179.145 9.73333C179.678 11.0667 178.878 11.4667 176.612 10.9333C174.878 10.6667 173.412 10.9333 173.412 11.7333C173.412 12.5333 172.078 13.3333 170.478 13.7333C167.678 14.1333 167.812 14.2667 171.278 15.3333C174.078 16 175.412 15.8667 175.812 14.9333C176.078 14 177.412 13.3333 178.878 13.3333C180.212 13.3333 181.412 12.6667 181.412 12C181.412 11.2 182.612 10.6667 184.078 10.6667C185.545 10.6667 186.745 10 186.745 9.33333C186.745 8.53333 184.878 8 182.612 8C179.678 8 178.612 8.53333 179.145 9.73333Z" fill="black"/>
<path d="M273.411 12.1333C271.811 13.2 272.211 13.4667 275.011 12.9333C277.545 12.5333 278.345 12.9333 277.811 14.2667C277.411 15.3333 278.078 16 279.945 16C283.278 16 283.411 15.2 280.878 12.5333C278.611 10.2667 276.211 10.1333 273.411 12.1333Z" fill="black"/>
<path d="M165.411 17.3329C165.411 17.9996 164.345 18.6662 163.011 18.6662C161.678 18.6662 159.811 19.8662 158.745 21.3329C157.678 22.7996 155.811 23.9996 154.478 23.9996C153.145 23.9996 152.078 24.5329 152.078 25.3329C152.078 27.7329 156.745 26.7996 158.745 23.9996C159.811 22.5329 161.678 21.3329 163.011 21.3329C164.345 21.3329 165.411 20.6662 165.411 19.9996C165.411 19.1996 166.611 18.6662 168.078 18.6662C169.545 18.6662 170.745 17.9996 170.745 17.3329C170.745 16.5329 169.545 15.9996 168.078 15.9996C166.611 15.9996 165.411 16.5329 165.411 17.3329Z" fill="black"/>
<path d="M282.078 17.3334C281.678 18.0001 281.945 18.6667 282.745 18.6667C283.545 18.6667 285.678 20.1334 287.678 21.8667C289.545 23.6001 291.545 25.6001 292.345 26.1334C293.012 26.8001 295.678 29.7334 298.212 32.5334C300.745 35.3334 303.145 37.3334 303.678 36.9334C304.078 36.4001 303.145 34.9334 301.678 33.4667C300.078 32.1334 298.745 30.2667 298.745 29.4667C298.745 27.2001 289.812 18.6667 287.412 18.6667C286.345 18.6667 285.412 18.0001 285.412 17.3334C285.412 16.5334 284.878 16.0001 284.212 16.0001C283.412 16.0001 282.478 16.5334 282.078 17.3334Z" fill="black"/>
<path d="M149.411 28C149.411 28.6667 148.211 29.3333 146.745 29.3333C145.278 29.3333 144.078 29.8667 144.078 30.6667C144.078 31.3333 145.278 32 146.745 32C148.211 32 149.411 31.3333 149.411 30.6667C149.411 29.8667 150.345 29.3333 151.545 29.3333C152.611 29.3333 153.145 28.6667 152.745 28C152.345 27.2 151.411 26.6667 150.611 26.6667C149.945 26.6667 149.411 27.2 149.411 28Z" fill="black"/>
<path d="M141.411 33.3327C141.411 33.9994 140.478 34.6661 139.278 34.6661C138.211 34.6661 133.678 38.2661 129.411 42.6661C125.145 47.0661 120.611 50.6661 119.545 50.6661C117.145 50.6661 116.745 52.6661 118.611 53.9994C119.411 54.3994 122.611 51.9994 125.945 48.6661C129.278 45.3327 132.611 42.6661 133.411 42.6661C134.878 42.6661 144.078 33.9994 144.078 32.6661C144.078 32.2661 143.545 31.9994 142.745 31.9994C142.078 31.9994 141.411 32.5327 141.411 33.3327Z" fill="black"/>
<path d="M304.078 40.0026C304.078 40.6693 305.278 43.3359 306.745 46.0026C308.211 48.6693 309.411 51.8693 309.411 53.3359C309.411 54.8026 310.078 56.0026 310.745 56.0026C311.545 56.0026 312.078 57.4693 312.078 59.2026C312.078 61.0693 312.745 62.9359 313.411 63.3359C314.211 63.7359 314.745 67.0693 314.745 70.8026C314.745 74.4026 315.411 77.3359 316.078 77.3359C318.078 77.3359 317.811 64.4026 315.811 63.7359C314.745 63.3359 314.211 61.2026 314.478 58.2693C314.745 55.3359 314.345 53.3359 313.545 53.3359C312.745 53.3359 312.078 52.1359 312.078 50.6693C312.078 49.2026 311.545 48.0026 310.745 48.0026C310.078 48.0026 309.411 46.8026 309.411 45.3359C309.411 43.8693 308.878 42.6693 308.078 42.6693C307.411 42.6693 306.745 41.7359 306.745 40.6693C306.745 39.6026 306.211 38.6693 305.411 38.6693C304.745 38.6693 304.078 39.2026 304.078 40.0026Z" fill="black"/>
<path d="M114.745 54.6675C114.745 55.3342 113.811 56.0009 112.611 56.0009C111.545 56.0009 108.211 58.4009 105.411 61.3342C102.611 64.2675 99.2781 66.6675 98.2115 66.6675C97.0115 66.6675 96.0781 67.2009 96.0781 68.0009C96.0781 70.4009 100.745 69.4675 102.745 66.6675C103.811 65.2009 105.411 64.0009 106.478 64.0009C108.078 64.0009 117.411 55.6009 117.411 54.0009C117.411 53.6009 116.878 53.3342 116.078 53.3342C115.411 53.3342 114.745 53.8675 114.745 54.6675Z" fill="black"/>
<path d="M218.744 60C218.744 60.6667 217.544 61.3333 216.078 61.3333C214.611 61.3333 213.411 61.8667 213.411 62.6667C213.411 63.3333 214.611 64 216.078 64C217.544 64 218.744 63.3333 218.744 62.6667C218.744 61.8667 223.544 61.3333 230.611 61.3333C237.278 61.3333 243.011 60.6667 243.411 60C243.944 59.2 239.678 58.6667 231.544 58.6667C223.944 58.6667 218.744 59.2 218.744 60Z" fill="black"/>
<path d="M245.411 62.6693C245.411 63.4693 246.478 64.0026 247.811 63.7359C249.278 63.4693 250.211 64.2693 250.478 66.2693C250.744 68.0026 251.544 69.3359 252.211 69.3359C254.078 69.3359 253.678 65.3359 251.544 63.2026C249.278 61.0693 245.411 60.6693 245.411 62.6693Z" fill="black"/>
<path d="M207.411 65.3346C207.811 66.0013 209.411 66.668 210.878 66.668C212.211 66.668 213.411 66.0013 213.411 65.3346C213.411 64.5346 211.811 64.0013 209.945 64.0013C208.078 64.0013 206.878 64.5346 207.411 65.3346Z" fill="black"/>
<path d="M202.745 67.7358C202.745 69.6025 204.211 70.5358 206.211 69.7358C209.011 68.6691 208.478 66.6691 205.411 66.6691C203.945 66.6691 202.745 67.2025 202.745 67.7358Z" fill="black"/>
<path d="M93.4111 70.6667C93.4111 71.3334 92.4778 72 91.2778 72C89.2778 72 85.4111 75.0667 85.4111 76.6667C85.4111 78.4 90.2111 76.5334 93.0111 73.7334C96.3445 70.5334 96.7445 69.3334 94.7445 69.3334C94.0778 69.3334 93.4111 69.8667 93.4111 70.6667Z" fill="black"/>
<path d="M200.078 70.6667C200.078 71.3333 200.745 72 201.411 72C202.211 72 202.745 71.3333 202.745 70.6667C202.745 69.8667 202.211 69.3333 201.411 69.3333C200.745 69.3333 200.078 69.8667 200.078 70.6667Z" fill="black"/>
<path d="M253.411 71.8696C253.411 74.2696 257.011 76.8029 258.478 75.3362C258.878 74.9362 258.478 74.6696 257.678 74.6696C256.744 74.6696 256.078 73.4696 256.078 72.0029C256.078 70.5362 255.544 69.3362 254.744 69.3362C254.078 69.3362 253.411 70.5362 253.411 71.8696Z" fill="black"/>
<path d="M197.411 72.5346C197.411 73.7346 198.078 74.668 198.744 74.668C199.544 74.668 200.078 74.1346 200.078 73.468C200.078 72.668 199.544 71.7346 198.744 71.3346C198.078 70.9346 197.411 71.468 197.411 72.5346Z" fill="black"/>
<path d="M190.211 77.6005C187.411 80.4005 184.478 82.6672 183.811 82.6672C182.211 82.6672 178.744 86.1339 178.744 87.7339C178.744 89.6005 167.144 101.334 165.278 101.334C163.944 101.334 163.944 101.734 165.011 102.801C166.078 103.867 169.678 101.067 178.611 92.1339C185.278 85.4672 191.278 80.0005 192.078 80.0005C194.744 80.0005 197.678 76.1339 196.478 74.2672C195.678 72.9339 194.078 73.7339 190.211 77.6005Z" fill="black"/>
<path d="M79.5445 79.4661C78.3445 82.6661 78.6112 83.0661 80.7445 80.7995C83.0112 78.5328 83.2779 77.3328 81.5445 77.3328C80.8779 77.3328 79.9445 78.2661 79.5445 79.4661Z" fill="black"/>
<path d="M256.078 78.6667C256.078 79.3333 256.745 80 257.411 80C258.211 80 258.745 79.3333 258.745 78.6667C258.745 77.8667 258.211 77.3333 257.411 77.3333C256.745 77.3333 256.078 77.8667 256.078 78.6667Z" fill="black"/>
<path d="M318.211 80.2693C317.545 82.4026 317.545 85.6026 318.211 87.6026L319.278 91.3359L319.811 87.6026C320.078 85.6026 320.078 82.4026 319.811 80.2693L319.278 76.6693L318.211 80.2693Z" fill="black"/>
<path d="M72.0781 81.3346C72.0781 82.0013 73.2781 82.668 74.7448 82.668C76.2115 82.668 77.4115 82.0013 77.4115 81.3346C77.4115 80.5346 76.2115 80.0013 74.7448 80.0013C73.2781 80.0013 72.0781 80.5346 72.0781 81.3346Z" fill="black"/>
<path d="M64.0781 84.0026C64.0781 84.6693 66.0781 85.3359 68.4781 85.3359C71.6781 85.3359 72.2115 84.9359 70.7448 84.0026C68.0781 82.2693 64.0781 82.2693 64.0781 84.0026Z" fill="black"/>
<path d="M254.478 84.401C253.811 85.7344 253.411 88.401 253.411 90.1344C253.411 91.8677 252.878 93.3344 252.078 93.3344C251.411 93.3344 250.745 94.5344 250.745 95.8677C250.745 97.3344 251.411 98.9344 252.078 99.3344C252.878 99.7344 253.411 98.6677 253.411 96.801C253.411 95.0677 254.078 93.3344 254.878 93.0677C255.678 92.801 256.078 90.2677 255.811 87.3344C255.545 83.4677 255.145 82.6677 254.478 84.401Z" fill="black"/>
<path d="M1.54474 87.4684C0.611406 88.5351 0.211406 89.8684 0.74474 90.4017C1.27807 90.9351 2.07807 90.5351 2.34474 89.6017C2.74474 88.8017 4.07807 88.0017 5.54474 88.0017C6.87807 88.0017 8.07807 87.3351 8.07807 86.6684C8.07807 84.6684 3.67807 85.2017 1.54474 87.4684Z" fill="black"/>
<path d="M53.4111 86.6667C53.4111 87.3333 55.5445 88 58.2111 88C61.0111 88 62.6111 87.4667 62.0778 86.6667C61.6778 85.8667 59.5445 85.3333 57.2778 85.3333C55.1445 85.3333 53.4111 85.8667 53.4111 86.6667Z" fill="black"/>
<path d="M6.74465 89.3346C5.41132 90.268 11.278 90.668 24.478 90.668C37.278 90.668 43.9447 90.1346 43.4113 89.3346C42.3447 87.6013 9.41132 87.6013 6.74465 89.3346Z" fill="black"/>
<path d="M0.0780335 114.268C-0.188633 157.201 -0.188633 157.335 7.27803 157.335C9.1447 157.335 10.7447 157.868 10.7447 158.668C10.7447 159.335 12.6114 160.001 14.7447 160.001C17.0114 160.001 18.7447 160.535 18.7447 161.201C18.7447 161.868 29.678 162.535 44.078 162.668C60.878 162.668 69.4114 162.268 69.4114 161.335C69.4114 160.401 60.878 160.001 44.478 160.001C28.078 160.135 19.278 159.601 19.0114 158.801C18.7447 158.001 16.7447 157.335 14.6114 157.335C12.478 157.335 10.7447 156.668 10.7447 156.001C10.7447 155.201 9.01137 154.668 6.7447 154.668H2.7447L2.61137 136.935C2.61137 127.335 2.61137 113.601 2.7447 106.535C2.87803 98.668 2.3447 93.2013 1.5447 92.8013C0.611367 92.1346 0.0780335 98.9346 0.0780335 114.268Z" fill="black"/>
<path d="M315.678 92.9346C314.211 94.268 314.611 102.668 316.078 102.668C316.878 102.668 317.411 100.268 317.411 97.3346C317.411 91.868 317.145 91.3346 315.678 92.9346Z" fill="black"/>
<path d="M248.078 101.335C248.078 102.135 244.745 106.002 240.745 110.002C236.745 114.002 232.878 117.335 232.078 117.335C231.411 117.335 230.878 118.135 231.145 118.935C231.278 119.868 230.345 120.535 229.145 120.268C227.811 120.002 226.745 120.535 226.745 121.335C226.745 124.802 231.678 121.868 240.745 112.668C250.211 103.202 252.478 100.002 249.411 100.002C248.745 100.002 248.078 100.668 248.078 101.335Z" fill="black"/>
<path d="M312.078 106.533C312.078 109.6 312.745 112 313.411 112C314.211 112 314.745 110 314.745 107.467C314.745 104.933 314.211 102.4 313.411 102C312.611 101.467 312.078 103.333 312.078 106.533Z" fill="black"/>
<path d="M157.678 110.133C154.478 113.467 152.078 116.533 152.478 116.933C153.278 117.6 165.412 106 165.412 104.667C165.412 102.933 163.012 104.667 157.678 110.133Z" fill="black"/>
<path d="M397.411 113.333C400.078 115.066 433.011 115.066 434.078 113.333C434.611 112.533 427.944 111.999 415.144 111.999C401.944 111.999 396.078 112.399 397.411 113.333Z" fill="black"/>
<path d="M149.411 116.933C149.411 118.667 150.078 120 150.744 120C152.478 120 152.478 118.533 150.744 116C149.678 114.4 149.411 114.533 149.411 116.933Z" fill="black"/>
<path d="M309.411 117.2C309.411 118.8 310.078 120 310.744 120C311.544 120 312.078 119.2 312.078 118.133C312.078 117.067 311.544 115.733 310.744 115.333C310.078 114.933 309.411 115.733 309.411 117.2Z" fill="black"/>
<path d="M384.078 116C384.078 116.667 382.345 117.333 380.078 117.333C377.945 117.333 376.078 117.867 376.078 118.667C376.078 119.333 377.945 120 380.078 120C382.345 120 384.078 119.333 384.078 118.667C384.078 117.867 386.478 117.333 389.411 117.333C392.345 117.333 394.745 116.667 394.745 116C394.745 115.2 392.345 114.667 389.411 114.667C386.478 114.667 384.078 115.2 384.078 116Z" fill="black"/>
<path d="M434.745 116C434.745 116.667 437.811 117.334 441.411 117.334C445.145 117.334 448.078 117.867 448.078 118.667C448.078 119.334 449.945 120 452.078 120C454.345 120 456.078 120.534 456.078 121.334C456.078 122 457.545 122.667 459.278 122.667C461.145 122.667 463.011 123.2 463.411 124C463.811 124.667 465.411 125.334 466.878 125.334C468.211 125.334 469.411 125.867 469.411 126.667C469.411 127.334 470.478 128 471.811 128C473.145 128 475.011 129.2 476.078 130.667C477.145 132.134 478.878 133.334 480.078 133.334C481.278 133.334 483.011 134.534 484.078 136C485.145 137.467 486.745 138.667 487.678 138.667C489.545 138.667 512.078 160.534 512.078 162.267C512.078 162.934 513.945 165.467 516.078 168C519.011 171.467 520.078 172 520.078 170.267C520.078 169.067 519.545 168 518.745 168C518.078 168 517.411 167.067 517.411 166C517.411 164.934 516.478 164 515.278 164C514.211 164 513.678 163.334 514.078 162.534C514.611 161.867 513.811 160.134 512.345 158.8C510.745 157.6 509.411 155.6 509.145 154.667C508.611 152.134 505.945 149.334 504.078 149.334C503.278 149.334 499.678 146.267 496.078 142.667C492.478 138.934 488.878 136 488.078 136C487.145 136 484.745 134.134 482.745 132C480.745 129.734 478.078 128 476.878 128C475.678 128 474.745 127.334 474.745 126.667C474.745 125.867 473.545 125.334 472.078 125.334C470.611 125.334 469.411 124.667 469.411 124C469.411 123.2 468.211 122.667 466.745 122.667C465.278 122.667 464.078 122 464.078 121.334C464.078 120.534 462.345 120 460.078 120C457.945 120 456.078 119.334 456.078 118.667C456.078 117.867 454.345 117.334 452.078 117.334C449.945 117.334 448.078 116.667 448.078 116C448.078 115.2 445.145 114.667 441.411 114.667C437.811 114.667 434.745 115.2 434.745 116Z" fill="black"/>
<path d="M144.078 121.335C144.078 122.001 145.278 122.668 146.745 122.668C148.211 122.668 149.411 122.001 149.411 121.335C149.411 120.535 148.211 120.001 146.745 120.001C145.278 120.001 144.078 120.535 144.078 121.335Z" fill="black"/>
<path d="M365.411 121.335C365.411 122.002 364.211 122.668 362.744 122.668C361.278 122.668 360.078 123.202 360.078 124.002C360.078 124.668 359.144 125.335 357.944 125.335C355.278 125.335 351.411 129.202 352.744 130.402C353.278 130.935 354.078 130.535 354.344 129.602C354.744 128.802 356.078 128.002 357.544 128.002C358.878 128.002 360.078 127.335 360.078 126.668C360.078 125.868 361.278 125.335 362.744 125.335C364.211 125.335 365.411 124.668 365.411 124.002C365.411 123.202 367.278 122.668 369.544 122.668C371.811 122.668 373.278 122.135 372.744 121.335C372.344 120.535 370.478 120.002 368.611 120.002C366.878 120.002 365.411 120.535 365.411 121.335Z" fill="black"/>
<path d="M306.345 124C305.145 125.467 304.078 127.6 304.078 128.667C304.078 129.733 303.545 130.667 302.745 130.667C302.078 130.667 301.411 131.733 301.411 133.067C301.411 134.4 300.211 136.267 298.745 137.333C297.278 138.4 296.078 140 296.078 141.067C296.078 143.733 264.211 174.933 262.478 173.867C261.545 173.333 261.411 173.6 261.945 174.4C262.478 175.333 262.211 176 261.411 176C260.478 176 258.078 177.733 256.078 180C254.078 182.133 251.678 184 250.878 184C249.945 184 247.811 185.467 246.078 187.2C244.345 189.067 241.545 190.8 240.078 191.333C238.611 191.733 237.411 192.8 237.411 193.467C237.411 194.133 236.478 194.667 235.411 194.667C232.878 194.667 226.078 201.067 227.278 202.267C227.678 202.8 229.145 201.733 230.611 200.267C231.945 198.667 233.945 197.333 234.878 197.333C235.945 197.333 237.678 196.133 238.745 194.667C239.811 193.2 241.678 192 243.011 192C244.345 192 245.411 191.467 245.411 190.933C245.411 190.267 247.011 188.933 249.145 187.867C251.145 186.8 254.345 184.4 256.345 182.4C258.211 180.267 260.478 178.667 261.411 178.667C262.211 178.667 265.278 176.267 268.078 173.333C270.878 170.4 274.211 168 275.411 168C276.611 168 277.145 167.333 276.745 166.667C276.345 165.867 276.878 165.333 277.945 165.333C279.145 165.333 280.078 164.133 280.078 162.667C280.078 161.2 281.011 160 282.078 160C283.278 160 284.611 158.933 285.011 157.6C285.545 156.4 288.878 152.533 292.345 149.067C295.811 145.6 298.745 142 298.745 141.067C298.745 140 299.945 138.4 301.411 137.333C302.878 136.267 304.078 134.4 304.078 133.067C304.078 131.733 304.745 130.667 305.411 130.667C306.211 130.667 306.745 129.467 306.745 128.133C306.745 126.667 307.411 125.333 308.345 125.067C309.145 124.8 309.545 123.733 309.278 122.933C308.878 121.867 307.945 122.133 306.345 124Z" fill="black"/>
<path d="M140.078 125.334C139.011 126.8 137.411 128 136.345 128C133.945 128 127.545 134.534 128.745 135.734C129.278 136.267 130.078 135.867 130.345 134.934C130.745 134.134 131.811 133.334 132.878 133.334C133.945 133.334 134.745 132.667 134.745 132C134.745 131.2 135.411 130.667 136.078 130.667C137.545 130.667 144.078 124.667 144.078 123.334C144.078 121.734 141.945 122.8 140.078 125.334Z" fill="black"/>
<path d="M224.078 124.003C224.078 124.669 225.011 125.336 226.211 125.336C227.278 125.336 227.811 124.669 227.411 124.003C227.011 123.203 226.078 122.669 225.278 122.669C224.611 122.669 224.078 123.203 224.078 124.003Z" fill="black"/>
<path d="M221.411 126.667C221.411 127.333 222.078 128 222.744 128C223.544 128 224.078 127.333 224.078 126.667C224.078 125.867 223.544 125.333 222.744 125.333C222.078 125.333 221.411 125.867 221.411 126.667Z" fill="black"/>
<path d="M217.411 130.669C216.344 132.135 214.611 133.335 213.678 133.335C212.611 133.335 210.211 134.935 208.211 136.935C206.344 139.069 203.811 140.802 202.878 141.069C201.811 141.335 199.944 142.669 198.611 144.135C197.411 145.469 195.411 146.669 194.211 146.669C193.011 146.669 192.078 147.202 192.078 148.002C192.078 148.669 191.011 149.335 189.678 149.335C188.344 149.335 186.478 150.535 185.411 152.002C184.344 153.469 182.478 154.669 181.144 154.669C179.811 154.669 178.744 155.202 178.744 156.002C178.744 156.669 177.678 157.335 176.344 157.335C175.011 157.335 173.144 158.535 172.078 160.002C171.011 161.469 169.144 162.669 167.811 162.669C166.478 162.669 165.411 163.202 165.411 164.002C165.411 164.669 164.211 165.335 162.744 165.335C161.278 165.335 160.078 165.869 160.078 166.669C160.078 167.335 159.011 168.002 157.678 168.002C156.344 168.002 154.478 169.202 153.411 170.669C152.344 172.135 150.478 173.335 149.144 173.335C147.811 173.335 146.744 173.869 146.744 174.669C146.744 175.335 145.678 176.002 144.344 176.002C143.011 176.002 141.144 177.202 140.078 178.669C139.011 180.135 137.144 181.335 135.811 181.335C134.478 181.335 133.411 181.869 133.411 182.669C133.411 185.069 138.078 184.135 140.078 181.335C141.144 179.869 143.011 178.669 144.344 178.669C145.678 178.669 146.744 178.002 146.744 177.335C146.744 176.535 147.944 176.002 149.411 176.002C150.878 176.002 152.078 175.335 152.078 174.669C152.078 173.869 153.278 173.335 154.878 173.335C156.878 173.335 157.411 172.669 156.878 171.202C156.478 170.135 156.611 169.469 157.278 169.869C158.611 170.669 165.411 167.735 165.411 166.269C165.411 165.735 166.611 165.335 168.078 165.335C169.544 165.335 170.744 164.669 170.744 164.002C170.744 163.202 171.678 162.669 172.744 162.669C173.811 162.669 174.744 162.002 174.744 161.335C174.744 160.535 175.678 160.002 176.744 160.002C177.811 160.002 178.744 159.335 178.744 158.669C178.744 157.869 179.811 157.335 181.144 157.335C182.478 157.335 184.344 156.135 185.411 154.669C186.478 153.202 188.344 152.002 189.678 152.002C191.011 152.002 192.078 151.335 192.078 150.669C192.078 149.869 193.011 149.335 194.211 149.335C195.411 149.335 198.078 147.469 200.211 145.202C202.344 142.935 204.078 141.735 204.078 142.535C204.078 143.469 205.678 142.535 207.544 140.669C209.411 138.802 211.544 137.735 212.344 138.135C213.278 138.669 213.411 138.402 212.878 137.602C212.344 136.669 212.744 136.002 213.678 136.002C214.744 136.002 216.344 134.802 217.411 133.335C218.478 131.869 220.078 130.669 221.144 130.669C222.078 130.669 222.478 130.002 222.078 129.335C220.878 127.335 219.544 127.735 217.411 130.669Z" fill="black"/>
<path d="M346.745 132.002C346.745 132.668 345.811 133.335 344.611 133.335C341.945 133.335 338.078 137.202 339.411 138.402C339.945 138.935 340.745 138.535 341.011 137.602C341.411 136.802 342.745 136.002 344.211 136.002C345.545 136.002 346.745 135.335 346.745 134.668C346.745 133.868 347.678 133.335 348.878 133.335C349.945 133.335 350.478 132.668 350.078 132.002C349.678 131.202 348.745 130.668 347.945 130.668C347.278 130.668 346.745 131.202 346.745 132.002Z" fill="black"/>
<path d="M121.545 138.136C120.611 139.203 120.211 140.536 120.745 141.07C121.278 141.603 122.078 141.203 122.345 140.27C122.745 139.47 124.078 138.67 125.545 138.67C126.878 138.67 128.078 138.003 128.078 137.336C128.078 135.336 123.678 135.87 121.545 138.136Z" fill="black"/>
<path d="M332.211 140.802C329.811 143.602 331.411 144.802 334.078 142.268C335.145 141.068 336.078 139.868 336.078 139.468C336.078 138.002 334.078 138.802 332.211 140.802Z" fill="black"/>
<path d="M114.745 142.668C114.745 143.335 113.545 144.001 112.078 144.001C110.612 144.001 109.412 144.535 109.412 145.335C109.412 146.001 108.212 146.668 106.745 146.668C105.278 146.668 104.078 147.201 104.078 148.001C104.078 148.668 102.878 149.335 101.412 149.335C99.9449 149.335 98.7449 149.868 98.7449 150.668C98.7449 151.335 97.1449 152.001 95.2783 152.001C93.4116 152.001 92.2116 152.535 92.7449 153.335C93.1449 154.001 94.7449 154.668 96.2116 154.668C97.5449 154.668 98.7449 154.001 98.7449 153.335C98.7449 152.535 99.9449 152.001 101.412 152.001C102.878 152.001 104.078 151.335 104.078 150.668C104.078 149.868 105.278 149.335 106.745 149.335C108.212 149.335 109.412 148.668 109.412 148.001C109.412 147.201 110.612 146.668 112.078 146.668C113.545 146.668 114.745 146.001 114.745 145.335C114.745 144.535 115.945 144.001 117.545 144.001C119.012 144.001 119.812 143.335 119.412 142.668C119.012 141.868 117.678 141.335 116.612 141.335C115.545 141.335 114.745 141.868 114.745 142.668Z" fill="black"/>
<path d="M325.411 145.068C325.411 146.934 326.878 147.868 328.878 147.068C331.678 146.001 331.144 144.001 328.078 144.001C326.611 144.001 325.411 144.534 325.411 145.068Z" fill="black"/>
<path d="M320.211 150.137C318.611 152.003 317.411 153.87 317.811 154.27C318.611 154.937 325.411 148.803 325.411 147.337C325.411 145.87 323.278 146.937 320.211 150.137Z" fill="black"/>
<path d="M302.878 165.2C291.411 176.533 288.878 180 292.078 180C292.878 180 293.411 179.333 293.411 178.667C293.411 176.533 311.544 159.067 314.744 158C317.544 157.067 318.211 155.333 316.211 154C315.411 153.6 309.411 158.667 302.878 165.2Z" fill="black"/>
<path d="M82.7447 156C82.7447 156.667 80.7447 157.333 78.2114 157.333C75.678 157.333 73.1447 157.867 72.7447 158.667C72.2114 159.467 74.078 160 77.278 160C80.3447 160 82.7447 159.333 82.7447 158.667C82.7447 157.867 84.6114 157.333 86.7447 157.333C89.0114 157.333 90.7447 156.667 90.7447 156C90.7447 155.2 89.0114 154.667 86.7447 154.667C84.6114 154.667 82.7447 155.2 82.7447 156Z" fill="black"/>
<path d="M520.078 174.667C520.078 175.333 520.745 176 521.411 176C522.211 176 522.745 175.333 522.745 174.667C522.745 173.867 522.211 173.333 521.411 173.333C520.745 173.333 520.078 173.867 520.078 174.667Z" fill="black"/>
<path d="M521.811 177.069C520.611 177.869 520.878 178.669 522.745 180.003C524.211 181.069 525.411 182.936 525.411 184.269C525.411 185.603 526.078 186.669 526.745 186.669C527.545 186.669 528.078 187.869 528.078 189.336C528.078 190.803 528.745 192.003 529.411 192.003C530.211 192.003 530.745 193.203 530.745 194.669C530.745 196.136 531.411 197.336 532.078 197.336C532.878 197.336 533.411 196.136 533.411 194.669C533.411 193.203 532.878 192.003 532.078 192.003C531.411 192.003 530.745 190.803 530.745 189.336C530.745 187.869 530.211 186.669 529.411 186.669C528.745 186.669 528.078 185.469 528.078 184.003C528.078 182.536 527.545 181.336 526.745 181.336C526.078 181.336 525.411 180.136 525.411 178.669C525.411 175.869 524.478 175.336 521.811 177.069Z" fill="black"/>
<path d="M283.145 187.335C277.145 193.601 276.345 195.201 279.011 196.801C279.945 197.335 280.078 197.201 279.545 196.268C279.145 195.468 281.411 192.135 284.745 188.801C288.078 185.468 290.745 182.401 290.745 182.001C290.745 180.268 288.345 182.001 283.145 187.335Z" fill="black"/>
<path d="M130.745 185.335C130.745 186.001 129.545 186.668 128.078 186.668C126.611 186.668 125.411 187.068 125.411 187.735C125.411 188.268 123.678 189.468 121.411 190.401C117.011 192.401 116.078 194.668 119.811 194.668C121.145 194.668 123.011 193.468 124.078 192.001C125.145 190.535 127.011 189.335 128.345 189.335C129.678 189.335 130.745 188.668 130.745 188.001C130.745 187.201 131.678 186.668 132.878 186.668C133.945 186.668 134.478 186.001 134.078 185.335C133.678 184.535 132.745 184.001 131.945 184.001C131.278 184.001 130.745 184.535 130.745 185.335Z" fill="black"/>
<path d="M399.412 193.335C399.812 194.001 403.145 194.668 406.878 194.668C410.478 194.668 413.412 194.001 413.412 193.335C413.412 192.535 410.078 192.001 405.945 192.001C401.412 192.001 398.878 192.535 399.412 193.335Z" fill="black"/>
<path d="M418.745 193.334C418.745 194.934 427.545 195.201 428.611 193.601C429.011 192.934 426.878 192.401 423.945 192.267C421.011 192.001 418.745 192.534 418.745 193.334Z" fill="black"/>
<path d="M114.745 196.003C114.745 196.67 113.545 197.336 111.945 197.336C110.478 197.336 109.678 197.87 110.078 198.67C110.478 199.336 110.211 200.003 109.411 200.003C107.145 200.003 103.545 204.003 104.745 205.07C105.278 205.603 106.078 205.203 106.345 204.27C106.745 203.47 107.678 202.67 108.478 202.67C110.211 202.67 117.411 196.936 117.411 195.47C117.411 195.07 116.878 194.67 116.078 194.67C115.411 194.67 114.745 195.203 114.745 196.003Z" fill="black"/>
<path d="M391.411 196.003C391.811 196.669 393.411 197.336 394.878 197.336C396.211 197.336 397.411 196.669 397.411 196.003C397.411 195.203 395.811 194.669 393.945 194.669C392.078 194.669 390.878 195.203 391.411 196.003Z" fill="black"/>
<path d="M429.412 196C429.412 196.667 431.278 197.333 433.412 197.333C435.678 197.333 437.412 197.867 437.412 198.667C437.412 199.333 438.612 200 440.078 200C441.545 200 442.745 199.333 442.745 198.667C442.745 197.867 441.545 197.333 440.078 197.333C438.612 197.333 437.412 196.8 437.412 196.267C437.412 195.733 435.678 195.067 433.412 194.933C431.278 194.8 429.412 195.2 429.412 196Z" fill="black"/>
<path d="M271.011 202.136C268.611 204.669 267.011 207.336 267.411 208.003C267.811 208.803 267.278 208.936 266.211 208.536C264.745 208.003 264.078 208.536 264.078 209.869C264.078 211.069 263.545 212.003 262.745 212.003C262.078 212.003 261.411 212.669 261.411 213.469C261.411 214.269 259.678 216.669 257.411 218.669C255.278 220.669 253.411 223.069 253.411 224.003C253.411 224.803 250.478 228.403 246.745 232.003C243.145 235.603 240.078 239.203 240.078 240.003C240.078 240.936 238.211 243.336 235.945 245.469C233.545 247.736 232.211 249.869 232.878 250.803C233.411 251.869 233.278 252.003 232.211 251.469C230.611 250.403 226.745 253.603 226.745 256.003C226.745 256.936 225.011 259.336 222.745 261.336C219.278 264.669 217.278 269.336 219.545 269.336C220.878 269.336 224.078 265.603 224.078 264.136C224.078 263.336 226.478 260.136 229.411 257.203C232.345 254.136 234.745 251.069 234.745 250.403C234.745 249.603 236.611 247.336 238.745 245.336C241.011 243.336 242.745 240.669 242.745 239.469C242.745 238.269 243.678 237.336 244.745 237.336C245.811 237.336 246.745 236.803 246.745 236.003C246.745 235.336 248.878 232.669 251.411 230.136C253.945 227.469 256.078 224.803 256.078 224.003C256.078 223.203 259.145 219.603 262.745 216.003C266.478 212.403 269.411 208.803 269.411 208.003C269.411 207.069 271.278 204.669 273.411 202.669C275.678 200.669 277.411 198.536 277.411 198.136C277.411 196.403 275.145 197.736 271.011 202.136Z" fill="black"/>
<path d="M382.745 198.667C382.745 199.333 384.345 200 386.211 200C388.078 200 389.278 199.467 388.745 198.667C388.345 197.867 386.745 197.333 385.278 197.333C383.945 197.333 382.745 197.867 382.745 198.667Z" fill="black"/>
<path d="M533.145 201.736C533.545 203.336 534.478 205.069 535.278 205.602C536.078 206.136 536.478 208.269 536.345 210.536C536.078 212.669 536.478 214.802 537.278 215.336C538.078 215.736 538.745 218.136 538.745 220.669C538.745 223.202 539.411 225.602 540.078 226.002C540.878 226.402 541.411 230.002 541.411 233.736C541.411 238.669 541.811 240.136 542.745 238.669C543.411 237.602 544.078 233.602 544.078 230.002C544.078 225.202 543.678 223.869 542.745 225.336C541.278 227.602 541.011 226.669 541.411 220.269C541.545 218.002 541.011 216.002 540.211 216.002C539.411 216.002 538.745 214.002 538.745 211.469C538.745 208.936 538.211 206.402 537.411 206.002C536.745 205.602 536.078 204.136 536.078 202.669C536.078 201.336 535.278 200.002 534.211 199.602C532.878 199.069 532.611 199.602 533.145 201.736Z" fill="black"/>
<path d="M222.744 202.667C221.678 204.133 219.811 205.333 218.478 205.333C217.144 205.333 216.078 205.867 216.078 206.667C216.078 207.333 215.011 208 213.678 208C212.344 208 210.478 209.2 209.411 210.667C208.344 212.133 206.611 213.333 205.411 213.333C204.211 213.333 202.478 214.533 201.411 216C200.344 217.467 198.478 218.667 197.144 218.667C195.811 218.667 194.744 219.2 194.744 220C194.744 220.667 193.544 221.333 191.944 221.333C190.078 221.333 189.411 222 189.811 223.2C190.344 224.533 189.811 224.8 187.944 224.4C186.344 223.867 184.478 224.8 182.878 226.533C181.544 228 179.544 229.333 178.611 229.333C177.544 229.333 175.811 230.533 174.744 232C173.678 233.467 172.078 234.667 171.011 234.667C168.878 234.667 162.211 241.2 163.278 242.267C163.678 242.8 165.144 241.733 166.611 240.267C167.944 238.667 169.944 237.333 170.878 237.333C171.944 237.333 173.678 236.133 174.744 234.667C175.811 233.2 177.678 232 179.011 232C180.344 232 181.411 231.333 181.411 230.667C181.411 229.867 182.611 229.333 184.078 229.333C185.544 229.333 186.744 228.667 186.744 228C186.744 227.2 187.811 226.667 189.144 226.667C190.478 226.667 192.344 225.467 193.411 224C194.478 222.533 196.211 221.333 197.411 221.333C198.611 221.333 200.344 220.133 201.411 218.667C202.478 217.2 204.211 216 205.411 216C206.611 216 208.344 214.8 209.411 213.333C210.478 211.867 212.344 210.667 213.678 210.667C215.011 210.667 216.078 210 216.078 209.333C216.078 208.533 217.011 208 218.211 208C220.478 208 225.411 203.2 225.411 201.067C225.411 199.467 224.878 199.733 222.744 202.667Z" fill="black"/>
<path d="M375.811 201.736C371.811 203.336 370.878 205.336 374.078 205.336C375.145 205.336 376.078 204.669 376.078 204.003C376.078 203.203 377.278 202.669 378.745 202.669C380.211 202.669 381.411 202.003 381.411 201.336C381.411 199.736 380.611 199.869 375.811 201.736Z" fill="black"/>
<path d="M445.412 200.669C445.412 202.135 454.878 210.935 455.678 210.269C456.078 209.869 454.212 207.335 451.545 204.802C447.012 200.269 445.412 199.202 445.412 200.669Z" fill="black"/>
<path d="M92.4782 212.667C88.7448 216.534 85.2782 219.467 84.8782 219.067C84.4782 218.667 83.1448 219.334 81.9448 220.534C80.7448 221.734 80.2115 223.2 80.7448 223.734C81.2782 224.267 82.0782 223.867 82.3448 222.934C82.7448 222.134 83.8115 221.334 84.8782 221.334C86.0782 221.334 89.8115 218.267 93.4115 214.667C97.0115 210.934 100.478 208 101.278 208C102.078 208 102.745 207.334 102.745 206.667C102.745 203.734 99.0115 205.867 92.4782 212.667Z" fill="black"/>
<path d="M362.611 209.601C360.878 211.601 358.611 213.334 357.678 213.334C356.745 213.334 353.011 216.268 349.411 220.001C345.811 223.601 342.211 226.668 341.411 226.668C339.411 226.668 330.745 235.868 330.745 238.134C330.745 240.534 331.811 240.534 334.211 238.001C335.411 236.934 335.811 235.334 335.278 234.534C334.745 233.468 334.878 233.334 335.811 233.868C336.745 234.401 340.611 231.601 345.278 226.801C349.678 222.268 353.945 218.668 354.745 218.668C355.678 218.668 358.078 216.801 360.078 214.668C362.078 212.401 364.478 210.668 365.411 210.668C366.878 210.668 370.745 207.468 370.745 206.134C370.745 204.134 365.411 206.401 362.611 209.601Z" fill="black"/>
<path d="M456.078 211.337C456.078 212.803 462.878 218.937 463.678 218.27C464.078 217.87 462.878 216.003 461.011 214.137C457.678 210.803 456.078 209.87 456.078 211.337Z" fill="black"/>
<path d="M72.2115 230.267C67.9448 234.667 66.8781 236.667 67.9448 237.734C69.0115 238.8 69.4115 238.667 69.4115 237.467C69.4115 235.6 74.3448 230.667 76.2115 230.667C78.0781 230.667 81.4115 226.534 80.7448 225.2C79.4115 223.2 78.3448 223.867 72.2115 230.267Z" fill="black"/>
<path d="M466.745 225.335C466.745 226.001 467.411 226.668 468.211 226.668C468.878 226.668 469.145 226.001 468.745 225.335C468.345 224.535 467.678 224.001 467.278 224.001C467.011 224.001 466.745 224.535 466.745 225.335Z" fill="black"/>
<path d="M63.6783 239.201C62.8783 241.201 63.8116 242.668 65.6783 242.668C66.2116 242.668 66.7449 241.468 66.7449 240.001C66.7449 236.935 64.7449 236.401 63.6783 239.201Z" fill="black"/>
<path d="M328.078 240.535C328.078 241.735 328.745 242.668 329.411 242.668C330.211 242.668 330.745 242.135 330.745 241.468C330.745 240.668 330.211 239.735 329.411 239.335C328.745 238.935 328.078 239.468 328.078 240.535Z" fill="black"/>
<path d="M456.078 241.335C456.078 242.001 457.278 242.668 458.745 242.668C460.211 242.668 461.411 242.001 461.411 241.335C461.411 240.535 460.211 240.001 458.745 240.001C457.278 240.001 456.078 240.535 456.078 241.335Z" fill="black"/>
<path d="M469.412 241.335C469.412 242.001 470.078 242.668 470.745 242.668C471.545 242.668 472.078 242.001 472.078 241.335C472.078 240.535 471.545 240.001 470.745 240.001C470.078 240.001 469.412 240.535 469.412 241.335Z" fill="black"/>
<path d="M325.411 242.535C325.411 243.469 322.478 247.069 318.745 250.669C313.678 255.602 312.611 257.202 314.211 257.869C316.345 258.669 320.078 255.869 320.078 253.335C320.078 252.535 320.745 252.269 321.411 252.669C322.211 253.069 322.745 252.535 322.745 251.202C322.745 250.002 324.078 247.869 325.678 246.402C327.811 244.535 328.211 243.602 327.011 242.402C325.811 241.202 325.411 241.202 325.411 242.535Z" fill="black"/>
<path d="M60.2114 244.803C58.8781 246.403 58.8781 247.336 59.9447 248.403C61.0114 249.469 61.4114 249.336 61.4114 247.603C61.4114 246.403 62.0781 245.336 62.7447 245.336C63.5447 245.336 64.0781 244.669 64.0781 244.003C64.0781 242.136 62.3447 242.403 60.2114 244.803Z" fill="black"/>
<path d="M157.945 244.801C158.345 246.001 158.745 247.201 158.745 247.601C158.745 247.867 159.678 247.334 160.745 246.134C163.411 243.467 163.278 242.667 159.945 242.667C157.945 242.667 157.411 243.201 157.945 244.801Z" fill="black"/>
<path d="M442.745 244.268C442.745 244.801 440.345 245.334 437.545 245.334C434.611 245.334 432.078 246.001 431.678 246.934C431.278 248.268 432.611 248.534 436.878 248.134C440.078 248.001 442.745 247.201 442.745 246.534C442.745 245.868 445.145 245.334 448.078 245.334C451.011 245.334 453.411 244.668 453.411 244.001C453.411 243.201 451.145 242.668 448.078 242.934C445.145 243.068 442.745 243.734 442.745 244.268Z" fill="black"/>
<path d="M544.612 254.27C545.145 260.803 545.945 273.603 546.478 282.936C547.012 292.136 547.812 300.27 548.478 300.803C549.012 301.336 549.412 293.336 549.412 283.07C549.412 269.47 549.012 264.136 547.812 263.736C546.612 263.336 546.212 260.003 546.478 252.936C546.878 245.603 546.478 242.67 545.278 242.67C544.212 242.67 543.945 245.736 544.612 254.27Z" fill="black"/>
<path d="M153.412 247.867C152.212 249.333 150.478 250.667 149.412 250.933C147.145 251.467 133.412 264.8 133.412 266.533C133.412 267.2 132.212 268.267 130.745 268.667C129.278 269.067 128.078 270.4 128.078 271.6C128.078 272.8 126.878 274.8 125.278 276.133C123.145 278 122.878 279.067 123.945 280.933C125.278 283.2 125.278 283.2 125.412 280.8C125.412 279.467 132.612 271.2 141.412 262.533C150.212 253.867 157.412 246.4 157.412 246C157.412 244.533 155.278 245.467 153.412 247.867Z" fill="black"/>
<path d="M56.0778 250.403C56.0778 251.736 54.8778 253.603 53.4111 254.669C51.0111 256.403 49.5445 261.336 51.5445 261.336C52.7445 261.336 55.4111 258.136 55.8111 256.003C56.0778 254.936 56.8778 253.736 57.5445 253.603C59.1445 252.936 59.1445 248.003 57.4111 248.003C56.7445 248.003 56.0778 249.069 56.0778 250.403Z" fill="black"/>
<path d="M421.412 249.335C421.412 250.001 423.278 250.668 425.412 250.668C427.678 250.668 429.412 250.001 429.412 249.335C429.412 248.535 427.678 248.001 425.412 248.001C423.278 248.001 421.412 248.535 421.412 249.335Z" fill="black"/>
<path d="M413.411 252.003C413.411 252.669 414.611 253.336 416.078 253.336C417.544 253.336 418.744 252.669 418.744 252.003C418.744 251.203 417.544 250.669 416.078 250.669C414.611 250.669 413.411 251.203 413.411 252.003Z" fill="black"/>
<path d="M405.411 254.669C405.411 255.335 404.211 256.002 402.745 256.002C401.278 256.002 400.078 256.535 400.078 257.335C400.078 258.002 398.345 258.669 396.078 258.669C391.811 258.669 391.278 259.469 393.411 262.669C394.211 264.002 394.745 264.135 394.745 262.935C394.745 262.135 395.945 261.335 397.411 261.335C398.878 261.335 400.078 260.669 400.078 260.002C400.078 259.202 401.278 258.669 402.745 258.669C404.211 258.669 405.411 258.002 405.411 257.335C405.411 256.535 407.278 256.002 409.411 256.002C411.678 256.002 413.411 255.335 413.411 254.669C413.411 253.869 411.678 253.335 409.411 253.335C407.278 253.335 405.411 253.869 405.411 254.669Z" fill="black"/>
<path d="M307.278 264.535C301.412 270.668 298.078 275.735 299.278 276.935C300.212 277.868 304.078 273.868 304.078 272.002C304.078 271.202 306.478 268.135 309.412 265.335C312.345 262.535 314.745 259.868 314.745 259.468C314.745 257.602 312.345 259.202 307.278 264.535Z" fill="black"/>
<path d="M48.0781 264.001C48.0781 265.468 48.7448 266.668 49.4115 266.668C50.2115 266.668 50.7448 265.468 50.7448 264.001C50.7448 262.535 50.2115 261.335 49.4115 261.335C48.7448 261.335 48.0781 262.535 48.0781 264.001Z" fill="black"/>
<path d="M386.745 262.668C386.745 263.334 385.545 264.001 384.078 264.001C382.612 264.001 381.412 264.534 381.412 265.334C381.412 266.001 380.078 266.668 378.345 266.668C376.612 266.668 373.945 267.868 372.345 269.334C370.745 270.801 368.612 272.001 367.412 272.001C366.345 272.001 365.412 272.534 365.412 273.334C365.412 274.001 364.212 274.668 362.745 274.668C361.278 274.668 360.078 275.201 360.078 276.001C360.078 276.668 358.878 277.334 357.412 277.334C354.612 277.334 353.812 279.201 355.945 280.668C356.612 281.068 358.078 280.401 359.145 279.334C360.345 278.268 362.212 277.334 363.278 277.334C364.478 277.334 365.412 276.668 365.412 276.001C365.412 275.201 366.612 274.668 368.078 274.668C369.545 274.668 370.745 274.001 370.745 273.334C370.745 272.534 371.945 272.001 373.545 272.001C375.412 272.001 376.078 271.334 375.678 270.268C375.145 268.934 375.945 268.534 378.212 269.068C380.078 269.334 381.412 269.068 381.412 268.134C381.412 267.334 382.612 266.668 384.078 266.668C385.545 266.668 386.745 266.001 386.745 265.334C386.745 264.534 387.945 264.001 389.412 264.001C390.878 264.001 392.078 263.334 392.078 262.668C392.078 261.868 390.878 261.334 389.412 261.334C387.945 261.334 386.745 261.868 386.745 262.668Z" fill="black"/>
<path d="M47.1446 268.933C45.1446 269.6 44.8779 273.2 46.6113 275.867C47.4113 277.067 47.9446 276.133 48.3446 272.8C48.6113 270.133 48.8779 268 48.7446 268.133C48.7446 268.133 47.9446 268.533 47.1446 268.933Z" fill="black"/>
<path d="M216.078 269.203C216.078 270.003 212.612 274.269 208.345 278.403C204.078 282.536 200.212 287.069 199.678 288.269C199.278 289.603 197.812 290.669 196.612 290.669C195.145 290.669 194.745 291.336 195.278 292.803C195.678 294.003 196.078 295.203 196.078 295.469C196.078 295.869 198.212 294.003 200.745 291.469C203.278 288.803 205.412 286.136 205.412 285.336C205.412 284.669 206.078 284.003 206.745 284.003C207.545 284.003 208.078 283.469 208.078 282.669C208.078 282.003 210.612 278.936 213.545 276.003C217.678 271.869 218.745 270.136 217.545 268.936C216.478 267.869 216.078 267.869 216.078 269.203Z" fill="black"/>
<path d="M296.078 276.403C296.078 277.869 294.345 280.669 292.078 282.669C289.945 284.669 288.078 287.069 288.078 288.003C288.078 288.936 286.345 291.336 284.078 293.336C281.945 295.336 280.078 297.736 280.078 298.669C280.078 299.469 277.145 303.069 273.411 306.669C267.678 312.136 264.878 317.336 267.411 317.336C268.878 317.336 274.745 310.803 274.745 309.203C274.745 308.403 276.611 306.003 278.745 304.003C281.011 302.003 282.745 299.736 282.745 298.936C282.745 298.269 285.145 295.203 288.078 292.136C291.011 289.203 293.411 286.136 293.411 285.603C293.411 284.936 294.611 283.203 296.078 281.603C298.211 279.336 298.478 278.136 297.545 276.269C296.211 274.136 296.211 274.136 296.078 276.403Z" fill="black"/>
<path d="M42.7446 287.336C42.7446 293.069 43.278 297.336 44.078 297.336C44.878 297.336 45.4113 293.069 45.4113 287.336C45.4113 281.603 44.878 277.336 44.078 277.336C43.278 277.336 42.7446 281.603 42.7446 287.336Z" fill="black"/>
<path d="M352.078 281.336C352.078 282.002 350.878 282.669 349.411 282.669C347.945 282.669 346.745 283.202 346.745 283.869C346.745 286.402 349.145 286.536 351.945 284.136C355.011 281.469 355.545 280.002 353.411 280.002C352.745 280.002 352.078 280.536 352.078 281.336Z" fill="black"/>
<path d="M119.012 285.335C117.012 288.535 116.878 290.668 118.745 290.668C119.545 290.668 120.078 289.468 120.078 288.001C120.078 286.535 120.745 285.335 121.412 285.335C122.212 285.335 122.745 284.668 122.745 284.001C122.745 281.868 120.878 282.535 119.012 285.335Z" fill="black"/>
<path d="M342.745 288C341.678 289.466 339.811 290.666 338.478 290.666C337.145 290.666 336.078 291.2 336.078 292C336.078 294.4 340.211 293.333 343.411 290C345.278 288.266 346.745 286.4 346.745 286C346.745 284.4 344.611 285.466 342.745 288Z" fill="black"/>
<path d="M192.078 294.667C192.078 295.333 192.745 296 193.411 296C194.211 296 194.745 295.333 194.745 294.667C194.745 293.867 194.211 293.333 193.411 293.333C192.745 293.333 192.078 293.867 192.078 294.667Z" fill="black"/>
<path d="M323.145 304.8C317.011 310.933 312.078 316.667 312.078 317.467C312.078 318.267 310.345 320.667 308.078 322.667C305.945 324.667 304.078 327.067 304.078 327.867C304.078 328.8 302.611 330.933 300.878 332.667C299.011 334.4 297.278 337.2 296.745 338.667C296.345 340.133 295.278 341.333 294.611 341.333C293.945 341.333 293.411 342.533 293.411 344C293.411 345.467 292.878 346.667 292.078 346.667C291.411 346.667 290.745 347.867 290.745 349.333C290.745 350.8 291.411 352 292.078 352C292.878 352 293.411 350.8 293.411 349.333C293.411 347.867 294.078 346.667 294.745 346.667C295.545 346.667 296.078 345.467 296.078 344C296.078 342.533 296.611 341.333 297.278 341.333C297.945 341.333 299.011 340.133 299.411 338.667C299.945 337.2 301.678 334.4 303.545 332.667C305.278 330.933 306.745 328.8 306.745 327.867C306.745 327.067 308.611 324.667 310.745 322.667C313.011 320.667 314.745 318.267 314.745 317.467C314.745 315.6 334.211 296 336.078 296C336.878 296 337.145 295.333 336.745 294.667C336.345 293.867 335.545 293.333 335.011 293.467C334.478 293.467 329.145 298.533 323.145 304.8Z" fill="black"/>
<path d="M115.678 295.603C114.211 296.936 114.611 309.336 116.078 309.336C116.878 309.336 117.411 306.003 117.411 302.003C117.411 294.536 117.278 294.003 115.678 295.603Z" fill="black"/>
<path d="M189.411 297.868C189.411 298.935 190.078 300.268 191.011 300.801C191.944 301.335 192.078 301.201 191.544 300.268C191.011 299.201 191.544 298.668 193.011 298.668C195.011 298.668 195.144 298.401 193.411 297.335C190.611 295.468 189.411 295.735 189.411 297.868Z" fill="black"/>
<path d="M43.0113 313.735C42.7446 324.135 43.1446 328.002 44.0779 326.668C45.5446 324.402 45.6779 300.402 44.2113 299.468C43.6779 299.068 43.1446 305.468 43.0113 313.735Z" fill="black"/>
<path d="M184.745 302.935C183.278 303.735 180.478 306.135 178.478 308.269C176.611 310.269 174.211 312.002 173.145 312.002C172.211 312.002 170.478 313.202 169.411 314.669C168.345 316.135 166.478 317.335 165.145 317.335C163.811 317.335 162.745 317.869 162.745 318.669C162.745 319.335 161.545 320.002 160.078 320.002C158.611 320.002 157.411 320.535 157.411 321.335C157.411 322.002 155.678 322.669 153.411 322.669C151.278 322.669 149.411 323.202 149.411 324.002C149.411 324.802 145.278 325.335 139.811 325.335C133.011 325.335 130.745 325.735 132.078 326.669C134.745 328.402 147.678 328.402 148.745 326.669C149.145 325.869 151.278 325.335 153.545 325.335C155.678 325.335 157.411 324.669 157.411 324.002C157.411 323.202 158.611 322.669 160.078 322.669C161.545 322.669 162.745 322.002 162.745 321.335C162.745 320.535 163.945 320.002 165.411 320.002C166.878 320.002 168.078 319.335 168.078 318.669C168.078 317.869 169.278 317.335 170.878 317.335C172.345 317.335 173.145 316.669 172.745 316.002C172.345 315.202 172.611 314.669 173.411 314.669C174.345 314.669 176.745 312.802 178.745 310.669C180.745 308.402 183.145 306.669 183.945 306.669C184.745 306.669 185.411 306.002 185.411 305.335C185.411 304.535 186.345 304.002 187.411 304.002C188.478 304.002 189.411 303.335 189.411 302.669C189.411 300.935 188.078 301.069 184.745 302.935Z" fill="black"/>
<path d="M544.078 317.867C544.078 323.733 544.611 328 545.411 328C546.211 328 546.745 324 546.745 318.8C546.745 313.6 546.211 309.067 545.411 308.667C544.611 308.133 544.078 311.6 544.078 317.867Z" fill="black"/>
<path d="M117.411 314.003C117.411 316.403 126.478 326.003 127.678 324.803C128.078 324.403 126.611 322.27 124.211 320.136C121.944 318.003 120.078 315.336 120.078 314.136C120.078 312.936 119.544 312.003 118.744 312.003C118.078 312.003 117.411 312.936 117.411 314.003Z" fill="black"/>
<path d="M466.078 316.003C466.478 316.669 467.411 317.336 468.211 317.336C468.878 317.336 469.411 316.669 469.411 316.003C469.411 315.203 468.478 314.669 467.278 314.669C466.211 314.669 465.678 315.203 466.078 316.003Z" fill="black"/>
<path d="M264.078 317.069C264.078 317.869 260.211 322.536 255.411 327.469C250.611 332.402 246.745 336.802 246.745 337.469C246.745 339.202 228.345 357.336 226.478 357.336C225.278 357.336 225.278 357.736 226.345 358.802C227.411 359.869 231.945 356.136 243.278 344.802C251.811 336.269 258.745 328.669 258.745 327.869C258.745 327.069 260.611 324.669 263.011 322.536C266.078 319.469 266.745 318.136 265.678 317.069C264.478 315.869 264.078 315.869 264.078 317.069Z" fill="black"/>
<path d="M448.078 318.667C448.078 319.333 451.145 320 454.745 320C458.478 320 461.411 319.333 461.411 318.667C461.411 317.867 458.478 317.333 454.745 317.333C451.145 317.333 448.078 317.867 448.078 318.667Z" fill="black"/>
<path d="M432.078 321.335C432.078 322.002 429.678 322.669 426.745 322.669C423.811 322.669 421.411 323.202 421.411 324.002C421.411 324.669 419.678 325.335 417.411 325.335C415.278 325.335 413.411 325.869 413.411 326.669C413.411 327.335 412.211 328.002 410.878 328.002C409.545 328.002 408.078 328.802 407.678 329.735C407.145 331.069 407.945 331.469 410.211 330.935C411.945 330.669 413.411 329.869 413.411 329.202C413.411 328.535 415.278 328.002 417.411 328.002C419.678 328.002 421.411 327.335 421.411 326.669C421.411 325.869 423.811 325.335 426.745 325.335C429.678 325.335 432.078 324.669 432.078 324.002C432.078 323.202 435.145 322.669 438.745 322.669C442.478 322.669 445.411 322.002 445.411 321.335C445.411 320.535 442.478 320.002 438.745 320.002C435.145 320.002 432.078 320.535 432.078 321.335Z" fill="black"/>
<path d="M466.745 324.003C466.745 324.669 467.411 325.336 468.078 325.336C468.878 325.336 469.411 324.669 469.411 324.003C469.411 323.203 468.878 322.669 468.078 322.669C467.411 322.669 466.745 323.203 466.745 324.003Z" fill="black"/>
<path d="M464.078 331.335C464.078 333.468 464.745 336.268 465.411 337.335C466.345 338.935 466.745 338.402 466.745 335.335C466.745 333.068 466.078 330.402 465.411 329.335C464.478 327.735 464.078 328.268 464.078 331.335Z" fill="black"/>
<path d="M46.4779 330.136C45.1446 332.136 45.6779 338.67 47.0112 338.67C47.5446 338.67 48.0779 339.47 48.0779 340.403C48.0779 342.803 51.2779 349.336 52.4779 349.336C53.0112 349.336 53.4112 350.536 53.4112 352.003C53.4112 353.47 54.0779 354.67 54.7446 354.67C55.5446 354.67 56.0779 355.603 56.0779 356.67C56.0779 359.07 62.4779 366.003 63.6779 364.936C64.0779 364.403 63.4112 363.203 62.2112 362.003C61.0112 360.803 60.4779 359.203 60.8779 358.403C61.4112 357.47 61.1446 357.336 60.3446 357.87C59.4112 358.403 58.7446 358.003 58.7446 356.803C58.7446 355.603 58.2112 354.67 57.4112 354.67C56.7446 354.67 56.0779 353.47 56.0779 352.003C56.0779 350.536 55.5446 349.336 54.7446 349.336C54.0779 349.336 53.4112 348.136 53.4112 346.67C53.4112 345.203 52.8779 344.003 52.0779 344.003C51.4112 344.003 50.7446 342.136 50.7446 339.87C50.7446 337.736 50.2112 336.136 49.5446 336.67C48.8779 337.07 48.0779 335.47 47.8112 333.07C47.5446 330.536 47.0112 329.336 46.4779 330.136Z" fill="black"/>
<path d="M541.411 334.936C541.411 338.136 542.078 341.602 542.744 342.669C543.678 344.136 544.078 342.669 544.078 337.736C544.078 334.002 543.544 330.402 542.744 330.002C541.944 329.469 541.411 331.469 541.411 334.936Z" fill="black"/>
<path d="M400.078 332.002C400.078 332.668 399.144 333.335 397.944 333.335C395.278 333.335 391.411 337.202 392.744 338.402C393.278 338.935 394.078 338.535 394.344 337.602C394.744 336.802 396.078 336.002 397.544 336.002C398.878 336.002 400.078 335.335 400.078 334.668C400.078 333.868 401.278 333.335 402.744 333.335C404.211 333.335 405.411 332.668 405.411 332.002C405.411 331.202 404.211 330.668 402.744 330.668C401.278 330.668 400.078 331.202 400.078 332.002Z" fill="black"/>
<path d="M386.744 339.735C386.744 340.402 385.144 341.735 383.144 342.802C379.278 344.668 373.411 350.002 373.411 351.335C373.411 353.468 378.611 350.802 383.011 346.268C385.678 343.602 388.878 341.335 389.944 341.335C391.144 341.335 392.078 340.668 392.078 340.002C392.078 339.202 390.878 338.668 389.411 338.668C387.944 338.668 386.744 339.202 386.744 339.735Z" fill="black"/>
<path d="M461.412 341.333C461.412 342.8 460.745 344 459.945 344C459.012 344 458.612 345.733 459.012 348.533C459.412 351.733 459.012 352.8 457.812 352.4C455.812 351.6 455.545 355.733 457.412 358.666C458.478 360.266 458.745 360.133 458.745 357.733C458.745 356.133 459.412 354.4 460.078 354C460.878 353.6 461.412 351.733 461.412 350C461.412 348.266 462.078 346.4 462.745 346C463.545 345.6 464.078 343.733 464.078 341.866C464.078 340.133 463.545 338.666 462.745 338.666C462.078 338.666 461.412 339.866 461.412 341.333Z" fill="black"/>
<path d="M538.745 349.336C538.745 353.736 538.211 357.336 537.411 357.336C536.745 357.336 536.078 358.803 536.078 360.536C536.078 362.403 535.545 364.27 534.745 364.67C534.078 365.07 533.411 367.203 533.411 369.47C533.411 371.603 532.878 373.336 532.078 373.336C531.411 373.336 530.745 374.536 530.745 376.003C530.745 377.47 530.211 378.67 529.411 378.67C528.745 378.67 528.078 380.403 528.078 382.67C528.078 384.803 527.545 386.67 526.745 386.67C526.078 386.67 525.411 387.87 525.411 389.336C525.411 390.803 525.011 392.003 524.478 392.003C523.278 392.003 520.078 398.536 520.078 400.936C520.078 401.87 519.545 402.67 518.745 402.67C518.078 402.67 517.411 403.736 517.411 405.07C517.411 406.403 516.211 408.27 514.745 409.336C513.278 410.403 512.078 412.27 512.078 413.603C512.078 414.936 511.545 416.003 510.745 416.003C510.078 416.003 509.411 417.07 509.411 418.403C509.411 419.736 508.211 421.603 506.745 422.67C505.278 423.736 504.078 425.203 504.078 426.136C504.078 426.936 501.411 430.403 498.078 434.003C494.078 438.136 492.345 440.803 493.278 441.736C494.745 443.203 498.745 440.003 498.745 437.336C498.745 436.536 501.145 433.47 504.078 430.67C507.011 427.87 509.411 424.536 509.411 423.47C509.411 422.27 510.078 421.336 510.745 421.336C511.545 421.336 512.078 420.27 512.078 418.936C512.078 417.603 513.278 415.736 514.745 414.67C516.211 413.603 517.411 411.736 517.411 410.403C517.411 409.07 518.078 408.003 518.745 408.003C519.545 408.003 520.078 406.803 520.078 405.336C520.078 403.87 520.745 402.67 521.411 402.67C522.211 402.67 522.745 401.47 522.745 400.003C522.745 398.536 523.411 397.336 524.078 397.336C524.878 397.336 525.411 396.136 525.411 394.67C525.411 393.203 526.078 392.003 526.745 392.003C527.545 392.003 528.078 390.803 528.078 389.336C528.078 387.87 528.745 386.67 529.411 386.67C530.211 386.67 530.745 385.47 530.745 384.003C530.745 382.536 531.411 381.336 532.078 381.336C532.878 381.336 533.411 379.47 533.411 377.336C533.411 375.07 534.078 373.336 534.745 373.336C535.545 373.336 536.078 371.47 536.078 369.336C536.078 367.07 536.745 365.336 537.411 365.336C538.211 365.336 538.745 363.47 538.745 361.336C538.745 359.07 539.411 357.336 540.078 357.336C540.878 357.336 541.411 353.736 541.411 349.336C541.411 344.936 540.878 341.336 540.078 341.336C539.278 341.336 538.745 344.936 538.745 349.336Z" fill="black"/>
<path d="M370.745 354.4C370.745 355.733 369.545 357.6 368.078 358.667C366.611 359.733 365.411 361.333 365.411 362.267C365.411 363.2 364.878 364 364.078 364C363.411 364 362.745 364.933 362.745 366C362.745 367.067 363.145 368 363.545 368C364.878 368 368.078 364.267 368.078 362.667C368.078 361.867 369.545 359.733 371.411 357.867C373.278 356 374.478 353.867 374.078 353.2C372.745 351.2 370.745 351.867 370.745 354.4Z" fill="black"/>
<path d="M288.078 357.333C288.078 358.8 288.745 360 289.411 360C290.211 360 290.745 358.8 290.745 357.333C290.745 355.867 290.211 354.667 289.411 354.667C288.745 354.667 288.078 355.867 288.078 357.333Z" fill="black"/>
<path d="M217.411 365.334C214.878 368.134 211.945 370.534 211.011 370.667C208.611 370.667 204.878 374.534 206.078 375.734C206.611 376.267 207.411 375.867 207.678 374.934C208.078 374.134 209.145 373.334 210.345 373.334C211.411 373.334 214.078 371.467 216.078 369.334C218.078 367.067 220.478 365.334 221.411 365.334C223.011 365.334 226.745 362.134 226.745 360.8C226.745 358.267 221.411 360.934 217.411 365.334Z" fill="black"/>
<path d="M453.411 362.667C453.411 364.134 452.878 365.334 452.078 365.334C451.411 365.334 450.745 366.534 450.745 368.001C450.745 369.467 450.211 370.667 449.411 370.667C448.745 370.667 448.078 371.734 448.078 373.067C448.078 374.401 446.878 376.267 445.411 377.334C443.945 378.401 442.745 380.134 442.745 381.067C442.745 382.001 440.345 385.201 437.411 388.001C434.478 390.801 432.078 393.867 432.078 394.667C432.078 395.467 431.411 395.734 430.478 395.201C429.678 394.667 429.411 394.801 429.945 395.734C430.345 396.534 428.611 399.334 425.945 402.001C423.278 404.667 421.411 407.201 421.811 407.601C422.878 408.534 440.078 391.067 440.078 388.934C440.078 388.001 441.278 386.401 442.745 385.334C444.211 384.267 445.411 382.667 445.411 381.601C445.411 380.667 446.078 380.267 446.745 380.667C447.545 381.067 448.078 380.267 448.078 378.801C448.078 377.201 448.745 376.001 449.411 376.001C450.211 376.001 450.745 374.801 450.745 373.334C450.745 371.867 451.411 370.667 452.078 370.667C452.878 370.667 453.411 369.467 453.411 368.001C453.411 366.534 454.078 365.334 454.745 365.334C455.545 365.334 456.078 364.134 456.078 362.667C456.078 361.201 455.545 360.001 454.745 360.001C454.078 360.001 453.411 361.201 453.411 362.667Z" fill="black"/>
<path d="M285.411 367.203C285.411 369.736 284.878 372.269 284.078 372.669C283.278 373.203 282.745 381.069 282.745 392.136C282.745 403.603 283.278 410.669 284.078 410.669C284.878 410.669 285.411 413.069 285.411 416.003C285.411 418.936 286.078 421.336 286.745 421.336C287.545 421.336 288.078 419.336 288.078 416.803C288.078 414.269 287.545 411.736 286.745 411.336C285.945 410.803 285.411 402.669 285.411 391.203C285.411 380.536 285.945 372.136 286.478 372.536C287.145 372.936 287.678 370.803 287.811 367.869C288.078 364.936 287.545 362.669 286.745 362.669C286.078 362.669 285.411 364.669 285.411 367.203Z" fill="black"/>
<path d="M64.0781 367.47C64.0781 370.536 77.4115 383.203 79.0115 381.603C79.9448 380.67 77.8115 377.603 72.8781 372.803C64.8781 364.67 64.0781 364.27 64.0781 367.47Z" fill="black"/>
<path d="M359.678 372.403C357.278 376.137 356.478 384.67 358.745 383.337C359.545 382.937 360.078 380.537 360.078 378.003C360.078 375.603 360.745 373.337 361.678 373.07C362.478 372.803 362.878 371.737 362.612 370.803C362.212 369.603 361.145 370.137 359.678 372.403Z" fill="black"/>
<path d="M199.411 377.869C197.278 380.269 194.611 382.003 193.811 381.603C192.878 381.336 192.078 381.736 192.078 382.536C192.078 383.336 191.011 384.003 189.678 384.003C188.345 384.003 186.478 385.203 185.411 386.669C184.345 388.269 181.945 389.336 179.811 389.336C177.811 389.336 176.078 389.869 176.078 390.669C176.078 391.336 174.878 392.003 173.411 392.003C171.945 392.003 170.745 392.536 170.745 393.336C170.745 394.003 169.011 394.669 166.745 394.669C164.611 394.669 162.745 395.203 162.745 396.003C162.745 396.669 164.611 397.336 166.745 397.336C169.011 397.336 170.745 396.669 170.745 396.003C170.745 395.203 172.611 394.669 174.745 394.669C177.011 394.669 178.745 394.003 178.745 393.336C178.745 392.536 179.811 392.003 181.145 392.003C182.478 392.003 184.345 390.803 185.411 389.336C186.478 387.869 188.345 386.669 189.678 386.669C191.011 386.669 192.078 386.003 192.078 385.336C192.078 384.536 193.145 384.003 194.478 384.003C195.811 384.003 197.678 382.803 198.745 381.336C199.811 379.869 201.278 378.669 202.078 378.669C202.878 378.669 203.545 377.469 203.678 376.003C203.945 372.669 204.211 372.536 199.411 377.869Z" fill="black"/>
<path d="M80.0781 382C80.0781 383.6 86.7448 389.334 88.6115 389.334C89.6781 389.334 90.7448 390.134 91.1448 390.934C91.4115 391.867 92.2115 392.267 92.7448 391.734C93.9448 390.534 90.2115 386.667 87.8115 386.667C86.7448 386.667 85.1448 385.467 84.0781 384C82.2115 381.467 80.0781 380.4 80.0781 382Z" fill="black"/>
<path d="M354.745 391.2C354.745 394.533 355.411 397.333 356.078 397.333C356.878 397.333 357.411 398.8 357.411 400.667C357.411 402.533 358.078 404 358.745 404C359.545 404 360.078 402.533 360.078 400.667C360.078 398.8 359.545 397.333 358.745 397.333C358.078 397.333 357.411 394.933 357.411 392.133C357.411 389.2 356.878 386.4 356.078 386C355.278 385.467 354.745 387.6 354.745 391.2Z" fill="black"/>
<path d="M95.4111 393.336C95.0111 394.003 95.5445 394.669 96.6111 394.669C97.8111 394.669 98.7445 395.203 98.7445 396.003C98.7445 396.669 99.9445 397.336 101.411 397.336C102.878 397.336 104.078 396.669 104.078 396.003C104.078 395.203 102.878 394.669 101.411 394.669C99.9445 394.669 98.7445 394.003 98.7445 393.336C98.7445 392.536 98.2111 392.003 97.5445 392.003C96.7445 392.003 95.8111 392.536 95.4111 393.336Z" fill="black"/>
<path d="M106.745 398.933C106.745 399.6 109.145 400 111.945 399.733C114.878 399.6 116.878 398.933 116.611 398.4C115.678 396.933 106.745 397.466 106.745 398.933Z" fill="black"/>
<path d="M154.078 398.667C154.478 399.333 156.078 400 157.545 400C158.878 400 160.078 399.333 160.078 398.667C160.078 397.867 158.478 397.333 156.611 397.333C154.745 397.333 153.545 397.867 154.078 398.667Z" fill="black"/>
<path d="M122.078 401.335C121.545 402.135 126.745 402.668 136.611 402.668C145.411 402.668 152.211 402.135 152.745 401.335C153.278 400.535 148.078 400.001 138.211 400.001C129.411 400.001 122.611 400.535 122.078 401.335Z" fill="black"/>
<path d="M360.078 407.469C360.078 410.136 363.678 413.736 365.411 412.669C366.078 412.269 366.345 412.669 365.945 413.736C365.545 415.069 366.745 416.403 369.278 417.469C371.545 418.536 373.411 419.736 373.411 420.269C373.411 420.936 379.145 421.336 386.078 421.336C393.678 421.336 398.745 420.803 398.745 420.003C398.745 419.203 393.811 418.669 386.611 418.669C377.678 418.669 374.078 418.136 372.478 416.669C371.411 415.603 369.945 414.936 369.278 415.336C368.611 415.869 368.078 415.203 368.078 414.003C368.078 412.003 362.478 405.336 360.745 405.336C360.345 405.336 360.078 406.269 360.078 407.469Z" fill="black"/>
<path d="M417.011 408.668C415.811 409.735 414.211 410.668 413.411 410.668C412.611 410.668 411.011 411.601 409.811 412.668C408.745 413.735 407.278 414.268 406.478 413.868C405.545 413.335 405.411 413.601 405.945 414.401C406.611 415.468 405.678 416.001 403.545 416.001C401.678 416.001 400.078 416.535 400.078 417.335C400.078 418.001 401.945 418.668 404.078 418.668C406.345 418.668 408.078 418.001 408.078 417.335C408.078 416.535 409.145 416.001 410.478 416.001C411.811 416.001 413.678 414.801 414.745 413.335C415.811 411.868 417.678 410.668 419.011 410.668C421.545 410.668 422.211 408.668 420.211 407.335C419.545 406.935 418.078 407.601 417.011 408.668Z" fill="black"/>
<path d="M286.478 423.603C287.278 424.003 288.078 425.336 288.078 426.803C288.078 428.136 288.745 429.336 289.411 429.336C290.211 429.336 290.745 430.536 290.745 432.003C290.745 433.469 291.411 434.669 292.078 434.669C292.878 434.669 293.411 435.869 293.411 437.336C293.411 440.136 295.278 440.936 296.745 438.803C297.145 438.136 296.478 436.669 295.411 435.603C294.345 434.403 293.411 432.536 293.411 431.469C293.411 430.269 292.878 429.336 292.078 429.336C291.411 429.336 290.745 428.003 290.745 426.269C290.745 424.003 289.945 423.203 287.811 423.069C286.078 423.069 285.545 423.203 286.478 423.603Z" fill="black"/>
<path d="M296.478 442.669C296.611 444.136 296.745 445.336 296.878 445.336C297.011 445.336 298.078 444.936 299.278 444.536C301.011 443.869 301.011 443.469 299.411 441.869C296.878 439.336 296.211 439.469 296.478 442.669Z" fill="black"/>
<path d="M488.078 446.669C486.212 448.803 483.945 450.669 483.012 450.669C480.878 450.669 468.878 462.536 469.945 463.603C470.345 464.136 471.812 463.069 473.278 461.603C474.612 460.003 476.478 458.669 477.278 458.669C478.745 458.669 493.412 444.803 493.412 443.336C493.412 441.603 491.145 443.069 488.078 446.669Z" fill="black"/>
<path d="M298.745 446.002C298.745 447.602 320.211 467.868 322.745 468.668C324.211 469.068 325.411 470.135 325.411 470.802C325.411 471.468 326.611 472.002 327.945 472.002C329.411 472.002 330.745 472.802 331.145 473.602C331.411 474.535 332.211 474.935 332.745 474.402C333.945 473.202 330.211 469.335 327.811 469.335C326.745 469.335 325.145 468.135 324.078 466.668C323.011 465.202 321.411 464.002 320.345 464.002C319.411 464.002 314.478 459.735 309.411 454.668C300.745 446.002 298.745 444.268 298.745 446.002Z" fill="black"/>
<path d="M464.078 465.336C462.345 466.803 461.411 468.403 462.078 469.07C462.611 469.603 463.411 469.203 463.678 468.27C464.078 467.47 465.411 466.67 466.878 466.67C468.211 466.67 469.411 466.136 469.411 465.47C469.411 462.803 467.011 462.803 464.078 465.336Z" fill="black"/>
<path d="M457.411 469.335C456.345 470.801 454.478 472.001 453.145 472.001C451.811 472.001 450.745 472.535 450.745 473.335C450.745 474.001 449.545 474.668 448.078 474.668C446.611 474.668 445.411 475.201 445.411 476.001C445.411 476.668 444.211 477.335 442.745 477.335C441.278 477.335 440.078 477.868 440.078 478.668C440.078 479.335 438.878 480.001 437.411 480.001C435.945 480.001 434.745 480.535 434.745 481.335C434.745 482.001 435.945 482.668 437.411 482.668C438.878 482.668 440.078 482.001 440.078 481.335C440.078 480.535 441.278 480.001 442.745 480.001C444.211 480.001 445.411 479.335 445.411 478.668C445.411 477.868 446.611 477.335 448.078 477.335C449.545 477.335 450.745 476.668 450.745 476.001C450.745 475.201 451.945 474.668 453.411 474.668C454.878 474.668 456.078 474.001 456.078 473.335C456.078 472.535 457.278 472.001 458.745 472.001C461.545 472.001 462.078 471.068 460.345 468.401C459.545 467.201 458.745 467.468 457.411 469.335Z" fill="black"/>
<path d="M334.078 474.402C331.545 476.935 336.211 478.402 339.811 476.135C341.145 475.335 340.745 474.802 338.211 474.402C336.345 474.002 334.478 474.002 334.078 474.402Z" fill="black"/>
<path d="M338.745 478.667C338.745 479.333 339.945 480 341.411 480C342.878 480 344.078 479.333 344.078 478.667C344.078 477.867 342.878 477.333 341.411 477.333C339.945 477.333 338.745 477.867 338.745 478.667Z" fill="black"/>
<path d="M346.211 480.667C347.144 483.067 350.211 483.333 351.544 480.933C352.078 480.133 352.078 479.733 351.411 480.267C350.878 480.8 349.278 480.667 347.944 479.867C345.944 478.933 345.678 479.067 346.211 480.667Z" fill="black"/>
<path d="M352.078 484.003C352.078 484.669 353.278 485.336 354.745 485.336C356.211 485.336 357.411 484.669 357.411 484.003C357.411 483.203 356.211 482.669 354.745 482.669C353.278 482.669 352.078 483.203 352.078 484.003Z" fill="black"/>
<path d="M424.078 484.135C424.078 486.935 378.878 488.135 365.678 485.735C360.745 484.801 358.878 484.935 359.145 485.868C359.412 486.668 362.078 487.468 365.145 487.735C368.212 488.001 370.745 488.668 370.745 489.468C370.745 490.135 379.145 490.668 390.745 490.668C403.145 490.668 410.745 490.135 410.745 489.335C410.745 488.535 413.812 488.001 417.412 488.001C421.145 488.001 424.078 487.335 424.078 486.668C424.078 485.868 425.945 485.335 428.078 485.335C430.345 485.335 432.078 484.668 432.078 484.001C432.078 483.201 430.345 482.801 428.078 482.935C425.945 483.068 424.078 483.601 424.078 484.135Z" fill="black"/>
</svg>
