<svg width="481" height="310" viewBox="0 0 481 310" fill="none" xmlns="http://www.w3.org/2000/svg">
<path d="M52.9331 1.60001C52.5331 2.93334 59.4665 3.33334 85.8665 3.06668C107.333 2.80001 118.666 3.20001 117.333 4.00001C116.133 4.80001 116 5.33334 116.933 5.33334C117.733 5.33334 118.8 4.80001 119.2 4.13334C120.266 2.53334 134.666 2.93334 134.666 4.53334C134.666 5.06668 135.466 4.93334 136.533 4.13334C138.933 2.13334 168.266 2.40001 169.6 4.53334C170.4 5.60001 170.666 5.60001 170.666 4.40001C170.666 2.13334 257.333 2.13334 257.333 4.40001C257.333 5.60001 257.6 5.60001 258.4 4.53334C259.866 2.40001 276 2.13334 276 4.26668C276 5.46668 276.266 5.60001 277.066 4.53334C278.266 2.53334 294.933 2.66668 296.266 4.53334C296.933 5.60001 297.333 5.46668 297.333 4.40001C297.333 2.26668 341.333 2.13334 341.333 4.40001C341.333 6.13334 344 2.80001 344 0.933343C344 0.40001 278.666 9.89437e-06 198.8 9.89437e-06C83.8665 9.89437e-06 53.4665 0.40001 52.9331 1.60001Z" fill="black"/>
<path d="M40 3.9987C40 4.66537 38.8 5.33204 37.3333 5.33204C35.8667 5.33204 34.6667 5.86537 34.6667 6.66537C34.6667 7.33204 33.4667 7.9987 32 7.9987C30.5333 7.9987 29.3333 8.53204 29.3333 9.33204C29.3333 9.9987 28.4 10.6654 27.2 10.6654C26.1333 10.6654 22.8 13.0654 20 15.9987C17.2 18.932 13.8667 21.332 12.8 21.332C11.6 21.332 10.6667 22.3987 10.6667 23.9987C10.6667 25.4654 10.1333 26.6654 9.33333 26.6654C8.66667 26.6654 8 27.8654 8 29.332C8 30.7987 7.46667 31.9987 6.66667 31.9987C6 31.9987 5.33333 33.1987 5.33333 34.6654C5.33333 36.132 4.8 37.332 4 37.332C3.33333 37.332 2.66667 39.0654 2.66667 41.332C2.66667 43.4654 2.13333 45.332 1.33333 45.332C0.533333 45.332 0 51.0654 0 59.9987C0 68.932 0.533333 74.6654 1.33333 74.6654C2.13333 74.6654 2.66667 76.3987 2.66667 78.3987C2.66667 80.532 3.73333 82.932 5.33333 83.9987C6.8 85.0654 8 86.6654 8 87.5987C8 90.132 19.4667 101.332 22 101.332C23.0667 101.332 24 101.865 24 102.665C24 103.332 25.2 103.999 26.6667 103.999C28.1333 103.999 29.3333 104.532 29.3333 105.332C29.3333 105.999 30.5333 106.665 31.8667 106.665C33.3333 106.665 34.9333 105.999 35.3333 105.332C35.8667 104.532 34.6667 103.999 32.8 103.999C30.9333 103.999 29.3333 103.332 29.3333 102.665C29.3333 101.865 28.1333 101.332 26.6667 101.332C25.2 101.332 24 100.665 24 99.9987C24 99.1987 23.0667 98.6654 22 98.6654C19.3333 98.6654 10.6667 89.9987 10.6667 87.332C10.6667 86.2654 10.1333 85.332 9.33333 85.332C8.66667 85.332 8 84.132 8 82.532C8 81.0654 7.46667 80.2654 6.66667 80.6654C5.86667 81.1987 5.33333 79.9987 5.33333 78.132C5.33333 76.2654 4.8 74.6654 4 74.6654C3.2 74.6654 2.66667 68.932 2.66667 59.9987C2.66667 51.0654 3.2 45.332 4 45.332C4.8 45.332 5.33333 43.4654 5.33333 41.332C5.33333 39.0654 6 37.332 6.8 37.332C7.46667 37.332 7.86667 36.7987 7.33333 36.132C6.93333 35.4654 7.6 33.9987 8.66667 32.932C9.73333 31.732 10.6667 29.8654 10.6667 28.7987C10.6667 27.5987 11.3333 26.6654 12.1333 26.6654C12.9333 26.6654 13.2 25.732 12.8 24.532C12.4 23.332 12.5333 22.932 13.3333 23.332C14.1333 23.8654 17.0667 21.732 19.8667 18.7987C22.8 15.732 26.1333 13.332 27.2 13.332C28.4 13.332 29.3333 12.6654 29.3333 11.9987C29.3333 11.1987 30.5333 10.6654 32 10.6654C33.4667 10.6654 34.6667 10.2654 34.6667 9.5987C34.6667 7.9987 41.7333 5.33204 46.2667 5.33204C48.6667 5.33204 50.6667 4.66537 50.6667 3.9987C50.6667 3.1987 48.2667 2.66537 45.3333 2.66537C42.4 2.66537 40 3.1987 40 3.9987Z" fill="black"/>
<path d="M344 3.99986C344 4.66653 346.4 5.3332 349.333 5.3332C352.267 5.3332 354.667 5.86653 354.667 6.66653C354.667 7.3332 356.267 7.99986 358.133 7.99986C360 7.99986 362.4 8.9332 363.6 9.99986C364.667 11.0665 366.133 11.7332 366.8 11.3332C368.933 9.86653 368.133 7.99986 365.333 7.99986C363.867 7.99986 362.667 7.3332 362.667 6.66653C362.667 5.86653 360.933 5.3332 358.667 5.3332C356.533 5.3332 354.667 4.66653 354.667 3.99986C354.667 3.19986 352.267 2.66653 349.333 2.66653C346.4 2.66653 344 3.19986 344 3.99986Z" fill="black"/>
<path d="M78.4 4.93167C79.3333 5.33167 80.5333 5.19834 80.9333 4.79834C81.4667 4.39834 80.6667 3.99834 79.2 4.13167C77.7333 4.13167 77.3333 4.53167 78.4 4.93167Z" fill="black"/>
<path d="M470.133 8.13159C468.667 9.46493 466.8 10.6649 465.733 10.6649C464.8 10.6649 464 11.1983 464 11.9983C464 14.3983 468.667 13.4649 470.667 10.6649C471.733 9.19826 473.6 7.99826 474.933 7.99826C476.267 7.99826 477.333 7.33159 477.333 6.66493C477.333 4.39826 472.8 5.33159 470.133 8.13159Z" fill="black"/>
<path d="M477.2 8.53117C476.933 8.79784 476.8 19.0645 477.067 31.1978C477.6 60.3978 480 59.3312 480 29.8645C480 10.6645 479.467 6.39783 477.2 8.53117Z" fill="black"/>
<path d="M368 11.599C368 12.9324 382.8 26.9324 383.6 26.1324C384.267 25.4657 370 10.6657 368.667 10.6657C368.267 10.6657 368 11.0657 368 11.599Z" fill="black"/>
<path d="M458.667 14.8006C458.667 15.4673 458.133 15.8673 457.467 15.3339C456.8 14.9339 455.2 15.7339 453.867 16.9339C452.533 18.2673 450.133 19.0673 448.267 18.8006C445.867 18.5339 445.2 18.9339 445.733 20.4006C446.267 21.7339 445.6 22.1339 443.2 21.6006C439.733 20.9339 439.2 22.1339 441.333 25.3339C442.133 26.6673 442.667 26.8006 442.667 25.6006C442.667 24.8006 443.867 24.0006 445.333 24.0006C446.8 24.0006 448 23.3339 448 22.6673C448 21.8673 449.067 21.3339 450.4 21.3339C451.733 21.3339 453.6 20.1339 454.667 18.8006C455.6 17.3339 456.933 16.4006 457.333 16.6673C457.867 16.9339 459.467 16.4006 460.8 15.3339C463.067 13.6006 463.2 13.4673 461.067 13.3339C459.733 13.3339 458.667 14.0006 458.667 14.8006Z" fill="black"/>
<path d="M434.667 25.3345C434.667 26.0012 433.467 26.6678 431.867 26.6678C430.267 26.6678 429.334 27.3345 429.734 28.2678C430 29.2012 431.2 29.7345 432.134 29.4678C433.2 29.2012 434.667 28.9345 435.6 28.9345C436.534 28.9345 436.934 28.4012 436.534 27.7345C436.134 27.2012 436.8 26.6678 437.867 26.6678C439.067 26.6678 440 26.0012 440 25.3345C440 24.5345 438.8 24.0012 437.334 24.0012C435.867 24.0012 434.667 24.5345 434.667 25.3345Z" fill="black"/>
<path d="M383.6 27.468C382.533 28.5346 384 32.0013 385.467 32.0013C386.133 32.0013 386.667 30.8013 386.667 29.3346C386.667 26.8013 385.2 25.868 383.6 27.468Z" fill="black"/>
<path d="M424 30.6654C424 31.332 422.8 31.9987 421.333 31.9987C419.867 31.9987 418.667 32.532 418.667 33.332C418.667 33.9987 417.467 34.6654 416 34.6654C414.533 34.6654 413.333 35.1987 413.333 35.9987C413.333 36.6654 412.133 37.332 410.667 37.332C409.2 37.332 408 37.8654 408 38.6654C408 39.332 406.8 39.9987 405.333 39.9987C403.867 39.9987 402.667 40.532 402.667 41.332C402.667 41.9987 403.867 42.6654 405.333 42.6654C406.8 42.6654 408 41.9987 408 41.332C408 40.532 409.2 39.9987 410.667 39.9987C412.133 39.9987 413.333 39.332 413.333 38.6654C413.333 37.8654 414.133 37.332 415.067 37.332C417.467 37.332 424 34.132 424 32.932C424 32.3987 425.2 31.9987 426.667 31.9987C428.133 31.9987 429.333 31.332 429.333 30.6654C429.333 29.8654 428.133 29.332 426.667 29.332C425.2 29.332 424 29.8654 424 30.6654Z" fill="black"/>
<path d="M386.667 36.3995C386.667 39.4662 390 45.3328 391.733 45.3328C392.667 45.3328 393.2 45.8662 392.8 46.3995C392.533 46.9328 393.467 47.4662 394.933 47.4662C397.6 47.4662 397.6 47.4662 394.8 45.5995C393.333 44.5328 392 42.7995 392 41.8662C392 40.7995 391.467 39.9995 390.667 39.9995C390 39.9995 389.333 38.7995 389.333 37.3328C389.333 35.8662 388.8 34.6662 388 34.6662C387.333 34.6662 386.667 35.4662 386.667 36.3995Z" fill="black"/>
<path d="M398 44C397.6 44.6667 397.867 45.3333 398.533 45.3333C399.333 45.3333 400 44.6667 400 44C400 43.2 399.733 42.6667 399.467 42.6667C399.067 42.6667 398.4 43.2 398 44Z" fill="black"/>
<path d="M60.6668 49.332C60.1335 50.2654 104.933 50.6654 193.867 50.6654C282.4 50.6654 328 50.2654 328 49.332C328 47.4654 61.8668 47.4654 60.6668 49.332Z" fill="black"/>
<path d="M56 52C56 52.6667 56.6667 53.3333 57.3333 53.3333C58.1333 53.3333 58.6667 52.6667 58.6667 52C58.6667 51.2 58.1333 50.6667 57.3333 50.6667C56.6667 50.6667 56 51.2 56 52Z" fill="black"/>
<path d="M328.667 52.0014C328.133 52.8014 329.333 53.3347 331.467 53.3347C333.467 53.3347 336.133 54.5347 337.467 56.2681C338.933 57.7347 340.4 58.8014 340.8 58.2681C341.2 57.8681 340.133 56.0014 338.267 54.1347C334.667 50.5347 330.133 49.6014 328.667 52.0014Z" fill="black"/>
<path d="M54.4001 55.4652C51.7334 58.1319 55.0668 63.9986 59.2001 63.9986C60.4001 63.9986 61.3334 64.5319 61.3334 65.3319C61.3334 65.9986 62.5334 66.6652 64.1334 66.6652C65.6001 66.6652 66.4001 67.1986 66.0001 67.9986C65.6001 68.6652 66.4001 69.3319 68.0001 69.3319C69.6001 69.3319 71.7334 70.2652 72.9334 71.3319C74.0001 72.3986 75.4668 73.0652 76.1334 72.6652C78.2668 71.1986 77.4668 69.3319 74.6668 69.3319C73.2001 69.3319 72.0001 68.7986 72.0001 68.1319C72.0001 67.4652 70.2668 66.6652 68.1334 66.2652C66.0001 65.8652 63.3334 64.5319 62.2668 63.3319C61.0668 62.2652 59.3334 61.3319 58.1334 61.3319C57.0668 61.3319 56.0001 59.8652 55.7334 57.8652C55.4668 55.9986 54.9334 54.9319 54.4001 55.4652Z" fill="black"/>
<path d="M475.6 55.6004C475.066 56.0004 474.666 58.1338 474.666 60.2671C474.666 62.2671 474.133 64.0004 473.333 64.0004C472.666 64.0004 472 64.9338 472 66.1338C472 68.8004 468.8 72.0004 466.266 72.0004C464.933 72.0004 464.533 72.9338 464.933 74.5338C465.466 76.9338 466 76.6671 470.133 72.6671C472.666 70.1338 474.666 67.2004 474.666 66.0004C474.666 64.9338 475.333 64.0004 476 64.0004C476.8 64.0004 477.333 61.8671 477.066 59.3338C476.8 54.1338 476.8 54.2671 475.6 55.6004Z" fill="black"/>
<path d="M340.8 59.5997C338.933 60.1331 338.666 60.5331 340 61.3331C341.2 62.1331 340.4 63.5997 336.933 67.1997C334.266 69.8664 331.2 71.9997 330 71.9997C328.933 71.9997 328 72.5331 328 73.3331C328 73.9997 326.8 74.6664 325.333 74.6664C323.866 74.6664 322.666 75.1997 322.666 75.9997C322.666 76.6664 321.466 77.3331 320 77.3331C318.533 77.3331 317.333 77.8664 317.333 78.6664C317.333 79.3331 315.333 79.9997 313.066 80.1331C310.666 80.1331 309.333 80.5331 310.266 80.7997C311.2 81.1997 311.733 82.2664 311.466 83.0664C311.333 83.9997 311.333 84.2664 311.6 83.5997C312 83.0664 313.333 82.6664 314.8 82.6664C316.133 82.6664 317.333 81.9997 317.333 81.3331C317.333 80.5331 318.533 79.9997 320 79.9997C321.466 79.9997 322.666 79.3331 322.666 78.6664C322.666 77.8664 323.866 77.3331 325.333 77.3331C326.8 77.3331 328 76.6664 328 75.9997C328 75.1997 329.2 74.6664 330.666 74.6664C332.133 74.6664 333.333 73.9997 333.333 73.3331C333.333 72.5331 334.266 71.9997 335.466 71.9997C338.133 71.9997 341.333 68.7997 341.333 66.1331C341.333 64.9331 341.866 63.9997 342.533 63.9997C343.333 63.9997 343.733 62.7997 343.6 61.3331C343.466 59.8664 343.466 58.7997 343.333 58.7997C343.333 58.9331 342.133 59.3331 340.8 59.5997Z" fill="black"/>
<path d="M77.3335 73.332C77.3335 73.9987 78.5335 74.6654 80.0002 74.6654C81.4668 74.6654 82.6668 73.9987 82.6668 73.332C82.6668 72.532 81.4668 71.9987 80.0002 71.9987C78.5335 71.9987 77.3335 72.532 77.3335 73.332Z" fill="black"/>
<path d="M81.9998 76C81.4665 76.8 82.6665 77.3333 84.5332 77.3333C86.3998 77.3333 87.9998 76.6667 87.9998 76C87.9998 75.2 86.7998 74.6667 85.4665 74.6667C83.9998 74.6667 82.3998 75.2 81.9998 76Z" fill="black"/>
<path d="M460.666 76C461.066 76.6667 462 77.3333 462.8 77.3333C463.466 77.3333 464 76.6667 464 76C464 75.2 463.066 74.6667 461.866 74.6667C460.8 74.6667 460.266 75.2 460.666 76Z" fill="black"/>
<path d="M90.6665 78.6654C90.6665 79.332 91.8665 79.9987 93.3332 79.9987C94.7998 79.9987 95.9998 80.532 95.9998 81.332C95.9998 81.9987 97.1998 82.6654 98.6665 82.6654C100.133 82.6654 101.333 81.9987 101.333 81.332C101.333 80.532 100.133 79.9987 98.6665 79.9987C97.1998 79.9987 95.9998 79.332 95.9998 78.6654C95.9998 77.8654 94.7998 77.332 93.3332 77.332C91.8665 77.332 90.6665 77.8654 90.6665 78.6654Z" fill="black"/>
<path d="M453.333 78.6667C453.333 79.3333 452.133 80 450.667 80C449.2 80 448 80.5333 448 81.3333C448 82 446.8 82.6667 445.333 82.6667C443.867 82.6667 442.667 83.2 442.667 84C442.667 84.6667 443.867 85.3333 445.333 85.3333C446.8 85.3333 448 84.6667 448 84C448 83.2 449.2 82.6667 450.667 82.6667C452.133 82.6667 453.333 82 453.333 81.3333C453.333 80.5333 455.2 80 457.333 80C459.6 80 461.333 79.3333 461.333 78.6667C461.333 77.8667 459.6 77.3333 457.333 77.3333C455.2 77.3333 453.333 77.8667 453.333 78.6667Z" fill="black"/>
<path d="M102.667 84C101.067 85.0667 101.2 85.3333 103.733 85.3333C105.333 85.3333 106.667 84.6667 106.667 84C106.667 82.2667 105.2 82.2667 102.667 84Z" fill="black"/>
<path d="M305.333 83.9982C307.867 85.7315 309.333 85.7315 309.333 83.9982C309.333 83.1982 308 82.6649 306.4 82.6649C303.867 82.6649 303.733 82.9315 305.333 83.9982Z" fill="black"/>
<path d="M437.733 84.9339C436 85.2006 434.667 86.1339 434.667 86.8006C434.667 87.4672 433.467 88.0006 432 88.0006C430.533 88.0006 429.333 88.5339 429.333 89.3339C429.333 90.0006 427.6 90.6672 425.333 90.6672C423.2 90.6672 421.333 91.2006 421.333 92.0006C421.333 92.6672 419.6 93.3339 417.467 93.3339C415.333 93.3339 413.333 93.8672 413.067 94.6672C412.933 95.3339 411.067 96.1339 409.067 96.2672C406.933 96.4006 405.333 97.0672 405.333 97.6006C405.333 98.1339 404.133 98.6672 402.667 98.6672C401.2 98.6672 400 99.2006 400 100.001C400 100.667 398 101.334 395.733 101.334C392.4 101.334 391.867 101.734 393.333 102.667C394.8 103.601 394.267 104.001 391.067 104.001C388.667 104.001 386.667 104.534 386.667 105.334C386.667 106.001 385.467 106.667 384 106.667C382.533 106.667 381.333 107.201 381.333 108.001C381.333 108.667 380.133 109.334 378.667 109.334C377.2 109.334 376 110.001 376 110.801C376 111.734 376.933 111.867 378.4 111.334C379.6 110.801 382 110.001 383.733 109.734C385.333 109.334 386.667 108.667 386.667 108.134C386.667 107.601 389.733 106.267 393.333 105.334C397.067 104.401 400 103.067 400 102.401C400 101.867 401.2 101.334 402.667 101.334C404.133 101.334 405.333 100.667 405.333 100.001C405.333 99.2006 407.2 98.6672 409.333 98.6672C411.6 98.6672 413.333 98.0006 413.333 97.3339C413.333 96.5339 415.2 96.0006 417.333 96.0006C419.6 96.0006 421.333 95.3339 421.333 94.6672C421.333 93.8672 423.2 93.3339 425.333 93.3339C427.6 93.3339 429.333 92.6672 429.333 92.0006C429.333 91.2006 430.533 90.6672 432 90.6672C433.467 90.6672 434.667 90.0006 434.667 89.3339C434.667 88.5339 436.667 88.0006 439.067 87.8672C441.333 87.8672 442.533 87.4672 441.6 87.0672C440.8 86.8006 440.267 85.8672 440.8 85.2006C441.2 84.5339 441.333 84.1339 441.067 84.1339C440.8 84.2672 439.333 84.6672 437.733 84.9339Z" fill="black"/>
<path d="M109.333 86.6649C109.333 87.3316 110.533 87.9982 112 87.9982C113.467 87.9982 114.667 88.5316 114.667 89.3316C114.667 90.9316 120.933 91.1982 121.867 89.5982C122.133 89.0649 120.933 88.3982 118.933 88.2649C116.933 88.1316 115.2 87.3316 114.933 86.6649C114.267 84.9316 109.333 84.9316 109.333 86.6649Z" fill="black"/>
<path d="M296 86.6652C296 87.3319 294.8 87.9986 293.333 87.9986C291.867 87.9986 290.667 88.5319 290.667 89.3319C290.667 89.9986 289.467 90.6652 288 90.6652C286.533 90.6652 285.333 91.1986 285.333 91.9986C285.333 92.6652 283.467 93.3319 281.2 93.3319C278.533 93.3319 277.333 93.8652 277.733 94.9319C278 95.8652 279.2 96.3986 280.133 96.1319C281.2 95.8652 282.8 95.5986 283.733 95.5986C284.533 95.5986 285.333 95.0652 285.333 94.3986C285.333 93.8652 286.533 93.3319 288 93.3319C289.467 93.3319 290.667 92.6652 290.667 91.9986C290.667 91.1986 291.867 90.6652 293.333 90.6652C294.8 90.6652 296 89.9986 296 89.3319C296 88.5319 297.067 87.9986 298.4 87.9986C299.6 87.9986 301.6 87.3319 302.667 86.6652C304.133 85.7319 303.6 85.3319 300.4 85.3319C298 85.3319 296 85.8652 296 86.6652Z" fill="black"/>
<path d="M122.667 92C122.667 92.6667 123.867 93.3333 125.333 93.3333C126.8 93.3333 128 92.6667 128 92C128 91.2 126.8 90.6667 125.333 90.6667C123.867 90.6667 122.667 91.2 122.667 92Z" fill="black"/>
<path d="M128.667 94.668C128.267 95.3346 129.067 96.0013 130.533 96.0013C132.133 96.0013 133.333 95.3346 133.333 94.668C133.333 93.868 132.533 93.3346 131.467 93.3346C130.4 93.3346 129.067 93.868 128.667 94.668Z" fill="black"/>
<path d="M136 97.3333C136 98 137.2 98.6667 138.667 98.6667C140.133 98.6667 141.333 99.2 141.333 100C141.333 100.667 142.533 101.333 144 101.333C145.467 101.333 146.667 100.667 146.667 100C146.667 99.2 145.467 98.6667 144 98.6667C142.533 98.6667 141.333 98 141.333 97.3333C141.333 96.5333 140.133 96 138.667 96C137.2 96 136 96.5333 136 97.3333Z" fill="black"/>
<path d="M271.6 97.7329C271.067 99.0662 271.867 99.4662 274.133 98.9329C275.867 98.6662 277.333 97.8662 277.333 97.1996C277.333 95.3329 272.4 95.8662 271.6 97.7329Z" fill="black"/>
<path d="M264 99.7332C264 101.6 265.467 102.533 267.467 101.733C270.267 100.667 269.733 98.6665 266.667 98.6665C265.2 98.6665 264 99.1999 264 99.7332Z" fill="black"/>
<path d="M148.933 102.265C149.333 103.199 150.8 103.999 152.133 103.999C153.467 103.999 154.667 104.532 154.667 105.332C154.667 105.999 155.867 106.665 157.333 106.665C158.8 106.665 160 105.999 160 105.332C160 104.532 158.8 103.999 157.333 103.999C155.867 103.999 154.667 103.465 154.667 102.799C154.667 102.132 153.2 101.332 151.467 101.065C149.2 100.532 148.4 100.932 148.933 102.265Z" fill="black"/>
<path d="M258.667 102.668C258.667 103.335 259.867 104.001 261.333 104.001C262.8 104.001 264 103.335 264 102.668C264 101.868 262.8 101.335 261.333 101.335C259.867 101.335 258.667 101.868 258.667 102.668Z" fill="black"/>
<path d="M252.667 105.331C252.267 105.998 250.4 106.665 248.533 106.665C246.8 106.665 245.333 107.198 245.333 107.998C245.333 108.665 244.133 109.331 242.667 109.331C241.2 109.331 240 109.865 240 110.665C240 111.331 238.133 111.998 235.867 111.998C233.2 111.998 232 112.531 232.4 113.598C232.933 115.465 239.067 115.065 239.733 113.198C240 112.531 241.333 111.998 242.8 111.998C244.133 111.998 245.333 111.331 245.333 110.665C245.333 109.865 246.533 109.331 247.867 109.331C249.333 109.331 250.933 108.665 251.333 107.998C251.733 107.198 253.6 106.665 255.467 106.665C257.333 106.665 258.4 106.131 258 105.331C257.6 104.531 256.4 103.998 255.333 103.998C254.267 103.998 253.067 104.531 252.667 105.331Z" fill="black"/>
<path d="M34.6665 107.998C34.6665 109.732 38.6665 109.732 41.3332 107.998C42.7998 107.065 42.2665 106.665 39.0665 106.665C36.6665 106.665 34.6665 107.198 34.6665 107.998Z" fill="black"/>
<path d="M162 108C161.466 108.8 162.666 109.333 164.533 109.333C166.4 109.333 168 108.667 168 108C168 107.2 166.8 106.667 165.466 106.667C164 106.667 162.4 107.2 162 108Z" fill="black"/>
<path d="M42.6665 110.801C42.6665 111.601 43.5998 112.001 44.5332 111.601C45.8665 111.068 46.2665 111.468 45.7332 112.801C45.1998 114.135 46.1332 114.668 49.1998 114.668C51.4665 114.668 53.3332 115.201 53.3332 116.001C53.3332 116.668 54.5332 117.335 55.9998 117.335C57.4665 117.335 58.6665 117.868 58.6665 118.668C58.6665 119.335 59.8665 120.001 61.3332 120.001C62.7998 120.001 63.9998 119.335 63.9998 118.668C63.9998 117.868 62.7998 117.335 61.3332 117.335C59.8665 117.335 58.6665 116.668 58.6665 116.001C58.6665 115.201 57.4665 114.668 55.9998 114.668C54.5332 114.668 53.3332 114.001 53.3332 113.335C53.3332 112.535 52.1332 112.001 50.7998 112.001C49.3332 112.001 47.7332 111.335 47.3332 110.668C46.2665 108.801 42.6665 108.935 42.6665 110.801Z" fill="black"/>
<path d="M170.133 110.531C169.733 111.198 170.4 111.998 171.733 112.398C172.933 112.665 175.067 113.465 176.4 113.998C177.733 114.531 178.667 114.398 178.667 113.465C178.667 112.665 177.467 111.998 176 111.998C174.533 111.998 173.333 111.331 173.333 110.665C173.333 109.065 171.067 108.931 170.133 110.531Z" fill="black"/>
<path d="M371.333 111.6C369.867 112 368.267 112.8 367.867 113.466C367.467 114.133 365.6 114.8 363.733 114.933C361.733 115.066 360.533 115.733 360.8 116.266C361.733 117.866 368 117.6 368 116C368 115.2 369.2 114.666 370.533 114.666C371.867 114.666 373.333 113.733 373.867 112.666C374.267 111.6 374.4 110.8 374.267 110.8C374.133 110.933 372.8 111.333 371.333 111.6Z" fill="black"/>
<path d="M180.667 116C181.067 116.667 182.667 117.333 184.133 117.333C185.467 117.333 186.667 117.867 186.667 118.667C186.667 119.333 188.533 120 190.667 120C192.933 120 194.667 120.533 194.667 121.333C194.667 122 196.133 122.667 197.867 122.667C199.733 122.667 201.6 123.2 202 124C202.4 124.667 205.2 125.333 208.133 125.333C210.933 125.333 213.333 124.667 213.333 124C213.333 123.2 214.533 122.667 215.867 122.667C217.333 122.667 218.933 122 219.333 121.333C219.867 120.533 218.667 120 216.8 120C214.933 120 213.333 120.533 213.333 121.333C213.333 122 210.667 122.667 207.333 122.667C204 122.667 201.333 122 201.333 121.333C201.333 120.533 199.867 120 198 120C196.133 120 194.667 119.333 194.667 118.667C194.667 117.867 192.933 117.333 190.667 117.333C188.533 117.333 186.667 116.667 186.667 116C186.667 115.2 185.067 114.667 183.2 114.667C181.333 114.667 180.133 115.2 180.667 116Z" fill="black"/>
<path d="M226.667 116.001C226.667 116.668 225.467 117.335 224 117.335C222.533 117.335 221.333 117.868 221.333 118.668C221.333 119.335 222.533 120.001 224 120.001C225.467 120.001 226.667 119.335 226.667 118.668C226.667 117.868 227.867 117.335 229.333 117.335C230.8 117.335 232 116.668 232 116.001C232 115.201 230.8 114.668 229.333 114.668C227.867 114.668 226.667 115.201 226.667 116.001Z" fill="black"/>
<path d="M354.666 118.667C354.666 119.333 353.466 120 352 120C350.533 120 349.333 120.533 349.333 121.333C349.333 122 348.133 122.667 346.8 122.667C345.466 122.667 344 123.467 343.6 124.533C343.066 125.867 343.6 126.133 345.466 125.733C346.933 125.333 348.4 124.533 348.8 123.867C349.2 123.2 350.666 122.667 352.133 122.667C353.466 122.667 354.666 122 354.666 121.333C354.666 120.533 355.866 120 357.333 120C358.8 120 360 119.333 360 118.667C360 117.867 358.8 117.333 357.333 117.333C355.866 117.333 354.666 117.867 354.666 118.667Z" fill="black"/>
<path d="M65.9998 121.335C65.4665 122.135 66.6665 122.668 68.5332 122.668C70.3998 122.668 71.9998 123.201 71.9998 124.001C71.9998 124.668 73.1998 125.335 74.6665 125.335C76.1332 125.335 77.3332 125.868 77.3332 126.668C77.3332 127.335 78.5332 128.001 79.9998 128.001C81.4665 128.001 82.6665 127.335 82.6665 126.668C82.6665 125.868 81.4665 125.335 79.9998 125.335C78.5332 125.335 77.3332 124.668 77.3332 124.001C77.3332 123.201 76.1332 122.668 74.6665 122.668C73.1998 122.668 71.9998 122.001 71.9998 121.335C71.9998 120.535 70.7998 120.001 69.4665 120.001C67.9998 120.001 66.3998 120.535 65.9998 121.335Z" fill="black"/>
<path d="M336 126.667C336 127.333 334.8 128 333.333 128C331.867 128 330.667 128.533 330.667 129.333C330.667 130 329.467 130.667 328 130.667C326.533 130.667 325.333 131.2 325.333 132C325.333 132.667 326.533 133.333 328 133.333C329.467 133.333 330.667 132.667 330.667 132C330.667 131.2 331.867 130.667 333.333 130.667C334.8 130.667 336 130 336 129.333C336 128.533 337.2 128 338.667 128C340.133 128 341.333 127.333 341.333 126.667C341.333 125.867 340.133 125.333 338.667 125.333C337.2 125.333 336 125.867 336 126.667Z" fill="black"/>
<path d="M84.9336 128.8C85.3336 129.866 86.8002 130.666 88.1336 130.666C89.4669 130.666 90.6669 131.2 90.6669 132C90.6669 133.6 96.9336 133.866 97.8669 132.266C98.1336 131.733 96.9336 131.066 94.9336 130.933C93.0669 130.8 91.2002 130.133 90.8002 129.6C90.4002 128.933 88.6669 128.133 87.0669 127.733C84.9336 127.2 84.4002 127.466 84.9336 128.8Z" fill="black"/>
<path d="M322.667 131.735C322.667 132.668 321.467 133.335 320.133 133.335C318.667 133.335 317.067 133.868 316.667 134.668C316.133 135.468 317.333 136.001 319.333 136.001C322.533 136.001 325.333 132.801 323.467 131.068C323.067 130.535 322.667 130.935 322.667 131.735Z" fill="black"/>
<path d="M98.6665 134.666C98.6665 135.332 99.8665 135.999 101.333 135.999C102.8 135.999 104 136.532 104 137.199C104 137.866 105.467 138.666 107.333 139.066C109.467 139.466 110.533 139.066 110.267 138.132C110 137.332 108.533 136.532 106.933 136.266C105.333 135.999 104 135.199 104 134.532C104 133.866 102.8 133.332 101.333 133.332C99.8665 133.332 98.6665 133.866 98.6665 134.666Z" fill="black"/>
<path d="M309.333 137.599C309.333 138.132 308.133 138.665 306.667 138.665C305.2 138.665 304 139.199 304 139.999C304 140.665 302.8 141.332 301.333 141.332C299.867 141.332 298.667 141.865 298.667 142.665C298.667 143.332 297.467 143.999 296 143.999C294.533 143.999 293.333 144.532 293.333 145.332C293.333 145.999 294.533 146.665 296 146.665C297.467 146.665 298.667 145.999 298.667 145.332C298.667 144.532 299.867 143.999 301.333 143.999C302.8 143.999 304 143.332 304 142.665C304 141.865 305.2 141.332 306.667 141.332C308.133 141.332 309.333 140.665 309.333 139.999C309.333 139.199 310.533 138.665 312 138.665C313.467 138.665 314.667 138.132 314.667 137.465C314.667 136.665 313.467 136.265 312 136.399C310.533 136.532 309.333 137.065 309.333 137.599Z" fill="black"/>
<path d="M112 140.001C112 140.668 113.2 141.335 114.667 141.335C116.133 141.335 117.333 141.868 117.333 142.668C117.333 143.335 118.533 144.001 120 144.001C121.467 144.001 122.667 143.335 122.667 142.668C122.667 141.868 121.467 141.335 120 141.335C118.533 141.335 117.333 140.668 117.333 140.001C117.333 139.201 116.133 138.668 114.667 138.668C113.2 138.668 112 139.201 112 140.001Z" fill="black"/>
<path d="M124 145.333C122.533 146.267 123.067 146.667 126.4 146.667C128.667 146.667 130.667 147.2 130.667 148C130.667 148.667 131.867 149.333 133.333 149.333C134.8 149.333 136 148.667 136 148C136 147.2 134.8 146.667 133.333 146.667C131.867 146.667 130.667 146 130.667 145.333C130.667 143.6 126.667 143.6 124 145.333Z" fill="black"/>
<path d="M285.333 147.999C285.333 148.666 284.4 149.332 283.2 149.332C280.533 149.332 276.666 153.199 278 154.399C278.533 154.932 279.333 154.532 279.6 153.599C280 152.799 281.333 151.999 282.8 151.999C284.133 151.999 285.333 151.332 285.333 150.666C285.333 149.866 286.533 149.332 288 149.332C289.466 149.332 290.666 148.666 290.666 147.999C290.666 147.199 289.466 146.666 288 146.666C286.533 146.666 285.333 147.199 285.333 147.999Z" fill="black"/>
<path d="M138.667 150.131C138.667 150.531 139.467 151.731 140.533 152.798C142.8 154.931 149.333 155.331 149.333 153.331C149.333 152.531 148.133 151.998 146.667 151.998C145.2 151.998 144 151.331 144 150.664C144 149.864 142.8 149.331 141.333 149.331C139.867 149.331 138.667 149.731 138.667 150.131Z" fill="black"/>
<path d="M266.667 156C266.667 156.667 267.733 157.333 269.067 157.333C270.4 157.333 272.267 158.133 273.2 158.933C274.667 160.267 274.533 160 273.2 157.6C271.333 154.667 266.667 153.467 266.667 156Z" fill="black"/>
<path d="M131.333 161.332C131.733 161.999 132.4 162.665 132.8 162.665C133.067 162.665 133.333 161.999 133.333 161.332C133.333 160.532 132.667 159.999 131.867 159.999C131.2 159.999 130.933 160.532 131.333 161.332Z" fill="black"/>
<path d="M277.333 161.335C277.333 162.001 278.533 162.668 279.867 162.668C281.333 162.668 282.933 163.201 283.333 164.001C283.733 164.668 285.6 165.335 287.467 165.335C289.2 165.335 290.667 165.868 290.667 166.668C290.667 167.335 292.533 168.001 294.667 168.001C296.933 168.001 298.667 167.335 298.667 166.668C298.667 165.868 297.333 165.335 295.6 165.335C293.867 165.335 292 164.801 291.2 164.001C290.533 163.335 288.267 162.535 286.267 162.401C284.267 162.268 282.667 161.601 282.667 161.068C282.667 160.535 281.467 160.001 280 160.001C278.533 160.001 277.333 160.535 277.333 161.335Z" fill="black"/>
<path d="M122.667 164C122.667 164.667 123.333 165.333 124 165.333C124.8 165.333 125.333 164.667 125.333 164C125.333 163.2 124.8 162.667 124 162.667C123.333 162.667 122.667 163.2 122.667 164Z" fill="black"/>
<path d="M114.667 166.665C114.667 167.332 113.467 167.999 112 167.999C110.533 167.999 109.333 168.532 109.333 169.332C109.333 169.999 110.533 170.665 112 170.665C113.467 170.665 114.667 169.999 114.667 169.332C114.667 168.532 115.867 167.999 117.333 167.999C118.8 167.999 120 167.332 120 166.665C120 165.865 118.8 165.332 117.333 165.332C115.867 165.332 114.667 165.865 114.667 166.665Z" fill="black"/>
<path d="M298.667 169.334C298.667 170 299.867 170.667 301.333 170.667C302.8 170.667 304 171.334 304 172.267C304 173.067 304.267 173.467 304.667 173.067C305.067 172.667 305.067 171.334 304.533 170.134C303.6 167.867 298.667 167.067 298.667 169.334Z" fill="black"/>
<path d="M98.6665 171.733C98.6665 172.667 97.4665 173.333 95.9998 173.333C94.5332 173.333 93.3332 173.867 93.3332 174.667C93.3332 175.333 92.1332 176 90.6665 176C89.1998 176 87.9998 176.533 87.9998 177.333C87.9998 178 86.7998 178.667 85.3332 178.667C83.8665 178.667 82.6665 179.2 82.6665 180C82.6665 180.667 83.8665 181.333 85.3332 181.333C86.7998 181.333 87.9998 180.667 87.9998 180C87.9998 179.2 89.1998 178.667 90.6665 178.667C92.1332 178.667 93.3332 178 93.3332 177.333C93.3332 176.533 94.5332 176 95.8665 176C98.2665 176 100.8 172.4 99.3332 170.933C98.9332 170.533 98.6665 170.933 98.6665 171.733Z" fill="black"/>
<path d="M101.333 172C101.333 172.667 102.533 173.333 104 173.333C105.467 173.333 106.667 172.667 106.667 172C106.667 171.2 105.467 170.667 104 170.667C102.533 170.667 101.333 171.2 101.333 172Z" fill="black"/>
<path d="M306.667 172C306.667 172.667 308.133 173.333 310 173.333C311.867 173.333 313.333 172.667 313.333 172C313.333 171.2 311.867 170.667 310 170.667C308.133 170.667 306.667 171.2 306.667 172Z" fill="black"/>
<path d="M313.334 174.667C311.867 175.6 312.4 176 315.734 176C318 176 320 176.533 320 177.333C320 178 321.2 178.667 322.667 178.667C324.134 178.667 325.334 179.2 325.334 180C325.334 180.667 326.534 181.333 328 181.333C329.467 181.333 330.667 180.667 330.667 180C330.667 179.2 329.467 178.667 328 178.667C326.534 178.667 325.334 178 325.334 177.333C325.334 176.533 324.134 176 322.667 176C321.2 176 320 175.333 320 174.667C320 172.933 316 172.933 313.334 174.667Z" fill="black"/>
<path d="M332.4 181.865C332.667 182.665 334.133 183.465 335.733 183.731C337.333 183.998 338.667 184.798 338.667 185.465C338.667 186.131 340.533 186.665 342.667 186.665C344.933 186.665 346.667 187.198 346.667 187.998C346.667 188.665 347.867 189.331 349.333 189.331C350.8 189.331 352 189.865 352 190.665C352 191.331 353.867 191.998 356 191.998C358.267 191.998 360 192.531 360 193.331C360 193.998 361.2 194.665 362.667 194.665C364.133 194.665 365.333 195.198 365.333 195.998C365.333 196.665 366.533 197.331 368 197.331C369.467 197.331 370.667 197.865 370.667 198.665C370.667 199.331 371.6 199.998 372.667 199.998C373.733 199.998 375.733 200.665 377.2 201.465C378.933 202.665 380.133 202.665 382.133 201.465C384.4 199.998 384.267 199.865 380.933 200.398C378.533 200.798 376.933 200.398 376.4 199.198C376 198.131 374.533 197.331 373.2 197.331C371.867 197.331 370.667 196.665 370.667 195.998C370.667 195.198 369.467 194.665 368 194.665C366.533 194.665 365.333 193.998 365.333 193.331C365.333 192.531 364.133 191.998 362.667 191.998C361.2 191.998 360 191.331 360 190.665C360 189.865 358.267 189.331 356 189.331C353.867 189.331 352 188.665 352 187.998C352 187.198 350.8 186.665 349.333 186.665C347.867 186.665 346.667 185.998 346.667 185.331C346.667 184.531 344.933 183.998 342.667 183.998C340.533 183.998 338.667 183.465 338.667 182.798C338.667 182.131 337.2 181.331 335.333 180.931C333.2 180.531 332.133 180.931 332.4 181.865Z" fill="black"/>
<path d="M74.6665 182.667C74.6665 183.333 73.4665 184 71.9998 184C70.5332 184 69.3332 184.533 69.3332 185.333C69.3332 186 67.8665 186.667 66.1332 186.667C64.2665 186.667 62.3998 187.2 61.9998 188C61.5998 188.667 59.9998 189.333 58.5332 189.333C57.1998 189.333 55.9998 189.867 55.9998 190.667C55.9998 191.333 54.2665 192 51.9998 192C49.8665 192 47.9998 192.533 47.9998 193.333C47.9998 194 46.7998 194.667 45.3332 194.667C43.8665 194.667 42.6665 195.2 42.6665 196C42.6665 196.667 41.4665 197.333 39.9998 197.333C38.5332 197.333 37.3332 197.867 37.3332 198.667C37.3332 199.333 36.1332 200 34.6665 200C33.1998 200 31.9998 200.533 31.9998 201.333C31.9998 202 30.7998 202.667 29.3332 202.667C27.8665 202.667 26.6665 203.2 26.6665 204C26.6665 204.667 27.8665 205.333 29.3332 205.333C30.7998 205.333 31.9998 204.667 31.9998 204C31.9998 203.2 33.1998 202.667 34.6665 202.667C36.1332 202.667 37.3332 202 37.3332 201.333C37.3332 200.533 38.5332 200 39.9998 200C41.4665 200 42.6665 199.333 42.6665 198.667C42.6665 197.867 44.1332 197.333 45.9998 197.333C47.8665 197.333 49.3332 196.667 49.3332 196C49.3332 195.2 50.7998 194.667 52.6665 194.667C54.5332 194.667 55.9998 194 55.9998 193.333C55.9998 192.533 57.4665 192 59.3332 192C61.1998 192 62.6665 191.2 62.6665 190.133C62.6665 188.933 63.7332 188.533 65.9998 189.067C67.9998 189.333 69.3332 189.067 69.3332 188.133C69.3332 187.333 70.5332 186.667 71.8665 186.667C73.3332 186.667 74.6665 186.133 74.9332 185.333C75.1998 184.667 76.9332 183.867 78.9332 183.733C80.9332 183.6 82.1332 182.933 81.8665 182.4C80.9332 180.8 74.6665 181.067 74.6665 182.667Z" fill="black"/>
<path d="M202.667 182.668C202.667 183.335 203.867 184.001 205.333 184.001C206.8 184.001 208 183.335 208 182.668C208 181.868 206.8 181.335 205.333 181.335C203.867 181.335 202.667 181.868 202.667 182.668Z" fill="black"/>
<path d="M210.266 183.733C210.4 184.8 210.666 185.867 210.666 186.133C210.666 186.4 212.533 186.667 214.666 186.667C216.933 186.667 218.666 187.2 218.666 188C218.666 188.667 219.866 189.333 221.333 189.333C222.8 189.333 224 189.867 224 190.667C224 191.333 225.2 192 226.666 192C228.133 192 229.333 192.533 229.333 193.333C229.333 194 231.2 194.667 233.333 194.667C235.6 194.667 237.333 195.2 237.333 196C237.333 196.667 238.533 197.333 240 197.333C241.466 197.333 242.666 196.667 242.666 196C242.666 195.2 241.466 194.667 240 194.667C238.533 194.667 237.333 194 237.333 193.333C237.333 192.533 235.6 192 233.333 192C231.2 192 229.333 191.333 229.333 190.667C229.333 189.867 228.133 189.333 226.666 189.333C225.2 189.333 224 188.667 224 188C224 187.2 222.8 186.667 221.333 186.667C219.866 186.667 218.666 186 218.666 185.333C218.666 184.533 216.933 184 214.8 184C212.666 184 210.666 183.6 210.266 182.933C210 182.4 210 182.8 210.266 183.733Z" fill="black"/>
<path d="M194.667 185.333C194.667 186 193.467 186.667 192 186.667C190.533 186.667 189.333 187.2 189.333 188C189.333 188.667 190.533 189.333 192 189.333C193.467 189.333 194.667 188.667 194.667 188C194.667 187.2 195.867 186.667 197.333 186.667C198.8 186.667 200 186 200 185.333C200 184.533 198.8 184 197.333 184C195.867 184 194.667 184.533 194.667 185.333Z" fill="black"/>
<path d="M182.667 190.668C182.667 191.335 183.6 192.001 184.667 192.001C185.733 192.001 186.667 191.335 186.667 190.668C186.667 189.868 185.733 189.335 184.667 189.335C183.6 189.335 182.667 189.868 182.667 190.668Z" fill="black"/>
<path d="M176 193.066C176 193.733 172.933 195.066 169.333 195.999C164 197.466 163.067 198.133 164.8 199.066C166.133 199.866 167.467 199.733 168.4 198.799C169.2 197.999 171.2 197.333 172.933 197.333C174.667 197.333 176 196.666 176 195.999C176 195.199 177.2 194.666 178.667 194.666C180.133 194.666 181.333 193.999 181.333 193.333C181.333 192.533 180.133 191.999 178.667 191.999C177.2 191.999 176 192.533 176 193.066Z" fill="black"/>
<path d="M242.667 198.668C242.667 199.335 243.867 200.001 245.333 200.001C246.8 200.001 248 199.335 248 198.668C248 197.868 246.8 197.335 245.333 197.335C243.867 197.335 242.667 197.868 242.667 198.668Z" fill="black"/>
<path d="M157.333 201.332C157.333 201.999 158.533 202.665 160 202.665C161.467 202.665 162.667 201.999 162.667 201.332C162.667 200.532 161.467 199.999 160 199.999C158.533 199.999 157.333 200.532 157.333 201.332Z" fill="black"/>
<path d="M250.667 201.333C250.667 202 251.867 202.667 253.333 202.667C254.8 202.667 256 203.2 256 204C256 204.667 257.2 205.333 258.667 205.333C260.133 205.333 261.333 205.867 261.333 206.667C261.333 207.333 262.8 208 264.533 208C266.4 208 268.267 208.533 268.667 209.333C269.067 210 270.667 210.667 272.133 210.667C273.467 210.667 274.667 211.2 274.667 212C274.667 212.667 275.867 213.333 277.333 213.333C278.8 213.333 280 212.667 280 212C280 211.2 278.8 210.667 277.333 210.667C275.867 210.667 274.667 210 274.667 209.333C274.667 208.533 273.067 208 271.2 208C269.333 208 268.133 207.467 268.533 206.933C268.8 206.4 267.6 205.733 265.6 205.6C263.6 205.467 261.867 204.667 261.6 204C261.333 203.2 260 202.667 258.533 202.667C257.2 202.667 256 202 256 201.333C256 200.533 254.8 200 253.333 200C251.867 200 250.667 200.533 250.667 201.333Z" fill="black"/>
<path d="M148.4 204.401C143.467 206.001 142.533 208.001 146.667 208.001C148.133 208.001 149.333 207.335 149.333 206.668C149.333 205.868 151.333 205.335 153.733 205.335C156.933 205.335 157.467 204.935 156 204.001C154.933 203.335 153.733 202.801 153.333 202.935C152.933 202.935 150.667 203.735 148.4 204.401Z" fill="black"/>
<path d="M384 203.999C384 204.666 385.2 205.333 386.667 205.333C388.133 205.333 389.333 205.866 389.333 206.666C389.333 207.333 390.533 207.999 392 207.999C393.467 207.999 394.667 208.666 394.667 209.466C394.667 210.399 396 210.666 397.867 210.399C399.867 209.999 400.933 210.266 400.533 211.199C400.133 212.133 401.6 212.933 404 213.066C406.133 213.199 408 212.799 408 211.999C408 211.333 406.8 210.666 405.333 210.666C403.867 210.666 402.667 209.999 402.667 209.333C402.667 208.533 400.933 207.999 398.667 207.999C396.533 207.999 394.667 207.333 394.667 206.666C394.667 205.866 393.467 205.333 392 205.333C390.533 205.333 389.333 204.666 389.333 203.999C389.333 203.199 388.133 202.666 386.667 202.666C385.2 202.666 384 203.199 384 203.999Z" fill="black"/>
<path d="M18.6668 206.665C18.6668 207.332 17.4668 207.999 16.0002 207.999C14.5335 207.999 13.3335 208.532 13.3335 209.332C13.3335 209.999 14.5335 210.665 16.0002 210.665C17.4668 210.665 18.6668 209.999 18.6668 209.332C18.6668 208.532 20.1335 207.999 22.0002 207.999C23.8668 207.999 25.3335 207.332 25.3335 206.665C25.3335 205.865 23.8668 205.332 22.0002 205.332C20.1335 205.332 18.6668 205.865 18.6668 206.665Z" fill="black"/>
<path d="M139.6 207.732C138.4 207.999 137.6 208.799 138 209.465C138.533 210.132 136.933 210.665 134.8 210.665C132.533 210.665 130.667 211.199 130.667 211.999C130.667 212.665 129.467 213.332 128 213.332C126.533 213.332 125.333 213.865 125.333 214.665C125.333 215.332 124.133 215.999 122.667 215.999C121.2 215.999 120 216.532 120 217.332C120 217.999 121.2 218.665 122.667 218.665C124.133 218.665 125.333 217.999 125.333 217.332C125.333 216.532 126.533 215.999 128 215.999C129.467 215.999 130.667 215.465 130.667 214.932C130.667 214.265 133.733 212.932 137.333 211.999C143.6 210.265 145.467 208.932 143.067 207.599C142.4 207.332 140.933 207.332 139.6 207.732Z" fill="black"/>
<path d="M7.2 212.665C5.33333 214.532 3.06667 215.999 2 215.999C0.4 215.999 0 219.065 0 233.332C0 243.999 0.533333 250.665 1.33333 250.665C2.13333 250.665 2.66667 244.665 2.66667 235.332C2.66667 220.665 2.8 219.732 6 216.665C7.73333 214.799 9.86667 213.332 10.6667 213.332C11.3333 213.332 12 212.399 12 211.332C12 208.532 11.0667 208.799 7.2 212.665Z" fill="black"/>
<path d="M282.667 214.668C282.667 215.335 283.867 216.001 285.333 216.001C286.8 216.001 288 216.535 288 217.335C288 218.001 289.2 218.668 290.667 218.668C292.133 218.668 293.333 219.201 293.333 220.001C293.333 220.668 294.533 221.335 296 221.335C297.467 221.335 298.667 221.868 298.667 222.668C298.667 223.335 299.867 224.001 301.333 224.001C302.8 224.001 304 223.335 304 222.668C304 221.868 302.8 221.335 301.333 221.335C299.867 221.335 298.667 220.668 298.667 220.001C298.667 219.201 297.467 218.668 296 218.668C294.533 218.668 293.333 218.001 293.333 217.335C293.333 216.535 292.133 216.001 290.667 216.001C289.2 216.001 288 215.335 288 214.668C288 213.868 286.8 213.335 285.333 213.335C283.867 213.335 282.667 213.868 282.667 214.668Z" fill="black"/>
<path d="M410.667 214.535C410.667 216.002 414.133 217.468 415.2 216.402C416.8 214.802 415.867 213.335 413.333 213.335C411.867 213.335 410.667 213.868 410.667 214.535Z" fill="black"/>
<path d="M416 217.333C416 218 417.2 218.667 418.667 218.667C420.133 218.667 421.333 219.2 421.333 220C421.333 220.667 422.533 221.333 424 221.333C425.467 221.333 426.667 220.667 426.667 220C426.667 219.2 425.467 218.667 424 218.667C422.533 218.667 421.333 218 421.333 217.333C421.333 216.533 420.133 216 418.667 216C417.2 216 416 216.533 416 217.333Z" fill="black"/>
<path d="M112 220C112 220.667 110.8 221.333 109.333 221.333C107.867 221.333 106.667 221.867 106.667 222.667C106.667 223.333 105.467 224 104 224C102.533 224 101.333 224.533 101.333 225.333C101.333 226 100.133 226.667 98.6667 226.667C97.2 226.667 96 227.2 96 228C96 228.667 96.8 229.333 97.8667 229.333C98.9333 229.333 100.267 228.667 100.667 228C101.067 227.2 102.667 226.667 104.133 226.667C105.467 226.667 106.667 226 106.667 225.333C106.667 224.533 107.867 224 109.333 224C110.8 224 112 223.333 112 222.667C112 221.867 113.2 221.333 114.667 221.333C116.133 221.333 117.333 220.667 117.333 220C117.333 219.2 116.133 218.667 114.667 218.667C113.2 218.667 112 219.2 112 220Z" fill="black"/>
<path d="M428.933 222.267C429.333 223.2 430.8 224 432.133 224C433.467 224 434.667 224.533 434.667 225.333C434.667 226 435.867 226.667 437.333 226.667C438.8 226.667 440 227.2 440 228C440 228.667 441.2 229.333 442.667 229.333C444.133 229.333 445.333 228.667 445.333 228C445.333 227.2 444.133 226.667 442.667 226.667C441.2 226.667 440 226 440 225.333C440 224.533 438.8 224 437.333 224C435.867 224 434.667 223.467 434.667 222.8C434.667 222.133 433.2 221.333 431.467 221.067C429.2 220.533 428.4 220.933 428.933 222.267Z" fill="black"/>
<path d="M306.667 225.333C306.667 226 307.867 226.667 309.2 226.667C310.667 226.667 312.267 227.2 312.667 228C313.067 228.667 314.4 229.333 315.467 229.333C316.533 229.333 317.333 228.667 317.333 228C317.333 227.2 316.133 226.667 314.667 226.667C313.2 226.667 312 226 312 225.333C312 224.533 310.8 224 309.333 224C307.867 224 306.667 224.533 306.667 225.333Z" fill="black"/>
<path d="M91.9998 229.199C90.9332 229.999 89.5998 230.132 89.0665 229.865C88.5332 229.465 87.9998 229.865 87.9998 230.532C87.9998 231.332 86.7998 231.999 85.3332 231.999C83.8665 231.999 82.6665 232.532 82.6665 233.332C82.6665 233.999 83.8665 234.665 85.3332 234.665C86.7998 234.665 87.9998 233.999 87.9998 233.332C87.9998 232.532 89.1998 231.999 90.5332 231.999C91.8665 231.999 93.3332 231.065 93.8665 229.999C94.6665 227.732 94.6665 227.599 91.9998 229.199Z" fill="black"/>
<path d="M320 230.668C320 231.335 321.2 232.001 322.667 232.001C324.133 232.001 325.333 231.335 325.333 230.668C325.333 229.868 324.133 229.335 322.667 229.335C321.2 229.335 320 229.868 320 230.668Z" fill="black"/>
<path d="M448 230.668C448 231.335 449.2 232.001 450.667 232.001C452.133 232.001 453.333 231.335 453.333 230.668C453.333 229.868 452.133 229.335 450.667 229.335C449.2 229.335 448 229.868 448 230.668Z" fill="black"/>
<path d="M327.333 233.332C326.933 233.999 327.467 234.665 328.533 234.665C329.6 234.665 330.933 233.999 331.333 233.332C331.733 232.532 331.2 231.999 330.133 231.999C329.067 231.999 327.733 232.532 327.333 233.332Z" fill="black"/>
<path d="M454.667 233.332C454.667 233.999 455.6 234.665 456.667 234.665C457.733 234.665 458.667 233.999 458.667 233.332C458.667 232.532 457.733 231.999 456.667 231.999C455.6 231.999 454.667 232.532 454.667 233.332Z" fill="black"/>
<path d="M74.6667 235.998C74.6667 236.665 73.4667 237.331 72 237.331C70.5333 237.331 69.3333 237.865 69.3333 238.665C69.3333 239.331 68.1333 239.998 66.6667 239.998C65.2 239.998 64 240.665 64 241.465C64 242.398 64.9333 242.531 66.4 241.998C67.6 241.465 70 240.665 71.7333 240.398C73.3333 239.998 74.6667 239.198 74.6667 238.531C74.6667 237.865 75.8667 237.331 77.3333 237.331C78.8 237.331 80 236.665 80 235.998C80 235.198 78.8 234.665 77.3333 234.665C75.8667 234.665 74.6667 235.198 74.6667 235.998Z" fill="black"/>
<path d="M333.333 236C333.333 236.667 334.533 237.333 336 237.333C337.467 237.333 338.667 236.667 338.667 236C338.667 235.2 337.467 234.667 336 234.667C334.533 234.667 333.333 235.2 333.333 236Z" fill="black"/>
<path d="M339.467 236.798C338.267 239.865 338.4 239.998 341.067 239.998C342.4 239.998 344.133 240.665 345.067 241.598C346 242.531 346.667 242.798 346.667 242.265C346.667 241.598 345.2 239.731 343.467 237.998C340.8 235.331 340.133 235.198 339.467 236.798Z" fill="black"/>
<path d="M462.667 235.998C465.2 237.732 466.667 237.732 466.667 235.998C466.667 235.198 465.333 234.665 463.733 234.665C461.2 234.665 461.067 234.932 462.667 235.998Z" fill="black"/>
<path d="M469.333 238.668C469.333 239.335 470 240.001 470.667 240.001C471.467 240.001 472 239.335 472 238.668C472 237.868 471.467 237.335 470.667 237.335C470 237.335 469.333 237.868 469.333 238.668Z" fill="black"/>
<path d="M472 241.335C472 242.001 473.2 242.668 474.667 242.668C477.2 242.668 477.333 243.601 477.333 266.135C477.333 280.001 477.867 289.201 478.533 288.801C479.2 288.268 479.867 277.201 480 264.001L480.133 240.001H476C473.867 240.001 472 240.535 472 241.335Z" fill="black"/>
<path d="M58.2669 244.534C55.3336 246.8 55.2002 256.667 58.0002 259.6C59.2002 260.667 60.5336 261.2 61.0669 260.667C61.6002 260.134 61.2002 259.334 60.4002 259.067C59.3336 258.667 58.6669 256 58.6669 252C58.6669 246.934 59.2002 245.467 61.0669 245.067C62.2669 244.8 62.6669 244.267 62.0002 243.734C61.2002 243.334 59.6002 243.6 58.2669 244.534Z" fill="black"/>
<path d="M344 252C344 252.667 344.667 253.333 345.333 253.333C346.133 253.333 346.667 252.667 346.667 252C346.667 251.2 346.133 250.667 345.333 250.667C344.667 250.667 344 251.2 344 252Z" fill="black"/>
<path d="M3.73317 252.8C2.13316 254.267 2.39983 261.333 3.99983 261.333C4.79983 261.333 5.33317 263.067 5.33317 265.333C5.33317 267.467 5.99983 269.333 6.6665 269.333C8.39983 269.333 8.39983 263.6 6.79983 261.867C6.13317 261.2 5.33317 258.667 5.0665 256.267C4.79983 253.733 4.2665 252.267 3.73317 252.8Z" fill="black"/>
<path d="M340 256.001C338.933 257.601 336.533 258.668 334.4 258.668C332.4 258.668 330.667 259.201 330.667 260.001C330.667 260.934 285.067 261.334 196.533 261.334C107.6 261.334 62.8 261.734 63.3333 262.668C64.5333 264.534 330.667 264.534 330.667 262.668C330.667 261.868 332.4 261.334 334.4 261.334C336.533 261.334 338.933 260.268 340 258.668C341.067 257.201 342.667 256.001 343.733 256.001C344.667 256.001 345.067 255.334 344.667 254.668C343.467 252.668 342.133 253.068 340 256.001Z" fill="black"/>
<path d="M392 262.668C392 263.335 392.667 264.001 393.467 264.001C394.133 264.001 394.4 263.335 394 262.668C393.6 261.868 392.933 261.335 392.533 261.335C392.267 261.335 392 261.868 392 262.668Z" fill="black"/>
<path d="M398.4 264C401.333 266.8 405.333 267.6 405.333 265.333C405.333 264.533 404.133 264 402.667 264C401.2 264 400 263.333 400 262.667C400 261.867 398.933 261.333 397.733 261.333C395.867 261.333 395.867 261.733 398.4 264Z" fill="black"/>
<path d="M390.4 266.133C389.733 266.666 389.333 268.666 389.333 270.533C389.333 272.933 389.733 273.466 390.8 272.399C391.6 271.599 392 269.599 391.733 267.999C391.6 266.399 390.933 265.599 390.4 266.133Z" fill="black"/>
<path d="M8.66674 269.868C8.00007 272.668 8.00007 274.001 9.06674 274.401C10.0001 274.668 10.6667 275.735 10.6667 276.935C10.6667 278.001 12.5334 280.668 14.6667 282.668C16.9334 284.668 18.6667 287.335 18.6667 288.535C18.6667 289.735 19.6001 290.668 20.6667 290.668C21.7334 290.668 22.6667 291.201 22.6667 292.001C22.6667 292.668 23.6001 293.335 24.6667 293.335C25.7334 293.335 26.6667 294.001 26.6667 294.801C26.6667 295.601 27.6001 296.001 28.5334 295.601C29.8667 295.068 30.2667 295.468 29.7334 296.801C29.3334 298.001 30.0001 298.668 31.8667 298.668C33.4667 298.668 34.6667 299.201 34.6667 300.001C34.6667 300.668 35.8667 301.335 37.3334 301.335C38.8001 301.335 40.0001 301.868 40.0001 302.668C40.0001 303.335 41.2001 304.001 42.6667 304.001C44.1334 304.001 45.3334 303.335 45.3334 302.668C45.3334 301.868 44.1334 301.335 42.6667 301.335C41.2001 301.335 40.0001 300.668 40.0001 300.001C40.0001 299.201 38.8001 298.668 37.3334 298.668C35.8667 298.668 34.6667 298.135 34.6667 297.601C34.6667 296.935 33.0667 295.601 31.0667 294.535C26.0001 292.001 13.3334 279.201 13.3334 276.668C13.3334 275.601 12.8001 274.668 12.1334 274.668C11.3334 274.668 10.6667 272.668 10.4001 270.268L9.86674 266.001L8.66674 269.868Z" fill="black"/>
<path d="M407.333 268.001C406.8 268.801 408 269.335 409.867 269.335C411.733 269.335 413.333 269.868 413.333 270.668C413.333 271.335 414.533 272.001 416 272.001C417.467 272.001 418.667 271.335 418.667 270.668C418.667 269.868 417.467 269.335 416 269.335C414.533 269.335 413.333 268.668 413.333 268.001C413.333 267.201 412.133 266.668 410.8 266.668C409.333 266.668 407.733 267.201 407.333 268.001Z" fill="black"/>
<path d="M386.667 274.932C386.667 277.065 386.133 278.665 385.333 278.665C384.667 278.665 384 279.332 384 279.999C384 282.132 369.6 295.999 367.333 295.999C366.267 295.999 365.333 296.532 365.333 297.332C365.333 297.999 364.133 298.665 362.667 298.665C361.2 298.665 360 299.065 360 299.732C360 300.932 350.4 303.999 346.667 303.999C345.2 303.999 344 304.532 344 305.332C344 305.999 345.867 306.665 348 306.665C350.267 306.665 352 305.999 352 304.932C352 303.865 352.533 303.999 353.333 305.332C354.133 306.665 354.667 306.799 354.667 305.599C354.667 304.799 355.867 303.999 357.333 303.999C358.8 303.999 360 303.332 360 302.665C360 301.865 361.2 301.332 362.667 301.332C364.133 301.332 365.333 300.665 365.333 299.999C365.333 299.199 366.267 298.665 367.333 298.665C369.867 298.665 389.333 279.465 389.333 277.065C389.333 276.132 388.667 274.399 388 273.332C386.933 271.732 386.667 272.132 386.667 274.932Z" fill="black"/>
<path d="M421.333 273.335C421.333 274.001 422.533 274.668 424 274.668C425.467 274.668 426.667 275.201 426.667 276.001C426.667 276.668 427.867 277.335 429.333 277.335C430.8 277.335 432 277.868 432 278.668C432 279.335 433.467 280.001 435.2 280.001C437.067 280.001 438.933 280.535 439.333 281.335C439.733 282.001 441.333 282.668 442.8 282.668C444.133 282.668 445.333 283.201 445.333 284.001C445.333 284.668 447.2 285.335 449.333 285.335C451.6 285.335 453.333 285.868 453.333 286.668C453.333 287.335 454.533 288.001 456 288.001C457.467 288.001 458.667 287.335 458.667 286.668C458.667 285.868 457.467 285.335 456 285.335C454.533 285.335 453.333 284.668 453.333 284.001C453.333 283.201 451.6 282.668 449.333 282.668C447.2 282.668 445.333 282.001 445.333 281.335C445.333 280.535 444.133 280.001 442.667 280.001C441.2 280.001 440 279.335 440 278.668C440 277.868 438.267 277.335 436 277.335C433.867 277.335 432 276.668 432 276.001C432 275.201 430.8 274.668 429.333 274.668C427.867 274.668 426.667 274.001 426.667 273.335C426.667 272.535 425.467 272.001 424 272.001C422.533 272.001 421.333 272.535 421.333 273.335Z" fill="black"/>
<path d="M461.333 289.332C461.333 289.999 462.533 290.665 464 290.665C465.467 290.665 466.667 289.999 466.667 289.332C466.667 288.532 465.467 287.999 464 287.999C462.533 287.999 461.333 288.532 461.333 289.332Z" fill="black"/>
<path d="M469.333 292C469.333 292.667 470.533 293.333 472 293.333C473.467 293.333 474.667 292.667 474.667 292C474.667 291.2 473.467 290.667 472 290.667C470.533 290.667 469.333 291.2 469.333 292Z" fill="black"/>
<path d="M47.6001 304.8C48.0001 305.866 49.3334 306.666 50.6667 306.666C52.1334 306.666 53.6001 307.2 54.0001 308C55.2001 309.866 344 309.866 344 308C344 307.066 295.6 306.666 199.067 306.666C119.333 306.666 53.8667 306.266 53.4667 305.6C53.0667 304.933 51.3334 304.133 49.7334 303.733C47.6001 303.2 47.0667 303.466 47.6001 304.8Z" fill="black"/>
</svg>
