<svg width="227" height="379" viewBox="0 0 227 379" fill="none" xmlns="http://www.w3.org/2000/svg">
<path d="M0.0689329 154.135C-0.0644005 253.868 0.468933 307.868 1.26893 307.335C2.06893 306.801 2.60227 252.535 2.46893 156.268C2.46893 73.6013 2.46893 5.20128 2.60227 4.26795C2.60227 3.06795 11.8023 2.66795 43.9356 2.66795H85.2689V189.201V375.735L43.9356 375.868L2.60227 376.001L2.46893 352.401C2.46893 339.335 2.46893 324.268 2.60227 318.935C2.7356 313.068 2.20227 309.335 1.40227 309.335C-0.0644005 309.335 -0.597734 373.068 0.868933 376.801C1.40227 378.401 8.3356 378.668 44.7356 378.668H87.9356V189.335V0.00128233H44.0689H0.202266L0.0689329 154.135Z" fill="black"/>
<path d="M135.936 189.335V378.535L181.269 378.668H226.602V189.335V0.00128233H181.269H135.936V189.335ZM223.936 189.335V376.001H181.269H138.602V189.335V2.66795H181.269H223.936V189.335Z" fill="black"/>
</svg>
