<svg width="494" height="368" viewBox="0 0 494 368" fill="none" xmlns="http://www.w3.org/2000/svg">
<path d="M128.895 4.00006C128.895 6.13339 129.428 8.00006 130.228 8.00006C130.895 8.00006 131.295 7.06673 130.895 6.00006C129.695 3.20006 132.228 2.13339 138.895 2.53339C142.228 2.66673 144.628 2.13339 144.628 1.33339C144.628 0.533394 141.428 6.06179e-05 136.895 6.06179e-05C129.028 6.06179e-05 129.028 6.06179e-05 128.895 4.00006Z" fill="black"/>
<path d="M148.628 3.99876C148.628 4.66543 150.095 5.33209 151.962 5.33209C153.828 5.33209 155.295 4.66543 155.295 3.99876C155.295 3.19876 153.828 2.66543 151.962 2.66543C150.095 2.66543 148.628 3.19876 148.628 3.99876Z" fill="black"/>
<path d="M159.295 6.66673C157.695 7.73339 157.829 8.00006 160.362 8.00006C161.962 8.00006 163.295 7.33339 163.295 6.66673C163.295 4.93339 161.829 4.93339 159.295 6.66673Z" fill="black"/>
<path d="M132.362 8.79876C130.762 10.2654 131.029 15.9988 132.629 15.9988C133.429 15.9988 133.962 17.4654 133.962 19.3321C133.962 21.1988 134.762 22.6654 135.829 22.6654C137.029 22.6654 137.429 23.7321 136.895 25.9988C136.629 27.9988 136.895 29.3321 137.829 29.3321C138.629 29.3321 139.295 27.4654 139.295 25.3321C139.295 23.0654 138.762 21.3321 137.962 21.3321C137.295 21.3321 136.629 20.1321 136.629 18.6654C136.629 17.1988 136.095 15.9988 135.429 15.9988C134.629 15.9988 133.962 14.1321 133.695 11.8654C133.429 9.59876 132.895 8.26542 132.362 8.79876Z" fill="black"/>
<path d="M165.962 9.60137C165.962 10.1347 167.162 10.668 168.495 10.668C169.962 10.668 171.429 11.2014 171.829 11.868C172.229 12.5347 173.695 13.3347 175.162 13.7347C177.029 14.1347 177.562 13.868 177.029 12.4014C176.629 11.3347 175.429 10.8014 174.362 11.2014C173.429 11.6014 172.229 11.068 171.829 10.1347C171.029 8.1347 165.962 7.7347 165.962 9.60137Z" fill="black"/>
<path d="M179.295 14.6667C179.295 15.3334 179.962 16.0001 180.629 16.0001C181.429 16.0001 181.962 15.3334 181.962 14.6667C181.962 13.8667 181.429 13.3334 180.629 13.3334C179.962 13.3334 179.295 13.8667 179.295 14.6667Z" fill="black"/>
<path d="M183.962 17.3315C183.562 17.9982 184.095 18.6648 185.162 18.6648C186.362 18.6648 187.295 19.3315 187.295 20.1315C187.295 20.9315 188.229 21.1982 189.295 20.7982C190.495 20.3982 191.695 20.9315 192.095 21.9982C193.029 24.1315 195.295 24.7982 195.295 22.7982C195.295 22.1315 193.562 20.7982 191.295 19.7315C189.162 18.7982 187.295 17.5982 187.295 17.0648C187.295 15.5982 184.895 15.7315 183.962 17.3315Z" fill="black"/>
<path d="M197.295 25.3318C196.895 25.9985 197.429 26.6652 198.495 26.6652C199.695 26.6652 200.629 27.1985 200.629 27.7318C200.629 28.2652 201.829 28.7985 203.295 28.9318C204.762 29.0652 205.962 28.6652 205.962 27.8652C205.962 27.1985 204.762 26.6652 203.295 26.6652C201.829 26.6652 200.629 25.9985 200.629 25.3318C200.629 24.5318 200.095 23.9985 199.429 23.9985C198.629 23.9985 197.695 24.5318 197.295 25.3318Z" fill="black"/>
<path d="M163.295 27.466C163.295 28.7994 167.429 32.266 168.229 31.5994C168.629 31.1994 167.962 29.866 166.895 28.666C164.762 26.666 163.295 26.1327 163.295 27.466Z" fill="black"/>
<path d="M205.295 30.6667C204.895 31.3334 205.429 32.0001 206.495 32.0001C207.695 32.0001 208.629 31.3334 208.629 30.6667C208.629 29.8667 208.095 29.3334 207.429 29.3334C206.629 29.3334 205.695 29.8667 205.295 30.6667Z" fill="black"/>
<path d="M139.295 32.668C139.295 33.7347 139.962 34.668 140.629 34.668C141.429 34.668 141.962 33.7347 141.962 32.668C141.962 31.6014 141.429 30.668 140.629 30.668C139.962 30.668 139.295 31.6014 139.295 32.668Z" fill="black"/>
<path d="M171.295 32.7993C171.295 34.3993 177.029 38.666 178.095 37.866C180.229 36.5326 179.295 34.666 176.629 34.666C175.162 34.666 173.962 33.9993 173.962 33.3326C173.962 32.5326 173.429 31.9993 172.629 31.9993C171.962 31.9993 171.295 32.3993 171.295 32.7993Z" fill="black"/>
<path d="M165.962 35.9988C165.962 36.6654 166.629 37.3321 167.295 37.3321C168.095 37.3321 168.629 36.6654 168.629 35.9988C168.629 35.1988 168.095 34.6654 167.295 34.6654C166.629 34.6654 165.962 35.1988 165.962 35.9988Z" fill="black"/>
<path d="M213.962 35.3347C213.962 35.7347 216.095 38.1347 218.629 40.8014C222.362 44.5347 223.829 45.2014 225.695 44.1347C227.829 42.8014 227.829 42.8014 225.562 42.6681C224.095 42.6681 221.295 40.8014 219.295 38.6681C215.829 34.9347 213.962 33.7347 213.962 35.3347Z" fill="black"/>
<path d="M141.962 40.0014C141.962 41.468 142.629 42.668 143.295 42.668C144.095 42.668 144.629 41.468 144.629 40.0014C144.629 38.5347 144.095 37.3347 143.295 37.3347C142.629 37.3347 141.962 38.5347 141.962 40.0014Z" fill="black"/>
<path d="M179.295 38.1338C179.295 38.5338 180.095 39.7338 181.162 40.8005C183.429 42.9338 187.295 43.3338 187.295 41.3338C187.295 40.5338 186.095 40.0005 184.629 40.0005C183.162 40.0005 181.962 39.3338 181.962 38.6671C181.962 37.8671 181.429 37.3338 180.629 37.3338C179.962 37.3338 179.295 37.7338 179.295 38.1338Z" fill="black"/>
<path d="M168.628 44.0001C168.628 46.1334 169.295 48.0001 169.962 48.0001C170.762 48.0001 171.295 46.1334 171.295 44.0001C171.295 41.7334 170.762 40.0001 169.962 40.0001C169.295 40.0001 168.628 41.7334 168.628 44.0001Z" fill="black"/>
<path d="M188.229 43.6005C187.029 44.6672 193.562 50.6672 195.962 50.6672C197.162 50.6672 197.695 51.2005 197.295 52.0005C196.895 52.6672 197.295 53.3338 198.495 53.3338C199.562 53.3338 200.629 54.1338 201.029 54.9338C201.295 55.8672 202.095 56.2672 202.629 55.7338C203.695 54.6672 198.495 49.3338 196.495 49.3338C195.962 49.3338 193.962 47.8672 192.229 46.1338C190.362 44.2672 188.629 43.2005 188.229 43.6005Z" fill="black"/>
<path d="M144.628 49.3331C144.628 51.4664 145.295 53.3331 145.962 53.3331C146.762 53.3331 147.295 55.7331 147.295 58.5331C147.295 61.9998 147.962 63.9998 149.428 64.5331C150.495 64.9331 151.162 64.7998 150.762 64.2664C150.362 63.5998 149.962 60.9331 149.695 58.2664C149.562 55.4664 148.895 53.3331 148.362 53.3331C147.828 53.3331 147.295 51.4664 147.295 49.3331C147.295 47.0664 146.762 45.3331 145.962 45.3331C145.295 45.3331 144.628 47.0664 144.628 49.3331Z" fill="black"/>
<path d="M224.628 46.6667C224.628 47.3334 225.295 48.0001 225.962 48.0001C226.762 48.0001 227.295 47.3334 227.295 46.6667C227.295 45.8667 226.762 45.3334 225.962 45.3334C225.295 45.3334 224.628 45.8667 224.628 46.6667Z" fill="black"/>
<path d="M227.295 48.6684C227.295 49.0684 228.895 51.0684 230.762 52.935C233.295 55.4684 234.495 56.0017 235.695 54.8017C236.762 53.735 236.762 53.335 235.429 53.335C234.495 53.335 234.229 52.6684 234.762 51.735C235.295 50.8017 235.162 50.6684 234.229 51.2017C233.295 51.735 232.629 51.335 232.629 50.135C232.629 48.935 231.429 48.0017 229.962 48.0017C228.495 48.0017 227.295 48.2684 227.295 48.6684Z" fill="black"/>
<path d="M172.095 53.7319C171.429 55.7319 171.295 57.8652 171.829 58.2652C173.295 59.7319 174.229 57.5985 173.695 53.7319L173.162 49.9985L172.095 53.7319Z" fill="black"/>
<path d="M254.495 55.3319C253.962 56.5319 254.895 58.3985 256.495 59.8652C257.962 61.1985 259.295 62.9319 259.295 63.7319C259.295 65.4652 268.762 74.9319 269.562 74.1319C269.962 73.7319 268.095 71.3319 265.429 68.6652C262.762 66.1319 260.629 63.4652 260.629 62.7985C260.629 62.2652 259.429 60.3985 257.962 58.6652C256.495 57.0652 255.695 55.0652 256.095 54.5319C256.495 53.8652 256.495 53.3319 255.962 53.3319C255.562 53.3319 254.895 54.2652 254.495 55.3319Z" fill="black"/>
<path d="M235.295 57.3329C235.295 59.0662 236.762 59.0662 239.295 57.3329C240.895 56.2662 240.762 55.9995 238.362 55.9995C236.629 55.9995 235.295 56.5329 235.295 57.3329Z" fill="black"/>
<path d="M264.628 56.7981C264.628 58.1314 268.762 61.5981 269.562 60.9314C269.962 60.5314 269.295 59.1981 268.228 57.9981C266.095 55.9981 264.628 55.4647 264.628 56.7981Z" fill="black"/>
<path d="M207.962 61.3334C209.295 62.8001 210.628 64.0001 211.028 64.0001C211.428 64.0001 210.628 62.8001 209.295 61.3334C207.962 59.8667 206.628 58.6667 206.228 58.6667C205.828 58.6667 206.628 59.8667 207.962 61.3334Z" fill="black"/>
<path d="M237.962 59.4678C237.962 59.8678 238.895 61.0678 239.962 62.2678C242.629 64.8011 244.229 63.4678 241.962 60.6678C240.362 58.6678 237.962 58.0011 237.962 59.4678Z" fill="black"/>
<path d="M174.895 62.2682C173.562 63.6015 173.828 75.7349 175.162 76.6682C175.962 77.0682 176.362 74.0015 176.362 69.3349C176.228 64.9349 176.095 61.3349 175.962 61.3349C175.828 61.3349 175.295 61.7349 174.895 62.2682Z" fill="black"/>
<path d="M272.628 62.5335C272.628 63.2002 273.828 64.2668 275.295 64.6668C276.762 65.0668 278.895 66.4002 279.962 67.6002C281.162 68.6668 282.495 69.3335 282.895 68.9335C283.962 67.7335 279.828 64.0002 277.428 64.0002C276.228 64.0002 275.295 63.3335 275.295 62.6668C275.295 61.8668 274.762 61.3335 273.962 61.3335C273.295 61.3335 272.628 61.8668 272.628 62.5335Z" fill="black"/>
<path d="M213.962 66.2654C213.962 67.9988 214.629 69.3321 215.295 69.3321C217.029 69.3321 217.029 67.8654 215.295 65.3321C214.229 63.7321 213.962 63.8654 213.962 66.2654Z" fill="black"/>
<path d="M150.095 74.9329C149.962 80.9329 150.228 82.7995 151.295 81.3329C152.895 78.9329 153.028 66.6662 151.562 66.6662C150.895 66.6662 150.228 70.3995 150.095 74.9329Z" fill="black"/>
<path d="M245.962 67.4654C245.962 67.8654 248.362 70.5321 251.295 73.3321C254.095 76.1321 256.762 79.1988 256.895 80.1321C257.295 82.1321 259.962 85.3321 261.162 85.3321C263.829 85.3321 260.895 80.2654 254.629 73.9988C247.695 67.0654 245.962 65.7321 245.962 67.4654Z" fill="black"/>
<path d="M284.628 69.0657C284.628 70.799 285.428 71.999 286.628 71.999C287.695 71.999 288.628 72.5324 288.628 73.3324C288.628 73.999 289.562 74.6657 290.762 74.6657C291.962 74.6657 294.628 76.399 296.628 78.6657C298.628 80.799 301.028 82.6657 301.828 82.6657C302.762 82.6657 307.695 86.9324 312.762 92.1324C317.962 97.3324 322.495 101.199 323.028 100.666C323.562 100.132 323.162 99.3324 322.362 99.0657C321.428 98.6657 320.628 97.599 320.628 96.5324C320.628 95.4657 320.095 94.6657 319.295 94.6657C318.628 94.6657 314.762 91.3324 310.762 87.3324C306.628 83.3324 302.628 79.8657 301.695 79.7324C300.762 79.4657 298.495 77.8657 296.628 75.999C294.762 74.1324 292.362 72.5324 291.428 72.2657C290.362 71.999 288.362 70.5324 287.028 69.0657L284.628 66.2657V69.0657Z" fill="black"/>
<path d="M217.429 69.0667C216.362 70.9334 220.229 75.4667 221.695 74.1334C222.095 73.6001 221.962 72.8001 221.162 72.2667C220.362 71.7334 219.429 70.4001 219.029 69.3334C218.629 68.0001 218.229 67.8667 217.429 69.0667Z" fill="black"/>
<path d="M222.762 74.3988C221.695 76.2654 225.562 80.7988 227.028 79.4654C227.428 78.9321 227.295 78.1321 226.495 77.5988C225.695 77.0654 224.762 75.7321 224.362 74.6654C223.962 73.3321 223.562 73.1988 222.762 74.3988Z" fill="black"/>
<path d="M227.295 80.6649C227.295 82.1315 236.762 90.9315 237.562 90.2649C237.962 89.8649 236.095 87.3315 233.429 84.7982C228.895 80.2649 227.295 79.1982 227.295 80.6649Z" fill="black"/>
<path d="M262.895 84.6654C262.228 86.2654 262.362 87.4654 263.162 87.7321C263.962 87.9988 264.628 89.3321 264.628 90.7988C264.628 92.5321 265.295 93.0654 266.895 92.3988C268.362 91.8654 268.762 91.9988 268.095 93.1988C267.428 94.1321 268.228 95.7321 269.828 97.1988C271.428 98.5321 272.628 100.532 272.628 101.465C272.628 102.532 273.828 104.265 275.295 105.332C276.762 106.399 277.962 107.999 277.962 109.065C277.962 111.465 281.828 115.199 283.028 113.999C283.562 113.465 283.162 112.665 282.362 112.399C281.428 111.999 280.628 110.799 280.628 109.465C280.628 108.265 279.428 106.399 277.962 105.332C276.495 104.265 275.295 102.532 275.295 101.332C275.295 100.132 274.095 98.3988 272.628 97.3321C271.162 96.2654 269.962 94.7988 269.962 93.9988C269.962 93.1988 268.762 91.3321 267.428 89.7321C266.095 88.2654 264.628 85.8654 264.362 84.5321C263.962 82.1321 263.828 82.1321 262.895 84.6654Z" fill="black"/>
<path d="M152.628 94.1339C152.628 99.6006 153.162 102.534 153.962 102.001C154.762 101.601 155.295 97.6006 155.295 93.2006C155.295 88.8006 154.762 85.3339 153.962 85.3339C153.162 85.3339 152.628 89.2006 152.628 94.1339Z" fill="black"/>
<path d="M176.628 91.8655C176.628 95.5988 177.295 98.9321 177.962 99.3321C178.762 99.8655 179.295 97.3321 179.295 92.7988C179.295 88.6655 178.762 85.3321 177.962 85.3321C177.295 85.3321 176.628 88.2655 176.628 91.8655Z" fill="black"/>
<path d="M277.962 86.1338C277.962 86.5338 279.829 88.6672 281.962 90.6672C284.229 92.6672 285.962 95.0672 285.962 96.0005C285.962 96.9338 287.829 99.3338 289.962 101.334C292.229 103.334 293.962 105.867 293.962 106.934C293.962 107.867 295.162 109.601 296.629 110.667C298.095 111.734 299.295 113.467 299.295 114.667C299.295 115.867 300.495 117.601 301.962 118.667C303.429 119.734 304.629 121.601 304.629 122.934C304.629 125.467 305.695 125.867 308.229 124.267C309.429 123.467 309.162 122.667 307.295 121.334C305.829 120.267 304.629 118.534 304.629 117.601C304.629 116.534 302.895 114.001 300.629 112.001C298.495 110.001 296.629 107.601 296.629 106.801C296.629 105.867 295.429 104.001 293.962 102.401C292.495 100.801 291.295 98.6672 291.295 97.6005C291.295 96.4005 290.495 96.0005 289.162 96.5338C288.095 96.9338 287.562 96.8005 287.962 96.0005C288.362 95.3338 286.629 92.5338 284.095 90.0005C279.562 85.4672 277.962 84.5338 277.962 86.1338Z" fill="black"/>
<path d="M238.895 92.5328C238.228 94.2661 238.762 95.7328 240.628 97.3328C242.095 98.5328 243.295 100.399 243.295 101.333C243.295 102.133 245.162 104.666 247.295 106.666C249.562 108.666 251.295 111.066 251.295 111.999C251.295 114.133 255.295 117.866 256.362 116.666C256.895 116.133 256.495 115.333 255.695 115.066C254.762 114.666 253.962 113.733 253.962 112.799C253.962 111.866 252.228 109.199 249.962 106.933C247.828 104.533 245.962 101.999 245.962 101.199C245.962 100.266 244.895 98.6661 243.428 97.4661C242.095 96.2661 240.762 94.1328 240.362 92.6661C239.962 90.1328 239.828 90.1328 238.895 92.5328Z" fill="black"/>
<path d="M323.962 101.335C323.295 102.535 334.229 114.668 335.962 114.668C336.362 114.668 336.629 113.468 336.629 112.001C336.629 110.401 335.695 109.335 334.229 109.335C333.029 109.335 331.162 107.601 330.229 105.468C328.362 101.335 325.295 99.3347 323.962 101.335Z" fill="black"/>
<path d="M337.429 114.132C336.362 116.932 336.362 116.932 338.362 117.732C339.695 118.265 340.095 117.465 339.562 115.198C338.895 111.465 338.495 111.198 337.429 114.132Z" fill="black"/>
<path d="M156.362 114.935C155.162 118.401 155.162 129.068 156.495 129.868C157.162 130.401 157.695 127.201 157.829 122.001C157.829 113.468 157.429 111.735 156.362 114.935Z" fill="black"/>
<path d="M284.629 116.135C284.629 116.802 284.095 117.069 283.295 116.669C282.495 116.269 282.362 116.802 282.762 117.869C283.962 120.935 285.962 120.535 285.962 117.335C285.962 115.869 285.695 114.669 285.295 114.669C284.895 114.669 284.629 115.335 284.629 116.135Z" fill="black"/>
<path d="M341.962 118.667C341.962 119.333 342.629 120 343.295 120C344.095 120 344.629 120.933 344.629 122.133C344.629 124.133 347.695 128 349.162 128C351.162 128 349.695 123.6 346.629 120.667C343.162 117.067 341.962 116.533 341.962 118.667Z" fill="black"/>
<path d="M256.628 120.801C256.628 121.735 261.962 126.668 262.895 126.668C263.828 126.668 263.295 125.735 260.762 122.935C258.362 120.001 256.628 119.201 256.628 120.801Z" fill="black"/>
<path d="M284.895 121.2C283.829 121.867 284.095 122.667 285.962 124C287.429 125.067 288.629 126.933 288.629 128.267C288.629 129.6 289.295 130.667 289.962 130.667C290.762 130.667 291.295 131.733 291.295 133.067C291.295 134.4 292.495 136.267 293.962 137.333C295.429 138.4 296.629 140.267 296.629 141.6C296.629 142.933 297.295 144 297.962 144C298.762 144 299.295 142.8 299.295 141.333C299.295 139.867 298.762 138.667 297.962 138.667C297.295 138.667 296.629 137.6 296.629 136.267C296.629 134.933 295.429 133.067 293.962 132C292.495 130.933 291.295 129.067 291.295 127.733C291.295 126.4 290.762 125.333 289.962 125.333C289.295 125.333 288.629 124.533 288.629 123.467C288.629 120.933 286.895 119.867 284.895 121.2Z" fill="black"/>
<path d="M307.295 126.667C307.295 127.334 307.962 128 308.629 128C309.429 128 309.962 128.934 309.962 130.134C309.962 132.8 313.829 136.667 315.029 135.334C315.562 134.8 315.162 134 314.362 133.734C313.429 133.334 312.629 132.267 312.629 131.067C312.629 129.2 309.562 125.334 308.095 125.334C307.695 125.334 307.295 125.867 307.295 126.667Z" fill="black"/>
<path d="M350.762 127.732C350.095 128.799 351.295 130.932 353.828 133.199C356.095 135.332 357.962 137.866 357.962 138.799C357.962 140.132 358.362 140.132 359.562 138.932C360.628 137.866 360.095 136.532 357.028 133.732C354.895 131.732 352.762 129.066 352.362 127.999C351.962 126.666 351.562 126.532 350.762 127.732Z" fill="black"/>
<path d="M261.962 129.335C261.962 130.001 262.495 130.668 263.162 130.668C263.962 130.668 264.895 130.001 265.295 129.335C265.695 128.535 265.162 128.001 264.095 128.001C262.895 128.001 261.962 128.535 261.962 129.335Z" fill="black"/>
<path d="M264.628 131.867C264.628 132.534 265.562 133.467 266.762 133.867C269.962 135.067 270.362 134.8 268.095 132.667C265.828 130.4 264.628 130.134 264.628 131.867Z" fill="black"/>
<path d="M152.762 148.935C152.628 156.135 151.962 162.135 151.295 162.401C149.562 163.068 149.562 174.668 151.295 174.668C152.095 174.668 152.628 172.001 152.628 168.668C152.628 165.335 153.162 162.668 153.828 162.668C154.495 162.668 155.028 156.668 155.162 149.335C155.295 141.868 154.895 136.001 154.228 136.001C153.562 136.001 152.895 141.868 152.762 148.935Z" fill="black"/>
<path d="M267.295 137.332C267.295 137.999 267.962 138.665 268.629 138.665C269.429 138.665 269.962 139.865 269.962 141.332C269.962 142.799 270.629 143.999 271.295 143.999C272.095 143.999 272.629 144.932 272.629 146.132C272.629 148.532 277.429 153.332 279.695 153.332C280.495 153.332 279.695 152.265 278.229 150.799C276.629 149.465 275.295 147.332 275.295 146.132C275.295 144.932 274.762 143.999 273.962 143.999C273.295 143.999 272.629 143.065 272.629 141.865C272.629 139.865 269.562 135.999 268.095 135.999C267.695 135.999 267.295 136.532 267.295 137.332Z" fill="black"/>
<path d="M315.962 138.8C315.295 139.734 315.429 140.667 316.362 141.067C317.295 141.334 317.962 143.067 317.962 145.067C317.962 147.467 318.362 148.134 319.295 147.2C320.229 146.267 320.095 144.4 318.895 141.334C317.562 138.267 316.629 137.467 315.962 138.8Z" fill="black"/>
<path d="M360.628 140.799C360.628 141.999 362.495 144.666 364.628 146.666C366.895 148.666 368.628 151.066 368.628 151.866C368.628 152.666 369.162 153.332 369.695 153.332C371.695 153.332 376.628 158.266 376.628 160.132C376.628 161.199 377.828 162.932 379.162 163.999C380.628 164.932 381.562 166.266 381.295 166.799C380.495 167.999 385.828 173.999 386.895 172.932C387.295 172.399 386.628 170.932 385.162 169.732C383.828 168.399 382.495 166.399 382.228 165.332C381.962 164.266 381.162 163.066 380.495 162.932C379.828 162.666 379.295 161.599 379.295 160.399C379.295 159.332 376.895 156.132 373.962 153.332C371.028 150.532 368.628 147.199 368.628 145.999C368.628 144.799 368.095 144.266 367.295 144.666C366.628 145.066 365.962 144.532 365.962 143.332C365.962 142.132 365.428 141.599 364.628 141.999C363.962 142.399 363.295 141.866 363.295 140.799C363.295 139.599 362.762 138.666 361.962 138.666C361.295 138.666 360.628 139.599 360.628 140.799Z" fill="black"/>
<path d="M176.895 151.732C177.162 158.932 176.762 164.265 175.962 164.532C175.295 164.932 175.695 165.199 177.028 165.199C179.028 165.332 179.295 163.999 179.295 154.265C179.295 148.265 178.628 142.399 177.962 141.332C176.895 139.865 176.628 143.065 176.895 151.732Z" fill="black"/>
<path d="M299.295 146.668C299.295 148.135 299.962 149.335 300.629 149.335C301.429 149.335 301.962 150.535 301.962 152.002C301.962 153.468 302.629 154.668 303.295 154.668C304.095 154.668 304.629 155.602 304.629 156.802C304.629 159.468 308.495 163.335 309.695 162.002C310.229 161.468 309.829 160.668 309.029 160.402C308.095 160.002 307.295 158.668 307.295 157.202C307.295 155.868 306.762 154.668 305.962 154.668C305.295 154.668 304.629 153.468 304.629 152.002C304.629 150.535 304.095 149.335 303.295 149.335C302.629 149.335 301.962 148.135 301.962 146.668C301.962 145.202 301.429 144.002 300.629 144.002C299.962 144.002 299.295 145.202 299.295 146.668Z" fill="black"/>
<path d="M320.628 150.534C320.628 151.2 321.562 152 322.495 152.4C323.828 152.934 324.228 152.534 323.695 151.2C322.895 149.2 320.628 148.667 320.628 150.534Z" fill="black"/>
<path d="M341.962 150.667C341.962 151.333 342.629 152 343.295 152C344.095 152 344.629 153.2 344.629 154.667C344.629 156.133 345.295 157.333 345.962 157.333C346.762 157.333 347.295 158.533 347.295 160C347.295 162.933 349.429 163.6 350.229 161.067C350.629 159.867 351.429 160 353.162 161.733C354.495 162.933 356.095 164 356.895 164C357.562 164 355.695 161.6 352.762 158.8C349.695 155.867 347.295 152.533 347.295 151.467C347.295 150.267 346.229 149.333 344.629 149.333C343.162 149.333 341.962 149.867 341.962 150.667Z" fill="black"/>
<path d="M278.228 156.265C278.495 157.065 279.562 158.132 280.362 158.398C281.295 158.665 281.695 158.132 281.162 156.798C280.228 154.398 277.428 153.865 278.228 156.265Z" fill="black"/>
<path d="M323.295 157.332C323.295 158.799 323.962 159.999 324.629 159.999C325.429 159.999 325.962 161.199 325.962 162.665C325.962 164.132 326.629 165.332 327.295 165.332C328.095 165.332 328.629 166.265 328.629 167.332C328.629 168.399 329.295 169.332 329.962 169.332C330.762 169.332 331.295 170.265 331.295 171.332C331.295 172.399 331.962 173.332 332.629 173.332C333.429 173.332 333.962 172.132 333.962 170.665C333.962 169.199 333.429 167.999 332.629 167.999C331.962 167.999 331.295 167.065 331.295 165.999C331.295 164.799 330.095 162.665 328.629 161.065C327.162 159.465 325.962 157.332 325.962 156.399C325.962 155.465 325.429 154.665 324.629 154.665C323.962 154.665 323.295 155.865 323.295 157.332Z" fill="black"/>
<path d="M280.628 161.333C280.628 162 281.295 162.667 281.962 162.667C282.762 162.667 283.295 164 283.295 165.733C283.295 167.467 284.495 170.133 285.962 171.733C287.428 173.333 288.628 175.467 288.628 176.667C288.628 177.733 289.295 178.667 289.962 178.667C290.762 178.667 291.295 180.267 291.295 182.133C291.295 184 291.828 185.2 292.628 184.667C293.428 184.133 293.962 185.6 293.962 187.867C293.962 190.133 294.628 192 295.295 192C296.095 192 296.628 193.2 296.628 194.667C296.628 196.133 297.295 197.333 297.962 197.333C298.762 197.333 299.295 198.533 299.295 200C299.295 201.467 299.962 202.667 300.628 202.667C301.428 202.667 301.962 203.867 301.962 205.333C301.962 206.8 302.628 208 303.295 208C304.095 208 304.628 206.8 304.628 205.333C304.628 203.867 304.228 202.667 303.695 202.667C302.228 202.667 299.295 196 299.295 193.067C299.295 191.733 298.762 190.667 298.095 190.667C297.428 190.667 296.095 188 295.162 184.667C294.228 181.333 292.895 178.667 292.362 178.667C291.828 178.667 291.295 177.467 291.295 176C291.295 174.533 290.762 173.333 289.962 173.333C289.295 173.333 288.628 172.133 288.628 170.667C288.628 169.2 288.095 168 287.428 168C286.762 168 285.562 166.133 284.628 164C283.028 160.133 280.628 158.533 280.628 161.333Z" fill="black"/>
<path d="M308.362 164.935C309.162 165.202 309.962 166.668 309.962 168.135C309.962 169.468 310.629 170.668 311.295 170.668C312.095 170.668 312.629 171.868 312.629 173.335C312.629 174.802 313.295 176.002 313.962 176.002C314.762 176.002 315.295 177.202 315.295 178.668C315.295 180.135 315.962 181.335 316.629 181.335C317.429 181.335 317.962 182.535 317.962 184.002C317.962 185.468 318.629 186.668 319.295 186.668C320.095 186.668 320.629 187.868 320.629 189.202C320.629 191.602 324.229 194.135 325.695 192.668C326.095 192.268 325.695 192.002 324.895 192.002C323.962 192.002 323.295 190.802 323.295 189.335C323.295 187.868 322.762 186.668 321.962 186.668C321.295 186.668 320.629 185.468 320.629 184.002C320.629 182.535 320.095 181.335 319.295 181.335C318.629 181.335 317.962 180.135 317.962 178.668C317.962 177.202 317.429 176.002 316.629 176.002C315.962 176.002 315.295 174.802 315.295 173.335C315.295 171.868 314.762 170.668 313.962 170.668C313.295 170.668 312.629 169.468 312.629 168.135C312.629 165.868 309.962 163.868 307.562 164.135C307.029 164.135 307.429 164.535 308.362 164.935Z" fill="black"/>
<path d="M355.295 166.667C355.295 167.333 355.962 168 356.629 168C357.429 168 357.962 167.333 357.962 166.667C357.962 165.867 357.429 165.333 356.629 165.333C355.962 165.333 355.295 165.867 355.295 166.667Z" fill="black"/>
<path d="M358.762 167.868C357.695 169.468 362.495 174.668 365.029 174.668C365.829 174.668 365.162 173.601 363.695 172.268C362.229 171.068 360.762 169.068 360.362 168.001C359.962 166.535 359.562 166.535 358.762 167.868Z" fill="black"/>
<path d="M173.962 174.665C173.962 178.265 174.629 181.332 175.295 181.332C176.095 181.332 176.629 178.265 176.629 174.665C176.629 170.932 176.095 167.999 175.295 167.999C174.629 167.999 173.962 170.932 173.962 174.665Z" fill="black"/>
<path d="M353.562 172.935C352.095 174.268 352.495 177.601 353.962 176.668C354.762 176.135 355.295 177.601 355.295 179.868C355.295 182.135 355.962 184.001 356.628 184.001C357.428 184.001 357.962 185.468 357.962 187.335C357.962 189.201 358.628 190.668 359.295 190.668C360.095 190.668 360.628 189.201 360.628 187.335C360.628 185.468 360.095 184.001 359.295 184.001C358.628 184.001 357.962 182.935 357.962 181.468C357.962 178.268 354.628 171.735 353.562 172.935Z" fill="black"/>
<path d="M147.295 181.335C147.295 184.268 147.962 186.668 148.629 186.668C149.429 186.668 149.962 184.268 149.962 181.335C149.962 178.401 149.429 176.001 148.629 176.001C147.962 176.001 147.295 178.401 147.295 181.335Z" fill="black"/>
<path d="M333.962 178.668C333.962 180.135 334.629 181.335 335.295 181.335C336.095 181.335 336.629 182.535 336.629 184.001C336.629 185.468 337.295 186.668 337.962 186.668C338.762 186.668 339.295 185.468 339.295 184.001C339.295 182.535 338.762 181.335 337.962 181.335C337.295 181.335 336.629 180.135 336.629 178.668C336.629 177.201 336.095 176.001 335.295 176.001C334.629 176.001 333.962 177.201 333.962 178.668Z" fill="black"/>
<path d="M363.295 177.335C363.295 178.001 363.962 178.668 364.629 178.668C365.429 178.668 365.962 179.735 365.962 181.068C365.962 182.401 367.162 184.268 368.629 185.335C370.095 186.401 371.295 188.268 371.295 189.601C371.295 190.935 371.962 192.001 372.629 192.001C373.429 192.001 373.962 193.201 373.962 194.668C373.962 196.135 374.629 197.335 375.295 197.335C376.095 197.335 376.629 198.535 376.629 200.001C376.629 201.468 377.295 202.668 377.962 202.668C378.762 202.668 379.295 201.468 379.295 200.001C379.295 198.535 378.762 197.335 377.962 197.335C377.295 197.335 376.629 196.135 376.629 194.668C376.629 193.201 376.095 192.001 375.295 192.001C374.629 192.001 373.962 190.935 373.962 189.601C373.962 188.268 372.762 186.401 371.295 185.335C369.829 184.268 368.629 182.668 368.629 181.601C368.629 179.868 365.562 176.001 364.095 176.001C363.695 176.001 363.295 176.535 363.295 177.335Z" fill="black"/>
<path d="M387.295 176.801C387.295 177.201 388.229 178.401 389.295 179.467C391.429 181.734 391.695 181.334 390.495 178.134C389.695 176.134 387.295 175.067 387.295 176.801Z" fill="black"/>
<path d="M392.628 183.332C392.628 184.399 393.295 185.332 393.962 185.332C394.762 185.332 395.295 184.399 395.295 183.332C395.295 182.265 394.762 181.332 393.962 181.332C393.295 181.332 392.628 182.265 392.628 183.332Z" fill="black"/>
<path d="M171.562 187.332C171.429 189.065 171.962 190.932 172.629 191.332C173.429 191.865 173.962 190.398 173.962 188.132C173.962 183.198 171.962 182.532 171.562 187.332Z" fill="black"/>
<path d="M395.295 187.999C395.295 188.666 395.962 189.333 396.629 189.333C397.429 189.333 397.962 190.533 397.962 191.999C397.962 193.466 398.629 194.666 399.295 194.666C400.095 194.666 400.629 195.999 400.629 197.599C400.762 200.533 400.762 200.533 402.229 198.133C403.295 196.133 403.295 195.333 402.229 194.933C401.295 194.666 400.629 193.599 400.629 192.399C400.629 190.533 397.562 186.666 396.095 186.666C395.695 186.666 395.295 187.199 395.295 187.999Z" fill="black"/>
<path d="M144.629 193.333C144.629 195.467 144.095 197.333 143.295 197.333C142.629 197.333 142.095 199.333 142.362 201.867C142.762 207.333 144.629 206.8 144.629 201.2C144.629 199.067 145.295 197.333 145.962 197.333C146.762 197.333 147.295 195.467 147.295 193.333C147.295 191.067 146.762 189.333 145.962 189.333C145.295 189.333 144.629 191.067 144.629 193.333Z" fill="black"/>
<path d="M339.295 191.998C339.295 193.465 339.962 194.665 340.629 194.665C341.429 194.665 341.962 196.798 341.962 199.465C341.962 202.265 342.495 203.865 343.295 203.332C344.895 202.398 344.629 194.665 343.029 194.665C342.495 194.665 341.962 193.465 341.962 191.998C341.962 190.532 341.429 189.332 340.629 189.332C339.962 189.332 339.295 190.532 339.295 191.998Z" fill="black"/>
<path d="M360.628 194.533C360.628 196 361.428 197.333 362.228 197.6C363.295 198 363.828 200.133 363.562 203.067C363.295 206 363.695 208 364.495 208C365.295 208 365.962 209.733 365.962 212C365.962 214.133 366.628 216 367.295 216C368.095 216 368.628 217.733 368.628 220C368.628 222.133 369.295 224 369.962 224C370.762 224 371.295 222.133 371.295 220C371.295 217.733 370.762 216 369.962 216C369.295 216 368.628 214.133 368.628 212C368.628 209.733 368.095 208 367.295 208C366.628 208 365.962 205.6 365.962 202.667C365.962 199.733 365.428 197.333 364.628 197.333C363.962 197.333 363.295 196.133 363.295 194.667C363.295 193.2 362.762 192 361.962 192C361.295 192 360.628 193.2 360.628 194.533Z" fill="black"/>
<path d="M168.628 198.668C168.628 200.801 169.295 202.668 169.962 202.668C170.762 202.668 171.162 200.801 171.028 198.668C170.895 196.401 170.228 194.668 169.695 194.668C169.162 194.668 168.628 196.401 168.628 198.668Z" fill="black"/>
<path d="M323.295 196.668C323.295 197.735 323.962 198.668 324.629 198.668C325.429 198.668 325.962 197.735 325.962 196.668C325.962 195.601 325.429 194.668 324.629 194.668C323.962 194.668 323.295 195.601 323.295 196.668Z" fill="black"/>
<path d="M325.962 202.665C325.962 204.132 326.629 205.332 327.295 205.332C328.095 205.332 328.629 204.132 328.629 202.665C328.629 201.199 328.095 199.999 327.295 199.999C326.629 199.999 325.962 201.199 325.962 202.665Z" fill="black"/>
<path d="M380.229 202C379.562 203.6 379.695 204.8 380.495 205.067C381.295 205.334 381.962 206.667 381.962 208.134C381.962 209.467 382.629 210.667 383.295 210.667C384.095 210.667 384.629 211.867 384.629 213.334C384.629 214.8 385.295 216 385.962 216C386.762 216 387.295 217.067 387.295 218.4C387.295 219.734 388.495 221.6 389.829 222.667C391.295 223.6 392.229 224.8 391.962 225.334C391.162 226.667 393.695 230 394.895 228.934C395.429 228.267 395.295 227.467 394.629 226.934C393.829 226.4 393.162 225.067 392.895 224C392.629 222.934 391.829 221.734 391.162 221.6C390.495 221.334 389.962 220 389.962 218.534C389.962 217.2 389.429 216 388.629 216C387.962 216 387.295 214.8 387.295 213.334C387.295 211.867 386.762 210.667 385.962 210.667C385.295 210.667 384.629 209.467 384.629 208C384.629 206.534 384.095 205.334 383.429 205.334C382.762 205.334 381.962 204 381.695 202.267C381.295 199.467 381.162 199.467 380.229 202Z" fill="black"/>
<path d="M403.295 201.333C403.295 202.133 404.095 203.067 405.162 203.467C406.229 203.867 406.762 205.067 406.362 206.133C405.962 207.2 406.362 208 407.162 208C407.962 208 408.629 209.2 408.629 210.667C408.629 212.133 409.295 213.333 409.962 213.333C410.762 213.333 411.295 214.533 411.295 216C411.295 217.467 411.962 218.667 412.629 218.667C413.429 218.667 413.962 219.867 413.962 221.333C413.962 222.8 414.629 224 415.295 224C416.095 224 416.629 224.933 416.629 226C416.629 227.067 417.295 228 417.962 228C418.762 228 419.295 227.067 419.295 226C419.295 224.933 418.762 224 417.962 224C417.295 224 416.629 222.8 416.629 221.333C416.629 219.867 416.095 218.667 415.295 218.667C414.629 218.667 413.962 217.467 413.962 216C413.962 214.533 413.429 213.333 412.629 213.333C411.962 213.333 411.295 212.133 411.295 210.667C411.295 209.2 410.762 208 409.962 208C409.295 208 408.629 207.067 408.629 205.867C408.629 203.867 405.562 200 404.095 200C403.695 200 403.295 200.667 403.295 201.333Z" fill="black"/>
<path d="M344.628 208.002C344.628 209.468 345.295 210.668 345.962 210.668C346.762 210.668 347.295 212.402 347.295 214.535C347.295 216.668 348.095 218.668 349.028 219.068C350.228 219.468 350.628 218.402 350.228 215.202C349.962 212.668 349.162 210.668 348.495 210.668C347.828 210.668 347.295 209.468 347.295 208.002C347.295 206.535 346.762 205.335 345.962 205.335C345.295 205.335 344.628 206.535 344.628 208.002Z" fill="black"/>
<path d="M139.295 210.668C139.295 212.135 138.762 213.335 137.962 213.335C137.295 213.335 136.628 214.535 136.628 216.001C136.628 217.468 137.295 218.668 137.962 218.668C138.762 218.668 139.295 217.468 139.295 216.001C139.295 214.535 139.962 213.335 140.628 213.335C141.428 213.335 141.962 212.135 141.962 210.668C141.962 209.201 141.428 208.001 140.628 208.001C139.962 208.001 139.295 209.201 139.295 210.668Z" fill="black"/>
<path d="M328.628 210.668C328.628 212.135 329.295 213.335 329.962 213.335C330.762 213.335 331.295 214.535 331.295 216.001C331.295 217.468 331.962 218.668 332.628 218.668C333.428 218.668 333.962 217.468 333.962 216.001C333.962 214.535 333.428 213.335 332.628 213.335C331.962 213.335 331.295 212.135 331.295 210.668C331.295 209.201 330.762 208.001 329.962 208.001C329.295 208.001 328.628 209.201 328.628 210.668Z" fill="black"/>
<path d="M165.962 211.199C165.962 212.399 166.629 213.332 167.295 213.332C168.095 213.332 168.629 212.799 168.629 212.132C168.629 211.332 168.095 210.399 167.295 209.999C166.629 209.599 165.962 210.132 165.962 211.199Z" fill="black"/>
<path d="M305.695 210.134C304.095 211.601 304.362 216.001 305.962 216.001C306.762 216.001 307.295 217.468 307.295 219.201C307.295 221.068 307.962 222.934 308.628 223.334C309.428 223.734 309.962 225.334 309.962 226.801C309.962 228.134 310.628 229.334 311.295 229.334C312.095 229.334 312.628 230.534 312.628 231.868C312.628 233.201 313.428 234.668 314.362 235.068C315.695 235.601 316.095 234.801 315.562 232.534C315.295 230.801 314.495 229.334 313.828 229.334C313.162 229.334 312.628 228.134 312.628 226.668C312.628 225.201 312.095 224.001 311.428 224.001C310.762 224.001 309.828 222.001 309.162 219.601C308.628 217.334 307.828 213.868 307.428 212.268C307.028 210.534 306.228 209.601 305.695 210.134Z" fill="black"/>
<path d="M163.295 218.265C163.295 219.999 163.962 221.332 164.629 221.332C166.362 221.332 166.362 219.865 164.629 217.332C163.562 215.732 163.295 215.865 163.295 218.265Z" fill="black"/>
<path d="M333.962 222.665C335.695 225.732 336.629 226.132 336.629 223.465C336.629 222.398 335.695 221.332 334.629 220.798C332.895 220.265 332.762 220.532 333.962 222.665Z" fill="black"/>
<path d="M133.962 223.199C133.962 226.266 136.095 226.799 136.229 223.866C136.362 222.532 135.962 221.332 135.162 221.332C134.495 221.332 133.962 222.132 133.962 223.199Z" fill="black"/>
<path d="M349.962 222.535C349.962 223.335 350.629 224.268 351.295 224.668C352.095 225.068 352.629 224.535 352.629 223.468C352.629 222.268 352.095 221.335 351.295 221.335C350.629 221.335 349.962 221.868 349.962 222.535Z" fill="black"/>
<path d="M161.029 226.268C160.495 227.601 159.562 229.068 158.762 229.601C157.829 230.268 157.829 230.668 158.629 230.668C161.029 230.668 162.895 228.668 162.895 226.268C162.895 225.068 162.629 224.001 162.362 224.001C162.095 224.001 161.429 225.068 161.029 226.268Z" fill="black"/>
<path d="M131.295 228.668C131.295 231.068 128.629 236.268 126.629 237.601C124.629 239.068 127.562 238.935 129.829 237.468C130.762 236.801 131.162 235.601 130.762 234.801C130.229 234.001 130.762 232.935 131.829 232.535C134.095 231.601 134.762 226.668 132.629 226.668C131.962 226.668 131.295 227.601 131.295 228.668Z" fill="black"/>
<path d="M336.628 229.333C336.628 230.8 337.295 232 337.962 232C338.762 232 339.295 230.8 339.295 229.333C339.295 227.867 338.762 226.667 337.962 226.667C337.295 226.667 336.628 227.867 336.628 229.333Z" fill="black"/>
<path d="M371.295 229.333C371.295 230.8 371.962 232 372.629 232C373.429 232 373.962 230.8 373.962 229.333C373.962 227.867 373.429 226.667 372.629 226.667C371.962 226.667 371.295 227.867 371.295 229.333Z" fill="black"/>
<path d="M352.628 230.667C352.628 231.333 353.295 232 353.962 232C354.762 232 355.295 231.333 355.295 230.667C355.295 229.867 354.762 229.333 353.962 229.333C353.295 229.333 352.628 229.867 352.628 230.667Z" fill="black"/>
<path d="M419.295 232C419.295 233.467 419.962 234.667 420.629 234.667C421.429 234.667 421.962 236.534 421.962 238.934C421.962 241.867 422.362 242.8 423.429 241.734C424.362 240.8 424.229 238.667 423.029 234.8C421.162 229.067 419.295 227.6 419.295 232Z" fill="black"/>
<path d="M395.028 234.132C395.295 235.865 396.095 237.332 396.762 237.332C398.628 237.332 398.095 232.399 396.228 231.599C394.895 231.065 394.495 231.865 395.028 234.132Z" fill="black"/>
<path d="M157.962 234C157.962 235.067 158.629 236 159.295 236C160.095 236 160.629 235.067 160.629 234C160.629 232.933 160.095 232 159.295 232C158.629 232 157.962 232.933 157.962 234Z" fill="black"/>
<path d="M339.295 237.202C339.295 239.602 342.895 242.135 344.362 240.668C344.762 240.268 344.362 240.002 343.562 240.002C342.629 240.002 341.962 238.802 341.962 237.335C341.962 235.868 341.429 234.668 340.629 234.668C339.962 234.668 339.295 235.868 339.295 237.202Z" fill="black"/>
<path d="M373.962 237.333C373.962 238.8 374.629 240 375.295 240C376.095 240 376.629 238.8 376.629 237.333C376.629 235.867 376.095 234.667 375.295 234.667C374.629 234.667 373.962 235.867 373.962 237.333Z" fill="black"/>
<path d="M155.295 240.001C155.295 241.468 155.962 242.668 156.629 242.668C157.429 242.668 157.962 241.468 157.962 240.001C157.962 238.535 157.429 237.335 156.629 237.335C155.962 237.335 155.295 238.535 155.295 240.001Z" fill="black"/>
<path d="M315.295 238.667C315.295 239.333 315.962 240 316.629 240C317.429 240 317.962 239.333 317.962 238.667C317.962 237.867 317.429 237.333 316.629 237.333C315.962 237.333 315.295 237.867 315.295 238.667Z" fill="black"/>
<path d="M125.029 241.998C124.095 243.065 123.295 244.798 123.295 245.998C123.295 247.065 122.762 247.998 121.962 247.998C121.295 247.998 120.629 249.198 120.629 250.532C120.629 251.998 119.829 253.332 119.029 253.732C118.095 253.998 117.695 254.798 118.229 255.332C119.295 256.532 123.295 252.932 123.295 250.665C123.295 249.865 123.962 249.598 124.629 249.998C125.429 250.532 125.962 249.065 125.962 246.798C125.962 244.532 126.629 242.665 127.295 242.665C128.095 242.665 128.629 241.998 128.629 241.332C128.629 239.465 126.895 239.732 125.029 241.998Z" fill="black"/>
<path d="M221.962 241.335C221.962 242.135 231.695 242.668 248.629 242.668C265.562 242.668 275.295 242.135 275.295 241.335C275.295 240.535 265.562 240.001 248.629 240.001C231.695 240.001 221.962 240.535 221.962 241.335Z" fill="black"/>
<path d="M278.095 241.332C276.895 241.999 277.562 242.266 279.828 242.266C283.695 242.266 284.095 241.999 281.562 240.932C280.495 240.532 278.895 240.666 278.095 241.332Z" fill="black"/>
<path d="M355.295 241.199C355.295 241.865 356.229 242.799 357.429 243.199C359.295 243.865 359.429 243.732 357.962 241.999C356.095 239.732 355.295 239.465 355.295 241.199Z" fill="black"/>
<path d="M397.962 241.335C397.962 242.001 398.629 242.668 399.295 242.668C400.095 242.668 400.629 242.001 400.629 241.335C400.629 240.535 400.095 240.001 399.295 240.001C398.629 240.001 397.962 240.535 397.962 241.335Z" fill="black"/>
<path d="M375.962 243.465C377.162 244.665 378.495 245.198 379.029 244.798C379.429 244.265 379.029 243.332 377.962 242.665C374.762 240.665 373.562 241.198 375.962 243.465Z" fill="black"/>
<path d="M203.295 243.999C203.295 244.799 206.762 245.332 211.029 245.332C216.362 245.332 218.095 244.932 216.629 243.999C213.962 242.265 203.295 242.265 203.295 243.999Z" fill="black"/>
<path d="M288.628 243.999C288.628 244.799 292.628 245.332 297.962 245.332C303.295 245.332 307.295 244.799 307.295 243.999C307.295 243.199 303.295 242.665 297.962 242.665C292.628 242.665 288.628 243.199 288.628 243.999Z" fill="black"/>
<path d="M312.628 243.735C312.628 244.269 314.495 244.935 316.628 245.069C318.895 245.202 320.628 244.802 320.628 244.002C320.628 243.335 318.895 242.669 316.628 242.669C314.495 242.669 312.628 243.202 312.628 243.735Z" fill="black"/>
<path d="M341.962 243.999C341.962 244.665 342.629 245.332 343.295 245.332C344.095 245.332 344.629 244.665 344.629 243.999C344.629 243.199 344.095 242.665 343.295 242.665C342.629 242.665 341.962 243.199 341.962 243.999Z" fill="black"/>
<path d="M424.628 245.333C424.628 246.8 425.295 248 425.962 248C426.762 248 427.295 246.8 427.295 245.333C427.295 243.867 426.762 242.667 425.962 242.667C425.295 242.667 424.628 243.867 424.628 245.333Z" fill="black"/>
<path d="M152.628 245.867C152.628 247.067 153.295 248 153.962 248C154.762 248 155.295 247.467 155.295 246.8C155.295 246 154.762 245.067 153.962 244.667C153.295 244.267 152.628 244.8 152.628 245.867Z" fill="black"/>
<path d="M189.962 246.667C189.962 247.333 191.829 248 193.962 248C196.229 248 197.962 247.333 197.962 246.667C197.962 245.867 196.229 245.333 193.962 245.333C191.829 245.333 189.962 245.867 189.962 246.667Z" fill="black"/>
<path d="M357.962 249.199C357.962 251.332 358.762 253.332 359.695 253.732C360.895 254.132 361.295 253.066 360.895 249.866C360.229 244.399 357.962 243.866 357.962 249.199Z" fill="black"/>
<path d="M400.628 248.001C400.628 249.468 401.162 250.668 401.695 250.668C402.228 250.668 402.762 249.468 402.895 248.001C403.028 246.535 402.628 245.335 401.828 245.335C401.162 245.335 400.628 246.535 400.628 248.001Z" fill="black"/>
<path d="M376.628 249.999C376.628 252.399 377.295 253.332 379.295 253.332C380.762 253.332 381.962 252.665 381.962 251.999C381.962 251.199 381.428 250.665 380.628 250.665C379.962 250.665 379.295 249.732 379.295 248.665C379.295 247.599 378.762 246.665 377.962 246.665C377.295 246.665 376.628 248.132 376.628 249.999Z" fill="black"/>
<path d="M179.295 249.335C179.295 250.001 179.829 250.668 180.495 250.668C181.295 250.668 182.229 250.001 182.629 249.335C183.029 248.535 182.495 248.001 181.429 248.001C180.229 248.001 179.295 248.535 179.295 249.335Z" fill="black"/>
<path d="M344.895 252.002C344.762 254.135 345.162 256.135 345.962 256.668C346.762 257.202 347.295 255.868 347.295 253.468C347.295 248.268 345.295 247.068 344.895 252.002Z" fill="black"/>
<path d="M149.029 252.668C146.629 255.335 146.895 258.668 149.429 258.668C151.295 258.668 151.295 258.268 149.962 256.668C148.495 254.935 148.629 254.801 150.495 255.468C152.095 256.001 152.629 255.468 152.629 253.468C152.629 250.268 151.295 250.001 149.029 252.668Z" fill="black"/>
<path d="M168.628 251.999C168.628 252.665 170.495 253.332 172.628 253.332C174.895 253.332 176.628 252.665 176.628 251.999C176.628 251.199 174.895 250.665 172.628 250.665C170.495 250.665 168.628 251.199 168.628 251.999Z" fill="black"/>
<path d="M427.295 252.668C427.295 253.735 427.962 254.668 428.629 254.668C429.429 254.668 429.962 253.735 429.962 252.668C429.962 251.601 429.429 250.668 428.629 250.668C427.962 250.668 427.295 251.601 427.295 252.668Z" fill="black"/>
<path d="M155.295 254.667C155.295 255.333 157.162 256 159.295 256C161.562 256 163.295 255.333 163.295 254.667C163.295 253.867 161.562 253.333 159.295 253.333C157.162 253.333 155.295 253.867 155.295 254.667Z" fill="black"/>
<path d="M389.962 253.866C389.962 254.133 390.895 254.8 392.095 255.2C393.162 255.6 393.695 255.466 393.295 254.666C392.495 253.333 389.962 252.8 389.962 253.866Z" fill="black"/>
<path d="M360.628 260.533C360.628 263.066 361.295 265.599 361.962 265.999C362.762 266.533 363.295 264.666 363.295 261.466C363.295 258.399 362.762 255.999 361.962 255.999C361.295 255.999 360.628 257.999 360.628 260.533Z" fill="black"/>
<path d="M403.295 257.335C403.295 258.001 403.962 258.668 404.629 258.668C405.429 258.668 405.962 258.001 405.962 257.335C405.962 256.535 405.429 256.001 404.629 256.001C403.962 256.001 403.295 256.535 403.295 257.335Z" fill="black"/>
<path d="M430.362 259.465C430.362 261.865 430.628 262.399 431.428 261.199C432.895 258.799 432.895 255.999 431.428 255.999C430.762 255.999 430.362 257.599 430.362 259.465Z" fill="black"/>
<path d="M113.029 262.001C111.295 263.735 109.962 266.135 109.962 267.201C109.962 268.268 109.162 269.335 108.362 269.735C107.429 270.001 107.029 270.801 107.562 271.335C108.095 271.868 109.429 271.468 110.495 270.268C111.562 269.201 112.095 268.001 111.695 267.468C111.162 267.068 111.829 266.668 113.029 266.668C114.362 266.668 115.295 265.601 115.295 264.001C115.295 262.535 115.962 261.335 116.629 261.335C117.429 261.335 117.962 260.668 117.962 260.001C117.962 257.868 116.229 258.535 113.029 262.001Z" fill="black"/>
<path d="M346.895 259.601C346.495 260.268 347.028 262.401 347.962 264.668L349.695 268.668L349.828 264.935C349.962 262.935 349.295 261.335 348.495 261.335C347.828 261.335 347.562 260.668 347.962 260.001C348.362 259.201 348.495 258.668 348.095 258.668C347.695 258.668 347.162 259.068 346.895 259.601Z" fill="black"/>
<path d="M234.629 262.667C234.095 263.467 235.295 264 237.162 264C239.029 264 240.629 263.333 240.629 262.667C240.629 261.867 239.429 261.333 238.095 261.333C236.629 261.333 235.029 261.867 234.629 262.667Z" fill="black"/>
<path d="M241.962 262.665C241.962 263.598 245.562 263.998 251.295 263.731C256.362 263.598 259.829 262.931 258.895 262.398C256.495 260.798 241.962 261.065 241.962 262.665Z" fill="black"/>
<path d="M263.962 262.667C264.362 263.333 266.362 264 268.229 264C272.495 264 271.962 263.333 266.895 262.133C264.362 261.6 263.429 261.733 263.962 262.667Z" fill="black"/>
<path d="M214.628 265.335C214.095 266.135 215.828 266.668 219.162 266.668C226.095 266.668 227.295 264.801 220.628 264.268C217.828 264.135 215.162 264.535 214.628 265.335Z" fill="black"/>
<path d="M282.628 265.466C283.562 266.932 307.295 266.666 307.295 265.199C307.295 264.799 301.562 264.266 294.495 264.266C285.828 263.999 282.095 264.399 282.628 265.466Z" fill="black"/>
<path d="M432.628 266.665C432.628 268.132 433.295 269.332 433.962 269.332C434.762 269.332 435.295 268.132 435.295 266.665C435.295 265.199 434.762 263.999 433.962 263.999C433.295 263.999 432.628 265.199 432.628 266.665Z" fill="black"/>
<path d="M182.629 270.667C182.095 271.467 183.562 272 185.829 272C188.095 272 189.962 271.333 189.962 270.667C189.962 269.867 188.495 269.333 186.762 269.333C184.895 269.333 183.029 269.867 182.629 270.667Z" fill="black"/>
<path d="M339.295 270.667C339.295 271.333 341.162 272 343.295 272C345.562 272 347.295 271.333 347.295 270.667C347.295 269.867 345.562 269.333 343.295 269.333C341.162 269.333 339.295 269.867 339.295 270.667Z" fill="black"/>
<path d="M104.628 273.335C104.628 274.001 105.295 274.668 106.095 274.668C106.762 274.668 107.028 274.001 106.628 273.335C106.228 272.535 105.562 272.001 105.162 272.001C104.895 272.001 104.628 272.535 104.628 273.335Z" fill="black"/>
<path d="M170.629 273.335C170.095 274.135 171.962 274.668 175.295 274.668C178.629 274.668 180.495 274.135 179.962 273.335C179.562 272.535 177.429 272.001 175.295 272.001C173.162 272.001 171.029 272.535 170.629 273.335Z" fill="black"/>
<path d="M392.628 273.335C392.628 274.001 394.228 274.668 396.095 274.668C397.962 274.668 399.162 274.135 398.628 273.335C398.228 272.535 396.628 272.001 395.162 272.001C393.828 272.001 392.628 272.535 392.628 273.335Z" fill="black"/>
<path d="M160.628 275.999C160.628 276.665 162.495 277.332 164.628 277.332C166.895 277.332 168.628 276.799 168.628 276.265C168.628 275.732 166.895 275.065 164.628 274.932C162.495 274.799 160.628 275.199 160.628 275.999Z" fill="black"/>
<path d="M413.962 275.999C413.962 276.665 415.562 277.332 417.429 277.332C419.295 277.332 420.495 276.799 419.962 275.999C419.562 275.199 417.962 274.665 416.495 274.665C415.162 274.665 413.962 275.199 413.962 275.999Z" fill="black"/>
<path d="M432.628 275.999C432.628 276.665 433.295 277.332 433.962 277.332C434.762 277.332 435.295 276.665 435.295 275.999C435.295 275.199 434.762 274.665 433.962 274.665C433.295 274.665 432.628 275.199 432.628 275.999Z" fill="black"/>
<path d="M149.962 278.667C149.962 279.333 151.829 280 153.962 280C156.229 280 157.962 279.333 157.962 278.667C157.962 277.867 156.229 277.333 153.962 277.333C151.829 277.333 149.962 277.867 149.962 278.667Z" fill="black"/>
<path d="M141.295 279.732C139.162 279.999 136.895 280.932 136.362 281.999C135.828 282.932 133.962 283.332 131.962 282.932C129.962 282.665 128.628 282.932 128.628 283.865C128.628 284.665 130.495 285.332 132.628 285.332C134.895 285.332 136.628 284.665 136.628 283.999C136.628 283.199 139.028 282.665 141.828 282.665C144.895 282.665 147.295 281.999 147.695 280.932C148.362 279.065 147.962 278.932 141.295 279.732Z" fill="black"/>
<path d="M120.628 286.667C120.628 287.333 121.828 288 123.295 288C124.762 288 125.962 287.333 125.962 286.667C125.962 285.867 124.762 285.333 123.295 285.333C121.828 285.333 120.628 285.867 120.628 286.667Z" fill="black"/>
<path d="M321.429 286.401C321.029 287.068 322.495 287.601 324.629 287.734C326.895 287.734 328.629 287.201 328.629 286.534C328.629 285.068 322.362 284.934 321.429 286.401Z" fill="black"/>
<path d="M342.895 286.267C342.495 286.933 344.362 287.467 347.029 287.6C350.495 287.733 351.295 287.467 349.962 286.667C347.562 285.067 343.695 284.933 342.895 286.267Z" fill="black"/>
<path d="M353.695 287.598C354.629 287.998 355.829 287.865 356.229 287.465C356.762 287.065 355.962 286.665 354.495 286.798C353.029 286.798 352.629 287.198 353.695 287.598Z" fill="black"/>
<path d="M101.962 289.335C101.962 290.001 103.829 290.668 105.962 290.668C108.229 290.668 109.962 290.001 109.962 289.335C109.962 288.535 108.229 288.001 105.962 288.001C103.829 288.001 101.962 288.535 101.962 289.335Z" fill="black"/>
<path d="M276.095 289.066C275.695 289.733 277.828 290.266 280.762 290.399C283.695 290.666 285.962 290.133 285.962 289.333C285.962 287.733 277.162 287.466 276.095 289.066Z" fill="black"/>
<path d="M291.295 289.466C291.295 290.133 291.962 290.4 292.629 290C293.429 289.6 293.962 288.933 293.962 288.533C293.962 288.266 293.429 288 292.629 288C291.962 288 291.295 288.666 291.295 289.466Z" fill="black"/>
<path d="M400.095 289.601C401.029 291.068 404.629 290.935 404.629 289.468C404.629 288.668 403.429 288.268 402.095 288.401C400.629 288.401 399.829 289.068 400.095 289.601Z" fill="black"/>
<path d="M405.962 289.068C405.962 290.401 417.295 290.534 418.495 289.201C418.895 288.801 416.229 288.401 412.629 288.134C408.895 288.001 405.962 288.401 405.962 289.068Z" fill="black"/>
<path d="M439.962 291.868C441.295 293.202 448.762 293.335 447.962 292.002C447.429 291.202 445.429 290.802 443.295 290.935C441.162 291.068 439.695 291.468 439.962 291.868Z" fill="black"/>
<path d="M228.628 294.667C227.162 295.6 228.628 296 233.695 296C237.428 296 240.628 295.333 240.628 294.667C240.628 292.933 231.295 292.933 228.628 294.667Z" fill="black"/>
<path d="M205.962 297.334C205.962 298.267 208.629 298.667 212.495 298.534C216.229 298.267 218.895 297.734 218.495 297.067C217.429 295.467 205.962 295.734 205.962 297.334Z" fill="black"/>
<path d="M191.295 299.999C191.295 300.665 193.429 301.332 195.962 301.332C198.495 301.332 200.629 300.665 200.629 299.999C200.629 299.199 198.495 298.665 195.962 298.665C193.429 298.665 191.295 299.199 191.295 299.999Z" fill="black"/>
<path d="M315.295 299.999C313.562 301.065 313.562 301.332 315.562 301.332C316.762 301.332 318.229 300.665 318.629 299.999C319.695 298.265 317.962 298.265 315.295 299.999Z" fill="black"/>
<path d="M321.962 299.999C320.629 300.932 324.095 301.332 333.029 301.332C340.762 301.332 345.962 300.799 345.962 299.999C345.962 298.265 324.629 298.265 321.962 299.999Z" fill="black"/>
<path d="M348.095 300.265C348.495 300.799 350.095 301.332 351.562 301.332C353.162 301.332 353.962 300.932 353.429 300.399C352.095 299.065 347.295 298.932 348.095 300.265Z" fill="black"/>
<path d="M355.295 300.002C355.295 300.668 356.895 301.335 359.029 301.202C362.229 301.202 362.362 301.068 359.962 300.002C356.362 298.402 355.295 298.402 355.295 300.002Z" fill="black"/>
<path d="M365.962 299.868C365.962 300.535 371.029 301.068 377.295 301.202C384.362 301.335 388.629 300.935 388.629 300.002C388.629 299.202 384.229 298.668 377.295 298.668C371.029 298.668 365.962 299.202 365.962 299.868Z" fill="black"/>
<path d="M389.962 299.735C389.962 301.201 409.562 301.735 410.495 300.268C410.895 299.468 406.895 298.935 400.629 298.801C394.762 298.668 389.962 299.068 389.962 299.735Z" fill="black"/>
<path d="M412.628 300.135C412.628 300.935 415.562 301.335 419.962 301.201C423.962 301.068 426.895 300.401 426.495 299.735C425.428 298.135 412.628 298.401 412.628 300.135Z" fill="black"/>
<path d="M429.429 300.266C429.829 300.932 430.762 301.066 431.429 300.666C433.162 299.466 432.895 299.066 430.629 299.066C429.562 299.066 429.029 299.599 429.429 300.266Z" fill="black"/>
<path d="M168.628 302.667C168.628 303.467 172.095 304 176.495 304C180.895 304 184.895 303.333 185.295 302.667C185.828 301.867 182.895 301.333 177.428 301.333C172.495 301.333 168.628 301.867 168.628 302.667Z" fill="black"/>
<path d="M280.628 302.666C280.628 303.599 283.295 303.999 287.295 303.866C291.028 303.599 293.962 303.066 293.962 302.399C293.962 301.866 291.028 301.332 287.295 301.332C283.562 301.332 280.628 301.999 280.628 302.666Z" fill="black"/>
<path d="M461.295 302.534C462.229 304.267 475.295 304.534 475.295 302.934C475.295 302.267 471.962 301.6 467.829 301.467C462.895 301.334 460.629 301.6 461.295 302.534Z" fill="black"/>
<path d="M152.628 305.335C152.628 306.001 153.828 306.668 155.295 306.668C156.762 306.668 157.962 306.001 157.962 305.335C157.962 304.535 156.762 304.001 155.295 304.001C153.828 304.001 152.628 304.535 152.628 305.335Z" fill="black"/>
<path d="M251.962 305.334C251.562 305.867 256.095 306.4 261.962 306.534C268.762 306.667 272.629 306.267 272.629 305.334C272.629 303.734 252.895 303.734 251.962 305.334Z" fill="black"/>
<path d="M141.962 307.998C141.962 309.598 148.229 309.865 149.162 308.265C149.429 307.732 147.962 307.065 145.829 306.932C143.695 306.798 141.962 307.198 141.962 307.998Z" fill="black"/>
<path d="M128.629 310.667C126.895 311.733 127.029 312 129.029 312C130.229 312 131.295 311.333 131.295 310.667C131.295 309.067 131.162 309.067 128.629 310.667Z" fill="black"/>
<path d="M211.295 310.666C211.295 311.332 213.562 311.999 216.362 311.866C220.362 311.866 220.762 311.599 218.629 310.666C214.895 309.066 211.295 309.066 211.295 310.666Z" fill="black"/>
<path d="M45.9618 313.333C45.9618 314 44.2284 314.667 41.9618 314.667C39.8284 314.667 37.9618 315.2 37.9618 316C37.9618 316.667 36.7618 317.333 35.2951 317.333C33.8284 317.333 32.6284 317.867 32.6284 318.667C32.6284 319.333 33.8284 320 35.2951 320C36.7618 320 37.9618 319.333 37.9618 318.667C37.9618 317.867 39.8284 317.333 41.9618 317.333C44.2284 317.333 45.9618 316.667 45.9618 316C45.9618 315.2 48.3618 314.667 51.1618 314.667C58.4951 314.667 59.0284 312.8 51.8284 312.267C48.3618 312 45.9618 312.533 45.9618 313.333Z" fill="black"/>
<path d="M63.2952 313.333C65.9618 315.066 69.5618 315.066 70.6285 313.333C71.1618 312.533 69.4285 312 66.3618 312C62.6285 312 61.8285 312.4 63.2952 313.333Z" fill="black"/>
<path d="M115.295 313.335C115.295 314.001 117.162 314.668 119.295 314.668C121.562 314.668 123.295 314.001 123.295 313.335C123.295 312.535 121.562 312.001 119.295 312.001C117.162 312.001 115.295 312.535 115.295 313.335Z" fill="black"/>
<path d="M191.962 313.334C189.829 314.267 190.495 314.534 194.895 314.534C197.962 314.667 200.895 314 201.295 313.334C202.362 311.734 195.695 311.734 191.962 313.334Z" fill="black"/>
<path d="M75.2954 315.999C75.2954 316.665 75.9621 317.332 76.6287 317.332C77.4287 317.332 77.9621 316.665 77.9621 315.999C77.9621 315.199 77.4287 314.665 76.6287 314.665C75.9621 314.665 75.2954 315.199 75.2954 315.999Z" fill="black"/>
<path d="M104.628 316C104.628 316.667 101.828 317.333 98.4951 317.333C94.8951 317.333 92.7618 317.867 93.2951 318.667C93.6951 319.333 96.4951 320 99.4284 320C102.228 320 104.628 319.333 104.628 318.667C104.628 317.867 106.495 317.333 108.628 317.333C110.895 317.333 112.628 316.667 112.628 316C112.628 315.2 110.895 314.667 108.628 314.667C106.495 314.667 104.628 315.2 104.628 316Z" fill="black"/>
<path d="M178.629 315.999C178.095 316.799 179.695 317.332 182.495 317.332C185.162 317.332 187.295 316.665 187.295 315.999C187.295 315.199 185.562 314.665 183.429 314.665C181.162 314.665 179.029 315.199 178.629 315.999Z" fill="black"/>
<path d="M79.2954 318.667C79.2954 319.333 80.2287 320 81.2954 320C82.3621 320 83.2954 319.333 83.2954 318.667C83.2954 317.867 82.3621 317.333 81.2954 317.333C80.2287 317.333 79.2954 317.867 79.2954 318.667Z" fill="black"/>
<path d="M163.962 318.667C163.429 319.467 165.295 320 168.495 320C171.562 320 173.962 319.333 173.962 318.667C173.962 317.867 171.962 317.333 169.429 317.333C166.895 317.333 164.362 317.867 163.962 318.667Z" fill="black"/>
<path d="M24.6284 321.335C24.6284 322.001 26.6284 322.668 29.0284 322.668C32.2284 322.668 32.7618 322.268 31.2951 321.335C28.6284 319.601 24.6284 319.601 24.6284 321.335Z" fill="black"/>
<path d="M88.6284 321.335C88.6284 322.001 89.2951 322.668 89.9618 322.668C90.7618 322.668 91.2951 322.001 91.2951 321.335C91.2951 320.535 90.7618 320.001 89.9618 320.001C89.2951 320.001 88.6284 320.535 88.6284 321.335Z" fill="black"/>
<path d="M151.962 321.335C152.362 322.001 154.495 322.668 156.762 322.668C158.895 322.668 160.628 322.001 160.628 321.335C160.628 320.535 158.495 320.001 155.828 320.001C153.028 320.001 151.428 320.535 151.962 321.335Z" fill="black"/>
<path d="M21.9619 323.999C21.9619 324.665 22.6286 325.332 23.2952 325.332C24.0952 325.332 24.6286 324.665 24.6286 323.999C24.6286 323.199 24.0952 322.665 23.2952 322.665C22.6286 322.665 21.9619 323.199 21.9619 323.999Z" fill="black"/>
<path d="M141.962 324.265C141.962 325.732 145.695 325.599 146.629 324.132C147.029 323.332 146.095 322.932 144.629 323.065C143.162 323.199 141.962 323.732 141.962 324.265Z" fill="black"/>
<path d="M328.628 324.265C328.628 324.799 331.695 325.332 335.295 325.332C339.028 325.332 341.962 324.799 341.962 324.132C341.962 323.599 339.028 323.065 335.295 323.199C331.695 323.199 328.628 323.732 328.628 324.265Z" fill="black"/>
<path d="M15.6952 327.331C13.1619 330.131 13.5619 330.531 17.1619 328.931C18.8952 327.998 20.0952 326.931 19.8286 326.398C18.8952 324.931 17.5619 325.198 15.6952 327.331Z" fill="black"/>
<path d="M131.295 326.398C131.295 326.931 133.429 327.598 135.962 327.731C138.495 327.998 140.629 327.465 140.629 326.665C140.629 325.998 138.495 325.331 135.962 325.331C133.429 325.331 131.295 325.865 131.295 326.398Z" fill="black"/>
<path d="M294.495 326.934C293.695 328.267 297.695 328.134 301.295 326.667C303.429 325.867 303.162 325.6 299.562 325.734C297.162 325.734 294.895 326.267 294.495 326.934Z" fill="black"/>
<path d="M467.295 326.535C467.295 327.202 470.629 327.602 474.629 327.602C478.629 327.468 481.962 327.068 481.962 326.668C481.962 326.268 478.629 325.735 474.629 325.602C470.629 325.468 467.295 325.868 467.295 326.535Z" fill="black"/>
<path d="M125.962 329.335C125.962 330.001 126.629 330.668 127.295 330.668C128.095 330.668 128.629 330.001 128.629 329.335C128.629 328.535 128.095 328.001 127.295 328.001C126.629 328.001 125.962 328.535 125.962 329.335Z" fill="black"/>
<path d="M285.295 329.335C285.695 330.001 287.295 330.668 288.762 330.668C290.095 330.668 291.295 330.001 291.295 329.335C291.295 328.535 289.695 328.001 287.829 328.001C285.962 328.001 284.762 328.535 285.295 329.335Z" fill="black"/>
<path d="M418.629 329.335C419.029 330.001 421.829 330.668 424.762 330.668C427.562 330.668 429.962 330.001 429.962 329.335C429.962 328.535 427.162 328.001 423.829 328.001C420.229 328.001 418.095 328.535 418.629 329.335Z" fill="black"/>
<path d="M456.628 329.335C456.628 330.001 457.828 330.668 459.428 330.668C460.895 330.668 461.695 330.001 461.295 329.335C460.895 328.535 459.562 328.001 458.495 328.001C457.428 328.001 456.628 328.535 456.628 329.335Z" fill="black"/>
<path d="M484.495 329.468C482.895 330.402 482.895 330.668 484.628 330.802C485.695 330.935 487.028 330.935 487.695 330.802C488.228 330.802 488.628 331.602 488.628 332.668C488.628 335.468 482.628 341.335 479.695 341.335C477.428 341.468 477.428 341.468 479.695 342.802C481.562 343.868 482.762 343.335 485.828 340.135C487.962 337.868 490.362 336.002 491.028 336.002C491.828 336.002 492.895 335.335 493.428 334.402C493.962 333.468 493.828 333.335 492.895 333.868C491.428 334.802 490.762 333.335 491.162 330.002C491.295 328.135 487.028 327.868 484.495 329.468Z" fill="black"/>
<path d="M115.295 331.999C115.295 332.665 116.762 333.332 118.629 333.332C120.495 333.332 121.962 332.665 121.962 331.999C121.962 331.199 120.495 330.665 118.629 330.665C116.762 330.665 115.295 331.199 115.295 331.999Z" fill="black"/>
<path d="M274.629 331.999C274.095 332.799 275.295 333.332 277.162 333.332C279.029 333.332 280.629 332.665 280.629 331.999C280.629 331.199 279.429 330.665 278.095 330.665C276.629 330.665 275.029 331.199 274.629 331.999Z" fill="black"/>
<path d="M40.6284 334.667C40.6284 335.333 41.2951 336 41.9618 336C42.7618 336 43.2951 335.333 43.2951 334.667C43.2951 333.867 42.7618 333.333 41.9618 333.333C41.2951 333.333 40.6284 333.867 40.6284 334.667Z" fill="black"/>
<path d="M45.2952 334.667C44.7619 335.467 45.9619 336 47.8286 336C49.6952 336 51.2952 335.333 51.2952 334.667C51.2952 333.867 50.0952 333.333 48.7619 333.333C47.2952 333.333 45.6952 333.867 45.2952 334.667Z" fill="black"/>
<path d="M199.962 334.667C200.362 335.333 201.295 336 202.095 336C202.762 336 203.295 335.333 203.295 334.667C203.295 333.867 202.362 333.333 201.162 333.333C200.095 333.333 199.562 333.867 199.962 334.667Z" fill="black"/>
<path d="M269.962 334.667C269.962 335.333 270.629 336 271.295 336C272.095 336 272.629 335.333 272.629 334.667C272.629 333.867 272.095 333.333 271.295 333.333C270.629 333.333 269.962 333.867 269.962 334.667Z" fill="black"/>
<path d="M52.0954 335.601C50.4954 337.201 51.4287 338.668 53.962 338.668C55.4287 338.668 56.6287 338.135 56.6287 337.468C56.6287 336.001 53.162 334.535 52.0954 335.601Z" fill="black"/>
<path d="M1.29536 337.335C1.69536 338.001 2.36203 338.668 2.76203 338.668C3.02869 338.668 3.29536 338.001 3.29536 337.335C3.29536 336.535 2.62869 336.001 1.82869 336.001C1.16203 336.001 0.895361 336.535 1.29536 337.335Z" fill="black"/>
<path d="M26.6285 337.335C26.0951 338.135 27.6951 338.668 30.6285 338.668C33.5618 338.668 35.1618 338.135 34.6285 337.335C34.2285 336.535 32.3618 336.001 30.6285 336.001C28.8951 336.001 27.0285 336.535 26.6285 337.335Z" fill="black"/>
<path d="M99.2954 337.466C99.2954 338.133 99.9621 338.4 100.629 338C101.429 337.6 101.962 336.933 101.962 336.533C101.962 336.266 101.429 336 100.629 336C99.9621 336 99.2954 336.666 99.2954 337.466Z" fill="black"/>
<path d="M159.962 337.334C159.029 338.8 161.162 338.8 165.962 337.334C169.162 336.267 169.162 336.267 165.029 336.134C162.762 336 160.362 336.534 159.962 337.334Z" fill="black"/>
<path d="M215.962 337.335C215.429 338.135 217.562 338.668 221.162 338.668C224.495 338.668 227.295 338.001 227.295 337.335C227.295 336.535 224.895 336.001 222.095 336.001C219.162 336.001 216.362 336.535 215.962 337.335Z" fill="black"/>
<path d="M261.962 337.468C261.962 338.135 263.162 338.668 264.629 338.668C266.095 338.668 267.295 338.135 267.295 337.601C267.295 337.068 266.095 336.535 264.629 336.401C263.162 336.268 261.962 336.668 261.962 337.468Z" fill="black"/>
<path d="M13.9619 339.999C13.9619 340.665 15.8286 341.332 17.9619 341.332C20.2286 341.332 21.9619 340.665 21.9619 339.999C21.9619 339.199 20.2286 338.665 17.9619 338.665C15.8286 338.665 13.9619 339.199 13.9619 339.999Z" fill="black"/>
<path d="M153.295 339.999C153.695 340.665 155.028 341.332 156.095 341.332C157.162 341.332 157.962 340.665 157.962 339.999C157.962 339.199 156.762 338.665 155.162 338.665C153.695 338.665 152.895 339.199 153.295 339.999Z" fill="black"/>
<path d="M232.628 339.999C232.628 340.665 234.762 341.332 237.428 341.332C240.228 341.332 241.828 340.799 241.295 339.999C240.895 339.199 238.762 338.665 236.495 338.665C234.362 338.665 232.628 339.199 232.628 339.999Z" fill="black"/>
<path d="M243.295 340C243.295 340.667 244.495 341.334 245.829 341.334C247.295 341.334 248.762 342.134 249.029 342.934C249.562 344.267 249.829 344.267 249.829 342.934C249.962 342 251.829 341.334 254.629 341.334C257.162 341.334 259.295 340.667 259.295 340C259.295 339.2 255.695 338.667 251.295 338.667C246.895 338.667 243.295 339.2 243.295 340Z" fill="black"/>
<path d="M377.295 340.131C376.895 340.665 377.562 340.931 378.628 340.798C381.428 340.398 382.362 339.065 379.962 339.065C378.762 339.065 377.562 339.598 377.295 340.131Z" fill="black"/>
<path d="M0.228571 341.999C0.628571 343.066 1.42857 343.599 2.09524 343.199C3.69524 342.266 3.5619 341.733 1.42857 340.933C0.0952381 340.399 -0.304762 340.799 0.228571 341.999Z" fill="black"/>
<path d="M50.3619 340.933C48.3619 341.6 48.0952 344 49.8286 344C50.4952 344 51.2952 343.067 51.8286 342C52.2286 340.933 52.3619 340 52.2286 340.133C52.0952 340.133 51.1619 340.533 50.3619 340.933Z" fill="black"/>
<path d="M7.96191 342.667C8.36191 343.333 9.29524 344 10.0952 344C10.7619 344 11.2952 343.333 11.2952 342.667C11.2952 341.867 10.3619 341.333 9.16191 341.333C8.09524 341.333 7.56191 341.867 7.96191 342.667Z" fill="black"/>
<path d="M83.2954 342.667C83.2954 343.333 84.0954 344 85.1621 344C86.2287 344 87.5621 343.333 87.9621 342.667C88.3621 341.867 87.5621 341.333 86.0954 341.333C84.4954 341.333 83.2954 341.867 83.2954 342.667Z" fill="black"/>
<path d="M147.295 342.667C147.295 343.334 146.095 344 144.629 344C143.162 344 141.962 344.534 141.962 345.334C141.962 347.2 144.895 346.934 147.695 344.8C150.229 342.8 150.629 341.334 148.629 341.334C147.962 341.334 147.295 341.867 147.295 342.667Z" fill="black"/>
<path d="M365.962 342.667C365.962 343.333 366.895 344 368.095 344C369.162 344 369.695 343.333 369.295 342.667C368.895 341.867 367.962 341.333 367.162 341.333C366.495 341.333 365.962 341.867 365.962 342.667Z" fill="black"/>
<path d="M410.762 342.799C411.162 343.599 413.028 343.999 414.895 343.599C416.895 343.199 418.495 343.732 418.895 344.799C419.695 346.799 427.295 346.932 427.295 344.932C427.295 344.266 425.695 343.999 423.828 344.399C421.695 344.799 420.095 344.399 419.695 343.199C419.295 342.132 417.028 341.332 414.362 341.332C411.428 341.332 410.095 341.866 410.762 342.799Z" fill="black"/>
<path d="M293.295 345.468C292.762 346.135 302.229 346.668 317.162 346.668C331.429 346.535 341.962 346.001 341.962 345.335C341.962 343.735 294.229 343.868 293.295 345.468Z" fill="black"/>
<path d="M352.628 345.333C352.628 346 353.562 346.267 354.628 345.867C355.695 345.333 356.628 344.8 356.628 344.533C356.628 344.267 355.695 344 354.628 344C353.562 344 352.628 344.533 352.628 345.333Z" fill="black"/>
<path d="M475.295 345.335C475.295 346.001 475.962 346.668 476.629 346.668C477.429 346.668 477.962 346.001 477.962 345.335C477.962 344.535 477.429 344.001 476.629 344.001C475.962 344.001 475.295 344.535 475.295 345.335Z" fill="black"/>
<path d="M469.295 346.266C467.162 346.666 465.029 347.466 464.629 348.132C464.229 348.799 459.162 349.332 453.562 349.599C447.829 349.732 443.962 350.266 444.762 350.799C447.162 352.266 464.629 352.266 464.629 350.666C464.629 349.999 466.362 349.332 468.495 349.332C470.629 349.332 472.629 348.532 473.162 347.332C473.562 346.266 473.695 345.466 473.562 345.466C473.429 345.599 471.562 345.999 469.295 346.266Z" fill="black"/>
<path d="M60.6287 348.001C63.2953 349.734 69.962 349.734 69.962 348.001C69.962 347.201 67.4287 346.668 64.362 346.668C60.0953 346.668 59.162 347.068 60.6287 348.001Z" fill="black"/>
<path d="M136.628 347.999C136.628 348.665 137.828 349.332 139.428 349.332C140.895 349.332 141.695 348.665 141.295 347.999C140.895 347.199 139.562 346.665 138.495 346.665C137.428 346.665 136.628 347.199 136.628 347.999Z" fill="black"/>
<path d="M429.962 348.132C429.962 348.932 431.829 349.332 434.362 349.199C436.762 348.932 439.562 349.332 440.495 349.865C441.695 350.665 442.095 350.532 441.429 349.599C441.029 348.932 441.429 347.865 442.229 347.599C443.162 347.199 440.762 346.799 437.029 346.799C432.762 346.665 429.962 347.199 429.962 348.132Z" fill="black"/>
<path d="M51.2954 350.665C51.2954 352.398 52.7621 352.398 55.2954 350.665C56.8954 349.598 56.7621 349.332 54.3621 349.332C52.6287 349.332 51.2954 349.865 51.2954 350.665Z" fill="black"/>
<path d="M273.962 350.667C273.962 351.333 274.629 352 275.429 352C276.095 352 276.362 351.333 275.962 350.667C275.562 349.867 274.895 349.333 274.495 349.333C274.229 349.333 273.962 349.867 273.962 350.667Z" fill="black"/>
<path d="M250.629 353.335C251.029 354.001 253.162 354.668 255.429 354.668C257.562 354.668 259.295 354.001 259.295 353.335C259.295 352.535 257.162 352.001 254.495 352.001C251.695 352.001 250.095 352.535 250.629 353.335Z" fill="black"/>
<path d="M239.695 354.268C235.828 354.534 232.628 355.334 232.628 356.134C232.628 356.801 230.495 357.334 227.828 357.334C225.028 357.334 223.428 357.868 223.962 358.668C225.162 360.534 232.362 360.268 232.895 358.401C233.295 357.334 235.695 356.934 239.562 357.201C244.095 357.468 245.828 356.934 246.362 355.468C246.895 354.268 247.028 353.468 246.895 353.601C246.762 353.734 243.428 354.001 239.695 354.268Z" fill="black"/>
<path d="M119.295 356.134C119.295 356.801 119.962 357.068 120.629 356.668C121.429 356.268 121.962 355.601 121.962 355.201C121.962 354.934 121.429 354.668 120.629 354.668C119.962 354.668 119.295 355.334 119.295 356.134Z" fill="black"/>
<path d="M125.962 358.665C125.962 360.398 127.429 360.398 129.962 358.665C131.562 357.598 131.429 357.332 129.029 357.332C127.295 357.332 125.962 357.865 125.962 358.665Z" fill="black"/>
<path d="M133.962 361.335C133.962 362.001 136.495 362.668 139.695 362.668C143.829 362.668 144.762 362.268 143.295 361.335C140.629 359.601 133.962 359.601 133.962 361.335Z" fill="black"/>
<path d="M205.962 361.067C205.962 362 203.829 362.667 200.629 362.667C197.695 362.667 195.295 363.2 195.295 364C195.295 366.4 205.562 365.6 206.495 363.2C207.029 362 207.029 360.667 206.629 360.267C206.229 359.867 205.962 360.267 205.962 361.067Z" fill="black"/>
<path d="M208.628 361.335C208.628 362.001 210.762 362.668 213.295 362.668C215.828 362.668 217.962 362.001 217.962 361.335C217.962 360.535 215.828 360.001 213.295 360.001C210.762 360.001 208.628 360.535 208.628 361.335Z" fill="black"/>
<path d="M145.295 364.135C144.629 364.935 146.629 365.335 151.162 365.201C154.895 364.935 157.962 364.401 157.962 363.735C157.962 362.135 146.229 362.401 145.295 364.135Z" fill="black"/>
<path d="M162.629 366.667C163.029 367.467 169.295 368 176.762 368C184.629 368 189.962 367.467 189.962 366.667C189.962 365.867 184.362 365.333 175.829 365.333C166.895 365.333 162.095 365.867 162.629 366.667Z" fill="black"/>
</svg>
