<svg width="568" height="534" viewBox="0 0 568 534" fill="none" xmlns="http://www.w3.org/2000/svg">
<path d="M566 1.33464C565.6 2.0013 565.867 2.66797 566.533 2.66797C567.333 2.66797 568 2.0013 568 1.33464C568 0.534635 567.733 0.00130194 567.467 0.00130194C567.067 0.00130194 566.4 0.534635 566 1.33464Z" fill="black"/>
<path d="M557.333 6.66667C557.333 7.33333 558 8 558.667 8C559.467 8 560 7.33333 560 6.66667C560 5.86667 559.467 5.33333 558.667 5.33333C558 5.33333 557.333 5.86667 557.333 6.66667Z" fill="black"/>
<path d="M564.4 7.33466C563.467 8.40133 562.667 10.1347 562.667 11.2013C562.667 12.268 561.867 13.3347 561.067 13.7347C560.133 14.0013 559.733 14.8013 560.267 15.3347C561.467 16.5347 565.333 12.8013 565.333 10.4013C565.333 9.33466 566 7.86799 566.933 6.93466C567.867 6.00133 568 5.33466 567.333 5.33466C566.533 5.46799 565.2 6.26799 564.4 7.33466Z" fill="black"/>
<path d="M549.333 14.6665C547.467 16.7998 545.2 18.6665 544.267 18.6665C543.333 18.6665 538.933 22.2665 534.667 26.6665C530.4 31.0665 525.867 34.6665 524.8 34.6665C523.6 34.6665 522.667 35.1998 522.667 35.7332C522.667 38.7998 527.867 36.2665 533.467 30.5332C536.933 26.9332 540.533 23.8665 541.467 23.7332C543.2 23.3332 554.667 12.6665 554.667 11.3332C554.667 9.59982 552.4 11.0665 549.333 14.6665Z" fill="black"/>
<path d="M555.733 21.6013C553.733 24.0013 552 26.8013 552 27.6013C552 28.5346 551.467 29.3346 550.667 29.3346C550 29.3346 549.333 30.5346 549.333 32.0013C549.333 33.468 550 34.668 550.667 34.668C551.467 34.668 552 33.468 552 32.0013C552 30.5346 552.667 29.3346 553.333 29.3346C554.133 29.3346 554.667 28.4013 554.667 27.2013C554.667 26.0013 555.867 23.868 557.467 22.5346C559.067 21.2013 560 19.468 559.733 18.668C559.467 17.868 557.6 19.2013 555.733 21.6013Z" fill="black"/>
<path d="M546.666 35.0667C546.666 36.2667 546.133 37.3333 545.333 37.3333C544.666 37.3333 544 38.5333 544 40C544 41.4667 543.466 42.6667 542.666 42.6667C542 42.6667 541.333 43.7333 541.333 45.0667C541.333 46.4 540.133 48.2667 538.666 49.3333C535.866 51.3333 534.933 56 537.333 56C538.133 56 538.666 54.9333 538.666 53.6C538.666 52.2667 539.866 50.4 541.333 49.3333C542.8 48.2667 544 46.4 544 45.0667C544 43.7333 544.666 42.6667 545.333 42.6667C546.133 42.6667 546.666 41.4667 546.666 40.1333C546.666 38.6667 547.466 37.3333 548.4 36.9333C549.733 36.4 549.733 36 548.4 34.5333C546.933 33.0667 546.666 33.2 546.666 35.0667Z" fill="black"/>
<path d="M520 38.5312C520 40.2645 521.6 41.1979 523.467 40.3979C526.133 39.3312 525.733 37.8645 522.667 37.7312C521.2 37.5979 520 37.9979 520 38.5312Z" fill="black"/>
<path d="M517.333 41.332C517.333 41.9987 516.4 42.6654 515.333 42.6654C514.133 42.6654 511.733 44.132 510 45.9987C507.067 48.7987 505.467 53.332 507.333 53.332C507.733 53.332 510.8 50.6654 514 47.332C520.133 41.1987 520.933 39.9987 518.667 39.9987C518 39.9987 517.333 40.532 517.333 41.332Z" fill="black"/>
<path d="M266.267 50.0008C265.733 51.0675 266.133 52.2675 266.933 52.8008C267.867 53.3342 268 53.2008 267.467 52.2675C266.8 51.0675 271.867 50.6675 287.2 50.6675C299.467 50.6675 308.133 51.2008 308.667 52.0008C309.867 53.8675 330.667 53.7342 330.667 51.8675C330.667 50.8008 327.2 50.5342 320 50.9342C312 51.2008 309.333 50.9342 309.333 49.7342C309.333 47.0675 267.2 47.3342 266.267 50.0008Z" fill="black"/>
<path d="M248 51.9987C248 52.7987 251.6 53.332 256 53.332C260.4 53.332 264 52.7987 264 51.9987C264 51.1987 260.4 50.6654 256 50.6654C251.6 50.6654 248 51.1987 248 51.9987Z" fill="black"/>
<path d="M503.067 52.9333C500.4 53.8667 501.067 56 504 56C505.467 56 506.667 55.4667 506.667 54.8C506.667 53.0667 505.067 52.2667 503.067 52.9333Z" fill="black"/>
<path d="M231.6 54.9331C231.2 56.2664 232.8 56.5331 238.133 56.2664C242.133 55.9998 245.333 55.1998 245.333 54.5331C245.333 52.6664 232.4 53.0664 231.6 54.9331Z" fill="black"/>
<path d="M333.333 54.6667C333.333 55.3333 335.2 56 337.333 56C339.6 56 341.333 55.3333 341.333 54.6667C341.333 53.8667 339.6 53.3333 337.333 53.3333C335.2 53.3333 333.333 53.8667 333.333 54.6667Z" fill="black"/>
<path d="M533.333 56.4003C533.333 57.6003 532.8 58.667 532 58.667C531.333 58.667 530.667 59.867 530.667 61.3337C530.667 62.8003 530.133 64.0003 529.333 64.0003C528.667 64.0003 528 64.9337 528 66.0003C528 67.067 527.467 68.0003 526.667 68.0003C526 68.0003 525.333 68.9337 525.333 70.0003C525.333 71.067 524.8 72.0003 524 72.0003C523.333 72.0003 522.667 73.2003 522.667 74.667C522.667 76.1337 522.133 77.3337 521.333 77.3337C520.667 77.3337 520 78.5337 520 80.0003C520 81.467 519.467 82.667 518.667 82.667C518 82.667 517.333 83.867 517.333 85.3337C517.333 86.8003 516.8 88.0003 516 88.0003C515.333 88.0003 514.667 89.2003 514.667 90.5337C514.667 92.0003 513.867 93.3337 513.067 93.7337C512.133 94.0003 511.733 94.8003 512.267 95.3337C513.467 96.667 517.333 92.8003 517.333 90.1337C517.333 88.9337 518 88.0003 518.667 88.0003C519.467 88.0003 520 86.8003 520 85.3337C520 83.867 520.667 82.667 521.333 82.667C522.133 82.667 522.667 81.467 522.667 80.0003C522.667 78.5337 523.333 77.3337 524 77.3337C524.8 77.3337 525.333 76.267 525.333 74.9337C525.333 73.6003 526.533 71.7337 528 70.667C529.467 69.6003 530.667 67.7337 530.667 66.4003C530.667 65.067 531.333 64.0003 532 64.0003C532.8 64.0003 533.333 62.8003 533.333 61.467C533.333 60.0003 534.133 58.667 535.067 58.267C536.4 57.7337 536.4 57.3337 535.067 55.867C533.6 54.4003 533.333 54.5337 533.333 56.4003Z" fill="black"/>
<path d="M221.333 57.3346C221.333 58.0013 223.2 58.668 225.333 58.668C227.6 58.668 229.333 58.0013 229.333 57.3346C229.333 56.5346 227.6 56.0013 225.333 56.0013C223.2 56.0013 221.333 56.5346 221.333 57.3346Z" fill="black"/>
<path d="M344 57.3311C344 57.9978 345.467 58.6644 347.2 58.6644C349.067 58.6644 350.933 59.1978 351.333 59.9978C351.733 60.6644 353.867 61.3311 356.133 61.3311C358.267 61.3311 360 61.8644 360 62.6644C360 63.3311 361.867 63.9978 364 63.9978C366.267 63.9978 368 64.6644 368 65.5978C368 66.3978 368.267 66.7978 368.667 66.3978C369.067 65.9978 368.933 64.6644 368.533 63.4644C367.867 61.8644 366.667 61.3311 364.4 61.7311C362.4 62.1311 360.8 61.5978 360.4 60.5311C360 59.4644 358 58.6644 355.867 58.6644C353.733 58.6644 352 57.9978 352 57.3311C352 56.5311 350.267 55.9978 348 55.9978C345.867 55.9978 344 56.5311 344 57.3311Z" fill="black"/>
<path d="M498.667 57.0645C498.667 59.0645 500.133 59.8645 502.267 59.0645C503.867 58.3979 503.867 58.1312 502.4 57.1979C500.133 55.7312 498.667 55.7312 498.667 57.0645Z" fill="black"/>
<path d="M210.667 60C210.667 60.6667 208.933 61.3333 206.667 61.3333C204.533 61.3333 202.667 61.8667 202.667 62.6667C202.667 63.3333 201.067 64 199.2 64C197.333 64 196.133 64.5333 196.667 65.3333C197.2 66.1333 195.733 66.6667 193.467 66.6667C191.2 66.6667 189.333 67.2 189.333 68C189.333 68.6667 188.133 69.3333 186.667 69.3333C185.2 69.3333 184 69.8667 184 70.6667C184 71.3333 182.8 72 181.333 72C179.867 72 178.667 72.5333 178.667 73.3333C178.667 74 177.467 74.6667 176 74.6667C174.533 74.6667 173.333 75.2 173.333 76C173.333 76.6667 172.133 77.3333 170.667 77.3333C169.2 77.3333 168 77.8667 168 78.6667C168 79.3333 169.867 80 172.133 80C174.4 80 175.867 79.4667 175.333 78.6667C174.933 77.8667 175.467 77.3333 176.533 77.3333C177.733 77.3333 178.667 76.6667 178.667 76C178.667 75.2 179.867 74.6667 181.333 74.6667C182.8 74.6667 184 74 184 73.3333C184 72.5333 185.2 72 186.667 72C188.133 72 189.333 71.3333 189.333 70.6667C189.333 69.8667 190.8 69.3333 192.533 69.3333C194.4 69.3333 196.267 68.6667 196.667 68C197.067 67.2 198.667 66.6667 200 66.6667C201.333 66.6667 202.667 66.1333 202.933 65.3333C203.2 64.6667 204.933 63.8667 207.067 63.7333C209.067 63.6 210.667 62.9333 210.667 62.4C210.667 61.8667 212.533 61.3333 214.667 61.3333C216.933 61.3333 218.667 60.6667 218.667 60C218.667 59.2 216.933 58.6667 214.667 58.6667C212.533 58.6667 210.667 59.2 210.667 60Z" fill="black"/>
<path d="M493.333 62.6675C491.467 64.8009 489.2 66.6675 488.267 66.6675C487.333 66.6675 483.6 69.6009 480 73.3342C476.4 76.9342 472.8 80.0009 472.133 80.0009C471.333 80.0009 464.4 86.2675 456.667 94.0009C448.933 101.734 442.133 108.001 441.467 108.001C440.133 108.001 432 115.334 432 116.534C432 119.601 437.6 115.734 447.2 106.268C460 93.7342 463.467 90.6675 465.467 90.6675C466.133 90.6675 466.4 90.0009 466 89.3342C465.6 88.5342 465.867 88.0009 466.667 88.0009C467.467 88.0009 471.733 84.4009 476 80.0009C480.267 75.6009 484.533 72.0009 485.333 72.0009C486.667 72.0009 498.667 60.6675 498.667 59.3342C498.667 57.6009 496.4 59.0675 493.333 62.6675Z" fill="black"/>
<path d="M370.667 65.3346C370.667 66.0013 371.867 66.668 373.333 66.668C374.8 66.668 376 66.0013 376 65.3346C376 64.5346 374.8 64.0013 373.333 64.0013C371.867 64.0013 370.667 64.5346 370.667 65.3346Z" fill="black"/>
<path d="M376 68.0005C376 68.6672 377.2 69.3339 378.667 69.3339C380.133 69.3339 381.333 69.8672 381.333 70.5339C381.333 71.2005 382.933 72.0005 385.067 72.4005C387.067 72.8005 390.133 74.4005 391.867 75.8672C394.933 78.5339 397.333 78.5339 397.333 75.8672C397.333 75.2005 396.267 74.6672 394.933 74.6672C393.6 74.6672 391.733 73.4672 390.667 72.0005C389.6 70.4005 387.2 69.3339 385.067 69.3339C383.067 69.3339 381.333 68.6672 381.333 68.0005C381.333 67.2005 380.133 66.6672 378.667 66.6672C377.2 66.6672 376 67.2005 376 68.0005Z" fill="black"/>
<path d="M397.333 78.1325C397.333 79.4658 401.067 82.6658 402.533 82.6658C403.333 82.6658 404 83.1991 404 83.9991C404 84.6658 404.8 85.3325 405.733 85.3325C406.667 85.3325 408.267 86.5325 409.333 87.9991C410.4 89.4658 412.267 90.6658 413.467 90.6658C414.8 90.6658 416 91.4658 416.4 92.2658C416.667 93.1991 417.467 93.5991 418 93.0658C419.2 91.8658 412.8 85.3325 410.4 85.3325C409.333 85.3325 407.733 84.1325 406.667 82.6658C405.6 81.1991 403.733 79.9991 402.4 79.9991C401.067 79.9991 400 79.3325 400 78.6658C400 77.8658 399.467 77.3325 398.667 77.3325C398 77.3325 397.333 77.7325 397.333 78.1325Z" fill="black"/>
<path d="M162.667 81.0678C162.667 82.9345 164.133 83.8678 166.133 83.0678C168.933 82.0012 168.4 80.0012 165.333 80.0012C163.867 80.0012 162.667 80.5345 162.667 81.0678Z" fill="black"/>
<path d="M160 83.9981C160 84.6647 158.8 85.3314 157.333 85.3314C155.867 85.3314 154.667 85.8647 154.667 86.6647C154.667 87.3314 153.733 87.9981 152.667 87.9981C150.267 87.9981 140.667 97.0647 141.733 98.2647C142.133 98.6647 144.133 97.3314 146 95.4647C147.867 93.4647 150.133 92.3981 150.933 92.7981C151.867 93.3314 152 93.0647 151.467 92.2647C150.933 91.3314 151.333 90.6647 152.533 90.6647C153.6 90.6647 154.667 90.1314 154.933 89.4647C155.2 88.7981 156.267 87.9981 157.333 87.7314C160.933 86.9314 164.4 82.6647 161.333 82.6647C160.667 82.6647 160 83.1981 160 83.9981Z" fill="black"/>
<path d="M418.667 95.1982C418.667 95.4649 419.6 96.1316 420.8 96.5316C421.867 96.9316 422.4 96.7982 422 95.9982C421.2 94.6649 418.667 94.1316 418.667 95.1982Z" fill="black"/>
<path d="M510.4 98.1333C509.733 98.6666 509.333 100.267 509.333 101.6C509.333 102.933 508.8 104 508 104C507.333 104 506.667 105.2 506.667 106.533C506.667 108 505.867 109.333 505.067 109.733C504.133 110 503.733 110.8 504.267 111.333C505.467 112.667 509.333 108.8 509.333 106.267C509.333 105.067 510 104 510.8 103.733C511.6 103.467 512 101.867 511.733 100.133C511.6 98.5333 510.933 97.6 510.4 98.1333Z" fill="black"/>
<path d="M134.667 101.334C133.6 102.801 132 104.001 131.2 104.001C129.067 104.001 101.334 131.334 101.334 133.468C101.334 134.268 100 136.134 98.4002 137.468C96.9336 138.934 95.8669 140.401 96.4002 140.801C97.3336 141.868 104 135.334 104 133.334C104 131.734 117.867 117.868 122.667 114.668C124.4 113.601 128.267 110.134 131.467 106.934C134.667 103.868 138.267 101.334 139.334 101.334C140.534 101.334 141.067 100.668 140.667 100.001C139.334 97.8678 136.8 98.4011 134.667 101.334Z" fill="black"/>
<path d="M412.666 102.667C413.066 103.333 414 104 414.8 104C415.466 104 416 103.333 416 102.667C416 101.867 415.066 101.333 413.866 101.333C412.8 101.333 412.266 101.867 412.666 102.667Z" fill="black"/>
<path d="M408 105.2C408 106 406 106.667 403.733 106.933L399.333 107.467L402.933 108.533C405.6 109.333 407.2 109.067 408.667 107.6C410.933 105.2 411.2 104 409.333 104C408.667 104 408 104.533 408 105.2Z" fill="black"/>
<path d="M396 110.667C396 111.333 397.467 112 399.333 112C401.2 112 402.667 111.333 402.667 110.667C402.667 109.867 401.2 109.333 399.333 109.333C397.467 109.333 396 109.867 396 110.667Z" fill="black"/>
<path d="M392 113.335C392 114.001 392.667 114.668 393.333 114.668C394.133 114.668 394.667 114.001 394.667 113.335C394.667 112.535 394.133 112.001 393.333 112.001C392.667 112.001 392 112.535 392 113.335Z" fill="black"/>
<path d="M386.133 116.666C385.733 117.733 384.533 118.266 383.333 117.866C382.267 117.466 381.333 117.733 381.333 118.533C381.333 120.666 385.2 120.399 387.467 118.133C389.6 115.866 389.867 114.666 388.133 114.666C387.467 114.666 386.667 115.599 386.133 116.666Z" fill="black"/>
<path d="M501.333 117.331C501.333 118.798 500.8 119.998 500 119.998C499.333 119.998 498.667 121.198 498.667 122.664C498.667 124.131 498.133 125.331 497.333 125.331C496.667 125.331 496 126.531 496 127.998C496 129.464 495.467 130.664 494.667 130.664C494 130.664 493.333 131.864 493.333 133.331C493.333 134.798 492.667 135.998 491.733 135.998C490.933 135.998 490.533 136.264 490.933 136.664C492.4 138.131 496 135.598 496 133.198C496 131.864 496.667 130.664 497.333 130.664C498.133 130.664 498.667 129.464 498.667 127.998C498.667 126.531 499.333 125.331 500 125.331C500.8 125.331 501.333 124.131 501.333 122.664C501.333 121.198 502 119.998 502.667 119.998C503.467 119.998 504 118.798 504 117.331C504 115.864 503.467 114.664 502.667 114.664C502 114.664 501.333 115.864 501.333 117.331Z" fill="black"/>
<path d="M266.667 118.667C266.667 119.333 264 120 260.8 120C257.467 120 254.4 120.533 254 121.333C253.6 122 251.467 122.667 249.2 122.667C247.067 122.667 245.333 123.2 245.333 124C245.333 124.667 243.6 125.333 241.333 125.333C239.2 125.333 237.333 125.867 237.333 126.667C237.333 127.333 239.2 128 241.333 128C243.6 128 245.333 127.333 245.333 126.667C245.333 125.867 247.2 125.333 249.333 125.333C251.6 125.333 253.333 124.667 253.333 124C253.333 123.2 256.4 122.667 260 122.667C263.733 122.667 266.667 122 266.667 121.333C266.667 120.533 275.733 120 291.067 120C307.2 120 314.667 119.467 313.334 118.667C310.667 116.933 266.667 116.933 266.667 118.667Z" fill="black"/>
<path d="M422.933 124.801C418.933 128.934 416 132.534 416.4 132.934C417.066 133.601 432 119.334 432 118.001C432 116.268 429.466 118.134 422.933 124.801Z" fill="black"/>
<path d="M376.667 119.733C375.2 120 373.067 121.467 371.867 122.8C370.667 124.267 368.133 125.467 366.133 125.6C361.333 126 361.733 128 366.667 128C368.933 128 370.667 127.333 370.667 126.667C370.667 125.867 371.867 125.333 373.467 125.333C375.333 125.333 376 124.667 375.6 123.6C375.067 122.267 375.867 121.867 378.133 122.4C379.867 122.667 381.333 122.4 381.333 121.6C381.333 119.6 379.867 119.067 376.667 119.733Z" fill="black"/>
<path d="M316.667 121.335C317.067 122.001 320.133 122.668 323.467 122.668C327.2 122.668 329.2 122.135 328.667 121.335C328.267 120.535 325.2 120.001 321.867 120.001C318.133 120.001 316.133 120.535 316.667 121.335Z" fill="black"/>
<path d="M330.667 123.868C330.667 124.668 332.933 125.334 336 125.334C338.933 125.334 341.333 125.868 341.333 126.534C341.333 127.734 346.667 128.934 357.333 130.134C361.733 130.668 362.8 130.401 361.333 129.468C360.267 128.668 357.467 128.001 355.067 128.001C352.8 128.001 350.533 127.468 350.133 126.801C349.733 126.134 347.2 125.201 344.667 124.801C342.133 124.401 337.867 123.601 335.333 123.201C332.267 122.668 330.667 122.934 330.667 123.868Z" fill="black"/>
<path d="M229.333 129.332C229.333 129.999 228.133 130.665 226.667 130.665C225.2 130.665 224 131.199 224 131.999C224 132.665 225.2 133.332 226.667 133.332C228.133 133.332 229.333 132.665 229.333 131.999C229.333 131.199 230.533 130.665 232 130.665C233.467 130.665 234.667 129.999 234.667 129.332C234.667 128.532 233.467 127.999 232 127.999C230.533 127.999 229.333 128.532 229.333 129.332Z" fill="black"/>
<path d="M219.067 132.931C217.333 133.197 216 134.131 216 134.797C216 135.464 214.8 135.997 213.333 135.997C211.867 135.997 210.667 136.531 210.667 137.331C210.667 137.997 209.467 138.664 208 138.664C206.533 138.664 205.333 139.197 205.333 139.864C205.333 140.531 203.6 141.731 201.333 142.664C199.2 143.597 197.333 144.797 197.333 145.464C197.333 146.131 196.4 146.664 195.2 146.664C194.133 146.664 190.267 149.597 186.667 153.331C183.067 156.931 179.733 159.997 179.333 159.997C177.6 159.997 170.8 166.397 171.6 167.197C172 167.597 170.8 168.664 168.933 169.464C166.933 170.397 165.733 171.597 166.133 172.131C166.4 172.664 164 175.864 160.667 179.197C157.333 182.531 154.667 186.131 154.667 187.331C154.667 188.397 154.133 189.331 153.467 189.331C152.8 189.331 151.733 190.531 151.333 191.997C150.8 193.464 149.067 196.264 147.2 197.997C145.467 199.731 144 202.131 144 203.331C144 204.397 143.467 205.331 142.667 205.331C142 205.331 141.333 206.531 141.333 207.997C141.333 209.464 140.8 210.664 140 210.664C139.333 210.664 138.667 211.864 138.667 213.331C138.667 214.797 138.133 215.997 137.333 215.997C136.667 215.997 136 217.197 136 218.664C136 220.131 135.467 221.331 134.667 221.331C134 221.331 133.333 223.064 133.333 225.331C133.333 227.464 132.8 229.331 132 229.331C131.333 229.331 130.667 230.531 130.667 231.997C130.667 233.464 131.333 234.664 132 234.664C132.8 234.664 133.333 233.464 133.333 231.997C133.333 230.531 134 229.331 134.667 229.331C135.467 229.331 136 227.464 136 225.331C136 223.064 136.667 221.331 137.333 221.331C138.133 221.331 138.667 220.131 138.667 218.664C138.667 217.197 139.333 215.997 140 215.997C140.8 215.997 141.333 214.797 141.333 213.331C141.333 211.864 142 210.664 142.667 210.664C143.467 210.664 144 209.464 144 207.997C144 206.531 144.667 205.331 145.333 205.331C146.133 205.331 146.667 204.397 146.667 203.197C146.667 201.997 148.533 199.331 150.8 197.197C153.067 195.064 154.267 193.331 153.333 193.331C152.4 193.331 153.6 191.597 155.867 189.464C158.133 187.331 160 184.931 160 184.131C160 181.864 193.067 149.331 195.333 149.331C196.4 149.331 197.333 148.797 197.333 148.131C197.333 147.464 199.2 146.264 201.333 145.331C203.6 144.397 205.333 143.197 205.333 142.531C205.333 141.864 206.533 141.331 208 141.331C209.467 141.331 210.667 140.664 210.667 139.997C210.667 139.197 211.867 138.664 213.333 138.664C214.8 138.664 216 137.997 216 137.331C216 136.531 217.2 135.997 218.533 135.997C219.867 135.997 221.333 135.064 221.867 133.997C222.267 132.931 222.4 132.131 222.267 132.131C222.133 132.264 220.667 132.664 219.067 132.931Z" fill="black"/>
<path d="M411.2 135.465C411.6 136.665 412 137.865 412 138.131C412 138.531 412.8 137.998 413.867 137.065C416 135.065 415.334 133.331 412.4 133.331C411.067 133.331 410.667 134.131 411.2 135.465Z" fill="black"/>
<path d="M406.8 138.132C405.867 139.199 405.467 140.532 405.867 140.932C406.8 141.866 410.667 138.799 410.667 137.199C410.667 135.466 408.934 135.866 406.8 138.132Z" fill="black"/>
<path d="M490.667 141.198C490.667 142.664 490.134 143.998 489.467 144.264C487.467 144.931 487.067 153.731 489.067 154.264C490.134 154.664 490.667 153.198 490.667 149.464C490.667 146.398 491.334 143.998 492 143.998C492.8 143.998 493.334 142.798 493.334 141.331C493.334 139.864 492.8 138.664 492 138.664C491.334 138.664 490.667 139.864 490.667 141.198Z" fill="black"/>
<path d="M93.3335 143.468C93.3335 144.668 91.6001 147.334 89.3335 149.334C87.2001 151.334 85.3335 153.734 85.3335 154.668C85.3335 155.468 84.4001 157.068 83.3335 158.268C82.2668 159.334 81.6001 160.801 82.0001 161.468C83.3335 163.468 85.3335 162.801 85.3335 160.534C85.3335 159.334 86.9335 156.801 89.0668 154.801C91.0668 152.934 92.8001 150.401 93.0668 149.468C93.3335 148.401 94.6668 146.534 96.1335 145.201C98.4001 143.201 98.4001 142.934 96.5335 142.134C93.6001 140.934 93.3335 141.068 93.3335 143.468Z" fill="black"/>
<path d="M396 149.064C392 153.197 387.066 157.464 385.066 158.531C380.933 160.664 380.133 162.664 383.333 162.664C385.2 162.664 405.333 143.731 405.333 141.997C405.333 140.131 402.666 142.131 396 149.064Z" fill="black"/>
<path d="M485.333 160.134C485.333 163.334 485.867 165.201 486.667 164.667C487.467 164.267 488 161.734 488 159.201C488 156.667 487.467 154.667 486.667 154.667C486 154.667 485.333 157.067 485.333 160.134Z" fill="black"/>
<path d="M79.0666 164.665C78.1333 165.731 77.3333 167.465 77.3333 168.665C77.3333 169.731 76.8 170.665 76 170.665C75.3333 170.665 74.6666 171.865 74.6666 173.198C74.6666 174.665 74 175.998 73.0666 176.265C72 176.665 71.8666 177.731 72.6666 179.465C73.7333 181.865 73.8666 181.865 74.2666 178.931C74.6666 177.331 75.4666 175.998 76.1333 175.998C76.8 175.998 77.3333 174.798 77.3333 173.331C77.3333 171.865 78 170.665 78.6666 170.665C79.4666 170.665 80 169.465 80 167.998C80 166.531 80.6666 165.331 81.3333 165.331C82.1333 165.331 82.6666 164.665 82.6666 163.998C82.6666 162.131 80.9333 162.398 79.0666 164.665Z" fill="black"/>
<path d="M378.667 163.999C378.667 164.665 380 165.332 381.733 165.332C384.133 165.332 384.267 165.065 382.667 163.999C380.133 162.265 378.667 162.265 378.667 163.999Z" fill="black"/>
<path d="M368 174.664C363.2 179.731 358.133 183.864 356.667 183.998C355.2 184.131 354.667 184.531 355.6 184.798C356.533 185.198 356.8 186.531 356.267 187.731C355.867 188.931 360.4 185.064 366.4 178.931C372.267 172.931 377.867 167.998 378.667 167.998C379.467 167.998 379.733 167.331 379.333 166.664C378 164.398 377.067 165.064 368 174.664Z" fill="black"/>
<path d="M482.8 190C482.667 204.934 483.2 213.2 484 212.667C485.734 211.6 485.6 168.4 484 167.334C483.334 166.934 482.8 176.134 482.8 190Z" fill="black"/>
<path d="M69.8668 183.332C70.2668 184.532 69.7335 185.732 68.6668 186.132C67.6002 186.665 66.6668 188.132 66.6668 189.465C66.6668 190.799 66.1335 191.999 65.3335 191.999C64.6668 191.999 64.0002 193.199 64.0002 194.665C64.0002 196.132 63.4668 197.332 62.6668 197.332C62.0002 197.332 61.3335 199.065 61.3335 201.332C61.3335 203.465 62.0002 205.332 62.6668 205.332C63.4668 205.332 64.0002 204.132 64.0002 202.665C64.0002 201.199 64.6668 199.999 65.3335 199.999C66.1335 199.999 66.6668 198.132 66.6668 195.999C66.6668 193.732 67.3335 191.999 68.0002 191.999C68.8002 191.999 69.3335 190.799 69.3335 189.332C69.3335 187.865 70.0002 186.665 70.6668 186.665C71.4668 186.665 72.0002 185.465 72.0002 183.999C72.0002 182.532 71.3335 181.332 70.5335 181.332C69.7335 181.332 69.4668 182.265 69.8668 183.332Z" fill="black"/>
<path d="M338.667 201.334C330.934 209.334 323.867 215.868 322.934 215.868C320 216.134 311.6 225.468 313.067 226.934C313.867 227.734 320.667 222.001 333.2 209.468C343.6 199.068 352.667 190.934 353.467 191.334C354.134 191.868 354.667 190.934 354.667 189.468C354.667 187.868 354.267 186.668 353.734 186.801C353.067 186.801 346.4 193.334 338.667 201.334Z" fill="black"/>
<path d="M58.6668 209.333C58.6668 211.467 58.1335 213.333 57.3335 213.333C56.6668 213.333 56.0002 215.067 56.0002 217.2C56.0002 219.467 55.4668 221.6 54.6668 222C54.0002 222.4 53.3335 224.933 53.3335 227.467C53.3335 230 54.0002 232 54.6668 232C55.4668 232 56.0002 230 56.0002 227.467C56.0002 224.933 56.6668 222.4 57.3335 222C58.1335 221.6 58.6668 219.467 58.6668 217.2C58.6668 215.067 59.3335 213.333 60.0002 213.333C60.8002 213.333 61.3335 211.467 61.3335 209.333C61.3335 207.067 60.8002 205.333 60.0002 205.333C59.3335 205.333 58.6668 207.067 58.6668 209.333Z" fill="black"/>
<path d="M485.067 213.999C484 215.199 485.6 222.666 486.8 221.866C488.267 220.933 488.4 213.333 486.934 213.333C486.267 213.333 485.467 213.599 485.067 213.999Z" fill="black"/>
<path d="M405.333 222.666C405.333 223.332 404.133 223.999 402.666 223.999C401.2 223.999 400 224.532 400 225.332C400 225.999 398.8 226.666 397.333 226.666C395.866 226.666 394.666 227.199 394.666 227.866C394.666 228.532 392.933 229.732 390.666 230.666C388.533 231.599 386.666 232.799 386.666 233.466C386.666 234.132 385.6 234.666 384.4 234.666C382.533 234.666 382.4 234.932 383.866 236.266C385.333 237.599 385.733 237.599 386.266 236.266C386.666 235.466 387.866 234.666 389.2 234.666C390.4 234.666 392.266 233.466 393.333 231.999C394.4 230.532 396.266 229.332 397.6 229.332C398.933 229.332 400 228.666 400 227.999C400 227.199 401.2 226.666 402.666 226.666C404.133 226.666 405.333 225.999 405.333 225.332C405.333 224.532 406.8 223.999 408.666 223.999C410.533 223.999 412 223.332 412 222.666C412 221.866 410.533 221.332 408.666 221.332C406.8 221.332 405.333 221.866 405.333 222.666Z" fill="black"/>
<path d="M421.333 222C421.333 222.4 423.2 224.533 425.333 226.933C427.6 229.2 429.333 230.4 429.333 229.467C429.333 228.533 427.867 226.4 426 224.667C422.933 221.467 421.333 220.533 421.333 222Z" fill="black"/>
<path d="M488 226.931C488 231.198 488.4 232.131 489.333 230.665C491.067 227.998 491.067 221.331 489.333 221.331C488.667 221.331 488 223.865 488 226.931Z" fill="black"/>
<path d="M301.6 235.599C291.066 246.266 291.6 248.266 302.133 238.132C306.266 233.999 310.266 230.666 310.933 230.666C311.466 230.666 312 229.732 312 228.666C312 225.332 310.4 226.399 301.6 235.599Z" fill="black"/>
<path d="M430.267 231.464C429.733 231.998 429.333 233.731 429.333 235.198C429.467 237.731 429.467 237.864 430.8 235.598C432.267 233.064 431.867 229.864 430.267 231.464Z" fill="black"/>
<path d="M490.667 235.199C490.667 237.866 491.333 239.999 492 239.999C492.8 239.999 493.333 242.399 493.333 245.332C493.333 248.266 494 250.666 494.667 250.666C495.467 250.666 496 254.132 496 258.532C496 263.599 496.533 266.666 497.733 267.066C498.933 267.466 499.2 265.599 498.933 259.199C498.667 254.532 497.867 250.666 497.2 250.666C496.533 250.666 496 248.266 496 245.332C496 242.399 495.467 239.999 494.667 239.999C494 239.999 493.333 238.266 493.333 236.132C493.333 233.866 492.8 231.732 492 231.332C491.2 230.799 490.667 232.399 490.667 235.199Z" fill="black"/>
<path d="M128 238.265C128 240.532 127.2 242.665 126.4 242.932C125.467 243.332 126.134 243.865 127.734 244.265C130.267 244.932 130.667 244.532 130.667 241.598C130.667 239.598 130 237.065 129.334 235.998C128.4 234.532 128 235.065 128 238.265Z" fill="black"/>
<path d="M432 238.664C432 240.797 432.667 242.664 433.333 242.664C434.133 242.664 434.667 240.797 434.667 238.664C434.667 236.397 434.133 234.664 433.333 234.664C432.667 234.664 432 236.397 432 238.664Z" fill="black"/>
<path d="M50.7999 248C50.9332 253.867 51.4666 258.267 51.9999 258C53.5999 256.934 53.5999 237.334 51.9999 237.334C51.0666 237.334 50.6666 241.067 50.7999 248Z" fill="black"/>
<path d="M377.467 239.465C376.533 240.531 376.133 241.865 376.667 242.398C377.2 242.931 378 242.531 378.267 241.598C378.667 240.798 380 239.998 381.467 239.998C382.8 239.998 384 239.331 384 238.665C384 236.665 379.6 237.198 377.467 239.465Z" fill="black"/>
<path d="M369.467 244.8C368.533 245.867 368.133 247.2 368.667 247.734C369.2 248.267 370 247.867 370.267 246.934C370.667 246.134 372 245.334 373.467 245.334C374.8 245.334 376 244.667 376 244C376 242 371.6 242.534 369.467 244.8Z" fill="black"/>
<path d="M434.667 248.532C434.667 251.199 435.333 253.332 436 253.332C436.8 253.332 437.333 251.599 437.333 249.465C437.333 247.199 436.8 245.065 436 244.665C435.2 244.132 434.667 245.732 434.667 248.532Z" fill="black"/>
<path d="M125.333 251.997C125.333 255.597 126 258.664 126.667 258.664C127.467 258.664 128 255.597 128 251.997C128 248.264 127.467 245.331 126.667 245.331C126 245.331 125.333 248.264 125.333 251.997Z" fill="black"/>
<path d="M289.333 246.665C289.333 247.331 288.667 247.998 288 247.998C287.2 247.998 281.2 253.331 274.667 259.998C268.133 266.531 262.133 272.131 261.2 272.265C258.533 272.931 250.267 281.465 251.333 282.398C251.867 282.931 252.667 282.531 252.933 281.598C253.333 280.798 254.267 279.998 255.2 279.998C256.267 279.998 261.333 275.731 266.667 270.665C272 265.465 276.8 261.331 277.467 261.331C278 261.331 278.933 260.131 279.333 258.665C279.733 257.198 281.067 255.998 282.133 255.998C284 255.998 293.333 247.598 293.333 245.998C293.333 245.598 292.4 245.331 291.333 245.331C290.267 245.331 289.333 245.865 289.333 246.665Z" fill="black"/>
<path d="M362.8 248.932C361.2 250.666 360.133 252.532 360.667 253.066C361.2 253.599 362 253.199 362.267 252.266C362.667 251.466 364 250.666 365.467 250.666C368.133 250.666 368.667 249.599 366.933 247.199C366.4 246.266 364.933 246.799 362.8 248.932Z" fill="black"/>
<path d="M354.667 254.667C354.667 255.333 353.467 256 352 256C350.533 256 349.333 256.533 349.333 257.333C349.333 258 348.533 258.667 347.6 258.667C346.667 258.667 344.533 259.867 342.933 261.333C341.333 262.8 339.2 264 338 264C336.933 264 336 264.533 336 265.333C336 266 334.8 266.667 333.333 266.667C331.867 266.667 330.667 267.2 330.667 267.867C330.667 268.533 328.933 269.733 326.667 270.667C324.533 271.6 322.667 272.8 322.667 273.467C322.667 274.133 321.467 274.667 320 274.667C318.533 274.667 317.333 275.2 317.333 276C317.333 276.667 316.133 277.333 314.533 277.333C313.067 277.333 312.267 277.867 312.667 278.667C313.067 279.333 312.533 280 311.467 280C310.267 280 309.333 280.533 309.333 281.333C309.333 282 308.133 282.667 306.667 282.667C305.2 282.667 304 283.2 304 284C304 284.667 302.933 285.333 301.6 285.333C300.267 285.333 298.4 286.533 297.333 288C296.267 289.467 294.4 290.667 293.067 290.667C291.733 290.667 290.667 291.2 290.667 292C290.667 292.667 289.467 293.333 288 293.333C286.533 293.333 285.333 293.867 285.333 294.533C285.333 295.2 283.6 296.4 281.333 297.333C279.2 298.267 277.333 299.467 277.333 300.133C277.333 300.8 276.267 301.333 274.933 301.333C273.6 301.333 271.733 302.533 270.667 304C269.6 305.467 267.733 306.667 266.4 306.667C265.067 306.667 264 307.2 264 308C264 308.667 262.8 309.333 261.333 309.333C259.867 309.333 258.667 309.867 258.667 310.667C258.667 311.333 257.467 312 256 312C254.533 312 253.333 312.533 253.333 313.333C253.333 314 252.133 314.667 250.667 314.667C249.2 314.667 248 315.2 248 315.867C248 316.533 246.667 317.333 245.067 317.733C242.133 318.133 242.133 318.267 244.533 319.333C246.267 320.133 247.333 320 247.733 318.933C248 318 249.333 317.333 250.8 317.333C252.133 317.333 253.333 316.667 253.333 316C253.333 315.2 254.533 314.667 256 314.667C257.467 314.667 259.067 313.867 259.467 312.8C259.867 311.733 261.067 311.2 262.133 311.6C263.2 312 264 311.6 264 310.8C264 310 265.067 309.333 266.4 309.333C267.733 309.333 269.6 308.133 270.667 306.667C271.733 305.2 273.467 304 274.533 304C275.467 304 277.333 302.933 278.533 301.6C279.733 300.4 281.6 299.2 282.667 298.933C283.733 298.667 284.933 297.867 285.067 297.2C285.333 296.533 286.667 296 288.133 296C289.467 296 290.667 295.333 290.667 294.667C290.667 293.867 291.6 293.333 292.667 293.333C293.867 293.333 296 292.133 297.6 290.667C299.2 289.2 301.333 288 302.267 288C303.2 288 304 287.333 304 286.667C304 285.867 305.2 285.333 306.667 285.333C308.133 285.333 309.333 284.667 309.333 284C309.333 283.2 310.4 282.667 311.733 282.667C313.067 282.667 314.933 281.467 316 280C317.067 278.533 318.8 277.333 319.867 277.333C320.8 277.333 322.667 276.267 323.867 274.933C325.067 273.733 326.933 272.533 328 272.267C329.067 272 330.267 271.2 330.4 270.533C330.667 269.867 332 269.333 333.467 269.333C334.8 269.333 336 268.667 336 268C336 267.2 337.067 266.667 338.4 266.667C339.6 266.667 341.733 265.2 343.2 263.467C344.533 261.6 346.4 260.533 347.467 260.933C348.533 261.333 349.333 260.933 349.333 260.133C349.333 259.333 350.267 258.667 351.467 258.667C353.467 258.667 357.333 255.6 357.333 254.133C357.333 253.733 356.8 253.333 356 253.333C355.333 253.333 354.667 253.867 354.667 254.667Z" fill="black"/>
<path d="M437.467 280C437.467 293.867 438 304 438.667 304C439.333 304 439.867 293.867 439.867 280C439.867 266.8 439.333 256 438.667 256C438.133 256 437.467 266.8 437.467 280Z" fill="black"/>
<path d="M51.3334 261.331C50.9334 261.997 51.2001 262.664 51.8668 262.664C52.6668 262.664 53.3334 261.997 53.3334 261.331C53.3334 260.531 53.0668 259.997 52.8001 259.997C52.4001 259.997 51.7334 260.531 51.3334 261.331Z" fill="black"/>
<path d="M50.6665 265.199C50.6665 265.999 51.1998 266.799 51.7332 267.199C52.3998 267.599 52.9332 267.066 52.9332 265.999C52.9332 264.933 52.3998 263.999 51.7332 263.999C51.1998 263.999 50.6665 264.533 50.6665 265.199Z" fill="black"/>
<path d="M122.667 284C122.667 296.4 123.2 304 124 304C124.8 304 125.333 296.4 125.333 284C125.333 271.6 124.8 264 124 264C123.2 264 122.667 271.6 122.667 284Z" fill="black"/>
<path d="M51.6002 270.264C51.3335 270.931 50.9335 279.331 50.8002 288.931C50.5335 301.331 50.9335 306.664 52.0002 306.664C53.0669 306.664 53.3335 301.064 53.2002 287.997C53.0669 277.731 52.8002 269.331 52.5335 269.331C52.2669 269.331 51.8669 269.731 51.6002 270.264Z" fill="black"/>
<path d="M498.667 290.667C498.667 304 499.2 312 500 312C500.8 312 501.333 304 501.333 290.667C501.333 277.333 500.8 269.333 500 269.333C499.2 269.333 498.667 277.333 498.667 290.667Z" fill="black"/>
<path d="M248 283.599C248 284.265 248.667 285.599 249.333 286.665C250.4 288.265 250.667 288.132 250.667 285.599C250.667 283.999 250.133 282.665 249.333 282.665C248.667 282.665 248 283.065 248 283.599Z" fill="black"/>
<path d="M237.333 294.664C232.533 299.731 227.867 303.864 226.933 303.864C225.333 303.997 208 320.531 208 321.997C208 322.397 208.933 322.664 210.133 322.664C212.8 322.664 216 319.464 216 316.797C216 314.931 217.867 313.864 219.067 314.931C219.867 315.731 223.733 311.331 223.067 310.264C222.8 309.731 223.2 309.331 224 309.331C225.333 309.331 248 287.331 248 285.997C248 284.131 245.2 286.397 237.333 294.664Z" fill="black"/>
<path d="M434.667 309.199C434.667 312.132 434.133 314.932 433.333 315.332C432.667 315.732 432 317.599 432 319.465C432 321.199 431.467 322.665 430.667 322.665C430 322.665 429.333 323.865 429.333 325.332C429.333 326.799 428.8 327.999 428 327.999C427.333 327.999 426.667 329.199 426.667 330.665C426.667 332.132 427.067 333.332 427.467 333.332C428.933 333.332 431.333 329.999 431.733 327.332C432 325.865 432.8 324.399 433.467 324.265C434.133 323.999 434.667 321.732 434.667 319.199C434.667 316.665 435.333 314.665 436 314.665C436.8 314.665 437.333 312.265 437.333 309.332C437.333 306.399 436.8 303.999 436 303.999C435.333 303.999 434.667 306.399 434.667 309.199Z" fill="black"/>
<path d="M53.3335 314C53.3335 317.333 54.0002 320 54.6668 320C55.4668 320 56.0002 317.333 56.0002 314C56.0002 310.667 55.4668 308 54.6668 308C54.0002 308 53.3335 310.667 53.3335 314Z" fill="black"/>
<path d="M125.333 314.665C125.333 316.132 126 317.332 126.667 317.332C127.467 317.332 128 316.132 128 314.665C128 313.199 127.467 311.999 126.667 311.999C126 311.999 125.333 313.199 125.333 314.665Z" fill="black"/>
<path d="M496 321.333C496 325.067 496.667 328 497.333 328C498.267 328 498.667 325.333 498.533 321.333C498.267 317.6 497.733 314.667 497.067 314.667C496.533 314.667 496 317.6 496 321.333Z" fill="black"/>
<path d="M128 323.999C128 326.132 128.667 327.999 129.333 327.999C130.133 327.999 130.667 329.199 130.667 330.665C130.667 332.132 131.333 333.332 132 333.332C132.8 333.332 133.333 332.132 133.333 330.665C133.333 329.199 132.8 327.999 132 327.999C131.333 327.999 130.667 326.132 130.667 323.999C130.667 321.732 130.133 319.999 129.333 319.999C128.667 319.999 128 321.732 128 323.999Z" fill="black"/>
<path d="M238.933 322.132C238 323.199 236.533 323.599 235.733 323.199C234.8 322.665 234.667 322.932 235.2 323.732C235.733 324.665 236.8 325.332 237.467 325.332C238.933 325.332 242.667 321.999 242.667 320.799C242.667 319.332 240.667 320.132 238.933 322.132Z" fill="black"/>
<path d="M56 325.864C56 329.997 57.3333 333.464 58.6667 332.664C59.2 332.397 59.3333 333.597 58.9333 335.331C58.6667 337.331 58.9333 338.664 59.8667 338.664C60.6667 338.664 61.3333 336.797 61.3333 334.664C61.3333 332.397 60.8 330.664 60 330.664C59.3333 330.664 58.6667 328.797 58.6667 326.664C58.6667 324.397 58.1333 322.664 57.3333 322.664C56.6667 322.664 56 324.131 56 325.864Z" fill="black"/>
<path d="M204.8 324.8C204.4 325.867 204.533 326.4 205.333 326C206.133 325.6 206.667 326 206.667 326.933C206.667 328.267 207.067 328.133 207.867 326.667C209.2 324.667 208.667 322.667 206.667 322.667C206.133 322.667 205.2 323.6 204.8 324.8Z" fill="black"/>
<path d="M229.333 326.665C229.333 327.331 228.133 327.998 226.667 327.998C225.2 327.998 224 328.531 224 329.331C224 329.998 222.8 330.665 221.467 330.665C220 330.665 218.667 331.198 218.4 331.865C218.267 332.531 217.067 333.331 216 333.598C213.2 334.131 210.133 337.331 211.333 338.398C211.867 338.931 212.667 338.531 212.933 337.598C213.333 336.798 215.2 335.998 217.2 335.998C219.2 335.998 221.6 334.798 222.667 333.331C223.733 331.865 225.2 330.665 226 330.665C228.267 330.665 234.667 327.465 234.667 326.265C234.667 325.731 233.467 325.331 232 325.331C230.533 325.331 229.333 325.865 229.333 326.665Z" fill="black"/>
<path d="M200.667 331.065C197.467 334.399 195.6 337.332 196.4 337.332C197.333 337.332 205.333 329.732 205.333 328.799C205.333 327.199 203.333 328.265 200.667 331.065Z" fill="black"/>
<path d="M493.334 332.001C493.334 334.134 493.334 336.401 493.2 336.934C493.2 337.467 493.734 338.134 494.534 338.401C495.467 338.667 496 336.801 496 333.467C496 330.401 495.467 328.001 494.667 328.001C494 328.001 493.334 329.734 493.334 332.001Z" fill="black"/>
<path d="M424 336.001C424 337.468 423.467 338.668 422.667 338.668C422 338.668 421.333 339.868 421.333 341.334C421.333 342.801 420.8 344.001 420 344.001C418.4 344.001 418.267 348.934 419.733 349.868C420.4 350.268 421.6 348.401 422.533 345.868C423.467 343.468 424.8 341.334 425.467 341.334C426.133 341.334 426.667 340.134 426.667 338.668C426.667 337.201 427.467 336.001 428.4 336.001C429.467 336.001 429.333 335.468 428 334.668C424.933 332.668 424 333.068 424 336.001Z" fill="black"/>
<path d="M133.066 338.132C133.333 339.866 134.133 341.332 134.8 341.332C135.466 341.332 136 342.266 136 343.466C136 346.132 139.866 349.999 141.066 348.666C141.6 348.132 141.2 347.332 140.4 347.066C139.466 346.666 138.666 345.332 138.666 343.866C138.666 342.532 138.133 341.332 137.333 341.332C136.666 341.332 136 340.132 136 338.799C136 337.466 135.2 335.999 134.266 335.599C132.933 335.066 132.533 335.866 133.066 338.132Z" fill="black"/>
<path d="M192 339.999C192 340.665 192.667 341.332 193.333 341.332C194.133 341.332 194.667 340.665 194.667 339.999C194.667 339.199 194.133 338.665 193.333 338.665C192.667 338.665 192 339.199 192 339.999Z" fill="black"/>
<path d="M204.666 339.999C205.066 340.665 206 341.332 206.8 341.332C207.466 341.332 208 340.665 208 339.999C208 339.199 207.066 338.665 205.866 338.665C204.8 338.665 204.266 339.199 204.666 339.999Z" fill="black"/>
<path d="M490.666 343.999C490.666 346.933 490.133 349.333 489.6 349.333C488.933 349.333 488.4 350.133 488.4 350.933C488.4 351.866 488.133 353.466 487.866 354.533C487.6 355.466 488.133 356.666 489.066 356.933C490.133 357.333 490.666 356.133 490.666 353.466C490.666 351.199 491.333 349.333 492 349.333C492.8 349.333 493.333 346.933 493.333 343.999C493.333 341.066 492.8 338.666 492 338.666C491.333 338.666 490.666 341.066 490.666 343.999Z" fill="black"/>
<path d="M62.4002 340.8C60.8002 342.267 61.0668 346.667 62.6668 346.667C63.4668 346.667 64.0002 347.867 64.0002 349.333C64.0002 350.8 64.6668 352 65.3335 352C66.1335 352 66.6668 350.8 66.6668 349.333C66.6668 347.867 66.1335 346.667 65.4668 346.667C64.8002 346.667 64.0002 345.067 63.7335 343.2C63.4668 341.333 62.9335 340.267 62.4002 340.8Z" fill="black"/>
<path d="M194.667 342.667C194.667 343.333 195.867 344 197.333 344C198.8 344 200 343.333 200 342.667C200 341.867 198.8 341.333 197.333 341.333C195.867 341.333 194.667 341.867 194.667 342.667Z" fill="black"/>
<path d="M416 351.866C416 353.333 415.333 354.666 414.4 354.933C413.333 355.333 413.333 356.133 414.4 358.133C415.867 360.533 415.867 360.533 416 357.599C416 355.999 416.667 354.666 417.333 354.666C418.133 354.666 418.667 353.466 418.667 351.999C418.667 350.533 418.133 349.333 417.333 349.333C416.667 349.333 416 350.533 416 351.866Z" fill="black"/>
<path d="M65.3334 353.331C64.0001 354.131 63.8667 354.664 65.0667 354.664C65.8667 354.664 66.6667 355.597 66.6667 356.797C66.6667 358.797 69.7334 362.664 71.2001 362.664C71.6001 362.664 72.0001 361.464 72.0001 359.997C72.0001 358.531 71.4667 357.331 70.6667 357.331C70.0001 357.331 69.3334 356.131 69.3334 354.664C69.3334 351.731 68.4001 351.331 65.3334 353.331Z" fill="black"/>
<path d="M141.333 353.334C141.333 354.001 142 354.667 142.667 354.667C143.467 354.667 144 355.601 144 356.667C144 359.201 150.4 366.001 151.6 364.801C152.133 364.401 151.067 362.934 149.6 361.467C148 360.134 146.667 358.267 146.667 357.467C146.667 355.734 143.467 352.001 142.133 352.001C141.733 352.001 141.333 352.534 141.333 353.334Z" fill="black"/>
<path d="M485.333 359.997C485.333 361.464 486 362.664 486.667 362.664C487.467 362.664 488 361.464 488 359.997C488 358.531 487.467 357.331 486.667 357.331C486 357.331 485.333 358.531 485.333 359.997Z" fill="black"/>
<path d="M410.267 361.332C408.933 362.932 408.267 364.665 408.667 365.332C409.067 366.132 408.533 366.265 407.467 365.865C406 365.332 405.333 365.865 405.333 367.199C405.333 369.599 383.6 391.999 381.2 391.999C380.4 391.999 378 393.732 376 395.999C374 398.132 371.467 399.999 370.4 399.999C369.467 399.999 367.733 401.199 366.667 402.665C365.6 404.132 363.733 405.332 362.4 405.332C361.067 405.332 360 405.865 360 406.665C360 408.665 363.867 408.265 366.267 405.999C367.333 404.932 368.8 404.399 369.6 404.799C370.533 405.332 370.667 405.065 370.133 404.265C369.6 403.332 370 402.665 371.2 402.665C372.4 402.665 373.333 401.999 373.333 401.332C373.333 400.532 374.267 399.999 375.333 399.999C376.4 399.999 377.333 399.332 377.333 398.665C377.333 397.865 378 397.332 378.8 397.332C380.933 397.332 410.667 366.799 410.667 364.665C410.667 363.732 411.333 362.665 412.267 362.399C413.067 362.132 413.467 361.065 413.2 360.265C412.8 359.199 411.867 359.465 410.267 361.332Z" fill="black"/>
<path d="M72 364.667C72 365.867 73.2 368 74.6667 369.6C76.1333 371.2 77.3333 373.334 77.3333 374.267C77.3333 375.2 78 376 78.6667 376C79.4667 376 80 377.734 80 380C80 383.334 80.5333 384 83.0667 383.867C84.6667 383.867 85.2 383.467 84.4 383.067C83.4667 382.8 82.6667 380.934 82.6667 379.2C82.6667 377.467 82.1333 376 81.3333 376C80.6667 376 80 374.934 80 373.6C80 372.267 78.8 370.4 77.3333 369.334C75.8667 368.267 74.6667 366.4 74.6667 365.067C74.6667 363.734 74.1333 362.667 73.3333 362.667C72.6667 362.667 72 363.6 72 364.667Z" fill="black"/>
<path d="M151.067 366.266C150 366.666 150.533 367.866 152.667 370.133C156.4 373.866 157.333 374.133 157.333 371.2C157.333 369.333 154.267 365.2 153.067 365.466C152.8 365.466 152 365.866 151.067 366.266Z" fill="black"/>
<path d="M482.667 367.999C482.667 369.465 482.133 370.665 481.333 370.665C480.667 370.665 480 371.865 480 373.332C480 374.799 479.467 375.999 478.667 375.999C478 375.999 477.333 377.199 477.333 378.665C477.333 380.132 478 381.332 478.667 381.332C479.467 381.332 480 380.132 480 378.665C480 377.199 480.667 375.999 481.333 375.999C482.133 375.999 482.667 374.799 482.667 373.332C482.667 371.865 483.333 370.665 484 370.665C484.8 370.665 485.333 369.465 485.333 367.999C485.333 366.532 484.8 365.332 484 365.332C483.333 365.332 482.667 366.532 482.667 367.999Z" fill="black"/>
<path d="M149.6 384.933C144.934 389.599 141.334 393.866 141.734 394.266C142.4 394.933 160 377.999 160 376.666C160 374.799 157.334 376.933 149.6 384.933Z" fill="black"/>
<path d="M474.667 383.601C474.667 385.334 474 386.668 473.2 386.668C472.534 386.668 472.134 387.201 472.534 387.868C472.934 388.401 472.134 390.401 470.667 392.001C467.467 395.734 467.467 395.601 470 395.601C471.067 395.601 472 394.801 472 393.734C472 392.801 472.667 392.001 473.334 392.001C474.134 392.001 474.667 390.801 474.667 389.468C474.667 388.001 475.334 386.668 476.267 386.401C477.334 386.001 477.334 385.201 476.267 383.201C474.8 380.801 474.8 380.801 474.667 383.601Z" fill="black"/>
<path d="M80 396.799C80 401.332 80.5333 403.865 81.3333 403.332C82.1333 402.932 82.6667 399.599 82.6667 395.865C82.6667 392.265 82.1333 389.332 81.3333 389.332C80.6667 389.332 80 392.665 80 396.799Z" fill="black"/>
<path d="M135.067 399.331C132.667 401.864 130.667 404.531 130.667 405.331C130.667 407.198 125.334 412.531 122.267 413.731C121.067 414.131 120 415.198 120 415.998C120 416.798 116.267 421.064 111.867 425.464C107.334 429.864 104 433.731 104.4 434.131C105.334 435.064 135.2 405.064 135.734 402.664C136 401.598 137.334 399.864 138.8 398.531C140.134 397.331 141.334 395.998 141.334 395.464C141.334 393.731 139.2 395.064 135.067 399.331Z" fill="black"/>
<path d="M465.733 399.332C464.8 400.399 464 401.999 464 402.932C464 403.999 462.8 405.599 461.333 406.665C459.867 407.732 458.667 409.332 458.667 410.399C458.667 411.332 455.733 415.065 452 418.665C446.267 424.132 443.467 429.332 446 429.332C447.333 429.332 453.333 422.932 453.333 421.599C453.333 420.932 455.2 418.532 457.333 416.265C459.6 413.865 461.333 411.199 461.333 410.265C461.333 409.332 462.533 407.732 464 406.665C465.467 405.599 466.667 403.732 466.667 402.399C466.667 401.065 467.333 399.999 468 399.999C468.8 399.999 469.333 399.332 469.333 398.665C469.333 396.799 467.6 397.065 465.733 399.332Z" fill="black"/>
<path d="M77.3335 407.197C77.3335 409.064 78.0002 410.664 78.6668 410.664C79.4668 410.664 80.0002 409.464 80.0002 408.131C80.0002 406.664 79.4668 405.064 78.6668 404.664C77.8668 404.131 77.3335 405.331 77.3335 407.197Z" fill="black"/>
<path d="M202.667 409.198C202.667 409.998 200.667 410.664 198.4 410.931L194 411.464L197.867 412.531C200.4 413.331 202 413.198 202.667 411.998C203.733 410.398 212.533 410.664 220.4 412.664C222.667 413.331 224 413.064 224 412.131C224 411.331 222.267 410.664 220 410.664C217.867 410.664 216 409.998 216 409.331C216 408.531 213.067 407.998 209.333 407.998C205.733 407.998 202.667 408.531 202.667 409.198Z" fill="black"/>
<path d="M354.667 409.332C354.667 409.999 352.933 410.665 350.667 410.665C348.533 410.665 346.667 411.199 346.667 411.999C346.667 412.665 348.533 413.332 350.667 413.332C352.933 413.332 354.667 412.665 354.667 411.999C354.667 411.199 356.667 410.665 359.067 410.665C362.267 410.665 362.8 410.265 361.333 409.332C358.667 407.599 354.667 407.599 354.667 409.332Z" fill="black"/>
<path d="M75.2001 415.334C75.6001 416.534 75.0667 417.734 74.0001 418.134C72.9334 418.667 72.0001 420.134 72.0001 421.467C72.0001 422.801 71.4667 424.001 70.6667 424.001C70.0001 424.001 69.3334 425.201 69.3334 426.667C69.3334 428.134 68.8001 429.334 68.0001 429.334C67.3334 429.334 66.6667 430.267 66.6667 431.334C66.6667 432.534 65.4667 434.667 64.0001 436.267C62.5334 437.867 61.3334 440.001 61.3334 440.934C61.3334 441.867 60.8001 442.667 60.0001 442.667C59.3334 442.667 58.6667 443.734 58.6667 445.067C58.6667 446.401 57.4667 448.267 56.0001 449.334C54.5334 450.401 53.3334 452.267 53.3334 453.601C53.3334 454.934 52.6667 456.001 51.8667 456.001C51.0667 456.001 50.6667 456.934 51.0667 457.867C51.6001 459.201 51.2001 459.601 49.8667 459.067C48.6667 458.667 48.0001 459.334 48.0001 461.067C48.0001 462.534 47.3334 464.001 46.4001 464.267C45.4667 464.667 45.2001 465.734 46.0001 467.467C47.0667 470.001 47.0667 470.001 47.7334 467.467C48.0001 466.134 49.4667 463.734 50.8001 462.267C52.1334 460.667 53.3334 458.667 53.3334 457.734C53.3334 456.801 54.0001 456.001 54.6667 456.001C55.4667 456.001 56.0001 455.201 56.0001 454.267C56.0001 453.334 57.2001 451.201 58.6667 449.601C60.1334 448.001 61.3334 445.867 61.3334 444.667C61.3334 443.601 62.0001 442.667 62.6667 442.667C63.4667 442.667 64.0001 441.734 64.0001 440.534C64.0001 439.467 64.6667 438.934 65.3334 439.334C66.1334 439.734 66.6667 438.934 66.6667 437.467C66.6667 435.867 67.3334 434.667 68.0001 434.667C68.8001 434.667 69.3334 433.467 69.3334 432.001C69.3334 430.534 70.0001 429.334 70.6667 429.334C71.4667 429.334 72.0001 428.134 72.0001 426.667C72.0001 425.201 72.6667 424.001 73.3334 424.001C74.1334 424.001 74.6667 422.801 74.6667 421.334C74.6667 419.867 75.3334 418.667 76.0001 418.667C76.8001 418.667 77.3334 417.467 77.3334 416.001C77.3334 414.534 76.6667 413.334 75.8667 413.334C75.0667 413.334 74.8001 414.267 75.2001 415.334Z" fill="black"/>
<path d="M189.333 414.667C189.333 415.333 190.533 416 191.867 416C193.333 416 194.933 415.333 195.333 414.667C195.867 413.867 194.667 413.333 192.8 413.333C190.933 413.333 189.333 413.867 189.333 414.667Z" fill="black"/>
<path d="M226.667 414.664C226.667 415.331 227.867 415.998 229.333 415.998C230.8 415.998 232 416.664 232 417.598C232 418.398 232.267 418.798 232.667 418.398C233.067 417.998 233.067 416.664 232.533 415.464C231.6 413.198 226.667 412.398 226.667 414.664Z" fill="black"/>
<path d="M341.333 414.665C341.333 415.331 339.6 415.998 337.466 415.998C335.333 415.998 333.333 416.531 333.066 417.331C332.933 417.998 330.4 418.665 327.733 418.931C322.266 419.198 322 419.598 324 422.665C324.8 423.998 325.333 424.131 325.333 422.931C325.333 421.998 327.066 421.331 329.333 421.331C331.6 421.331 333.333 420.665 333.333 419.998C333.333 419.198 335.2 418.665 337.333 418.665C339.6 418.665 341.333 417.998 341.333 417.331C341.333 416.531 342.933 415.998 344.8 415.998C346.666 415.998 347.866 415.465 347.333 414.665C346.933 413.865 345.333 413.331 343.866 413.331C342.533 413.331 341.333 413.865 341.333 414.665Z" fill="black"/>
<path d="M183.066 417.999C180.8 420.532 180.933 421.332 183.466 421.332C185.466 421.332 189.333 418.265 189.333 416.799C189.333 415.199 184.666 416.132 183.066 417.999Z" fill="black"/>
<path d="M234.667 417.333C234.667 418 236.533 418.667 238.667 418.667C240.933 418.667 242.667 419.2 242.667 419.733C242.667 420.267 244.933 420.933 247.6 421.067C250.4 421.333 252.933 421.867 253.333 422.533C254.4 424.133 266.667 424.4 266.667 422.8C266.667 422 263.867 421.333 260 421.333C256.4 421.333 253.333 420.667 253.333 420C253.333 419.2 250.933 418.667 248 418.667C245.067 418.667 242.667 418 242.667 417.333C242.667 416.533 240.933 416 238.667 416C236.533 416 234.667 416.533 234.667 417.333Z" fill="black"/>
<path d="M176.933 422C175.733 423.067 173.867 424 172.8 424C171.6 424 170.667 424.533 170.667 425.333C170.667 426 169.467 426.667 168 426.667C166.533 426.667 165.333 427.2 165.333 428C165.333 428.667 164.4 429.333 163.333 429.333C162.267 429.333 161.333 429.867 161.333 430.667C161.333 431.333 162.267 432 163.333 432C164.4 432 165.333 431.333 165.333 430.667C165.333 429.867 166.533 429.333 168 429.333C169.467 429.333 170.667 428.667 170.667 428C170.667 427.2 171.867 426.667 173.333 426.667C174.8 426.667 176 426 176 425.333C176 424.533 177.2 424 178.667 424C181.467 424 182.267 422.133 180.133 420.667C179.467 420.267 178 420.933 176.933 422Z" fill="black"/>
<path d="M312.667 422.667C313.067 423.333 315.6 424 318.133 424C320.667 424 322.667 423.333 322.667 422.667C322.667 421.867 320.267 421.333 317.2 421.333C314 421.333 312.133 421.867 312.667 422.667Z" fill="black"/>
<path d="M272.667 425.331C272.133 426.131 278 426.664 289.2 426.664C300 426.664 306.667 426.131 306.667 425.331C306.667 424.531 300.267 423.997 290.133 423.997C280.4 423.997 273.2 424.531 272.667 425.331Z" fill="black"/>
<path d="M308 425.333C308 426 308.933 426.267 310 425.867C311.067 425.333 312 424.8 312 424.533C312 424.267 311.067 424 310 424C308.933 424 308 424.533 308 425.333Z" fill="black"/>
<path d="M442.666 430.667C442.666 431.334 441.6 432.001 440.4 432.001C438.666 432.001 438.533 432.401 439.6 433.467C440.8 434.667 441.733 434.534 443.2 432.934C445.6 430.534 445.866 429.334 444 429.334C443.333 429.334 442.666 429.867 442.666 430.667Z" fill="black"/>
<path d="M153.333 434.667C152.267 436.133 150.4 437.333 149.067 437.333C147.733 437.333 146.667 437.867 146.667 438.667C146.667 439.333 145.467 440 144 440C142.533 440 141.333 440.533 141.333 441.333C141.333 442 140.133 442.667 138.667 442.667C137.2 442.667 136 443.2 136 444C136 444.667 134.8 445.333 133.333 445.333C131.867 445.333 130.667 445.867 130.667 446.667C130.667 447.333 131.867 448 133.333 448C134.8 448 136 447.333 136 446.667C136 445.867 137.2 445.333 138.667 445.333C140.133 445.333 141.333 444.667 141.333 444C141.333 443.2 142.533 442.667 144 442.667C145.467 442.667 146.667 442 146.667 441.333C146.667 440.533 147.867 440 149.333 440C150.8 440 152 439.333 152 438.667C152 437.867 152.933 437.333 154 437.333C155.067 437.333 156 436.667 156 436C156 435.2 156.933 434.667 158 434.667C159.067 434.667 160 434 160 433.333C160 430.933 155.333 431.867 153.333 434.667Z" fill="black"/>
<path d="M99.7335 436.134C98.4001 437.601 98.0001 438.934 98.6668 439.334C100.533 440.401 104.667 436.134 103.2 434.801C102.533 434.268 100.933 434.801 99.7335 436.134Z" fill="black"/>
<path d="M437.333 435.999C437.333 436.665 438 437.332 438.667 437.332C439.467 437.332 440 436.665 440 435.999C440 435.199 439.467 434.665 438.667 434.665C438 434.665 437.333 435.199 437.333 435.999Z" fill="black"/>
<path d="M433.6 438.801C431.333 442.401 432.533 443.601 435.467 440.801C436.8 439.334 437.2 438.001 436.533 437.334C435.733 436.534 434.533 437.201 433.6 438.801Z" fill="black"/>
<path d="M57.4668 479.601C36.0002 501.201 18.6668 519.201 19.0668 519.601C19.7335 520.268 98.6668 442.001 98.6668 440.668C98.6668 438.535 93.0668 443.868 57.4668 479.601Z" fill="black"/>
<path d="M422.667 448C420.133 450.8 417.067 453.2 416 453.334C414.8 453.334 413.067 454.534 412 456C410.933 457.467 409.333 458.667 408.267 458.667C405.867 458.667 402.133 462.534 403.333 463.734C403.867 464.267 404.667 463.867 404.933 462.934C405.333 462.134 406.667 461.334 408.133 461.334C409.467 461.334 410.667 460.667 410.667 460C410.667 459.2 411.6 458.667 412.8 458.667C414 458.667 416.667 456.8 418.667 454.667C420.667 452.4 423.067 450.667 423.867 450.667C425.467 450.667 432 444.8 432 443.334C432 440.934 426.667 443.6 422.667 448Z" fill="black"/>
<path d="M128 454.132C128 455.599 131.867 458.666 133.867 458.666C135.067 458.666 136 459.199 136 459.999C136 460.666 137.2 461.332 138.667 461.332C140.133 461.332 141.333 461.866 141.333 462.666C141.333 463.332 142.533 463.999 144 463.999C145.467 463.999 146.667 464.532 146.667 465.332C146.667 465.999 147.867 466.666 149.333 466.666C150.8 466.666 152 467.199 152 467.999C152 468.666 153.867 469.332 156 469.332C158.267 469.332 160 469.866 160 470.666C160 471.332 161.2 471.999 162.667 471.999C164.133 471.999 165.333 472.532 165.333 473.332C165.333 473.999 166.533 474.666 168 474.666C169.467 474.666 170.667 475.332 170.667 476.266C170.667 477.066 170.933 477.466 171.333 477.066C172.8 475.599 170.267 471.999 167.867 471.999C166.533 471.999 165.333 471.332 165.333 470.666C165.333 469.866 164.133 469.332 162.667 469.332C161.2 469.332 160 468.666 160 467.999C160 467.199 158.267 466.666 156 466.666C153.867 466.666 152 465.999 152 465.332C152 464.532 150.8 463.999 149.333 463.999C147.867 463.999 146.667 463.332 146.667 462.666C146.667 461.866 145.467 461.332 144 461.332C142.533 461.332 141.333 460.666 141.333 459.999C141.333 459.199 140.267 458.666 138.933 458.666C137.6 458.666 135.733 457.466 134.667 455.999C132.933 453.599 128 452.132 128 454.132Z" fill="black"/>
<path d="M396.134 466.132C395.2 467.199 394.8 468.532 395.334 469.066C395.867 469.599 396.667 469.199 396.934 468.266C397.334 467.466 398.667 466.666 400.134 466.666C401.467 466.666 402.667 465.999 402.667 465.332C402.667 463.332 398.267 463.866 396.134 466.132Z" fill="black"/>
<path d="M391.066 468.933C389.066 469.6 388.8 472 390.533 472C391.2 472 392 471.067 392.533 470C392.933 468.933 393.066 468 392.933 468.133C392.8 468.133 391.866 468.533 391.066 468.933Z" fill="black"/>
<path d="M41.7335 471.332C39.7335 473.599 39.4668 477.332 41.3335 477.332C42.1335 477.332 42.6668 476.132 42.6668 474.665C42.6668 473.199 43.3335 471.999 44.0002 471.999C44.8002 471.999 45.3335 471.332 45.3335 470.665C45.3335 468.799 43.6002 469.065 41.7335 471.332Z" fill="black"/>
<path d="M384 473.332C384 473.999 382.8 474.665 381.333 474.665C379.867 474.665 378.667 475.199 378.667 475.999C378.667 476.665 377.467 477.332 376 477.332C374.533 477.332 373.333 477.865 373.333 478.665C373.333 479.332 372.133 479.999 370.667 479.999C369.2 479.999 368 480.532 368 481.332C368 481.999 366.8 482.665 365.333 482.665C363.867 482.665 362.667 483.199 362.667 483.999C362.667 484.665 363.867 485.332 365.333 485.332C366.8 485.332 368 484.665 368 483.999C368 483.199 369.2 482.665 370.667 482.665C372.133 482.665 373.333 481.999 373.333 481.332C373.333 480.532 374.533 479.999 376 479.999C377.467 479.999 378.667 479.332 378.667 478.665C378.667 477.865 379.867 477.332 381.333 477.332C382.8 477.332 384 476.665 384 475.999C384 475.199 385.2 474.665 386.8 474.665C388.267 474.665 389.067 473.999 388.667 473.332C388.267 472.532 386.933 471.999 385.867 471.999C384.8 471.999 384 472.532 384 473.332Z" fill="black"/>
<path d="M173.333 475.999C173.333 476.665 174.533 477.332 176 477.332C177.467 477.332 178.667 477.865 178.667 478.665C178.667 479.332 179.867 479.999 181.333 479.999C182.8 479.999 184 480.532 184 481.332C184 481.999 185.867 482.665 188 482.665C190.267 482.665 192 483.199 192 483.999C192 484.665 193.467 485.332 195.2 485.332C197.067 485.332 198.933 484.665 199.333 483.999C199.867 483.199 198.667 482.665 196.667 482.665C194.8 482.665 192 481.999 190.267 481.065C184 477.865 182.667 477.332 180.667 477.332C179.6 477.332 178.667 476.665 178.667 475.999C178.667 475.199 177.467 474.665 176 474.665C174.533 474.665 173.333 475.199 173.333 475.999Z" fill="black"/>
<path d="M37.3332 477.731C37.3332 478.931 36.7998 479.998 35.9998 479.998C35.3332 479.998 34.6665 481.198 34.6665 482.665C34.6665 486.398 36.3998 485.998 38.3998 481.731C39.4665 479.331 39.5998 477.731 38.6665 476.798C37.7332 475.865 37.3332 476.265 37.3332 477.731Z" fill="black"/>
<path d="M357.733 485.067C356 485.333 354.667 486.133 354.667 486.8C354.667 487.467 352.933 488 350.667 488C348.533 488 346.667 488.533 346.667 489.333C346.667 490 344.933 490.667 342.667 490.667C340.533 490.667 338.667 491.2 338.667 492C338.667 492.667 336.933 493.333 334.667 493.333C332.533 493.333 330.667 493.867 330.667 494.667C330.667 495.333 332.533 496 334.667 496C336.933 496 338.667 495.333 338.667 494.667C338.667 493.867 340.533 493.333 342.667 493.333C344.933 493.333 346.667 492.667 346.667 492C346.667 491.2 348.533 490.667 350.667 490.667C352.933 490.667 354.667 490 354.667 489.333C354.667 488.533 355.867 488 357.2 488C358.667 488 360.267 487.333 360.667 486.533C361.867 484.667 361.333 484.4 357.733 485.067Z" fill="black"/>
<path d="M31.0665 487.334C30.1332 488.4 29.3332 490.134 29.3332 491.2C29.3332 492.267 28.5332 493.334 27.7332 493.734C26.7999 494 26.3999 494.8 26.9332 495.334C28.1332 496.667 31.9999 492.8 31.9999 490.134C31.9999 488.934 32.6665 488 33.3332 488C34.1332 488 34.6666 487.334 34.6666 486.667C34.6666 484.8 32.9332 485.067 31.0665 487.334Z" fill="black"/>
<path d="M200 486.664C200 487.331 201.867 487.997 204 487.997C206.267 487.997 208 488.531 208 489.331C208 489.997 209.867 490.664 212 490.664C214.267 490.664 216 489.997 216 489.331C216 488.531 214.267 487.997 212 487.997C209.867 487.997 208 487.331 208 486.664C208 485.864 206.267 485.331 204 485.331C201.867 485.331 200 485.864 200 486.664Z" fill="black"/>
<path d="M216.667 491.999C216.133 492.799 217.6 493.332 219.867 493.332C222.133 493.332 224 492.665 224 491.999C224 491.199 222.533 490.665 220.8 490.665C218.933 490.665 217.067 491.199 216.667 491.999Z" fill="black"/>
<path d="M226.667 494.667C226.667 495.333 228.533 496 230.667 496C232.933 496 234.667 495.333 234.667 494.667C234.667 493.867 232.933 493.333 230.667 493.333C228.533 493.333 226.667 493.867 226.667 494.667Z" fill="black"/>
<path d="M236.666 494.667C237.066 495.333 237.733 496 238.133 496C238.4 496 238.666 495.333 238.666 494.667C238.666 493.867 238 493.333 237.2 493.333C236.533 493.333 236.266 493.867 236.666 494.667Z" fill="black"/>
<path d="M327.333 494.667C326.933 495.333 327.2 496 327.867 496C328.667 496 329.333 495.333 329.333 494.667C329.333 493.867 329.067 493.333 328.8 493.333C328.4 493.333 327.733 493.867 327.333 494.667Z" fill="black"/>
<path d="M24 498.132C24 499.332 22.1333 501.999 19.8666 504.132C17.4666 506.266 16 508.399 16.4 508.799C17.6 509.999 26.6666 500.399 26.6666 497.999C26.6666 496.932 26.1333 495.999 25.3333 495.999C24.6666 495.999 24 496.932 24 498.132Z" fill="black"/>
<path d="M240 497.332C240 498.132 243.6 498.666 248 498.666C253.2 498.666 256 499.199 256 500.266C256 501.066 256.267 501.466 256.667 501.066C257.067 500.666 257.067 499.332 256.533 498.132C255.867 496.532 253.867 495.999 247.867 495.999C243.467 495.999 240 496.532 240 497.332Z" fill="black"/>
<path d="M309.333 497.332C309.333 498.132 300 498.665 284 498.665C268 498.665 258.667 499.199 258.667 499.999C258.667 500.799 268 501.332 284 501.332C300 501.332 309.333 500.799 309.333 499.999C309.333 499.199 312.933 498.665 317.333 498.665C321.733 498.665 325.333 498.132 325.333 497.332C325.333 496.532 321.733 495.999 317.333 495.999C312.933 495.999 309.333 496.532 309.333 497.332Z" fill="black"/>
<path d="M12.1332 514.134C9.73321 516.934 11.3332 518.134 13.9999 515.6C15.0665 514.4 15.9999 513.2 15.9999 512.8C15.9999 511.334 13.9999 512.134 12.1332 514.134Z" fill="black"/>
<path d="M16 520.533C16 521.733 15.0667 522.666 13.8667 522.666C12.6667 522.666 10 524.399 8 526.666C6 528.799 3.33333 530.666 2.13333 530.666C0.933333 530.666 0 531.199 0 531.999C0 534.533 4.26667 533.333 7.73333 529.599C9.73333 527.599 12.9333 525.199 15.0667 524.133C18.8 522.133 19.6 520.666 17.3333 519.333C16.6667 518.933 16 519.466 16 520.533Z" fill="black"/>
</svg>
